<svg width="75" height="75" version="1.1" xmlns="http://www.w3.org/2000/svg" xmlns:xlink="http://www.w3.org/1999/xlink"><rect id="backgroundrect" width="100%" height="100%" x="0" y="0" fill="none" stroke="none"/>
    <!-- Generator: Sketch 3.8.3 (29802) - http://www.bohemiancoding.com/sketch -->
    <title>100Online</title>
    <desc>Created with Sketch.</desc>
    <defs/>
    
<g class="currentLayer" style=""><title>Layer 1</title><g id="Page-1" stroke="none" stroke-width="1" fill="url(#pattern)" fill-rule="evenodd" class="" fill-opacity="1">
        <g id="100Online" fill="#004b94" fill-opacity="1">
            <g id="Page-1" fill="#004b94" fill-opacity="1">
                <path d="M73.78565216064453,12.04240608215332 C64.13654327392578,4.536935806274414 52.00725555419922,0 38.89027786254883,0 C25.19807243347168,0 12.65742301940918,4.867998123168945 2.7586523294448853,12.94869327545166 C0.8591872751712799,14.517104148864746 0.6150174736976624,17.40424156188965 2.3462027311325073,19.217920303344727 L3.252490520477295,20.205595016479492 C4.82089638710022,21.85539436340332 7.458370208740234,22.019275665283203 9.190655708312988,20.618045806884766 C17.2757568359375,14.018861770629883 27.586977005004883,10.058256149291992 38.80448532104492,10.058256149291992 C49.61064910888672,10.058256149291992 59.590816497802734,13.770293235778809 67.51313018798828,19.87453269958496 C69.3257064819336,21.27576446533203 71.88619995117188,21.030494689941406 73.36880493164062,19.29930877685547 L74.27509307861328,18.310527801513672 C76.01068115234375,16.497955322265625 75.76651000976562,13.610816955566406 73.78565216064453,12.04240608215332 L73.78565216064453,12.04240608215332 L73.78565216064453,12.04240608215332 z" id="Fill-1" fill="#004b94" fill-opacity="1"/>
                <path d="M63.061981201171875,22.934364318847656 C56.213130950927734,18.06636619567871 47.88276290893555,15.179218292236328 38.89027786254883,15.179218292236328 C29.486440658569336,15.179218292236328 20.742525100708008,18.31493377685547 13.730891227722168,23.59097671508789 C11.668652534484863,25.159385681152344 11.3386869430542,28.127912521362305 13.15566635131836,30.02738380432129 L14.061952590942383,31.015058517456055 C15.630353927612305,32.66485595703125 18.105051040649414,32.828739166259766 19.917625427246094,31.508895874023438 C25.19807243347168,27.548290252685547 31.797256469726562,25.159385681152344 38.89027786254883,25.159385681152344 C45.7391242980957,25.159385681152344 52.088645935058594,27.303022384643555 57.20191192626953,31.015058517456055 C59.01448440551758,32.25240707397461 61.489173889160156,31.921344757080078 62.894798278808594,30.271547317504883 L63.71969985961914,29.283872604370117 C65.53667449951172,27.47130012512207 65.12422943115234,24.497262954711914 63.061981201171875,22.934364318847656 L63.061981201171875,22.934364318847656 L63.061981201171875,22.934364318847656 z" id="Fill-3" fill="#004b94" fill-opacity="1"/>
                <path d="M51.92586135864258,34.976768493652344 C48.13242721557617,32.66485595703125 43.67688751220703,31.346120834350586 38.89027786254883,31.346120834350586 C33.85950469970703,31.346120834350586 29.073989868164062,32.833133697509766 25.116683959960938,35.38922119140625 C22.804771423339844,36.87513732910156 22.392322540283203,40.00754165649414 24.210397720336914,41.98839569091797 L25.116683959960938,42.976078033447266 C26.516809463500977,44.46309280395508 28.82872200012207,44.87554168701172 30.559907913208008,43.71958923339844 C32.953208923339844,42.232566833496094 35.840354919433594,41.32627868652344 38.89027786254883,41.32627868652344 C41.69602584838867,41.32627868652344 44.3346061706543,42.06978988647461 46.645423889160156,43.388526916503906 C48.45909118652344,44.46309280395508 50.68851089477539,44.13203048706055 52.088645935058594,42.563629150390625 L52.996028900146484,41.57595443725586 C54.73160934448242,39.5950927734375 54.23777389526367,36.37689208984375 51.92586135864258,34.976768493652344 L51.92586135864258,34.976768493652344 L51.92586135864258,34.976768493652344 z" id="Fill-4" fill="#004b94" fill-opacity="1"/>
                <path d="M43.67688751220703,51.06227493286133 C43.67688751220703,57.76814651489258 33.615333557128906,57.76814651489258 33.615333557128906,51.06227493286133 C33.615333557128906,44.35090255737305 43.67688751220703,44.35090255737305 43.67688751220703,51.06227493286133 " id="Fill-5" fill="#004b94" fill-opacity="1"/>
            </g>
        </g>
    </g></g></svg>
