<?xml version="1.0" encoding="UTF-8" standalone="no"?>
<svg width="75px" height="75px" viewBox="0 0 75 75" version="1.1" xmlns="http://www.w3.org/2000/svg" xmlns:xlink="http://www.w3.org/1999/xlink">
    <!-- Generator: Sketch 3.8.3 (29802) - http://www.bohemiancoding.com/sketch -->
    <title>AcceleratedDegree</title>
    <desc>Created with Sketch.</desc>
    <defs></defs>
    <g id="Page-1" stroke="none" stroke-width="1" fill="none" fill-rule="evenodd">
        <g id="AcceleratedDegree">
            <g id="Page-1">
                <path d="M34.8051471,33.6793806 L41.1804899,47.5570328 C42.3062563,50.181821 40.4315791,52.8078093 37.8055908,52.8078093 L11.5517083,52.8078093" id="Stroke-1" stroke="#004b94" stroke-width="6.25"></path>
                <path d="M15.3022629,11.5517083 L30.6789369,7.42669828 C32.9304698,6.67538717 35.1796024,7.42669828 37.0554798,8.55126458 L51.6820429,19.4284731 C53.1822647,20.5530394 54.3080312,22.0532613 54.6824866,23.9291387 L55.4337977,28.0541487 C56.1827084,31.430248 59.1831521,34.0550361 62.934907,34.0550361 L75.3111372,34.0550361" id="Stroke-2" stroke="#004b94" stroke-width="6.25"></path>
                <path d="M52.433354,24.6780494 L38.9313573,35.555258 L38.9313573,51.6820429 L28.4298043,37.0554798 C26.1782713,34.0550361 26.5539269,29.5543706 29.5543706,26.9295824 L46.4324665,12.6762746 L52.8078093,17.1769402 L52.433354,24.6780494 Z" id="Fill-3" fill="#004b94"></path>
                <path d="M67.8100279,7.80115365 C67.8100279,11.9453665 64.4531315,15.3022629 60.3089186,15.3022629 C56.1647058,15.3022629 52.8078093,11.9453665 52.8078093,7.80115365 C52.8078093,3.6569408 56.1647058,0.300044371 60.3089186,0.300044371 C64.4531315,0.300044371 67.8100279,3.6569408 67.8100279,7.80115365" id="Fill-4" fill="#004b94"></path>
                <polygon id="Fill-5" fill="#004b94" points="22.4289168 75.3111372 37.0554798 60.3089186 26.5539269 60.3089186 16.0523739 71.184927"></polygon>
                <path d="M26.5539269,22.0532613 L30.6789369,19.0528176 L0.300044371,19.0528176 L0.300044371,22.8033722 L25.4293605,22.8033722 C25.8038159,22.4289168 26.1782713,22.4289168 26.5539269,22.0532613 L26.5539269,22.0532613 Z" id="Fill-6" fill="#000099"></path>
                <path d="M20.928695,34.0550361 L0.300044371,34.0550361 L0.300044371,37.8055908 L22.0532613,37.8055908 C21.3031504,36.6798243 21.3031504,35.1796024 20.928695,34.0550361 L20.928695,34.0550361 Z" id="Fill-7" fill="#004b94"></path>
                <path d="M22.4289168,26.5539269 L0.300044371,26.5539269 L0.300044371,30.3044815 L21.3031504,30.3044815 C21.3031504,28.8042596 22.0532613,27.6784932 22.4289168,26.5539269 L22.4289168,26.5539269 Z" id="Fill-8" fill="#004b94"></path>
            </g>
        </g>
    </g>
</svg>
