<svg width="75" height="75" version="1.1" xmlns="http://www.w3.org/2000/svg" xmlns:xlink="http://www.w3.org/1999/xlink"><rect id="backgroundrect" width="100%" height="100%" x="0" y="0" fill="none" stroke="none"/>
    <!-- Generator: Sketch 3.8.3 (29802) - http://www.bohemiancoding.com/sketch -->
    <title>Asynchronus</title>
    <desc>Created with Sketch.</desc>
    <defs/>
    
<g class="currentLayer" style=""><title>Layer 1</title><g id="Page-1" stroke="none" stroke-width="1" fill="#004b94" fill-rule="evenodd" class="selected" fill-opacity="1">
        <g id="Asynchronus" fill="#004b94" fill-opacity="1">
            <path d="M37.5,0 C16.801,0 0,16.801 0,37.5 C0,58.199 16.801,75 37.5,75 C58.199,75 75,58.199 75,37.5 C75,16.801 58.199,0 37.5,0 L37.5,0 Z M17.324,50.852 L17.324,23.852 L38.176,37.352 L17.324,50.852 Z M47.926,50.852 L41.926,50.852 L41.926,23.852 L47.926,23.852 L47.926,50.852 Z M57.676,50.852 L51.676,50.852 L51.676,23.852 L57.676,23.852 L57.676,50.852 Z" id="Page-1" fill="#004b94" fill-opacity="1"/>
        </g>
    </g></g></svg>
