<svg width="75" height="75" version="1.1" xmlns="http://www.w3.org/2000/svg" xmlns:xlink="http://www.w3.org/1999/xlink"><rect id="backgroundrect" width="100%" height="100%" x="0" y="0" fill="none" stroke="none"/>
    <!-- Generator: Sketch 3.8.3 (29802) - http://www.bohemiancoding.com/sketch -->
    <title>Concierge</title>
    <desc>Created with Sketch.</desc>
    <defs/>
    
<g class="currentLayer" style=""><title>Layer 1</title><g id="Page-1" stroke="none" stroke-width="1" fill="#000099" fill-rule="evenodd" class="selected" fill-opacity="1">
        <g id="Concierge" fill="#004b94" fill-opacity="1">
            <g id="Page-1" fill="#004b94" fill-opacity="1">
                <path d="M72.76190185546875,49.44677734375 L3.948179244995117,49.44677734375 C3.438375234603882,50.802520751953125 1.830532193183899,51.9789924621582 1.0980392172932625,52.45518112182617 L1.0980392172932625,59.173667907714844 L75.64985656738281,59.173667907714844 L75.64985656738281,52.471988677978516 C74.90055847167969,52.00700378417969 73.22689056396484,50.84173583984375 72.76190185546875,49.44677734375 L72.76190185546875,49.44677734375 z" id="Fill-1" fill="#004b94" fill-opacity="1"/>
                <polygon id="Fill-2" points="36.275909423828125,8.753500938415527 40.47759246826172,8.753500938415527 40.47759246826172,2.4509804248809814 36.275909423828125,2.4509804248809814 " fill="#004b94" fill-opacity="1"/>
                <path d="M44.13725662231445,4.551820755004883 L32.61064338684082,4.551820755004883 C31.4495792388916,4.551820755004883 30.509803771972656,3.6106443405151367 30.509803771972656,2.4509804248809814 C30.509803771972656,1.2913165092468262 31.4495792388916,0.3501400649547577 32.61064338684082,0.3501400649547577 L44.13725662231445,0.3501400649547577 C45.29691696166992,0.3501400649547577 46.238094329833984,1.2913165092468262 46.238094329833984,2.4509804248809814 C46.238094329833984,3.6106443405151367 45.29691696166992,4.551820755004883 44.13725662231445,4.551820755004883 L44.13725662231445,4.551820755004883 z" id="Fill-3" fill="#004b94" fill-opacity="1"/>
                <path d="M73.71288299560547,42.70588302612305 C72.84873962402344,42.2689094543457 71.8697509765625,41.436973571777344 71.78150939941406,41.06442642211914 C69.94397735595703,28.203081130981445 64.473388671875,11.078431129455566 38.37114715576172,11.078431129455566 C12.26890754699707,11.078431129455566 6.798319339752197,28.203081130981445 4.953781604766846,41.081233978271484 C4.872549057006836,41.44257736206055 3.882352828979492,42.2843132019043 3.0280110836029053,42.70588302612305 C2.152661085128784,43.13865661621094 1.6932772994041443,44.05181884765625 1.913165271282196,45.00419998168945 C2.1428571939468384,45.95518112182617 2.990196108818054,46.568626403808594 3.9691877365112305,46.568626403808594 L72.78291320800781,46.568626403808594 C73.76190185546875,46.568626403808594 74.60504150390625,45.95518112182617 74.82913208007812,45.009803771972656 C75.04762268066406,44.05742263793945 74.58263397216797,43.13865661621094 73.71288299560547,42.70588302612305 L73.71288299560547,42.70588302612305 zM26.630252838134766,22.616247177124023 C23.676469802856445,24.154062271118164 21.028011322021484,26.030813217163086 18.746498107910156,28.1862735748291 C18.34173583984375,28.568628311157227 17.822128295898438,28.7605037689209 17.302520751953125,28.7605037689209 C16.74369716644287,28.7605037689209 16.186274528503418,28.542016983032227 15.775910377502441,28.103641510009766 C14.977590560913086,27.261905670166016 15.015406608581543,25.93277359008789 15.858543395996094,25.133052825927734 C18.41876792907715,22.710084915161133 21.38935661315918,20.609243392944336 24.68767547607422,18.890756607055664 C25.717086791992188,18.354341506958008 26.985994338989258,18.754901885986328 27.522409439086914,19.782913208007812 C28.058822631835938,20.810924530029297 27.65826416015625,22.08123207092285 26.630252838134766,22.616247177124023 L26.630252838134766,22.616247177124023 z" id="Fill-4" fill="#004b94" fill-opacity="1"/>
            </g>
        </g>
    </g></g></svg>
