<?xml version="1.0" encoding="UTF-8" standalone="no"?>
<svg width="75px" height="75px" viewBox="0 0 75 75" version="1.1" xmlns="http://www.w3.org/2000/svg" xmlns:xlink="http://www.w3.org/1999/xlink">
    <!-- Generator: Sketch 3.8.3 (29802) - http://www.bohemiancoding.com/sketch -->
    <title>ExperientialLearning</title>
    <desc>Created with Sketch.</desc>
    <defs></defs>
    <g id="Page-1" stroke="none" stroke-width="1" fill="none" fill-rule="evenodd">
        <g id="ExperientialLearning" fill="#004b94">
            <path d="M39.2020398,29.0488357 C39.9954175,28.2566316 40.609229,28.168609 41.5763048,29.1368584 C41.7511765,29.3105565 42.0164182,29.5769718 42.3696825,29.8422134 C42.7229469,29.4889491 42.983494,29.315251 43.2499093,29.0488357 C48.618119,23.6806261 53.8994796,18.3124164 59.1808402,12.9395122 C59.8873689,12.2329835 60.5011803,11.3527568 60.9412937,10.47253 C64.4622008,4.13724453 63.0550116,5.63128276 68.9501837,2.11037569 C69.5651688,1.75828498 70.1836748,1.40502063 70.8855089,1.05645083 C71.1507506,0.969601793 71.4124714,0.790035532 71.6788867,0.790035532 C73.0860759,0.61633745 73.2644685,1.05645083 74.0531517,2.02352664 C74.6681368,2.81690437 74.5801141,3.6102821 74.0531517,4.49050887 C72.9076832,6.33781145 71.9394338,8.18511403 70.7986599,10.0371111 C70.3585465,10.7436398 69.7435614,11.3574513 69.1250554,11.7107156 C67.5383,12.6777915 65.7778464,13.5580182 64.1089365,14.525094 C63.581974,14.7915093 63.1418607,15.1400791 62.7017473,15.4933435 C57.0671223,20.8662477 51.6120636,26.4081554 46.1570049,31.8690823 C45.5420198,32.4828938 45.4504762,32.9230071 46.1570049,33.5426868 C46.949209,34.3348909 46.949209,35.1282686 46.1570049,35.9169518 L39.2020398,29.0488357 Z M35.9416799,47.4467488 C34.1812263,48.3269756 31.3668479,50.7024142 29.7800925,52.0227544 C27.0525631,54.3970194 24.6736036,57.2160923 23.2664144,60.5586068 C22.7382783,61.7052488 22.5598857,63.025589 22.2113159,64.3459292 C22.0376178,64.7860425 21.8580516,65.313005 21.5975044,65.5782466 C19.2220658,68.0452289 16.7562572,70.5075165 14.289275,72.9733251 C12.001859,75.173892 8.48095194,75.173892 6.19353597,72.9733251 C4.6983241,71.5661359 3.72655375,70.6859092 2.31936456,69.1871764 C0.118797633,66.9866095 0.031948592,63.5525514 2.14566647,61.2651355 C4.61147506,58.6244552 7.25215537,56.0706239 9.80129209,53.5167926 C9.97499017,53.3430945 10.3282545,53.1635283 10.5946698,53.0766792 C14.1155769,52.6365659 17.1095215,50.9629614 19.7502019,48.6755454 C22.5645802,46.3012804 26.1770309,42.427109 27.6722428,39.0799 L35.9416799,47.4467488 Z M17.3700687,64.4374727 C17.1963706,64.1710574 17.0168043,63.9105103 16.9299553,63.8224876 C16.5766909,63.8224876 16.2246002,63.9105103 15.9628795,64.0889029 C13.4958972,66.5547115 11.4748966,68.5768858 9.00791436,71.043868 C8.65465002,71.3959588 8.48095194,71.7492231 8.83421628,72.1893365 C9.27432967,72.6294499 9.62759401,72.4557518 9.97968472,72.0156384 C12.4466669,69.5486562 14.4688412,67.5276555 16.9346498,65.0606733 C17.0168043,64.9644352 17.1095215,64.7907371 17.3700687,64.4374727 L17.3700687,64.4374727 Z M68.9501837,75.000194 C67.4561455,74.9133449 66.3095034,74.1199672 65.2555785,73.1528914 C58.5670287,66.3716244 51.8784789,59.6830746 45.0972119,52.9076757 C38.6703828,46.479673 32.3339237,40.1443876 25.9070947,33.8079285 C22.5598857,30.4618931 18.5988652,27.8212128 14.1977314,26.0607593 C12.8773912,25.5326232 11.6439001,25.9727366 10.4115827,26.41285 C10.0583183,26.5008726 9.53135588,26.5877217 9.26494058,26.41285 C4.51054239,23.3320563 1.4297487,19.0189451 0.0225595064,13.4758637 C-0.0642895348,13.1225994 0.109408548,12.4207652 0.37582385,12.2423726 C0.641065516,12.0686745 1.25605062,12.2423726 1.60931496,12.4172443 C5.21707108,14.5297886 8.8248272,16.6435065 12.5241269,18.6656808 C14.1108824,19.5459075 14.1108824,19.5459075 15.0779582,17.9591521 C16.1330566,16.1118495 17.191676,14.351396 18.1587519,12.5040934 C18.773737,11.3574513 18.5988652,10.7436398 17.4533968,10.0371111 C13.8444671,7.92339327 10.2367109,5.81084902 6.62426027,3.6102821 C6.27099593,3.43541038 5.7440335,2.81690437 5.83088255,2.64203265 C6.00575426,2.20191927 6.44586765,1.76180589 6.79795836,1.67495684 C10.5852807,0.441465732 14.5463012,-0.259194776 18.5941707,0.0893750244 C25.4622868,0.703186491 30.390383,6.86477387 29.5970053,13.7328899 C28.9831938,18.8393788 30.5640811,22.975271 34.1730109,26.4961781 C47.2977788,39.7042742 60.2406332,52.6412604 73.2644685,65.6709639 C75.024922,67.4314174 75.4650354,69.6319843 74.4979596,71.7445286 C73.4440348,73.8535519 71.3303169,75.173892 68.9501837,75.000194 L68.9501837,75.000194 Z M22.4777312,20.3392853 L22.2113159,21.1314893 L27.3189784,22.8050938 L27.5842201,22.0117161 L22.4777312,20.3392853 Z M21.3310891,21.7464744 L21.0658475,22.5398522 L26.1723364,24.212283 L26.4387517,23.4200789 L21.3310891,21.7464744 Z M25.1184115,25.6206459 L25.3836532,24.8272681 L20.2771643,23.1536636 L20.010749,23.9470414 L25.1184115,25.6206459 Z M71.590864,71.652985 C72.5591134,70.6859092 72.4710908,68.747063 71.504015,67.6919645 C70.4500901,66.5464961 68.4232213,66.4584734 67.4561455,67.4267228 C66.4022206,68.4806477 66.4890696,70.4194939 67.5429945,71.4745923 C68.6027875,72.6200608 70.6237882,72.712778 71.590864,71.652985 L71.590864,71.652985 Z" id="Page-1"></path>
        </g>
    </g>
</svg>
