<?xml version="1.0" encoding="UTF-8" standalone="no"?>
<svg width="75px" height="75px" viewBox="0 0 75 75" version="1.1" xmlns="http://www.w3.org/2000/svg" xmlns:xlink="http://www.w3.org/1999/xlink">
    <!-- Generator: Sketch 3.8.3 (29802) - http://www.bohemiancoding.com/sketch -->
    <title>Falculty</title>
    <desc>Created with Sketch.</desc>
    <defs></defs>
    <g id="Page-1" stroke="none" stroke-width="1" fill="none" fill-rule="evenodd">
        <g id="Falculty" fill="#004b94">
            <g id="Page-1">
                <path d="M13.3113563,10.6334437 C13.3113563,15.6873281 17.4065906,19.7825625 22.4558906,19.7825625 C27.5109281,19.7825625 31.6050094,15.6873281 31.6050094,10.6334437 C31.6050094,5.58414375 27.5109281,1.48890937 22.4558906,1.48890937 C17.4065906,1.48890937 13.3113563,5.58414375 13.3113563,10.6334437" id="Fill-1"></path>
                <path d="M0.583634344,33.0969563 C0.964800938,32.4609188 1.6869525,31.4919281 2.1898125,30.9454313 L10.7694844,21.5804719 C11.2711969,21.0339844 11.6925469,20.9076938 11.7109219,20.9214656 C11.7292875,20.9352469 12.3481031,20.3967938 13.0874813,20.3967938 L31.9012219,20.3967938 C32.6405906,20.3967938 33.3041813,20.947875 33.3719156,20.944425 C33.4396594,20.9398406 33.9275906,21.2084906 34.4614594,21.7239844 L40.6324406,27.6263156 C41.1663,28.1418 41.6106094,28.518375 41.6197969,28.5091875 C41.6278313,28.5011531 41.6416031,28.4644125 41.6553844,28.4517844 C41.6645719,28.4380125 42.1215094,27.9672938 42.6415969,27.4334344 L52.4589094,17.4232406 C52.9789875,16.893975 53.8354688,16.8847875 54.3647344,17.4060188 L55.7688469,18.7825781 L73.1830688,0.547471875 C73.5688219,0.14334375 74.2094625,0.126121875 74.6135906,0.516478125 C75.0165656,0.90223125 75.0303469,1.54287188 74.6445844,1.947 L57.2177344,20.1993188 L58.2177188,21.1820813 C58.7469938,21.7021688 58.7550281,22.5586406 58.2349406,23.0879156 L48.4451813,33.0613688 C47.9251031,33.5906344 47.0858438,34.4654813 46.5749438,35.0085281 L45.6059625,36.0395063 C45.0996563,36.5779594 44.1892219,37.4608406 43.5795844,37.8913781 C43.5795844,37.8913781 42.9114,38.4792 41.8253063,38.4792 L41.7311625,38.4792 C40.6818,38.4792 40.0492031,37.9809281 40.0492031,37.9809281 C39.4257938,37.5779531 38.4797719,36.7834688 37.9459125,36.267975 L34.6187438,33.0211875 C34.0848844,32.5056938 33.6727219,32.6756063 33.6991219,33.4207219 L34.542975,57.0105094 C34.5785625,57.7452844 33.9907406,58.2837375 33.2513719,58.2837375 L11.6707313,58.2837375 C10.9302188,58.2837375 10.3423969,57.7407 10.36995,56.9967375 L10.593825,50.7982031 C10.6213875,50.058825 11.0737219,49.8889125 11.6029969,50.409 L12.9037875,51.6960094 C13.4330531,52.2160875 14.289525,52.2114938 14.8096125,51.6822281 L27.9942656,38.2633594 C28.5154969,37.7352375 28.5063188,36.8776125 27.9770531,36.357525 L18.8187375,27.3610969 C18.2894719,26.8410188 17.4284063,26.8501969 16.9129125,27.3794719 L12.1678594,32.2094813 C11.6477719,32.7387563 11.2218375,33.146325 11.2218375,33.1199156 C11.2218375,33.0889219 10.9531781,33.3621656 10.6259719,33.7249594 C10.2941719,34.0843125 10.0335563,34.3897031 10.0427438,34.3931531 C10.0519219,34.4023313 10.0691531,34.4207063 10.082925,34.4298938 C10.0966969,34.4379281 10.5811969,34.8684563 11.1368719,35.3621344 L16.6442625,40.2277406 C17.1999375,40.716825 17.2401188,41.5652625 16.7383969,42.11175 L13.0691063,46.0669219 C12.5628,46.6099688 11.6971406,46.6547438 11.1414656,46.1610656 L5.66507531,41.3264625 C5.10940031,40.8339281 4.19896594,40.0314188 3.64329094,39.5377406 L2.584755,38.5997531 C2.02792875,38.1072188 1.21164281,37.2186 0.768477938,36.6273281 C0.768477938,36.6273281 0.279393188,35.9717719 0.22083525,34.8914156 C0.162284344,33.7972969 0.583634344,33.0969563 0.583634344,33.0969563 L0.583634344,33.0969563 L0.583634344,33.0969563 Z" id="Fill-3"></path>
            </g>
        </g>
    </g>
</svg>
