<svg width="75" height="75" version="1.1" xmlns="http://www.w3.org/2000/svg" xmlns:xlink="http://www.w3.org/1999/xlink"><rect id="backgroundrect" width="100%" height="100%" x="0" y="0" fill="none" stroke="none"/>
    <!-- Generator: Sketch 3.8.3 (29802) - http://www.bohemiancoding.com/sketch -->
    <title>PriorLearningAssesment</title>
    <desc>Created with Sketch.</desc>
    <defs/>
    
<g class="currentLayer" style=""><title>Layer 1</title><g id="Page-1" stroke="none" stroke-width="1" fill="#004b94" fill-rule="evenodd" class="selected" fill-opacity="1">
        <g id="PriorLearningAssesment" fill="#000099" fill-opacity="1">
            <path d="M3.28900146484375,40.26100158691406 C3.6370010375976562,44.81999969482422 6.527000427246094,48.667999267578125 10.555000305175781,50.402000427246094 C15.472999572753906,53.30799865722656 18.40999984741211,58.19499969482422 19.30500030517578,64.05799865722656 L23.852001190185547,64.05799865722656 L23.852001190185547,50.457000732421875 C23.81999969482422,46.21799850463867 22.487998962402344,43.50400161743164 19.69499969482422,41.827999114990234 C18.672000885009766,41.237998962402344 17.742000579833984,40.566001892089844 16.952999114990234,39.81999969482422 C14.87900161743164,40.566001892089844 13.042999267578125,42.027000427246094 11.875,44.10499954223633 C11.632999420166016,44.51499938964844 11.19900131225586,44.74599838256836 10.765998840332031,44.74599838256836 C10.558998107910156,44.74599838256836 10.339996337890625,44.69499969482422 10.144996643066406,44.577999114990234 C9.523002624511719,44.237998962402344 9.301002502441406,43.46099853515625 9.648002624511719,42.84700012207031 C10.964996337890625,40.51900100708008 12.952999114990234,38.80400085449219 15.21099853515625,37.78099822998047 C14.05099868774414,36 13.40999984741211,33.87900161743164 13.437999725341797,31.332000732421875 C13.422000885009766,30.13599967956543 13.594001770019531,29.018999099731445 13.897998809814453,27.96500015258789 C11.24599838256836,27.457000732421875 8.905998229980469,26.113000869750977 7.183998107910156,24.21500015258789 C6.707000732421875,23.69099998474121 6.741996765136719,22.88599967956543 7.269996643066406,22.417999267578125 C7.792999267578125,21.94499969482422 8.58599853515625,21.988000869750977 9.055000305175781,22.5 C10.555000305175781,24.131999969482422 12.577999114990234,25.246000289916992 14.87900161743164,25.554000854492188 C16.727001190185547,22.128999710083008 20.16400146484375,19.69499969482422 24.19499969482422,19.253999710083008 C23.92599868774414,17.082000732421875 22.94900131225586,15.144000053405762 21.472999572753906,13.668000221252441 C20.987998962402344,13.17199993133545 20.987998962402344,12.366999626159668 21.472999572753906,11.878999710083008 C21.96900177001953,11.378999710083008 22.78499984741211,11.378999710083008 23.277000427246094,11.878999710083008 C25.16400146484375,13.765000343322754 26.42599868774414,16.288999557495117 26.742000579833984,19.097000122070312 C31.477001190185547,18.5 35.12099838256836,14.484000205993652 35.12900161743164,9.593000411987305 C35.12900161743164,8.89799976348877 35.702999114990234,8.319999694824219 36.387001037597656,8.319999694824219 C37.10499954223633,8.319999694824219 37.667999267578125,8.89799976348877 37.667999267578125,9.593000411987305 C37.667999267578125,10.42199993133545 37.58599853515625,11.206999778747559 37.43000030517578,11.984000205993652 C39.222999572753906,13.53499984741211 41.457000732421875,14.319999694824219 43.69099998474121,14.319999694824219 C44.792999267578125,14.319999694824219 45.902000427246094,14.125 46.94499969482422,13.746000289916992 C48.26199913024902,13.27299976348877 49.44099998474121,12.53499984741211 50.46500015258789,11.51099967956543 C50.952999114990234,11.015000343322754 51.766000747680664,11.015000343322754 52.26199913024902,11.51099967956543 C52.76199913024902,12.006999969482422 52.76199913024902,12.807999610900879 52.26199913024902,13.303999900817871 C51.21500015258789,14.347000122070312 50.03499984741211,15.156000137329102 48.777000427246094,15.741999626159668 C49.027000427246094,18.9060001373291 50.867000579833984,21.628999710083008 53.44099998474121,23.15999984741211 C54.93000030517578,20.902000427246094 57.16399955749512,19.113000869750977 59.91399955749512,18.238000869750977 C60.60200023651123,18.023000717163086 61.3120002746582,18.393999099731445 61.527000427246094,19.06599998474121 C61.71500015258789,19.733999252319336 61.375,20.44499969482422 60.69499969482422,20.6560001373291 C58.6560001373291,21.304000854492188 57.016000747680664,22.558000564575195 55.83600044250488,24.163999557495117 C56.62899971008301,24.378999710083008 57.44099998474121,24.492000579833984 58.30500030517578,24.492000579833984 C61.722999572753906,24.492000579833984 64.7229995727539,25.792999267578125 66.9060001373291,27.917999267578125 C67.42199993133545,28.4060001373291 67.43400001525879,29.21500015258789 66.92599964141846,29.711000442504883 C66.68400001525879,29.96500015258789 66.35200023651123,30.093000411987305 66.00399971008301,30.093000411987305 C65.71500015258789,30.093000411987305 65.39500045776367,29.972000122070312 65.14799976348877,29.733999252319336 C63.41800022125244,28.047000885009766 61.05900001525879,27.027000427246094 58.46100044250488,27.027000427246094 C52.19099998474121,27.027000427246094 47.108999252319336,22.472000122070312 46.3120002746582,16.56599998474121 C45.44099998474121,16.753999710083008 44.57399940490723,16.854999542236328 43.69099998474121,16.854999542236328 C41.207000732421875,16.854999542236328 38.702999114990234,16.086000442504883 36.59400177001953,14.557999610900879 C35.82400131225586,16.31599998474121 34.60499954223633,17.854999542236328 33.125,19.049999237060547 C34.632999420166016,20.90999984741211 35.52000045776367,23.113000869750977 35.75400161743164,25.371000289916992 C36.39099884033203,25.268999099731445 37.058998107910156,25.21500015258789 37.72700119018555,25.21500015258789 C39.64500045776367,25.21500015258789 41.59000015258789,25.672000885009766 43.402000427246094,26.63599967956543 C44.023000717163086,26.96500015258789 44.257999420166016,27.733999252319336 43.93000030517578,28.358999252319336 C43.69899940490723,28.7810001373291 43.25399971008301,29.027000427246094 42.797000885009766,29.027000427246094 C42.59000015258789,29.027000427246094 42.402000427246094,28.979999542236328 42.21900177001953,28.875 C40.762001037597656,28.113000869750977 39.23400115966797,27.75 37.72700119018555,27.75 C37.05500030517578,27.75 36.39099884033203,27.823999404907227 35.75400161743164,27.957000732421875 C35.47700119018555,30.5310001373291 34.362998962402344,33.047000885009766 32.452999114990234,35.04999923706055 C32.19900131225586,35.316001892089844 31.87099838256836,35.441001892089844 31.542999267578125,35.441001892089844 C31.229999542236328,35.441001892089844 30.90999984741211,35.32400131225586 30.65599822998047,35.09299850463867 C30.137001037597656,34.60499954223633 30.125,33.80799865722656 30.617000579833984,33.29999923706055 C32.32400131225586,31.503999710083008 33.222999572753906,29.218000411987305 33.28099822998047,26.90999984741211 L33.28099822998047,26.672000885009766 C33.28099822998047,24.429000854492188 32.50400161743164,22.21500015258789 30.972999572753906,20.433000564575195 C29.35900115966797,21.238000869750977 27.520000457763672,21.707000732421875 25.56999969482422,21.707000732421875 C20.257999420166016,21.72599983215332 15.987998962402344,25.988000869750977 15.969001770019531,31.26099967956543 C16.96900177001953,30.996000289916992 18,30.858999252319336 19.058998107910156,30.858999252319336 C20.56999969482422,30.858999252319336 22.104999542236328,31.13599967956543 23.582000732421875,31.746000289916992 C24.237998962402344,32.01499938964844 24.55099868774414,32.75 24.28499984741211,33.39799880981445 C24.01599884033203,34.047000885009766 23.28900146484375,34.362998962402344 22.637001037597656,34.09700012207031 C21.452999114990234,33.625 20.24599838256836,33.39400100708008 19.058998107910156,33.39400100708008 C18.102001190185547,33.39400100708008 17.147998809814453,33.53900146484375 16.257999420166016,33.816001892089844 C16.56999969482422,35.237998962402344 17.18000030517578,36.37900161743164 18.125,37.39400100708008 C18.19900131225586,37.457000732421875 18.26599884033203,37.53099822998047 18.31999969482422,37.617000579833984 C19.042999267578125,38.327999114990234 19.91400146484375,38.98400115966797 20.987998962402344,39.63600158691406 C24.66400146484375,41.78499984741211 26.43000030517578,45.67900085449219 26.39099884033203,50.44900131225586 L26.39099884033203,64.0469970703125 L30.727001190185547,64.0469970703125 L30.727001190185547,51.12099838256836 C30.727001190185547,46.37099838256836 33.702999114990234,41.867000579833984 37.452999114990234,40.26499938964844 C39.242000579833984,39.56999969482422 41.10900115966797,38.40599822998047 42.46900177001953,36.88600158691406 C44.4060001373291,38.202999114990234 46.733999252319336,38.97600173950195 49.233999252319336,38.97600173950195 C51.742000579833984,38.97600173950195 54.06999969482422,38.21500015258789 55.99600028991699,36.90599822998047 C57.91399955749512,38.167999267578125 60.22700023651123,38.902000427246094 62.69900035858154,38.902000427246094 C69.5,38.90599822998047 75,33.39400100708008 75,26.597000122070312 C75,21.518999099731445 71.9300000667572,17.15999984741211 67.5310001373291,15.28499984741211 C66.3439998626709,9.86299991607666 61.54300022125244,5.808000087738037 55.766000747680664,5.808000087738037 C55.457000732421875,5.808000087738037 55.17600059509277,5.835999965667725 54.891000747680664,5.85099983215332 C52.71500015258789,2.6679999828338623 49.05500030517578,0.5820000171661377 44.90999984741211,0.5820000171661377 C42.85499954223633,0.5820000171661377 40.93000030517578,1.093000054359436 39.237998962402344,2.003999948501587 C37.332000732421875,0.734000027179718 35.047000885009766,0 32.59000015258789,0 C29.433998107910156,0 26.558998107910156,1.2300000190734863 24.402000427246094,3.2300000190734863 C23.5,3.010999917984009 22.566001892089844,2.885999917984009 21.59000015258789,2.885999917984009 C16.71099853515625,2.885999917984009 12.49599838256836,5.820000171661377 10.612998962402344,10.027000427246094 C5.66400146484375,11.527000427246094 2.0589981079101562,16.121000289916992 2.0589981079101562,21.554000854492188 C2.0589981079101562,22.643999099731445 2.2030029296875,23.698999404907227 2.4729995727539062,24.698999404907227 C0.9300003051757812,26.72599983215332 0,29.256999969482422 0,32.00400161743164 C0,35.19900131225586 1.253997802734375,38.10100173950195 3.28900146484375,40.26100158691406 z" id="Page-1" fill="#004b94" fill-opacity="1"/>
        </g>
    </g></g></svg>
