<svg width="75" height="75" version="1.1" xmlns="http://www.w3.org/2000/svg" xmlns:xlink="http://www.w3.org/1999/xlink"><rect id="backgroundrect" width="100%" height="100%" x="0" y="0" fill="none" stroke="none"/>
    <!-- Generator: Sketch 3.8.3 (29802) - http://www.bohemiancoding.com/sketch -->
    <title>Synchronus</title>
    <desc>Created with Sketch.</desc>
    <defs/>
    
<g class="currentLayer" style=""><title>Layer 1</title><g id="Page-1" stroke="none" stroke-width="1" fill="#004b94" fill-rule="evenodd" class="selected" fill-opacity="1">
        <g id="Synchronus" fill="#004b94" fill-opacity="1">
            <path d="M37.5,0 C16.8048393,0 0,16.8048393 0,37.5 C0,58.1951607 16.8048393,75 37.5,75 C58.1951607,75 75,58.1951607 75,37.5 C75,16.8048393 58.1951607,0 37.5,0 L37.5,0 Z M35.6290477,3.40009595 C35.5717048,3.72503898 35.5233569,4.06797194 35.5233569,4.42777045 C35.5233569,6.36506057 36.4104851,7.93243284 37.5,7.93243284 C38.5895149,7.93243284 39.4766431,6.36506057 39.4766431,4.42777045 C39.4766431,4.06797194 39.4282952,3.72503898 39.3709523,3.40009595 C44.4699718,3.67219357 49.2620383,5.05966659 53.5222775,7.32639722 C53.1264992,7.75703106 52.7138552,8.3282112 52.3360668,8.98709223 C51.3702327,10.6646528 51.0228022,12.2680049 51.5456344,12.5704605 C52.0684667,12.8740405 53.2670455,11.7710332 54.234004,10.0934727 C54.6162899,9.43459163 54.9018799,8.78470556 55.0772817,8.22252039 C59.632106,10.9592378 63.4830745,14.7315004 66.3299802,19.2109918 C65.8858539,19.3830205 65.4203646,19.6157652 64.9323879,19.8968578 C63.2548273,20.8626919 62.1529444,22.0882556 62.4554,22.6110878 C62.75898,23.13392 64.3353472,22.760629 66.0129078,21.7936705 C66.5098795,21.5080805 66.9573789,21.2011274 67.3306698,20.8975474 C69.7817972,25.3028304 71.314314,30.2972835 71.5999041,35.6290477 C71.2659661,35.5717048 70.9151625,35.5233569 70.546369,35.5233569 C68.6090789,35.5233569 67.0405823,36.4104851 67.0405823,37.5 C67.0405823,38.5895149 68.6090789,39.4766431 70.546369,39.4766431 C70.9151625,39.4766431 71.2659661,39.4282952 71.5999041,39.3709523 C71.3233089,44.4924592 69.9043536,49.3013912 67.6207574,53.5751229 C67.2261034,53.2456824 66.7639872,52.9117444 66.2242894,52.6002938 C64.5467288,51.6333353 62.9433767,51.2600444 62.6397967,51.7828766 C62.3373411,52.3057088 63.439224,53.5042876 65.1167846,54.4712461 C65.6666017,54.7871942 66.210797,55.0334313 66.6987737,55.2088331 C63.9530613,59.732175 60.1807988,63.5584073 55.7091779,66.3828256 C55.5337761,65.8858539 55.2706734,65.3371612 54.9457304,64.774976 C53.9787719,63.0974154 52.7801931,61.9944081 52.2573609,62.2979881 C51.7345287,62.6004438 52.1078196,64.2037959 53.0747781,65.8813564 C53.4042186,66.4525366 53.7550222,66.9528814 54.1024526,67.3576547 C49.6971696,69.8076577 44.7027165,71.314314 39.3709523,71.5999041 C39.4237977,71.2884535 39.4766431,70.9680079 39.4766431,70.625075 C39.4766431,68.6877848 38.5895149,67.1204126 37.5,67.1204126 C36.4104851,67.1204126 35.5233569,68.6877848 35.5233569,70.625075 C35.5233569,70.9680079 35.5762023,71.2884535 35.6290477,71.5999041 C30.2613037,71.3098165 25.2421144,69.7817972 20.8188414,67.3048093 C21.1662719,66.900036 21.5170754,66.3996912 21.846516,65.828511 C22.8134745,64.1509505 23.1867654,62.5745832 22.6639332,62.2710032 C22.141101,61.9685476 20.9413978,63.0704306 19.9755637,64.7479911 C19.6506207,65.3101763 19.4133785,65.8599934 19.2379767,66.3558407 C14.7708533,63.5269249 11.0154563,59.6838271 8.2753658,55.1559876 C8.74985008,54.9805859 9.27605541,54.7478412 9.8033851,54.4442612 C11.4809457,53.4784271 12.583953,52.2798483 12.280373,51.7570161 C11.9779174,51.2341839 10.3745652,51.5804899 8.69700468,52.5474484 C8.17417246,52.8499041 7.71318062,53.1748471 7.32639722,53.496417 C5.07765651,49.2575408 3.68118853,44.4924592 3.40009595,39.4237977 C3.6103532,39.4451607 3.83522727,39.4766431 4.05897697,39.4766431 C5.99514272,39.4766431 7.53777884,38.5895149 7.53777884,37.5 C7.53777884,36.4104851 5.99514272,35.5233569 4.05897697,35.5233569 C3.83522727,35.5233569 3.6103532,35.5548393 3.40009595,35.5762023 C3.6901835,30.2972835 5.20021288,25.3466809 7.61648477,20.9773777 C7.98527824,21.2708383 8.42940453,21.5699208 8.90726193,21.846516 C10.5848225,22.8134745 12.1623141,23.1597805 12.4647697,22.6369483 C12.7683497,22.1141161 11.6653424,20.9155373 9.98778184,19.9497032 C9.51329755,19.6731081 9.05230571,19.4617264 8.61717438,19.2908221 C11.4505877,14.8012113 15.298183,11.0244513 19.8440124,8.2753658 C20.0194141,8.83305349 20.3095017,9.46494963 20.6872901,10.1193332 C21.6531243,11.7980181 22.8528274,12.8999011 23.3756596,12.5974454 C23.8973675,12.2938654 23.5510614,10.7174982 22.5841029,9.03993763 C22.2063145,8.38105661 21.7936705,7.80987647 21.3990166,7.37924262 C25.6806189,5.08665148 30.4951727,3.67669105 35.6290477,3.40009595 L35.6290477,3.40009595 Z M28.671444,18.3677141 L34.2325798,36.3137893 C34.1010284,36.6825828 33.9953376,37.0828586 33.9953376,37.5 C33.9953376,39.4327926 35.5672074,41.0046624 37.5,41.0046624 C39.260764,41.0046624 40.7100774,39.6958953 40.951817,38.0003448 L62.0866065,26.7217858 L39.3450917,34.5485278 C38.8481201,34.2370772 38.2769399,34.048183 37.6585362,34.0211981 L28.671444,18.3677141 Z" id="Page-1" fill="#004b94" fill-opacity="1"/>
        </g>
    </g></g></svg>
