<?xml version="1.0" encoding="UTF-8" standalone="no"?>
<svg width="75px" height="75px" viewBox="0 0 75 75" version="1.1" xmlns="http://www.w3.org/2000/svg" xmlns:xlink="http://www.w3.org/1999/xlink">
    <!-- Generator: Sketch 3.8.3 (29802) - http://www.bohemiancoding.com/sketch -->
    <title>Tutoring</title>
    <desc>Created with Sketch.</desc>
    <defs></defs>
    <g id="Page-1" stroke="none" stroke-width="1" fill="none" fill-rule="evenodd">
        <g id="Tutoring" fill="#004b94">
            <path d="M2.38860265,61.150351 C1.59240177,61.7055685 1.83232363,62.8998698 2.78670309,63.0622948 C6.1286236,63.5389537 11.8644548,63.6175122 17.118319,60.4327086 C23.0112671,63.7756907 29.9360916,65.6865729 37.5,65.6865729 C58.201223,65.6865729 75,50.9568565 75,32.8024148 C75,14.6511579 58.201223,0 37.5,0 C16.798777,0 0,14.7297163 0,32.8852197 C0,40.6901115 3.10624505,47.8559195 8.36010927,53.5078842 C7.40148341,56.1321623 5.65196467,59.0812903 2.38860265,61.150351 L2.38860265,61.150351 Z M28.3436898,22.7755917 C28.1865729,22.3774912 28.1027064,21.8997707 28.0241479,21.5016703 C27.7046059,19.9888886 27.6260474,18.6364087 28.0241479,17.3635489 C28.4222483,15.6129685 29.3766278,14.1787453 30.491309,13.0630025 C31.1303929,12.3453601 31.9265938,11.7115842 32.7227947,11.2306789 C33.3618786,10.7529583 34.074213,10.3548579 34.8704139,10.114936 C35.5094978,9.87395255 36.1443353,9.79539407 36.8609161,9.71683558 C39.0095969,9.558657 40.6848035,10.0363775 41.8791049,10.7529583 C43.6286236,11.7073378 44.346266,12.984444 44.346266,12.984444 C44.346266,12.984444 48.4058289,13.303986 47.0544106,21.5016703 C46.9758521,21.8997707 46.8972936,22.3774912 46.7348686,22.7755917 C47.5310695,22.6959716 48.485449,23.1736921 47.609628,26.3584956 C46.9716057,28.6674782 46.3367682,29.3023157 45.8601093,29.3851206 C45.4620088,32.1718237 43.2305232,35.5976107 39.8100442,36.8704705 C38.3747594,37.3471294 36.7823576,37.3471294 35.3523808,36.8704705 C31.8480353,35.6761692 29.6993545,32.1718237 29.3012541,29.3851206 C28.8245952,29.3851206 28.2651314,28.6674782 27.5517354,26.3584956 C26.5941711,23.1736921 27.547489,22.6917252 28.3436898,22.7755917 L28.3436898,22.7755917 Z M21.6545408,40.1295861 C26.5899247,38.8567263 30.5709291,36.0700232 30.5709291,36.0700232 L33.6761126,45.9439758 L34.2323916,47.7762994 L34.7090505,49.3687012 L36.3800108,44.671116 C32.3204479,39.0180897 37.1762116,39.0977098 37.4957536,39.0977098 C37.7367371,39.0977098 42.5925008,39.0180897 38.6114964,44.671116 L40.2824567,49.3687012 L40.7591156,47.7762994 L41.3153946,45.9439758 L44.4248245,36.0700232 C44.4248245,36.0700232 48.4058289,38.8567263 53.3412128,40.1295861 C57.0026752,41.0839656 57.1640386,45.3048919 57.0026752,47.3739526 C57.0026752,47.3739526 57.0026752,47.6934945 56.9241167,48.2497735 C52.068353,52.8688002 45.1382205,55.7340618 37.4171951,55.7340618 C29.6951081,55.7340618 22.7660373,52.8688002 17.9102735,48.2497735 C17.831715,47.772053 17.831715,47.3739526 17.831715,47.3739526 C17.7520949,45.3048919 17.9930784,41.088212 21.6545408,40.1295861 L21.6545408,40.1295861 Z" id="Page-1"></path>
        </g>
    </g>
</svg>
