<?xml version="1.0" standalone="no"?>
<!DOCTYPE svg PUBLIC "-//W3C//DTD SVG 1.1//EN" "http://www.w3.org/Graphics/SVG/1.1/DTD/svg11.dtd" >
<svg xmlns="http://www.w3.org/2000/svg" width="100%" height="100%">
<metadata>
Created by FontXChange 20110222 at Fri Aug  2 14:06:20 2013
 By James Beall
2004 T.26 Digital Type Foundry www.t26.com PSID#5134577 designer: Neil Summerour / Positype
</metadata>
<defs>
<font id="AauxProOT-Medium" horiz-adv-x="252" >
  <font-face 
    font-family="AauxProOT"
    font-weight="400"
    font-stretch="normal"
    units-per-em="1000"
    panose-1="2 0 6 6 3 0 0 2 0 4"
    ascent="775"
    descent="-225"
    x-height="487"
    cap-height="698"
    bbox="-100 -226 971 978"
    underline-thickness="60"
    underline-position="-75"
    stemh="83"
    stemv="85"
    unicode-range="U+0020-FB02"
  />
<missing-glyph horiz-adv-x="1000" 
 />
    <glyph glyph-name=".notdef" horiz-adv-x="1000" 
 />
    <glyph glyph-name="eth" unicode="&#xf0;" horiz-adv-x="565" 
d="M492 244c0 -47 -3 -111 -34 -163c-35 -58 -100 -90 -175 -90c-75 -1 -141 32 -175 90c-32 52 -35 116 -35 163c0 50 4 113 35 164c34 57 100 90 175 90c16 0 32 -2 47 -5l-23 53h-122v82h86l-54 122h89l54 -122h90v-82h-54l44 -92l22 -42c28 -52 30 -118 30 -168z
M407 244c0 44 -3 89 -22 120c-18 30 -54 49 -103 49c-48 0 -84 -19 -102 -49c-19 -31 -22 -76 -22 -120c0 -41 3 -88 22 -120c19 -30 55 -49 102 -49c49 0 85 19 103 49c19 33 22 79 22 120z" />
    <glyph glyph-name="Lslash" unicode="&#x141;" horiz-adv-x="542" 
d="M499 0h-414l-1 245l-36 -16v90l36 16v363h88v-325l161 71v-91l-161 -70v-197h327v-86z" />
    <glyph glyph-name="lslash" unicode="&#x142;" horiz-adv-x="295" 
d="M247 332l-69 -32v-175c0 -32 3 -41 43 -41v-84c-88 0 -124 43 -124 125v136l-49 -23v90l49 23v347h81v-308l69 33v-91z" />
    <glyph glyph-name="Scaron" unicode="&#x160;" horiz-adv-x="618" 
d="M469 921l-116 -146h-103l-115 146h104l63 -103l63 103h104zM573 201c0 -38 -10 -72 -31 -106c-47 -76 -137 -106 -220 -106c-138 0 -249 60 -277 217l87 15c11 -65 36 -104 83 -125c32 -14 62 -20 107 -20c57 0 117 19 145 64c13 20 18 40 18 61c0 47 -23 74 -67 95
c-13 6 -46 18 -129 38c-107 25 -144 48 -166 68c-33 31 -50 72 -50 119c0 52 23 98 64 133c40 34 95 49 165 49c97 0 186 -31 235 -119c5 -8 8 -16 20 -39l-80 -37c-22 46 -35 67 -66 85c-24 13 -58 23 -109 23c-53 0 -87 -10 -108 -27c-22 -19 -33 -42 -33 -68
c0 -25 10 -48 30 -62c26 -18 88 -34 119 -41c70 -17 119 -31 147 -44c72 -35 116 -91 116 -173z" />
    <glyph glyph-name="scaron" unicode="&#x161;" horiz-adv-x="466" 
d="M405 679l-115 -146h-103l-115 146h103l63 -103l63 103h104zM426 142c0 -27 -8 -52 -23 -76c-36 -55 -102 -75 -162 -75c-93 0 -174 37 -201 142l83 15c12 -34 25 -52 48 -63c20 -9 40 -12 70 -12c36 0 73 11 90 37c8 11 11 21 11 32c0 25 -13 44 -39 56
c-8 4 -31 11 -87 24c-76 17 -103 33 -120 48c-26 22 -39 53 -39 87c0 39 17 75 49 100c30 24 71 35 121 35c68 0 134 -20 172 -83l8 -16l-75 -37c-11 19 -19 30 -34 39c-15 8 -36 14 -71 14s-56 -6 -67 -15c-13 -11 -19 -24 -19 -37c0 -11 4 -20 12 -27c8 -6 32 -16 82 -28
c49 -11 83 -20 103 -29c53 -24 88 -70 88 -131z" />
    <glyph glyph-name="Yacute" unicode="&#xdd;" horiz-adv-x="599" 
d="M410 921l-105 -146h-73l83 146h95zM574 698l-231 -466v-232h-87v234l-231 464h98l177 -356l176 356h98z" />
    <glyph glyph-name="yacute" unicode="&#xfd;" horiz-adv-x="484" 
d="M347 691l-105 -146h-73l84 146h94zM465 487l-224 -602c-8 -21 -20 -47 -44 -69c-26 -24 -61 -36 -98 -36h-38l1 84c32 0 54 -2 71 9c11 7 20 19 28 41l34 87l-176 486h91l130 -365l134 365h91z" />
    <glyph glyph-name="Thorn" unicode="&#xde;" horiz-adv-x="670" 
d="M607 360c0 -71 -30 -133 -84 -167c-48 -29 -106 -33 -153 -33h-174v-160h-88v698h88v-139h174c47 1 105 -3 153 -33c55 -33 84 -95 84 -166zM519 360c0 44 -17 77 -43 93c-27 17 -67 20 -106 20h-174v-226h174c39 0 79 3 106 20c26 16 43 48 43 93z" />
    <glyph glyph-name="thorn" unicode="&#xfe;" horiz-adv-x="554" 
d="M496 247c1 -48 -2 -112 -32 -165c-33 -58 -95 -91 -168 -91c-40 0 -77 10 -108 29v-240h-85v918h85v-225c31 19 68 29 108 29c73 0 135 -33 168 -91c29 -51 32 -114 32 -164zM412 246c0 45 -4 91 -22 123c-17 29 -50 48 -94 48s-77 -18 -94 -48c-8 -15 -12 -32 -14 -52
v-142c2 -19 6 -37 14 -51c17 -30 50 -48 94 -48s77 19 94 48c19 33 22 81 22 122z" />
    <glyph glyph-name="Zcaron" unicode="&#x17d;" horiz-adv-x="591" 
d="M465 921l-115 -146h-103l-115 146h104l63 -103l63 103h103zM536 0h-491v69l375 543h-340v86h456v-73l-373 -539h373v-86z" />
    <glyph glyph-name="zcaron" unicode="&#x17e;" horiz-adv-x="466" 
d="M405 679l-115 -146h-103l-115 146h103l63 -103l63 103h104zM421 0h-381v74l264 331h-241v82h358v-71l-266 -334h266v-82z" />
    <glyph glyph-name="onehalf" unicode="&#xbd;" horiz-adv-x="824" 
d="M763 0h-263v55c21 57 27 67 95 140c68 74 91 103 91 122c0 29 -26 40 -49 40c-29 0 -45 -17 -67 -59l-68 35c33 61 71 99 135 99c59 0 125 -38 125 -115c0 -51 -30 -84 -108 -163c-27 -26 -48 -55 -61 -79h170v-75zM581 698l-316 -698h-77l315 698h78zM214 274h-74v324
l-57 -35l-37 65l125 76h43v-430z" />
    <glyph glyph-name="onequarter" unicode="&#xbc;" horiz-adv-x="786" 
d="M719 100h-26v-100h-77v100h-165v60l172 271h90l-162 -255h65v94l77 -15v-79h26v-76zM581 698l-316 -698h-77l315 698h78zM214 274h-74v324l-57 -35l-37 65l125 76h43v-430z" />
    <glyph glyph-name="onesuperior" unicode="&#xb9;" horiz-adv-x="302" 
d="M214 274h-74v324l-57 -35l-37 65l125 76h43v-430z" />
    <glyph glyph-name="threequarters" unicode="&#xbe;" horiz-adv-x="867" 
d="M783 100h-27v-100h-76v100h-165v60l171 271h84l-160 -255h70v94l76 -15v-79h27v-76zM644 698l-315 -698h-77l315 698h77zM318 403c0 -72 -59 -131 -132 -131c-57 0 -108 36 -126 90l-1 3l73 25l1 -5c8 -23 29 -38 53 -38c30 0 55 25 55 56c0 32 -25 57 -55 57h-30v75h26
c30 0 52 22 52 48c0 25 -22 47 -52 47c-23 0 -42 -13 -49 -33l-2 -5l-72 25l2 5c17 50 66 84 121 84c71 0 129 -55 129 -123c0 -32 -13 -62 -35 -84c26 -25 42 -59 42 -96z" />
    <glyph glyph-name="threesuperior" unicode="&#xb3;" horiz-adv-x="376" 
d="M318 403c0 -72 -59 -131 -132 -131c-57 0 -108 36 -126 90l-1 3l73 25l1 -5c8 -23 29 -38 53 -38c30 0 55 25 55 56c0 32 -25 57 -55 57h-30v75h26c30 0 52 22 52 48c0 25 -22 47 -52 47c-23 0 -42 -13 -49 -33l-2 -5l-72 25l2 5c17 50 66 84 121 84
c71 0 129 -55 129 -123c0 -32 -13 -62 -35 -84c26 -25 42 -59 42 -96z" />
    <glyph glyph-name="twosuperior" unicode="&#xb2;" horiz-adv-x="379" 
d="M316 274h-263v55c21 56 27 67 95 140c69 73 91 102 91 121c0 30 -26 40 -49 40c-29 0 -44 -17 -67 -59l-67 35c32 61 70 99 134 99c60 0 126 -38 126 -115c0 -50 -31 -83 -109 -162c-26 -27 -48 -56 -61 -79h170v-75z" />
    <glyph glyph-name="brokenbar" unicode="&#xa6;" horiz-adv-x="357" 
d="M220 389h-77v386h77v-386zM220 -76h-77v386h77v-386z" />
    <glyph glyph-name="minus" unicode="&#x2212;" horiz-adv-x="520" 
d="M467 238h-414v71h414v-71z" />
    <glyph glyph-name="multiply" unicode="&#xd7;" horiz-adv-x="481" 
d="M419 152l-57 -57l-122 122l-121 -122l-57 57l121 122l-121 121l57 57l121 -121l122 121l57 -57l-122 -121z" />
    <glyph glyph-name="space" unicode=" " horiz-adv-x="280" 
 />
    <glyph glyph-name="exclam" unicode="!" horiz-adv-x="295" 
d="M202 698v-334l-5 -198h-79l-5 198v334h89zM215 49c0 -31 -26 -57 -58 -57c-31 0 -57 26 -57 57c0 32 26 58 57 58c32 0 58 -26 58 -58z" />
    <glyph glyph-name="quotedbl" unicode="&#x22;" horiz-adv-x="361" 
d="M301 547h-86v148c0 23 19 43 43 43s43 -20 43 -43v-148zM146 547h-86v148c0 23 19 43 43 43s43 -20 43 -43v-148z" />
    <glyph glyph-name="numbersign" unicode="#" horiz-adv-x="715" 
d="M660 496l-18 -81h-121l-28 -132h121l-17 -81h-122l-44 -202h-82l44 202h-134l-44 -202h-82l43 202h-121l17 81h122l28 132h-121l17 81h122l43 202h83l-44 -202h134l44 202h82l-43 -202h121zM438 415h-133l-29 -132h134z" />
    <glyph glyph-name="dollar" unicode="$" horiz-adv-x="528" 
d="M486 228c0 -104 -84 -164 -175 -175v-53h-79v54c-86 10 -166 58 -185 166l78 21c12 -64 53 -99 107 -108v201c-79 19 -164 48 -164 153c0 97 83 144 164 153v58h79v-59c76 -11 126 -51 163 -131l-72 -33c-23 49 -48 74 -91 83v-161c87 -21 175 -55 175 -169zM232 416v144
c-44 -7 -84 -28 -84 -73s47 -61 84 -71zM406 228c0 55 -45 75 -95 88v-183c51 9 95 40 95 95z" />
    <glyph glyph-name="percent" unicode="%" horiz-adv-x="788" 
d="M733 186c0 -57 -8 -94 -29 -128c-26 -44 -69 -68 -120 -68s-94 24 -121 68c-21 34 -28 71 -28 128c0 58 7 95 28 129c27 44 70 68 121 68s94 -24 120 -68c21 -34 29 -71 29 -129zM591 698l-314 -698h-80l314 698h80zM353 511c0 -57 -7 -94 -28 -129
c-27 -43 -70 -68 -121 -68s-94 25 -121 68c-20 35 -28 72 -28 129s7 94 28 129c27 43 70 68 121 68s94 -25 121 -68c21 -35 28 -72 28 -129zM664 186c0 48 -6 72 -19 94c-14 23 -35 34 -61 34c-27 0 -48 -11 -62 -34c-13 -22 -18 -46 -18 -94c0 -47 5 -71 18 -93
c14 -23 35 -35 62 -35c26 0 47 12 61 35c13 22 19 46 19 93zM284 511c0 48 -5 72 -19 93c-14 23 -34 35 -61 35c-26 0 -47 -12 -61 -35c-13 -21 -19 -45 -19 -93s6 -72 19 -93c14 -23 35 -35 61 -35c27 0 47 12 62 35c13 21 18 45 18 93z" />
    <glyph glyph-name="ampersand" unicode="&#x26;" horiz-adv-x="645" 
d="M596 65l-44 -74c-32 24 -59 47 -81 66c-55 -48 -132 -67 -202 -67c-118 0 -233 67 -233 200c0 98 53 159 131 208c-29 45 -56 97 -56 155c0 87 62 152 152 152s146 -62 146 -147c0 -90 -60 -140 -123 -180c53 -69 110 -135 172 -195c20 42 28 89 28 154h86
c0 -83 -13 -154 -49 -213c20 -17 45 -37 73 -59zM323 558c0 40 -20 63 -60 63c-41 0 -66 -27 -66 -68c0 -36 19 -77 42 -111c48 32 84 64 84 116zM406 116c-70 67 -133 139 -190 215c-61 -39 -94 -74 -94 -141c0 -73 70 -118 147 -118c49 0 99 15 137 44z" />
    <glyph glyph-name="quotesingle" unicode="'" horiz-adv-x="206" 
d="M146 547h-86v148c0 23 19 43 43 43s43 -20 43 -43v-148z" />
    <glyph glyph-name="parenleft" unicode="(" horiz-adv-x="343" 
d="M303 0h-111c-91 89 -142 222 -142 349c0 126 52 261 142 349h111c-114 -92 -168 -223 -168 -349c0 -125 54 -257 168 -349z" />
    <glyph glyph-name="parenright" unicode=")" horiz-adv-x="343" 
d="M293 349c0 -127 -51 -260 -142 -349h-111c114 92 168 224 168 349c0 126 -54 257 -168 349h111c90 -88 142 -223 142 -349z" />
    <glyph glyph-name="asterisk" unicode="*" horiz-adv-x="448" 
d="M403 552l-127 -37l81 -106l-58 -42l-75 110l-75 -110l-58 42l82 106l-128 37l22 68l125 -45l-3 133h71l-4 -133l125 45z" />
    <glyph glyph-name="plus" unicode="+" horiz-adv-x="511" 
d="M466 238h-175v-175h-71v175h-175v71h175v175h71v-175h175v-71z" />
    <glyph glyph-name="comma" unicode="," horiz-adv-x="235" 
d="M170 -14l-81 -126h-24v176c0 28 24 50 52 50c29 0 53 -22 53 -50v-50z" />
    <glyph glyph-name="hyphen" unicode="-" horiz-adv-x="407" 
d="M342 238h-277v71h277v-71z" />
    <glyph glyph-name="period" unicode="." 
d="M187 52c0 -33 -27 -60 -61 -60s-61 27 -61 60c0 34 27 61 61 61s61 -27 61 -61z" />
    <glyph glyph-name="slash" unicode="/" horiz-adv-x="416" 
d="M411 774l-320 -850h-86l320 850h86z" />
    <glyph glyph-name="zero" unicode="0" horiz-adv-x="585" 
d="M535 349c0 -158 -48 -356 -242 -356c-195 0 -243 198 -243 356s48 354 243 354c194 0 242 -196 242 -354zM450 349c0 104 -20 273 -157 273c-138 0 -157 -169 -157 -273c0 -103 19 -275 157 -275c137 0 157 172 157 275z" />
    <glyph glyph-name="one" unicode="1" horiz-adv-x="392" 
d="M262 0h-87v581l-101 -69l-44 67l177 119h55v-698z" />
    <glyph glyph-name="two" unicode="2" horiz-adv-x="557" 
d="M507 0h-457v72c39 99 102 190 187 255c65 49 165 82 165 179c0 75 -65 118 -135 118c-67 0 -112 -36 -138 -96l-75 35c38 89 115 143 213 143c120 0 222 -75 222 -201c0 -146 -101 -169 -199 -244c-57 -44 -113 -111 -141 -178h358v-83z" />
    <glyph glyph-name="three" unicode="3" horiz-adv-x="537" 
d="M487 201c0 -128 -99 -208 -225 -208c-105 0 -184 45 -222 159l81 25c25 -73 78 -102 142 -102c78 0 137 51 137 126c0 85 -60 132 -168 131v63c100 0 153 40 153 117c0 64 -61 113 -127 113c-54 0 -105 -27 -129 -94l-77 31c41 101 109 144 206 144
c117 0 211 -77 211 -194c0 -58 -25 -118 -78 -145c65 -32 96 -99 96 -166z" />
    <glyph glyph-name="four" unicode="4" horiz-adv-x="550" 
d="M510 173h-67v-173h-85v173h-328v68l298 457h94l-288 -444h224v278l85 -16v-262h67v-81z" />
    <glyph glyph-name="five" unicode="5" horiz-adv-x="542" 
d="M502 238c0 -144 -90 -245 -237 -245c-104 0 -181 47 -215 152l80 30c21 -64 69 -100 136 -100c99 0 150 68 150 163c0 93 -49 159 -147 159c-46 0 -89 -17 -123 -49h-71v350h382v-81h-299v-171c35 21 72 32 110 32c147 0 234 -96 234 -240z" />
    <glyph glyph-name="six" unicode="6" horiz-adv-x="548" 
d="M508 215c0 -126 -97 -221 -223 -221c-144 0 -235 106 -235 238c0 196 95 355 253 465l119 1c-119 -85 -214 -163 -261 -294c37 31 80 42 125 42c134 0 222 -102 222 -231zM425 215c0 83 -55 149 -139 149c-91 0 -147 -52 -147 -145c0 -79 70 -144 147 -144
c79 0 139 61 139 140z" />
    <glyph glyph-name="seven" unicode="7" horiz-adv-x="499" 
d="M469 626c-121 -128 -227 -312 -219 -626h-89c-3 309 97 485 196 615h-245v-48h-82v131h439v-72z" />
    <glyph glyph-name="eight" unicode="8" horiz-adv-x="538" 
d="M498 203c0 -131 -104 -210 -229 -210s-229 79 -229 210c0 68 31 128 90 164c-46 33 -72 87 -72 143c0 117 99 194 211 194s210 -77 210 -194c0 -56 -26 -110 -71 -143c59 -35 90 -96 90 -164zM393 510c0 67 -60 112 -124 112s-124 -45 -124 -112c0 -75 55 -110 124 -110
c70 0 124 35 124 110zM411 203c0 84 -61 132 -142 132s-143 -47 -143 -132c0 -79 68 -128 143 -128c74 0 142 49 142 128z" />
    <glyph glyph-name="nine" unicode="9" horiz-adv-x="534" 
d="M489 458c2 -188 -93 -344 -253 -458h-113c159 122 215 198 260 304c-36 -27 -75 -42 -121 -42c-129 0 -222 99 -222 222c0 120 93 221 220 221c148 0 227 -117 229 -247zM400 484c0 80 -63 139 -141 139c-77 0 -135 -64 -135 -139s58 -140 135 -140c81 0 141 62 141 140z
" />
    <glyph glyph-name="colon" unicode=":" 
d="M187 341c0 -34 -27 -61 -61 -61s-61 27 -61 61c0 33 27 61 61 61s61 -28 61 -61zM187 52c0 -33 -27 -60 -61 -60s-61 27 -61 60c0 34 27 61 61 61s61 -27 61 -61z" />
    <glyph glyph-name="semicolon" unicode=";" 
d="M187 341c0 -34 -27 -61 -61 -61s-61 27 -61 61c0 33 27 61 61 61s61 -28 61 -61zM178 -14l-81 -126h-24v176c0 28 24 50 53 50c28 0 52 -22 52 -50v-50z" />
    <glyph glyph-name="less" unicode="&#x3c;" horiz-adv-x="480" 
d="M430 0h-110l-270 349l270 349h110l-270 -349z" />
    <glyph glyph-name="equal" unicode="=" horiz-adv-x="521" 
d="M466 315h-411v69h411v-69zM466 116h-411v70h411v-70z" />
    <glyph glyph-name="greater" unicode="&#x3e;" horiz-adv-x="480" 
d="M430 349l-270 -349h-110l270 349l-270 349h110z" />
    <glyph glyph-name="question" unicode="?" horiz-adv-x="488" 
d="M451 518c0 -77 -46 -117 -88 -142c-48 -28 -74 -47 -77 -108l-4 -94h-64s-9 69 -9 95c0 98 46 132 89 159c37 23 70 38 70 90c0 66 -51 105 -118 105c-64 0 -124 -38 -123 -120h-81c0 134 100 203 204 203c107 0 201 -72 201 -188zM308 49c0 -32 -26 -57 -57 -57
c-32 0 -58 25 -58 57s26 57 58 57c31 0 57 -25 57 -57z" />
    <glyph glyph-name="at" unicode="@" horiz-adv-x="715" 
d="M630 274l-17 -277l-83 5l4 65c-57 -64 -133 -97 -203 -71c-104 37 -133 178 -83 310c30 79 86 145 150 174c59 27 121 20 165 -21c-9 65 -38 130 -99 152c-93 34 -225 -55 -287 -219c-50 -134 -32 -265 42 -332l-46 -69c-114 91 -136 264 -74 430c73 193 247 321 394 267
c55 -20 98 -62 125 -120c38 -83 41 -190 12 -294zM526 372c-7 15 -19 32 -38 39s-40 1 -55 -5c-42 -20 -83 -67 -107 -129c-12 -33 -18 -65 -18 -95c0 -58 22 -98 52 -109c46 -17 124 34 161 133c24 62 24 124 5 166z" />
    <glyph glyph-name="A" unicode="A" horiz-adv-x="655" 
d="M645 0h-95l-79 202h-288l-78 -202h-95l273 698h89zM439 286l-112 284l-111 -284h223z" />
    <glyph glyph-name="B" unicode="B" horiz-adv-x="629" 
d="M574 199c0 -66 -26 -130 -84 -166c-46 -28 -101 -33 -153 -33h-262v698h244c51 0 104 -5 148 -32c56 -34 81 -97 81 -161c0 -52 -17 -104 -56 -141c57 -36 82 -99 82 -165zM461 505c0 93 -65 107 -142 107h-156v-213h156c77 0 142 14 142 106zM486 199
c0 98 -67 114 -149 114h-174v-227h174c82 0 149 16 149 113z" />
    <glyph glyph-name="C" unicode="C" horiz-adv-x="602" 
d="M557 581l-68 -55c-47 55 -85 94 -162 94c-159 0 -194 -141 -194 -271s35 -271 194 -271c77 0 115 39 162 94l67 -55c-65 -78 -123 -126 -229 -126c-93 0 -175 42 -226 120c-48 72 -56 154 -56 238s8 166 56 238c51 78 133 120 226 120c106 0 164 -48 230 -126z" />
    <glyph glyph-name="D" unicode="D" horiz-adv-x="639" 
d="M584 349c0 -51 -1 -105 -8 -155c-24 -166 -138 -194 -286 -194h-215v698h215c148 0 262 -28 286 -194c7 -50 8 -104 8 -155zM496 349c0 47 0 97 -7 144c-17 116 -100 119 -199 119h-127v-525h127c99 0 182 2 199 118c7 47 7 97 7 144z" />
    <glyph glyph-name="E" unicode="E" horiz-adv-x="579" 
d="M529 0h-454v698h454v-86h-367v-212h321v-80h-321v-234h367v-86z" />
    <glyph glyph-name="F" unicode="F" horiz-adv-x="559" 
d="M519 612h-357v-211h320v-81h-320v-320h-87v698h444v-86z" />
    <glyph glyph-name="G" unicode="G" horiz-adv-x="635" 
d="M570 380l-1 -380h-79v72c-41 -65 -93 -81 -167 -81c-208 0 -278 180 -278 358c0 182 72 358 282 358c105 0 166 -49 230 -126l-67 -55c-46 55 -86 94 -163 94c-158 0 -194 -140 -194 -271c0 -127 35 -271 190 -271c124 0 158 114 158 218h-173v84h262z" />
    <glyph glyph-name="H" unicode="H" horiz-adv-x="664" 
d="M589 0h-88v320h-338v-320h-88v698h88v-295h338v295h88v-698z" />
    <glyph glyph-name="I" unicode="I" horiz-adv-x="251" 
d="M171 0h-91v698h91v-698z" />
    <glyph glyph-name="J" unicode="J" horiz-adv-x="526" 
d="M461 218c0 -45 -5 -102 -40 -148c-39 -50 -108 -77 -186 -77c-79 0 -150 32 -188 89c-12 18 -21 39 -32 80l84 22c10 -34 15 -45 21 -55c20 -29 61 -50 115 -49c56 0 97 17 116 42c19 24 22 59 22 96v480h88v-480z" />
    <glyph glyph-name="K" unicode="K" horiz-adv-x="579" 
d="M564 0h-103l-298 350v-350h-88v698h88v-344l257 344h96l-259 -346z" />
    <glyph glyph-name="L" unicode="L" horiz-adv-x="503" 
d="M488 0h-413v698h87v-612h326v-86z" />
    <glyph glyph-name="M" unicode="M" horiz-adv-x="738" 
d="M663 0h-88v450l-168 -450h-77l-167 447v-447h-88v698h73l221 -567l211 567h83v-698z" />
    <glyph glyph-name="N" unicode="N" horiz-adv-x="640" 
d="M565 0h-83l-319 523v-523h-88v698h83l320 -523v523h87v-698z" />
    <glyph glyph-name="O" unicode="O" horiz-adv-x="656" 
d="M611 349c0 -84 -8 -166 -56 -238c-52 -79 -133 -120 -227 -120s-175 41 -227 120c-48 72 -56 154 -56 238s8 166 56 238c52 79 133 120 227 120s175 -41 227 -120c48 -72 56 -153 56 -238zM523 349c0 66 -4 135 -42 191c-36 54 -88 80 -153 80s-117 -26 -153 -80
c-38 -56 -42 -125 -42 -191s4 -135 42 -191c36 -54 88 -80 153 -80s117 26 153 80c38 56 42 125 42 191z" />
    <glyph glyph-name="P" unicode="P" horiz-adv-x="604" 
d="M574 499c0 -72 -30 -133 -84 -167c-48 -29 -106 -33 -153 -33h-174v-299h-88v698h262c47 0 105 -3 153 -33c55 -34 84 -95 84 -166zM486 499c0 44 -17 77 -43 93c-27 17 -67 20 -106 20h-174v-227h174c39 0 79 4 106 21c26 15 43 48 43 93z" />
    <glyph glyph-name="Q" unicode="Q" horiz-adv-x="680" 
d="M640 0h-114l-32 38c-44 -31 -98 -47 -156 -47c-95 0 -176 43 -227 120c-41 62 -56 130 -56 238s15 176 56 238c51 77 132 120 227 120s177 -43 227 -120c41 -62 56 -130 56 -238c0 -88 -8 -175 -64 -250zM533 349c0 95 -12 146 -42 191c-34 53 -86 80 -153 80
c-66 0 -119 -27 -153 -80c-30 -45 -42 -96 -42 -191s12 -146 42 -191c34 -53 87 -80 153 -80c38 0 70 9 98 26c-22 20 -52 38 -117 44v86c95 -7 145 -37 178 -68c32 54 36 117 36 183z" />
    <glyph glyph-name="R" unicode="R" horiz-adv-x="608" 
d="M576 0h-98l-150 257c-19 32 -36 49 -75 49h-91v-306h-86v698h243c129 0 231 -55 231 -196c0 -96 -61 -178 -159 -195c7 -8 13 -16 19 -25zM464 502c0 92 -66 111 -145 111h-157v-232h160c82 0 142 31 142 121z" />
    <glyph glyph-name="S" unicode="S" horiz-adv-x="618" 
d="M573 203c0 -138 -125 -212 -251 -212c-146 0 -250 67 -277 217l87 15c19 -109 84 -145 190 -145c76 0 163 37 163 125c0 187 -412 68 -412 320c0 129 116 182 229 182c127 0 200 -44 255 -158l-80 -37c-40 84 -81 108 -175 108c-62 0 -141 -18 -141 -95
c0 -155 412 -53 412 -320z" />
    <glyph glyph-name="T" unicode="T" horiz-adv-x="554" 
d="M534 612h-213v-612h-88v612h-213v86h514v-86z" />
    <glyph glyph-name="U" unicode="U" horiz-adv-x="654" 
d="M584 293c0 -172 -62 -302 -257 -302s-257 130 -257 302v405h88v-405c0 -120 25 -217 169 -217s169 97 169 217v405h88v-405z" />
    <glyph glyph-name="V" unicode="V" horiz-adv-x="587" 
d="M562 698l-229 -698h-79l-229 698h92l176 -538l176 538h93z" />
    <glyph glyph-name="W" unicode="W" horiz-adv-x="785" 
d="M760 698l-168 -698h-82l-117 490l-118 -490h-82l-168 698h91l118 -497l118 497h81l118 -497l118 497h91z" />
    <glyph glyph-name="X" unicode="X" horiz-adv-x="620" 
d="M595 0h-105l-180 279l-181 -279h-104l233 360l-219 338h104l167 -258l167 258h104l-219 -338z" />
    <glyph glyph-name="Y" unicode="Y" horiz-adv-x="599" 
d="M574 698l-231 -466v-232h-87v234l-231 464h98l177 -356l176 356h98z" />
    <glyph glyph-name="Z" unicode="Z" horiz-adv-x="591" 
d="M536 0h-491v69l375 543h-340v86h456v-73l-373 -539h373v-86z" />
    <glyph glyph-name="bracketleft" unicode="[" horiz-adv-x="294" 
d="M244 -76h-174v850h174v-53h-92v-744h92v-53z" />
    <glyph glyph-name="backslash" unicode="\" horiz-adv-x="416" 
d="M411 -76h-86l-320 850h86z" />
    <glyph glyph-name="bracketright" unicode="]" horiz-adv-x="294" 
d="M224 -76h-174v53h92v744h-92v53h174v-850z" />
    <glyph glyph-name="asciicircum" unicode="^" horiz-adv-x="551" 
d="M496 411l-71 -39l-149 234l-149 -234l-72 39l183 287h75z" />
    <glyph glyph-name="underscore" unicode="_" horiz-adv-x="529" 
d="M514 -74h-499v74h499v-74z" />
    <glyph glyph-name="grave" unicode="`" horiz-adv-x="328" 
d="M253 545h-73l-105 146h94z" />
    <glyph glyph-name="a" unicode="a" horiz-adv-x="478" 
d="M433 12l-79 -24l-11 36c-40 -24 -86 -34 -131 -34c-84 0 -167 59 -167 150c0 95 79 150 167 150h82c16 0 29 3 40 11v45c0 45 -47 68 -91 68c-50 0 -90 -18 -107 -76l-76 29c29 95 101 128 185 128s172 -54 172 -149v-282zM334 112v105c-11 -4 -24 -5 -34 -5h-89
c-42 0 -83 -30 -83 -72s42 -70 84 -70c49 0 86 11 122 42z" />
    <glyph glyph-name="b" unicode="b" horiz-adv-x="506" 
d="M461 243c0 -129 -42 -252 -199 -252c-41 0 -78 8 -109 32v-23h-83v698h83v-240c33 27 65 37 109 37c157 0 199 -123 199 -252zM379 243c0 90 -16 170 -117 170c-60 0 -109 -36 -109 -98v-145c0 -61 49 -97 109 -97c100 0 117 80 117 170z" />
    <glyph glyph-name="c" unicode="c" horiz-adv-x="490" 
d="M445 80c-54 -58 -97 -88 -179 -88c-148 0 -221 114 -221 251c0 138 73 252 221 252c82 0 125 -31 179 -89l-62 -55c-35 38 -63 64 -117 64c-105 0 -133 -82 -133 -172s28 -172 133 -172c54 0 82 26 117 65z" />
    <glyph glyph-name="d" unicode="d" horiz-adv-x="513" 
d="M453 12l-79 -24l-11 38c-33 -24 -67 -35 -118 -35c-157 0 -200 123 -200 252s43 253 200 253c50 0 76 -6 109 -31v233h83v-634zM354 172v147c0 53 -49 94 -109 94c-101 0 -117 -80 -117 -170s16 -170 117 -170c60 0 109 33 109 99z" />
    <glyph glyph-name="e" unicode="e" horiz-adv-x="493" 
d="M448 262l-1 -50h-319c4 -89 44 -139 137 -139c44 0 87 16 120 58l58 -57c-49 -60 -110 -82 -178 -82c-159 0 -220 101 -220 249c0 139 58 252 211 252c138 0 193 -104 192 -231zM364 293c-3 70 -36 120 -108 120c-77 0 -117 -44 -125 -120h233z" />
    <glyph glyph-name="f" unicode="f" horiz-adv-x="306" 
d="M286 698v-84c-43 0 -70 -9 -86 -28c-19 -21 -24 -55 -24 -99h95v-73h-95v-414h-82v414h-44v73h44c0 41 3 95 29 137c31 49 83 74 163 74z" />
    <glyph glyph-name="g" unicode="g" horiz-adv-x="510" 
d="M475 -7c0 -117 -125 -180 -228 -180c-87 0 -202 29 -202 136c0 18 4 36 9 52l77 -27c-2 -6 -4 -13 -4 -20c0 -59 76 -66 120 -66c57 0 147 35 147 103c0 28 -28 43 -53 43c-54 0 -105 -25 -159 -25c-52 0 -101 28 -101 84c0 39 21 69 50 92c-46 32 -62 85 -62 138
c0 110 74 172 181 172c43 0 87 -10 121 -36c16 8 16 34 15 50h81c1 -41 -10 -91 -48 -113c8 -23 11 -48 11 -73c0 -115 -70 -169 -180 -169c-16 0 -31 1 -47 4c-20 -14 -44 -37 -44 -64c0 -10 10 -15 19 -15c56 0 107 28 163 28c68 0 134 -40 134 -114zM347 323
c0 65 -34 93 -97 93s-99 -28 -99 -93c0 -64 38 -97 100 -97c65 0 96 31 96 97z" />
    <glyph glyph-name="h" unicode="h" horiz-adv-x="521" 
d="M461 0h-82v282c0 84 -25 132 -117 132c-64 0 -109 -50 -109 -114v-300h-83v698h83v-241c30 26 70 39 109 39c137 0 199 -74 199 -209v-287z" />
    <glyph glyph-name="i" unicode="i" horiz-adv-x="232" 
d="M167 655c0 -28 -23 -51 -51 -51s-51 23 -51 51s23 51 51 51s51 -23 51 -51zM157 0h-83v487h83v-487z" />
    <glyph glyph-name="j" unicode="j" horiz-adv-x="254" 
d="M184 655c0 -28 -23 -51 -51 -51s-51 23 -51 51s23 51 51 51s51 -23 51 -51zM175 -13c0 -134 -56 -207 -195 -207v81c93 0 112 41 112 126v500h83v-500z" />
    <glyph glyph-name="k" unicode="k" horiz-adv-x="479" 
d="M469 0h-112l-204 254v-254h-83v698h83v-419l176 208h110l-190 -219z" />
    <glyph glyph-name="l" unicode="l" horiz-adv-x="226" 
d="M191 0c-85 0 -121 41 -121 125v573h81v-573c0 -31 8 -41 40 -41v-84z" />
    <glyph glyph-name="m" unicode="m" horiz-adv-x="785" 
d="M725 0h-84v296c0 65 -34 117 -103 117c-64 0 -99 -56 -99 -117v-296h-83v296c0 66 -36 117 -105 117c-55 0 -97 -52 -97 -113v-300h-84v487h84v-28c27 22 62 37 97 37c57 0 112 -25 146 -71c34 43 85 71 141 71c118 0 187 -91 187 -200v-296z" />
    <glyph glyph-name="n" unicode="n" horiz-adv-x="521" 
d="M461 0h-82v279c0 88 -25 132 -117 132c-64 0 -109 -50 -109 -114v-297h-83v487h83v-35c30 26 70 43 109 43c137 0 199 -80 199 -211v-284z" />
    <glyph glyph-name="o" unicode="o" horiz-adv-x="507" 
d="M462 243c0 -140 -48 -250 -208 -250s-209 109 -209 249c0 142 49 252 209 252c159 0 208 -111 208 -251zM379 242c0 95 -20 171 -126 171c-105 0 -125 -76 -125 -171c0 -94 20 -168 125 -168c106 0 126 74 126 168z" />
    <glyph glyph-name="p" unicode="p" horiz-adv-x="506" 
d="M461 239c0 -134 -45 -250 -199 -250c-38 0 -78 6 -109 28v-237h-83v707h83v-28c33 26 67 36 109 36c155 0 199 -121 199 -256zM379 240c0 84 -13 170 -117 170c-59 0 -109 -39 -109 -101v-138c0 -62 50 -99 109 -99c104 0 117 83 117 168z" />
    <glyph glyph-name="q" unicode="q" horiz-adv-x="514" 
d="M454 470l-16 -52v-638h-83v239c-32 -20 -71 -30 -109 -30c-161 0 -201 121 -201 252c0 128 44 253 201 253c41 0 83 -13 118 -38l11 38zM355 172v139c0 61 -50 100 -109 100c-101 0 -117 -80 -117 -170c0 -91 15 -169 117 -169c60 0 109 38 109 100z" />
    <glyph glyph-name="r" unicode="r" horiz-adv-x="386" 
d="M356 465l-35 -71c-23 13 -44 18 -63 18c-56 0 -107 -32 -107 -90v-322h-81v487h81v-25c31 25 66 34 107 34c28 0 71 -7 98 -31z" />
    <glyph glyph-name="s" unicode="s" horiz-adv-x="466" 
d="M426 142c0 -101 -95 -151 -185 -151c-99 0 -176 41 -201 142l83 15c21 -61 56 -75 118 -75c42 0 101 18 101 69c0 116 -285 41 -285 218c0 96 87 135 170 135c79 0 143 -29 180 -102l-75 -37c-24 45 -56 56 -105 56c-34 0 -86 -7 -86 -52c0 -84 285 -25 285 -218z" />
    <glyph glyph-name="t" unicode="t" horiz-adv-x="291" 
d="M246 413h-72v-289c0 -32 17 -40 39 -40h22v-84h-23c-85 0 -119 46 -119 124v289h-63v75h63v138h81v-138h72v-75z" />
    <glyph glyph-name="u" unicode="u" horiz-adv-x="516" 
d="M451 0h-82v25c-32 -22 -72 -34 -109 -34c-139 0 -200 73 -200 215v281h83v-277c0 -90 24 -138 117 -138c57 0 109 36 109 95v320h82v-487z" />
    <glyph glyph-name="v" unicode="v" horiz-adv-x="486" 
d="M466 487l-185 -487h-77l-184 487h91l132 -350l132 350h91z" />
    <glyph glyph-name="w" unicode="w" horiz-adv-x="766" 
d="M746 487l-160 -487h-78l-126 344l-127 -344h-78l-157 487h90l109 -338l124 338h77l124 -339l111 339h91z" />
    <glyph glyph-name="x" unicode="x" horiz-adv-x="491" 
d="M471 0h-103l-123 177l-122 -177h-103l174 250l-164 237h102l113 -159l113 159h103l-164 -237z" />
    <glyph glyph-name="y" unicode="y" horiz-adv-x="485" 
d="M465 487l-223 -602c-8 -21 -20 -47 -44 -69c-26 -24 -62 -36 -98 -36h-38v84c32 0 54 -2 72 9c11 7 19 19 28 41l33 87l-175 486h91l130 -365l133 365h91z" />
    <glyph glyph-name="z" unicode="z" horiz-adv-x="466" 
d="M421 0h-381v74l264 331h-241v82h358v-71l-266 -334h266v-82z" />
    <glyph glyph-name="braceleft" unicode="{" horiz-adv-x="334" 
d="M303 -76c-127 0 -193 59 -193 187c0 39 15 75 15 113c0 66 -28 93 -94 92v66c66 -1 94 26 94 92c0 36 -15 71 -15 107c0 133 58 194 193 194v-77c-90 0 -107 -44 -107 -125c0 -33 16 -64 16 -97c0 -47 -18 -98 -57 -127c39 -28 57 -79 57 -126c0 -34 -16 -66 -16 -101
c0 -77 23 -120 107 -120v-78z" />
    <glyph glyph-name="bar" unicode="|" horiz-adv-x="276" 
d="M181 -76h-86v850h86v-850z" />
    <glyph glyph-name="braceright" unicode="}" horiz-adv-x="334" 
d="M303 316c-66 1 -94 -26 -94 -92c0 -38 15 -74 15 -113c0 -128 -66 -187 -193 -187v78c83 0 107 43 107 120c0 35 -17 67 -17 101c0 47 18 98 57 126c-39 29 -56 80 -56 127c0 33 15 64 15 97c0 81 -16 125 -106 125v77c135 0 192 -61 192 -194c0 -36 -14 -71 -14 -107
c0 -66 28 -93 94 -92v-66z" />
    <glyph glyph-name="asciitilde" unicode="~" horiz-adv-x="509" 
d="M459 295c-34 -37 -71 -72 -124 -72c-72 0 -110 64 -164 64c-28 0 -48 -27 -62 -47l-59 53c32 38 69 73 123 73c72 0 110 -64 164 -64c28 0 49 28 65 48z" />
    <glyph glyph-name="Adieresis" unicode="&#xc4;" horiz-adv-x="655" 
d="M486 831c0 -31 -25 -56 -56 -56s-56 25 -56 56s25 56 56 56s56 -25 56 -56zM279 831c0 -31 -25 -56 -56 -56s-56 25 -56 56s25 56 56 56s56 -25 56 -56zM645 0h-95l-79 202h-288l-78 -202h-95l273 698h89zM439 286l-112 284l-111 -284h223z" />
    <glyph glyph-name="Aring" unicode="&#xc5;" horiz-adv-x="655" 
d="M444 861c0 -64 -52 -116 -117 -116c-64 0 -116 52 -116 116s52 117 116 117c65 0 117 -53 117 -117zM645 0h-95l-79 202h-288l-78 -202h-95l273 698h89zM377 861c0 28 -22 50 -50 50c-27 0 -50 -22 -50 -50s23 -50 50 -50c28 0 50 22 50 50zM439 286l-112 284l-111 -284
h223z" />
    <glyph glyph-name="Ccedilla" unicode="&#xc7;" horiz-adv-x="602" 
d="M557 581l-68 -55c-65 77 -100 94 -162 94c-66 0 -118 -27 -152 -80c-30 -45 -42 -96 -42 -191s12 -146 42 -191c34 -53 86 -80 152 -80c62 0 97 17 162 94l67 -55c-65 -77 -115 -112 -181 -122l22 -62l-68 -129h-96l90 132l-21 56c-84 7 -155 49 -201 119
c-41 62 -56 130 -56 238s15 176 56 238c50 77 131 120 226 120c92 0 149 -31 230 -126z" />
    <glyph glyph-name="Eacute" unicode="&#xc9;" horiz-adv-x="579" 
d="M419 921l-105 -146h-73l84 146h94zM529 0h-454v698h454v-86h-367v-206h321v-86h-321v-234h367v-86z" />
    <glyph glyph-name="Ntilde" unicode="&#xd1;" horiz-adv-x="640" 
d="M507 817c-31 -33 -64 -66 -113 -66c-64 0 -98 58 -147 58c-25 0 -44 -24 -57 -43l-52 49c28 34 62 66 110 66c65 0 100 -58 148 -58c26 0 45 25 60 43zM565 0h-83l-319 523v-523h-88v698h83l320 -523v523h87v-698z" />
    <glyph glyph-name="Odieresis" unicode="&#xd6;" horiz-adv-x="656" 
d="M486 831c0 -31 -25 -56 -56 -56s-56 25 -56 56s25 56 56 56s56 -25 56 -56zM279 831c0 -31 -26 -56 -56 -56c-31 0 -56 25 -56 56s25 56 56 56c30 0 56 -25 56 -56zM611 349c0 -108 -15 -176 -56 -238c-50 -77 -132 -120 -227 -120s-176 43 -227 120
c-41 62 -56 130 -56 238s15 176 56 238c51 77 132 120 227 120s177 -43 227 -120c41 -62 56 -130 56 -238zM523 349c0 95 -12 146 -42 191c-34 53 -87 80 -153 80s-119 -27 -153 -80c-30 -45 -42 -96 -42 -191s12 -146 42 -191c34 -53 87 -80 153 -80s119 27 153 80
c30 45 42 96 42 191z" />
    <glyph glyph-name="Udieresis" unicode="&#xdc;" horiz-adv-x="654" 
d="M489 831c0 -31 -25 -56 -56 -56s-56 25 -56 56s25 56 56 56s56 -25 56 -56zM282 831c0 -31 -26 -56 -56 -56c-31 0 -56 25 -56 56s25 56 56 56c30 0 56 -25 56 -56zM584 303c0 -63 -5 -140 -42 -202c-43 -70 -122 -109 -215 -110c-93 0 -172 39 -214 110
c-38 62 -43 139 -43 202v395h88v-395c0 -56 4 -115 30 -158c25 -41 75 -67 139 -67s114 26 139 67c26 43 30 102 30 158v395h88v-395z" />
    <glyph glyph-name="aacute" unicode="&#xe1;" horiz-adv-x="488" 
d="M360 691l-105 -146h-73l83 146h95zM433 12l-79 -24l-11 36c-40 -24 -86 -34 -131 -34c-84 0 -167 59 -167 150c0 95 79 150 167 150h82c16 0 29 3 40 11v45c0 45 -47 68 -91 68c-50 0 -90 -18 -107 -76l-76 29c29 95 101 128 185 128s172 -54 172 -149v-282zM334 112v105
c-11 -4 -24 -5 -34 -5h-89c-42 0 -83 -30 -83 -72s42 -70 84 -70c49 0 86 11 122 42z" />
    <glyph glyph-name="agrave" unicode="&#xe0;" horiz-adv-x="488" 
d="M314 545h-73l-105 146h94zM433 12l-79 -24l-11 36c-40 -24 -86 -34 -131 -34c-84 0 -167 59 -167 150c0 95 79 150 167 150h82c16 0 29 3 40 11v45c0 45 -47 68 -91 68c-50 0 -90 -18 -107 -76l-76 29c29 95 101 128 185 128s172 -54 172 -149v-282zM334 112v105
c-11 -4 -24 -5 -34 -5h-89c-42 0 -83 -30 -83 -72s42 -70 84 -70c49 0 86 11 122 42z" />
    <glyph glyph-name="acircumflex" unicode="&#xe2;" horiz-adv-x="488" 
d="M410 533h-104l-63 103l-63 -103h-103l115 146h103zM433 12l-79 -24l-11 36c-40 -24 -86 -34 -131 -34c-84 0 -167 59 -167 150c0 95 79 150 167 150h82c16 0 29 3 40 11v45c0 45 -47 68 -91 68c-50 0 -90 -18 -107 -76l-76 29c29 95 101 128 185 128s172 -54 172 -149
v-282zM334 112v105c-11 -4 -24 -5 -34 -5h-89c-42 0 -83 -30 -83 -72s42 -70 84 -70c49 0 86 11 122 42z" />
    <glyph glyph-name="adieresis" unicode="&#xe4;" horiz-adv-x="488" 
d="M404 598c0 -31 -25 -56 -56 -56s-56 25 -56 56s25 56 56 56s56 -25 56 -56zM197 598c0 -31 -25 -56 -56 -56s-56 25 -56 56s25 56 56 56s56 -25 56 -56zM433 12l-79 -24l-11 36c-40 -24 -86 -34 -131 -34c-84 0 -167 59 -167 150c0 95 79 150 167 150h82c16 0 29 3 40 11
v45c0 45 -47 68 -91 68c-50 0 -90 -18 -107 -76l-76 29c29 95 101 128 185 128s172 -54 172 -149v-282zM334 112v105c-11 -4 -24 -5 -34 -5h-89c-42 0 -83 -30 -83 -72s42 -70 84 -70c49 0 86 11 122 42z" />
    <glyph glyph-name="atilde" unicode="&#xe3;" horiz-adv-x="488" 
d="M420 595c-31 -37 -62 -67 -114 -67c-67 0 -84 51 -130 51c-27 0 -40 -20 -55 -41l-56 45c29 38 61 68 112 68c62 0 88 -51 131 -51c27 0 44 22 58 42zM433 12l-79 -24l-11 36c-40 -24 -86 -34 -131 -34c-84 0 -167 59 -167 150c0 95 79 150 167 150h82c16 0 29 3 40 11
v45c0 45 -47 68 -91 68c-50 0 -90 -18 -107 -76l-76 29c29 95 101 128 185 128s172 -54 172 -149v-282zM334 112v105c-11 -4 -24 -5 -34 -5h-89c-42 0 -83 -30 -83 -72s42 -70 84 -70c49 0 86 11 122 42z" />
    <glyph glyph-name="aring" unicode="&#xe5;" horiz-adv-x="488" 
d="M368 649c0 -64 -52 -117 -116 -117c-65 0 -117 53 -117 117s52 116 117 116c64 0 116 -52 116 -116zM433 12l-79 -24l-11 36c-40 -24 -86 -34 -131 -34c-84 0 -167 59 -167 150c0 95 79 150 167 150h82c16 0 29 3 40 11v45c0 45 -47 68 -91 68c-50 0 -90 -18 -107 -76
l-76 29c29 95 101 128 185 128s172 -54 172 -149v-282zM302 649c0 28 -23 50 -50 50c-28 0 -50 -22 -50 -50s22 -50 50 -50c27 0 50 22 50 50zM334 112v105c-11 -4 -24 -5 -34 -5h-89c-42 0 -83 -30 -83 -72s42 -70 84 -70c49 0 86 11 122 42z" />
    <glyph glyph-name="ccedilla" unicode="&#xe7;" horiz-adv-x="490" 
d="M445 80c-45 -48 -83 -77 -141 -86l22 -61l-68 -129h-96l91 132l-22 58c-124 16 -186 123 -186 249c0 138 73 252 221 252c82 0 125 -31 179 -89l-62 -55c-35 38 -63 64 -117 64c-105 0 -133 -82 -133 -172s28 -172 133 -172c54 0 82 26 117 65z" />
    <glyph glyph-name="eacute" unicode="&#xe9;" horiz-adv-x="498" 
d="M353 691l-105 -146h-73l84 146h94zM448 262l-1 -50h-319c4 -89 44 -139 137 -139c44 0 87 16 120 58l58 -57c-49 -60 -110 -82 -178 -82c-159 0 -220 101 -220 249c0 139 58 252 211 252c138 0 193 -104 192 -231zM364 293c-3 70 -36 120 -108 120
c-77 0 -117 -44 -125 -120h233z" />
    <glyph glyph-name="egrave" unicode="&#xe8;" horiz-adv-x="498" 
d="M322 545h-73l-105 146h94zM448 262l-1 -50h-319c4 -89 44 -139 137 -139c44 0 87 16 120 58l58 -57c-49 -60 -110 -82 -178 -82c-159 0 -220 101 -220 249c0 139 58 252 211 252c138 0 193 -104 192 -231zM364 293c-3 70 -36 120 -108 120c-77 0 -117 -44 -125 -120h233z
" />
    <glyph glyph-name="ecircumflex" unicode="&#xea;" horiz-adv-x="498" 
d="M424 533h-104l-63 103l-63 -103h-104l115 146h103zM448 262l-1 -50h-319c4 -89 44 -139 137 -139c44 0 87 16 120 58l58 -57c-49 -60 -110 -82 -178 -82c-159 0 -220 101 -220 249c0 139 58 252 211 252c138 0 193 -104 192 -231zM364 293c-3 70 -36 120 -108 120
c-77 0 -117 -44 -125 -120h233z" />
    <glyph glyph-name="edieresis" unicode="&#xeb;" horiz-adv-x="498" 
d="M406 598c0 -31 -25 -56 -55 -56c-31 0 -56 25 -56 56s25 56 56 56c30 0 55 -25 55 -56zM199 598c0 -31 -25 -56 -56 -56s-55 25 -55 56s24 56 55 56s56 -25 56 -56zM448 262l-1 -50h-319c4 -89 44 -139 137 -139c44 0 87 16 120 58l58 -57c-49 -60 -110 -82 -178 -82
c-159 0 -220 101 -220 249c0 139 58 252 211 252c138 0 193 -104 192 -231zM364 293c-3 70 -36 120 -108 120c-77 0 -117 -44 -125 -120h233z" />
    <glyph glyph-name="iacute" unicode="&#xed;" horiz-adv-x="246" 
d="M243 691l-105 -146h-73l84 146h94zM160 0h-83v487h83v-487z" />
    <glyph glyph-name="igrave" unicode="&#xec;" horiz-adv-x="249" 
d="M184 545h-74l-105 146h95zM167 0h-84v487h84v-487z" />
    <glyph glyph-name="icircumflex" unicode="&#xee;" horiz-adv-x="255" 
d="M293 533h-104l-63 103l-62 -103h-104l115 146h103zM169 0h-83v487h83v-487z" />
    <glyph glyph-name="idieresis" unicode="&#xef;" horiz-adv-x="258" 
d="M278 598c0 -31 -25 -56 -56 -56s-56 25 -56 56s25 56 56 56s56 -25 56 -56zM91 598c0 -31 -25 -56 -56 -56s-56 25 -56 56s25 56 56 56s56 -25 56 -56zM168 0h-83v487h83v-487z" />
    <glyph glyph-name="ntilde" unicode="&#xf1;" horiz-adv-x="521" 
d="M447 595c-31 -37 -62 -67 -114 -67c-67 0 -84 51 -130 51c-27 0 -40 -20 -55 -41l-56 45c29 38 61 68 112 68c62 0 88 -51 131 -51c27 0 44 22 58 42zM461 0h-82v279c0 88 -25 132 -117 132c-64 0 -109 -50 -109 -114v-297h-83v487h83v-35c30 26 70 43 109 43
c137 0 199 -80 199 -211v-284z" />
    <glyph glyph-name="oacute" unicode="&#xf3;" horiz-adv-x="522" 
d="M371 691l-105 -146h-73l84 146h94zM462 243c0 -140 -48 -250 -208 -250s-209 109 -209 249c0 142 49 252 209 252c159 0 208 -111 208 -251zM379 242c0 95 -20 171 -126 171c-105 0 -125 -76 -125 -171c0 -94 20 -168 125 -168c106 0 126 74 126 168z" />
    <glyph glyph-name="ograve" unicode="&#xf2;" horiz-adv-x="522" 
d="M315 545h-73l-105 146h94zM462 243c0 -140 -48 -250 -208 -250s-209 109 -209 249c0 142 49 252 209 252c159 0 208 -111 208 -251zM379 242c0 95 -20 171 -126 171c-105 0 -125 -76 -125 -171c0 -94 20 -168 125 -168c106 0 126 74 126 168z" />
    <glyph glyph-name="ocircumflex" unicode="&#xf4;" horiz-adv-x="522" 
d="M420 533h-103l-63 103l-63 -103h-104l115 146h103zM462 243c0 -140 -48 -250 -208 -250s-209 109 -209 249c0 142 49 252 209 252c159 0 208 -111 208 -251zM379 242c0 95 -20 171 -126 171c-105 0 -125 -76 -125 -171c0 -94 20 -168 125 -168c106 0 126 74 126 168z" />
    <glyph glyph-name="odieresis" unicode="&#xf6;" horiz-adv-x="522" 
d="M412 598c0 -31 -25 -56 -55 -56c-31 0 -56 25 -56 56s25 56 56 56c30 0 55 -25 55 -56zM205 598c0 -31 -25 -56 -56 -56s-55 25 -55 56s24 56 55 56s56 -25 56 -56zM462 243c0 -140 -48 -250 -208 -250s-209 109 -209 249c0 142 49 252 209 252c159 0 208 -111 208 -251z
M379 242c0 95 -20 171 -126 171c-105 0 -125 -76 -125 -171c0 -94 20 -168 125 -168c106 0 126 74 126 168z" />
    <glyph glyph-name="otilde" unicode="&#xf5;" horiz-adv-x="522" 
d="M442 595c-31 -37 -62 -67 -114 -67c-67 0 -84 51 -130 51c-27 0 -40 -20 -55 -41l-56 45c29 38 61 68 112 68c62 0 88 -51 131 -51c27 0 44 22 58 42zM462 243c0 -140 -48 -250 -208 -250s-209 109 -209 249c0 142 49 252 209 252c159 0 208 -111 208 -251zM379 242
c0 95 -20 171 -126 171c-105 0 -125 -74 -125 -171c0 -94 20 -168 125 -168c106 0 126 74 126 168z" />
    <glyph glyph-name="uacute" unicode="&#xfa;" horiz-adv-x="526" 
d="M355 691l-105 -146h-73l84 146h94zM451 0h-82v25c-32 -22 -72 -34 -109 -34c-139 0 -200 73 -200 215v281h83v-277c0 -90 24 -138 117 -138c57 0 109 36 109 95v320h82v-487z" />
    <glyph glyph-name="ugrave" unicode="&#xf9;" horiz-adv-x="526" 
d="M324 545h-73l-105 146h94zM451 0h-82v25c-32 -22 -72 -34 -109 -34c-139 0 -200 73 -200 215v281h83v-277c0 -90 24 -138 117 -138c57 0 109 36 109 95v320h82v-487z" />
    <glyph glyph-name="ucircumflex" unicode="&#xfb;" horiz-adv-x="526" 
d="M425 533h-103l-63 103l-63 -103h-104l115 146h103zM451 0h-82v25c-32 -22 -72 -34 -109 -34c-139 0 -200 73 -200 215v281h83v-277c0 -90 24 -138 117 -138c57 0 109 36 109 95v320h82v-487z" />
    <glyph glyph-name="udieresis" unicode="&#xfc;" horiz-adv-x="526" 
d="M417 598c0 -31 -25 -56 -56 -56s-56 25 -56 56s25 56 56 56s56 -25 56 -56zM210 598c0 -31 -25 -56 -56 -56s-56 25 -56 56s25 56 56 56s56 -25 56 -56zM451 0h-82v25c-32 -22 -72 -34 -109 -34c-139 0 -200 73 -200 215v281h83v-277c0 -90 24 -138 117 -138
c57 0 109 36 109 95v320h82v-487z" />
    <glyph glyph-name="dagger" unicode="&#x2020;" horiz-adv-x="499" 
d="M444 408h-156v-408h-77v408h-156v80h156v210h77v-210h156v-80z" />
    <glyph glyph-name="degree" unicode="&#xb0;" horiz-adv-x="305" 
d="M260 661c0 -60 -48 -108 -107 -108c-60 0 -108 48 -108 108c0 59 48 107 108 107c59 0 107 -48 107 -107zM201 661c0 27 -22 49 -48 49c-27 0 -49 -22 -49 -49s22 -49 49 -49c26 0 48 22 48 49z" />
    <glyph glyph-name="cent" unicode="&#xa2;" horiz-adv-x="488" 
d="M443 404l-56 -50c-35 38 -57 53 -81 60l-76 -350c12 -2 24 -4 37 -4c45 0 72 12 120 65l56 -51c-63 -68 -107 -86 -176 -86c-18 0 -36 2 -52 5l-18 -82l-66 14l20 92c-68 41 -106 120 -106 222c0 148 78 245 209 251l17 77l65 -14l-14 -68c41 -9 74 -31 121 -81zM238 416
c-35 -7 -64 -24 -84 -53c-21 -30 -29 -63 -29 -124c0 -53 6 -104 44 -141z" />
    <glyph glyph-name="sterling" unicode="&#xa3;" horiz-adv-x="528" 
d="M483 601l-61 -53c-40 47 -68 72 -138 72c-34 0 -62 -12 -80 -33c-19 -21 -29 -53 -29 -95c0 -35 7 -68 13 -102h129l-17 -80h-96c6 -31 10 -61 10 -93c0 -41 -7 -85 -25 -136h278v-81h-373v59c49 111 44 171 28 251h-77l17 80h44c-3 14 -5 29 -8 45
c-15 107 14 170 44 205c35 40 86 61 142 61c104 0 151 -44 199 -100z" />
    <glyph glyph-name="section" unicode="&#xa7;" horiz-adv-x="517" 
d="M452 223c0 -56 -17 -104 -49 -138c19 -25 30 -57 30 -98c0 -108 -73 -187 -177 -187c-75 0 -133 49 -189 155l71 39c46 -87 80 -112 118 -112c57 0 96 40 96 105c0 47 -18 70 -103 90c-119 29 -184 92 -184 194c0 55 17 103 50 138c-19 25 -31 57 -31 98
c0 108 73 186 177 186c75 0 133 -48 189 -154l-70 -39c-47 87 -81 112 -119 112c-57 0 -96 -40 -96 -105c0 -48 18 -70 103 -91c120 -29 184 -91 184 -193zM372 223c0 56 -33 92 -123 114c-23 6 -47 13 -69 23c-22 -19 -34 -48 -34 -89c0 -57 32 -93 122 -115
c23 -5 47 -12 69 -22c22 18 35 48 35 89z" />
    <glyph glyph-name="bullet" unicode="&#x2022;" horiz-adv-x="449" 
d="M384 338c0 -88 -71 -160 -159 -160c-89 0 -160 72 -160 160s71 160 160 160c88 0 159 -72 159 -160z" />
    <glyph glyph-name="paragraph" unicode="&#xb6;" horiz-adv-x="577" 
d="M492 -151h-87v749h-78v-749h-87v442c-104 10 -185 97 -185 203c0 113 91 204 204 204h233v-849z" />
    <glyph glyph-name="germandbls" unicode="&#xdf;" horiz-adv-x="512" 
d="M467 245c0 -159 -61 -241 -225 -245v84c115 3 140 54 140 160s-24 164 -140 164v79c43 0 69 28 69 68c0 35 -31 66 -67 66c-81 0 -94 -62 -94 -130v-491h-85v414h-44v73h44c0 124 46 218 179 218c88 0 152 -67 152 -150c0 -30 -13 -68 -35 -89c89 -37 106 -131 106 -221z
" />
    <glyph glyph-name="registered" unicode="&#xae;" horiz-adv-x="790" 
d="M745 348c0 -193 -156 -350 -350 -350c-193 0 -350 157 -350 350s157 350 350 350c194 0 350 -157 350 -350zM675 348c0 154 -126 280 -280 280s-279 -126 -279 -280s125 -280 279 -280s280 126 280 280zM569 153h-88c-26 43 -54 90 -82 135c-6 10 -14 21 -28 21h-31v-156
h-75v391h142c26 0 58 -3 85 -20c33 -20 50 -56 50 -98c0 -51 -26 -92 -73 -108l2 -3zM467 426c0 18 -7 30 -14 34c-10 7 -27 8 -46 8h-67v-84h67c36 0 60 5 60 42z" />
    <glyph glyph-name="copyright" unicode="&#xa9;" horiz-adv-x="790" 
d="M745 348c0 -193 -156 -350 -350 -350c-193 0 -350 157 -350 350s157 350 350 350c194 0 350 -157 350 -350zM675 348c0 154 -126 280 -280 280s-279 -126 -279 -280s125 -280 279 -280s280 126 280 280zM535 475l-58 -48c-36 44 -51 47 -74 47c-29 0 -51 -12 -66 -34
c-13 -21 -19 -45 -19 -92s6 -71 19 -91c15 -23 37 -35 66 -35c23 0 38 3 74 47l58 -48c-47 -56 -81 -74 -132 -74c-54 0 -100 24 -129 69c-23 35 -31 73 -31 132s8 97 31 132c29 45 75 70 129 70c51 0 85 -19 132 -75z" />
    <glyph glyph-name="trademark" unicode="&#x2122;" horiz-adv-x="507" 
d="M447 485h-37v115l-49 -115h-36l-48 115v-115h-38v213h37l67 -159l68 159h36v-213zM212 662h-67v-177h-38v177h-67v36h172v-36z" />
    <glyph glyph-name="acute" unicode="&#xb4;" horiz-adv-x="308" 
d="M243 691l-105 -146h-73l84 146h94z" />
    <glyph glyph-name="dieresis" unicode="&#xa8;" horiz-adv-x="449" 
d="M384 598c0 -31 -25 -56 -56 -56s-56 25 -56 56s25 56 56 56s56 -25 56 -56zM177 598c0 -31 -25 -56 -56 -56s-56 25 -56 56s25 56 56 56s56 -25 56 -56z" />
    <glyph glyph-name="notequal" unicode="&#x2260;" horiz-adv-x="541" 
d="M486 121h-226l-39 -107l-64 23l30 84h-132v79h161l36 100h-197v79h226l39 108l65 -24l-31 -84h132v-79h-161l-36 -100h197v-79z" />
    <glyph glyph-name="AE" unicode="&#xc6;" horiz-adv-x="935" 
d="M890 0h-441l1 201h-236l-98 -201h-101l347 698h528v-86h-351v-209h304v-83h-304v-234h351v-86zM450 284v326h-40l-158 -326h198z" />
    <glyph glyph-name="Oslash" unicode="&#xd8;" horiz-adv-x="656" 
d="M611 349c0 -84 -8 -166 -56 -238c-52 -79 -133 -120 -227 -120c-53 0 -101 13 -143 39l-18 -30h-97l50 85c-7 8 -13 17 -19 26c-48 72 -56 154 -56 238s8 166 56 238c52 79 133 120 227 120c51 0 99 -12 139 -36l17 27h97l-48 -81c8 -10 15 -19 22 -30
c48 -72 56 -153 56 -238zM523 349c0 64 -4 130 -38 186l-256 -431c28 -17 62 -26 99 -26c65 0 117 26 153 80c38 56 42 125 42 191zM423 596c-27 16 -59 24 -95 24c-65 0 -117 -26 -153 -80c-38 -56 -42 -125 -42 -191c0 -62 4 -127 36 -181z" />
    <glyph glyph-name="infinity" unicode="&#x221e;" horiz-adv-x="781" 
d="M736 261c2 -38 -10 -73 -36 -99c-40 -41 -96 -44 -111 -44c-76 0 -155 57 -198 92c-44 -35 -123 -92 -199 -92c-68 0 -142 44 -147 139c-4 87 64 143 147 144c76 0 155 -57 199 -92c43 35 122 92 198 92c69 -1 142 -44 147 -140zM658 257c-4 64 -57 68 -70 68
c-42 0 -96 -35 -136 -66c40 -30 94 -65 136 -65c17 0 41 6 56 21c10 9 15 23 14 42zM329 259c-39 31 -93 66 -136 66c-17 0 -41 -7 -56 -21c-9 -10 -15 -24 -14 -43c4 -64 57 -67 70 -67c43 0 97 35 136 65z" />
    <glyph glyph-name="plusminus" unicode="&#xb1;" horiz-adv-x="536" 
d="M481 274h-171v-168h-84v168h-171v83h171v168h84v-168h171v-83zM481 0h-426v82h426v-82z" />
    <glyph glyph-name="lessequal" unicode="&#x2264;" horiz-adv-x="495" 
d="M440 89l-385 176v74l385 176v-90l-269 -123l269 -123v-90zM440 0h-385v83h385v-83z" />
    <glyph glyph-name="greaterequal" unicode="&#x2265;" horiz-adv-x="495" 
d="M440 265l-385 -176v90l270 123l-270 123v90l385 -176v-74zM440 0h-385v83h385v-83z" />
    <glyph glyph-name="yen" unicode="&#xa5;" horiz-adv-x="619" 
d="M584 698l-152 -306h82l-18 -84h-105l-22 -44h145l-18 -84h-143v-180h-87v180h-161l18 84h128l-22 44h-124l18 84h64l-152 306h98l177 -356l176 356h98z" />
    <glyph glyph-name="mu" unicode="&#xb5;" horiz-adv-x="523" 
d="M458 0h-84v22c-31 -19 -69 -30 -108 -30c-44 0 -84 11 -116 31v-214h-85v678h85v-276c0 -37 3 -73 20 -98c16 -24 49 -41 96 -41c43 0 77 19 94 48c6 11 10 23 14 37v330h84v-487z" />
    <glyph glyph-name="partialdiff" unicode="&#x2202;" horiz-adv-x="502" 
d="M447 213c0 -118 -89 -216 -201 -216s-201 98 -201 216c0 119 89 217 201 217c38 0 74 -11 104 -31c-21 138 -89 313 -219 146l-68 54c67 85 141 119 212 94s170 -121 172 -464v-16zM363 213c0 75 -55 132 -117 132s-116 -57 -116 -132c0 -74 54 -131 116 -131
s117 57 117 131z" />
    <glyph glyph-name="summation" unicode="&#x2211;" horiz-adv-x="531" 
d="M476 -220h-421v68l251 391l-251 391v68h421v-81h-315l242 -378l-242 -377h315v-82z" />
    <glyph glyph-name="product" unicode="&#x220f;" horiz-adv-x="609" 
d="M534 -197h-85v864h-289v-864h-85v949h459v-949z" />
    <glyph glyph-name="pi" unicode="&#x3c0;" horiz-adv-x="550" 
d="M505 0h-37c-38 0 -73 16 -92 45c-17 26 -19 55 -19 77v274h-207v-396h-85v478h377v-356c0 -26 1 -40 26 -40h37v-82z" />
    <glyph glyph-name="integral" unicode="&#x222b;" horiz-adv-x="332" 
d="M297 613h-65c-26 0 -25 -20 -25 -41v-642c0 -22 -1 -52 -18 -78c-19 -31 -52 -48 -90 -48h-64v85h64c26 0 25 20 25 41v642c0 23 2 53 18 79c19 31 53 47 90 47h65v-85z" />
    <glyph glyph-name="ordfeminine" unicode="&#xaa;" horiz-adv-x="413" 
d="M368 325l-77 -24l-7 22c-25 -14 -57 -24 -97 -24c-77 0 -142 55 -142 127c0 71 65 126 142 126h63c11 0 18 3 24 8v26c0 20 -21 41 -58 41c-21 0 -54 -7 -74 -38l-79 25c33 68 98 93 153 93c76 0 139 -52 139 -121v-219zM283 189h-157v73h157v-73zM274 414v61
c-8 -1 -16 -2 -24 -2h-63c-36 0 -61 -24 -61 -47s25 -47 61 -47c42 0 67 16 87 35z" />
    <glyph glyph-name="ordmasculine" unicode="&#xba;" horiz-adv-x="436" 
d="M391 503c0 -37 -2 -88 -28 -130c-29 -47 -83 -73 -145 -73c-61 0 -116 26 -145 73c-25 41 -28 92 -28 129v1c0 40 3 89 28 131c29 46 84 73 145 73c62 0 116 -26 145 -73c25 -41 28 -91 28 -131zM297 189h-157v73h157v-73zM309 503c0 34 -2 67 -16 89
c-19 31 -57 35 -75 35s-56 -4 -74 -35c-14 -22 -17 -55 -17 -89c0 -31 2 -66 17 -89c18 -30 56 -34 74 -34s56 4 75 34c14 24 16 58 16 89z" />
    <glyph glyph-name="Omega" unicode="&#x2126;" horiz-adv-x="618" 
d="M563 0h-209v88c42 15 68 37 87 72c25 45 35 95 35 188c0 94 -10 144 -35 189c-28 50 -69 75 -118 75h-27c-50 0 -91 -25 -118 -75c-25 -45 -35 -95 -35 -189c0 -93 10 -143 35 -188c19 -35 44 -57 86 -72v-88h-209l15 82h57c-61 76 -71 172 -71 266c0 104 12 169 46 230
c42 75 111 119 194 119h27c83 0 152 -44 194 -119c33 -61 45 -126 45 -230c0 -94 -9 -190 -70 -266h57z" />
    <glyph glyph-name="ae" unicode="&#xe6;" horiz-adv-x="800" 
d="M755 80c-51 -63 -116 -89 -190 -89c-69 -1 -129 22 -169 64c-52 -43 -111 -65 -177 -65c-93 0 -174 65 -174 150s80 153 174 153h82c20 0 32 7 43 16l-3 47c-2 29 -34 56 -84 57c-47 0 -99 -22 -118 -82l-82 24c32 104 124 140 200 140c58 0 110 -23 141 -61
c38 41 93 61 157 61c71 0 129 -30 167 -86c35 -53 31 -138 30 -198h-326c2 -32 8 -66 24 -89c19 -29 61 -49 115 -49c49 0 89 17 122 57zM665 293c-2 27 -7 59 -16 71c-22 33 -52 49 -94 49c-50 0 -84 -17 -105 -49c-12 -17 -18 -46 -22 -71h237zM353 129
c-9 29 -12 60 -13 86c-12 -2 -25 -4 -39 -4h-82c-51 0 -88 -36 -88 -71c0 -34 36 -67 88 -67c50 0 93 17 134 56z" />
    <glyph glyph-name="oslash" unicode="&#xf8;" horiz-adv-x="517" 
d="M467 243c0 -142 -50 -250 -208 -250c-35 0 -70 5 -102 20l-8 -13h-86l36 58c-40 51 -49 122 -49 184c0 143 49 252 209 252c34 0 69 -5 100 -20l8 13h86l-36 -58c40 -51 50 -123 50 -186zM384 242c0 36 -2 75 -16 108l-167 -267c18 -7 38 -9 57 -9c108 0 126 78 126 168z
M315 404c-18 7 -37 9 -57 9c-108 0 -125 -80 -125 -171c0 -34 2 -72 15 -105z" />
    <glyph glyph-name="questiondown" unicode="&#xbf;" horiz-adv-x="488" 
d="M304 431c0 -32 -26 -58 -57 -58c-32 0 -58 26 -58 58c0 31 26 57 58 57c31 0 57 -26 57 -57zM451 -23c0 -134 -100 -203 -204 -203c-107 0 -201 72 -201 188c0 77 46 116 88 141c48 29 74 48 77 108l4 95h64s9 -69 9 -96c0 -97 -46 -132 -89 -158
c-37 -23 -70 -39 -70 -90c0 -67 51 -106 118 -106c64 0 124 39 124 121h80z" />
    <glyph glyph-name="exclamdown" unicode="&#xa1;" horiz-adv-x="295" 
d="M195 430c0 -32 -26 -58 -58 -58c-31 0 -57 26 -57 58c0 31 26 57 57 57c32 0 58 -26 58 -57zM182 -219h-89v334l5 198h79l5 -198v-334z" />
    <glyph glyph-name="logicalnot" unicode="&#xac;" horiz-adv-x="531" 
d="M476 88h-73v135h-358v73h431v-208z" />
    <glyph glyph-name="radical" unicode="&#x221a;" horiz-adv-x="630" 
d="M618 622h-98l-205 -622h-73l-188 488h85l135 -361l187 571h157v-76z" />
    <glyph glyph-name="florin" unicode="&#x192;" horiz-adv-x="384" 
d="M359 698v-85c-86 0 -120 -34 -137 -109c-5 -19 -8 -41 -12 -62h71v-85h-86l-97 -560l-83 15l95 545h-56v85h70c11 64 19 132 62 186c37 46 92 70 173 70z" />
    <glyph glyph-name="approxequal" unicode="&#x2248;" horiz-adv-x="541" 
d="M496 365c-40 -37 -71 -62 -128 -62c-72 0 -136 46 -199 46c-33 0 -47 -15 -70 -37l-54 53c37 35 77 62 129 62c70 0 132 -45 201 -45c33 0 44 15 67 35zM496 200c-40 -37 -71 -62 -128 -62c-72 0 -136 46 -199 46c-33 0 -47 -15 -70 -36l-54 52c37 35 77 62 129 62
c70 0 132 -45 201 -45c33 0 44 15 67 36z" />
    <glyph glyph-name="Delta" unicode="&#x2206;" horiz-adv-x="608" 
d="M593 0h-578l289 729zM468 82l-164 416l-165 -416h329z" />
    <glyph glyph-name="guillemotleft" unicode="&#xab;" horiz-adv-x="491" 
d="M436 393l-144 -135l144 -135v-103l-224 209v57l223 210zM269 393l-144 -135l144 -135v-103l-224 209v57l223 210z" />
    <glyph glyph-name="guillemotright" unicode="&#xbb;" horiz-adv-x="491" 
d="M446 229l-224 -209v103l144 135l-144 135v103l224 -210v-57zM279 229l-224 -209v103l144 135l-144 135v103l224 -210v-57z" />
    <glyph glyph-name="ellipsis" unicode="&#x2026;" horiz-adv-x="724" 
d="M649 52c0 -33 -27 -60 -61 -60c-33 0 -60 27 -60 60c0 34 27 61 60 61c34 0 61 -27 61 -61zM423 52c0 -33 -27 -60 -61 -60c-33 0 -61 27 -61 60c0 34 28 61 61 61c34 0 61 -27 61 -61zM197 52c0 -33 -27 -60 -61 -60s-61 27 -61 60c0 34 27 61 61 61s61 -27 61 -61z" />
    <glyph glyph-name="nbspace" horiz-adv-x="140" 
 />
    <glyph glyph-name="Agrave" unicode="&#xc0;" horiz-adv-x="655" 
d="M373 775h-73l-105 146h94zM645 0h-95l-79 202h-288l-78 -202h-95l273 698h89zM439 286l-112 284l-111 -284h223z" />
    <glyph glyph-name="Atilde" unicode="&#xc3;" horiz-adv-x="655" 
d="M524 817c-31 -33 -64 -66 -113 -66c-64 0 -98 58 -147 58c-25 0 -44 -24 -57 -43l-52 49c28 34 62 66 110 66c65 0 100 -58 148 -58c26 0 45 25 60 43zM645 0h-95l-79 202h-288l-78 -202h-95l273 698h89zM439 286l-112 284l-111 -284h223z" />
    <glyph glyph-name="Otilde" unicode="&#xd5;" horiz-adv-x="656" 
d="M522 817c-31 -33 -64 -66 -113 -66c-64 0 -98 58 -147 58c-25 0 -44 -24 -57 -43l-52 49c28 34 62 66 110 66c65 0 100 -58 148 -58c26 0 45 25 60 43zM611 349c0 -108 -15 -176 -56 -238c-50 -77 -132 -120 -227 -120s-176 43 -227 120c-41 62 -56 130 -56 238
s15 176 56 238c51 77 132 120 227 120s177 -43 227 -120c41 -62 56 -130 56 -238zM523 349c0 95 -12 146 -42 191c-34 53 -87 80 -153 80s-119 -27 -153 -80c-30 -45 -42 -96 -42 -191s12 -146 42 -191c34 -53 87 -80 153 -80s119 27 153 80c30 45 42 96 42 191z" />
    <glyph glyph-name="OE" unicode="&#x152;" horiz-adv-x="1016" 
d="M971 -1h-441v73c-50 -53 -120 -81 -198 -81c-96 0 -179 43 -230 120c-42 62 -57 130 -57 238s15 176 57 238c51 77 133 120 230 120c78 0 147 -28 198 -80v72h441v-87h-352v-206h305v-86h-305v-234h352v-87zM530 349c0 95 -12 146 -43 191c-34 53 -88 80 -155 80
s-121 -27 -155 -80c-31 -45 -43 -96 -43 -191s12 -146 43 -191c34 -52 88 -80 155 -80s121 28 155 80c31 45 43 96 43 191z" />
    <glyph glyph-name="oe" unicode="&#x153;" horiz-adv-x="849" 
d="M804 80c-52 -63 -117 -89 -191 -89c-69 -1 -139 22 -182 78c-39 -54 -105 -78 -172 -78c-76 -1 -143 31 -179 87c-32 51 -35 119 -35 164c0 49 4 115 35 165c36 56 103 87 179 87c67 0 133 -24 172 -78c40 54 104 78 173 78c70 0 128 -30 166 -86c36 -53 31 -135 31 -195
h-327c2 -32 8 -68 24 -91c19 -29 61 -49 115 -49c50 0 89 17 123 57zM714 295c-3 27 -8 56 -16 68c-22 33 -52 49 -94 49c-51 0 -85 -17 -106 -49c-12 -17 -18 -43 -22 -68h238zM387 242c-1 43 -4 92 -23 122c-19 29 -56 48 -105 48s-86 -19 -105 -48
c-19 -31 -23 -79 -23 -122c0 -40 4 -90 23 -121c19 -29 56 -48 105 -48s86 19 105 48c20 31 23 81 23 121z" />
    <glyph glyph-name="endash" unicode="&#x2013;" horiz-adv-x="524" 
d="M469 238h-414v71h414v-71z" />
    <glyph glyph-name="emdash" unicode="&#x2014;" horiz-adv-x="822" 
d="M767 238h-712v71h712v-71z" />
    <glyph glyph-name="quotedblleft" unicode="&#x201c;" horiz-adv-x="416" 
d="M346 752l-7 -176c-1 -28 -24 -50 -52 -50c-29 0 -57 22 -53 50l7 50l81 126h24zM182 752l-7 -176c-1 -28 -24 -50 -52 -50c-29 0 -57 22 -53 50l7 50l81 126h24z" />
    <glyph glyph-name="quotedblright" unicode="&#x201d;" horiz-adv-x="416" 
d="M346 702l-7 -50l-82 -126h-23l7 176c1 28 24 50 52 50c29 0 56 -22 53 -50zM182 702l-7 -50l-81 -126h-24l7 176c1 28 24 50 52 50c29 0 57 -22 53 -50z" />
    <glyph glyph-name="quoteleft" unicode="&#x2018;" 
d="M182 752l-7 -176c-1 -28 -24 -50 -52 -50c-29 0 -57 22 -53 50l7 50l81 126h24z" />
    <glyph glyph-name="quoteright" unicode="&#x2019;" 
d="M182 702l-7 -50l-81 -126h-24l7 176c1 28 24 50 52 50c29 0 57 -22 53 -50z" />
    <glyph glyph-name="divide" unicode="&#xf7;" horiz-adv-x="524" 
d="M313 429c0 -29 -23 -53 -53 -53c-29 0 -53 24 -53 53c0 30 24 54 53 54c30 0 53 -24 53 -54zM469 238h-414v71h414v-71zM313 119c0 -30 -23 -54 -53 -54c-29 0 -53 24 -53 54c0 29 24 53 53 53c30 0 53 -24 53 -53z" />
    <glyph glyph-name="lozenge" unicode="&#x25ca;" horiz-adv-x="554" 
d="M499 345l-222 -359l-222 359l222 358zM405 345l-128 206l-128 -206l128 -207z" />
    <glyph glyph-name="ydieresis" unicode="&#xff;" horiz-adv-x="485" 
d="M404 598c0 -31 -25 -56 -56 -56s-56 25 -56 56s25 56 56 56s56 -25 56 -56zM197 598c0 -31 -25 -56 -56 -56s-56 25 -56 56s25 56 56 56s56 -25 56 -56zM465 487l-223 -602c-8 -21 -20 -47 -44 -69c-26 -24 -62 -36 -98 -36h-38v84c32 0 54 -2 72 9c11 7 19 19 28 41
l33 87l-175 486h91l130 -365l133 365h91z" />
    <glyph glyph-name="Ydieresis" unicode="&#x178;" horiz-adv-x="599" 
d="M461 831c0 -31 -25 -56 -56 -56s-56 25 -56 56s25 56 56 56s56 -25 56 -56zM254 831c0 -31 -25 -56 -56 -56s-56 25 -56 56s25 56 56 56s56 -25 56 -56zM574 698l-231 -466v-232h-87v234l-231 464h98l177 -356l176 356h98z" />
    <glyph glyph-name="fraction" unicode="&#x2044;" horiz-adv-x="193" 
d="M293 698l-316 -698h-77l316 698h77z" />
    <glyph glyph-name="currency" unicode="&#xa4;" horiz-adv-x="660" 
d="M602 63c-62 -55 -123 -72 -197 -72c-150 0 -254 99 -282 237h-81l19 78h52c0 17 -1 37 0 54h-71l19 79h56c19 152 120 268 288 268c75 0 131 -17 193 -72l-46 -76c-52 49 -87 63 -147 63c-117 0 -182 -76 -199 -183h258l-18 -79h-245c0 -18 0 -36 1 -54h262l-18 -78h-233
c25 -91 93 -152 192 -152c60 0 96 14 147 63z" />
    <glyph glyph-name="guilsinglleft" unicode="&#x2039;" horiz-adv-x="324" 
d="M269 396l-144 -138l144 -138v-106l-224 215v58l223 214z" />
    <glyph glyph-name="guilsinglright" unicode="&#x203a;" horiz-adv-x="324" 
d="M279 229l-224 -215v106l144 138l-144 138v105l224 -214v-58z" />
    <glyph glyph-name="fi" unicode="&#xfb01;" horiz-adv-x="491" 
d="M426 655c0 -28 -23 -51 -51 -51s-51 23 -51 51s23 51 51 51s51 -23 51 -51zM416 0h-83v414h-162v-414h-82v414h-44v73h44c0 134 49 211 192 211v-84c-92 0 -110 -43 -110 -127h245v-487z" />
    <glyph glyph-name="fl" unicode="&#xfb02;" horiz-adv-x="518" 
d="M463 0c-85 0 -121 41 -121 125v489h-61c-92 0 -110 -42 -110 -127h95v-73h-95v-414h-82v414h-44v73h44c0 134 51 211 192 211h143v-573c0 -35 3 -41 39 -41v-84z" />
    <glyph glyph-name="daggerdbl" unicode="&#x2021;" horiz-adv-x="499" 
d="M444 12h-155v-212h-78v212h-156v81h156v313h-156v81h156v211h78v-211h155v-81h-155v-313h155v-81z" />
    <glyph glyph-name="periodcentered" unicode="&#xb7;" 
d="M187 265c0 -34 -28 -61 -61 -61c-34 0 -61 27 -61 61c0 33 27 61 61 61c33 0 61 -28 61 -61z" />
    <glyph glyph-name="quotesinglbase" unicode="&#x201a;" 
d="M182 50l-7 -50l-81 -126h-24l7 176c1 28 24 50 52 50c29 0 57 -22 53 -50z" />
    <glyph glyph-name="quotedblbase" unicode="&#x201e;" horiz-adv-x="416" 
d="M346 50l-7 -50l-82 -126h-23l7 176c1 28 24 50 52 50c29 0 56 -22 53 -50zM182 50l-7 -50l-81 -126h-24l7 176c1 28 24 50 52 50c29 0 57 -22 53 -50z" />
    <glyph glyph-name="perthousand" unicode="&#x2030;" horiz-adv-x="997" 
d="M952 186c0 -57 -8 -94 -29 -128c-26 -44 -69 -68 -120 -68c-47 0 -88 21 -115 58c-27 -37 -67 -58 -114 -58c-51 0 -94 24 -121 68c-21 34 -28 71 -28 128c0 58 7 95 28 129c27 44 70 68 121 68c47 0 87 -21 114 -59c27 38 68 59 115 59c51 0 94 -24 120 -68
c21 -34 29 -71 29 -129zM581 698l-314 -698h-80l314 698h80zM343 511c0 -57 -7 -94 -28 -129c-27 -43 -70 -68 -121 -68s-94 25 -121 68c-20 35 -28 72 -28 129s7 94 28 129c27 43 70 68 121 68s94 -25 121 -68c21 -35 28 -72 28 -129zM883 186c0 48 -6 72 -19 94
c-14 23 -35 34 -61 34c-27 0 -48 -11 -62 -34c-13 -22 -18 -46 -18 -94c0 -47 5 -71 18 -93c14 -23 35 -35 62 -35c26 0 47 12 61 35c13 22 19 46 19 93zM654 186c0 48 -6 72 -19 94c-14 23 -35 34 -61 34c-27 0 -48 -11 -62 -34c-13 -22 -18 -46 -18 -94
c0 -47 5 -71 18 -93c14 -23 35 -35 62 -35c26 0 47 12 61 35c13 22 19 46 19 93zM274 511c0 48 -5 72 -19 93c-14 23 -34 35 -61 35c-26 0 -47 -12 -61 -35c-13 -21 -19 -45 -19 -93s6 -72 19 -93c14 -23 35 -35 61 -35c27 0 47 12 62 35c13 21 18 45 18 93z" />
    <glyph glyph-name="Acircumflex" unicode="&#xc2;" horiz-adv-x="655" 
d="M492 775h-104l-63 103l-63 -103h-104l116 146h102zM645 0h-95l-79 202h-288l-78 -202h-95l273 698h89zM439 286l-112 284l-111 -284h223z" />
    <glyph glyph-name="Ecircumflex" unicode="&#xca;" horiz-adv-x="579" 
d="M483 775h-104l-63 103l-63 -103h-104l116 146h102zM529 0h-454v698h454v-86h-367v-208h321v-84h-321v-234h367v-86z" />
    <glyph glyph-name="Aacute" unicode="&#xc1;" horiz-adv-x="655" 
d="M459 921l-105 -146h-73l84 146h94zM645 0h-95l-79 202h-288l-78 -202h-95l273 698h89zM439 286l-112 284l-111 -284h223z" />
    <glyph glyph-name="Edieresis" unicode="&#xcb;" horiz-adv-x="579" 
d="M477 831c0 -31 -25 -56 -56 -56s-56 25 -56 56s25 56 56 56s56 -25 56 -56zM270 831c0 -31 -26 -56 -56 -56c-31 0 -56 25 -56 56s25 56 56 56c30 0 56 -25 56 -56zM529 0h-454v698h454v-86h-367v-208h321v-84h-321v-234h367v-86z" />
    <glyph glyph-name="Egrave" unicode="&#xc8;" horiz-adv-x="579" 
d="M372 775h-73l-105 146h94zM529 0h-454v698h454v-86h-367v-208h321v-84h-321v-234h367v-86z" />
    <glyph glyph-name="Iacute" unicode="&#xcd;" horiz-adv-x="258" 
d="M243 921l-105 -146h-73l84 146h94zM177 0h-91v698h91v-698z" />
    <glyph glyph-name="Icircumflex" unicode="&#xce;" 
d="M290 775h-103l-63 103l-63 -103h-104l115 146h103zM169 0h-90v698h90v-698z" />
    <glyph glyph-name="Idieresis" unicode="&#xcf;" 
d="M287 831c0 -31 -25 -56 -56 -56s-56 25 -56 56s25 56 56 56s56 -25 56 -56zM80 831c0 -31 -25 -56 -56 -56s-56 25 -56 56s25 56 56 56s56 -25 56 -56zM173 0h-91v698h91v-698z" />
    <glyph glyph-name="Igrave" unicode="&#xcc;" 
d="M187 775h-74l-105 146h95zM172 0h-90v698h90v-698z" />
    <glyph glyph-name="Oacute" unicode="&#xd3;" horiz-adv-x="656" 
d="M440 921l-105 -146h-73l84 146h94zM611 349c0 -108 -15 -176 -56 -238c-50 -77 -132 -120 -227 -120s-176 43 -227 120c-41 62 -56 130 -56 238s15 176 56 238c51 77 132 120 227 120s177 -43 227 -120c41 -62 56 -130 56 -238zM523 349c0 95 -12 146 -42 191
c-34 53 -87 80 -153 80s-119 -27 -153 -80c-30 -45 -42 -96 -42 -191s12 -146 42 -191c34 -53 87 -80 153 -80s119 27 153 80c30 45 42 96 42 191z" />
    <glyph glyph-name="Ocircumflex" unicode="&#xd4;" horiz-adv-x="656" 
d="M493 775h-104l-63 103l-63 -103h-104l116 146h102zM611 349c0 -108 -15 -176 -56 -238c-50 -77 -132 -120 -227 -120s-176 43 -227 120c-41 62 -56 130 -56 238s15 176 56 238c51 77 132 120 227 120s177 -43 227 -120c41 -62 56 -130 56 -238zM523 349
c0 95 -12 146 -42 191c-34 53 -87 80 -153 80s-119 -27 -153 -80c-30 -45 -42 -96 -42 -191s12 -146 42 -191c34 -53 87 -80 153 -80s119 27 153 80c30 45 42 96 42 191z" />
    <glyph glyph-name="Ograve" unicode="&#xd2;" horiz-adv-x="656" 
d="M396 775h-73l-105 146h94zM611 349c0 -108 -15 -176 -56 -238c-50 -77 -132 -120 -227 -120s-176 43 -227 120c-41 62 -56 130 -56 238s15 176 56 238c51 77 132 120 227 120s177 -43 227 -120c41 -62 56 -130 56 -238zM523 349c0 95 -12 146 -42 191
c-34 53 -87 80 -153 80s-119 -27 -153 -80c-30 -45 -42 -96 -42 -191s12 -146 42 -191c34 -53 87 -80 153 -80s119 27 153 80c30 45 42 96 42 191z" />
    <glyph glyph-name="Uacute" unicode="&#xda;" horiz-adv-x="654" 
d="M438 921l-105 -146h-73l84 146h94zM584 303c0 -63 -5 -140 -42 -202c-43 -70 -122 -109 -215 -110c-93 0 -172 39 -214 110c-38 62 -43 139 -43 202v395h88v-395c0 -56 4 -115 30 -158c25 -41 75 -67 139 -67s114 26 139 67c26 43 30 102 30 158v395h88v-395z" />
    <glyph glyph-name="Ucircumflex" unicode="&#xdb;" horiz-adv-x="654" 
d="M501 775h-104l-63 103l-63 -103h-104l116 146h102zM584 303c0 -63 -5 -140 -42 -202c-43 -70 -122 -109 -215 -110c-93 0 -172 39 -214 110c-38 62 -43 139 -43 202v395h88v-395c0 -56 4 -115 30 -158c25 -41 75 -67 139 -67s114 26 139 67c26 43 30 102 30 158v395h88
v-395z" />
    <glyph glyph-name="Ugrave" unicode="&#xd9;" horiz-adv-x="654" 
d="M407 775h-73l-105 146h94zM584 303c0 -63 -5 -140 -42 -202c-43 -70 -122 -109 -215 -110c-93 0 -172 39 -214 110c-38 62 -43 139 -43 202v395h88v-395c0 -56 4 -115 30 -158c25 -41 75 -67 139 -67s114 26 139 67c26 43 30 102 30 158v395h88v-395z" />
    <glyph glyph-name="dotlessi" unicode="&#x131;" horiz-adv-x="277" 
d="M181 0h-86v487h86v-487z" />
    <glyph glyph-name="circumflex" unicode="&#x2c6;" horiz-adv-x="513" 
d="M423 533h-104l-63 103l-63 -103h-103l115 146h103z" />
    <glyph glyph-name="tilde" unicode="&#x2dc;" horiz-adv-x="494" 
d="M426 595c-31 -37 -62 -67 -114 -67c-67 0 -84 51 -130 51c-27 0 -40 -20 -55 -41l-56 45c29 38 61 68 112 68c62 0 88 -51 131 -51c27 0 44 22 58 42z" />
    <glyph glyph-name="macron" unicode="&#xaf;" horiz-adv-x="530" 
d="M425 579h-320v73h320v-73z" />
    <glyph glyph-name="breve" unicode="&#x2d8;" horiz-adv-x="533" 
d="M453 703c-35 -84 -105 -133 -187 -133s-151 49 -186 133h75c25 -43 65 -67 111 -67c47 0 87 24 112 67h75z" />
    <glyph glyph-name="dotaccent" unicode="&#x2d9;" horiz-adv-x="543" 
d="M327 585c0 -30 -25 -55 -56 -55s-56 25 -56 55c0 31 25 56 56 56s56 -25 56 -56z" />
    <glyph glyph-name="ring" unicode="&#x2da;" horiz-adv-x="529" 
d="M381 649c0 -64 -52 -117 -116 -117c-65 0 -117 53 -117 117s52 116 117 116c64 0 116 -52 116 -116zM315 649c0 28 -23 50 -50 50c-28 0 -50 -22 -50 -50s22 -50 50 -50c27 0 50 22 50 50z" />
    <glyph glyph-name="cedilla" unicode="&#xb8;" horiz-adv-x="527" 
d="M337 -67l-68 -129h-96l91 132l-27 72l65 23z" />
    <glyph glyph-name="hungarumlaut" unicode="&#x2dd;" horiz-adv-x="481" 
d="M432 716l-109 -146h-61l78 146h92zM300 716l-109 -146h-61l78 146h92z" />
    <glyph glyph-name="ogonek" unicode="&#x2db;" horiz-adv-x="555" 
d="M388 -196h-95l-110 196h76z" />
    <glyph glyph-name="caron" unicode="&#x2c7;" horiz-adv-x="513" 
d="M423 679l-115 -146h-103l-115 146h103l63 -103l63 103h104z" />
    <glyph glyph-name="Eth" unicode="&#xd0;" horiz-adv-x="705" 
d="M617 349c0 -56 -5 -131 -8 -155c-23 -169 -147 -194 -287 -194h-216v304h-41v87h41v307h216c140 0 264 -24 287 -194c3 -23 8 -99 8 -155zM529 349c0 52 -5 123 -7 144c-8 54 -27 82 -56 97c-39 18 -92 22 -144 22h-128v-221h158v-87h-158v-217h128c52 0 105 3 144 22
c29 14 48 43 56 96c2 21 7 93 7 144z" />
    <glyph glyph-name="Euro" unicode="&#x20ac;" horiz-adv-x="660" 
d="M602 63c-62 -55 -123 -72 -197 -72c-150 0 -254 99 -282 237h-81l19 78h52c0 17 -1 37 0 54h-71l19 79h56c19 152 120 268 288 268c75 0 131 -17 193 -72l-46 -76c-52 49 -87 63 -147 63c-117 0 -182 -76 -199 -183h258l-18 -79h-245c0 -18 0 -36 1 -54h262l-18 -78h-233
c25 -91 93 -152 192 -152c60 0 96 14 147 63z" />
    <glyph glyph-name="uni00A0" unicode="&#xa0;" horiz-adv-x="140" 
 />
    <glyph glyph-name="apple" unicode="&#xf8ff;" horiz-adv-x="500" 
 />
    </font>
</defs>
</svg>
