<?xml version="1.0" standalone="no"?>
<!DOCTYPE svg PUBLIC "-//W3C//DTD SVG 1.1//EN" "http://www.w3.org/Graphics/SVG/1.1/DTD/svg11.dtd" >
<svg xmlns="http://www.w3.org/2000/svg" width="100%" height="100%">
<metadata>
Created by FontXChange 20110222 at Fri Aug  2 14:06:20 2013
 By James Beall
2004 T.26 Digital Type Foundry www.t26.com PSID#5134582 designer: Neil Summerour - Positype
</metadata>
<defs>
<font id="AauxProOT-BoldItalic" horiz-adv-x="655" >
  <font-face 
    font-family="AauxProOT"
    font-weight="400"
    font-style="italic"
    font-stretch="normal"
    units-per-em="1000"
    panose-1="2 0 8 6 3 0 0 9 0 4"
    ascent="775"
    descent="-225"
    x-height="484"
    cap-height="698"
    bbox="-130 -233 1076 998"
    underline-thickness="20"
    underline-position="-115"
    slope="-11"
    stemh="100"
    stemv="103"
    unicode-range="U+0020-FB02"
  />
<missing-glyph horiz-adv-x="1000" 
 />
    <glyph glyph-name=".notdef" horiz-adv-x="1000" 
 />
    <glyph glyph-name="eth" unicode="&#xf0;" horiz-adv-x="576" 
d="M538 631l-22 -99h-50c31 -119 55 -168 29 -290c-30 -141 -107 -251 -265 -251c-105 -1 -175 58 -178 162c-4 169 89 344 278 344c13 0 26 -1 38 -3l-8 38h-125l21 99h82l-28 119h105l28 -119h95zM393 253c15 70 19 142 -73 142c-121 0 -162 -121 -164 -222
c-1 -56 25 -81 84 -81c101 1 135 75 153 161z" />
    <glyph glyph-name="Lslash" unicode="&#x141;" horiz-adv-x="548" 
d="M492 103l-22 -103h-423l48 228l-49 -20l26 124l49 20l74 346h105l-64 -300l167 67l-26 -124l-167 -67l-37 -171h319z" />
    <glyph glyph-name="lslash" unicode="&#x142;" horiz-adv-x="284" 
d="M304 439l-23 -115l-73 -31l-34 -168c-5 -21 -4 -24 37 -24l-21 -101c-99 0 -132 49 -114 137l22 108l-52 -22l23 114l52 23l69 338h100l-59 -291z" />
    <glyph glyph-name="Scaron" unicode="&#x160;" horiz-adv-x="575" 
d="M590 931l-158 -156h-102l-80 156h105l37 -84l78 84h120zM612 538l-99 -41c-34 60 -58 102 -153 102c-59 0 -148 -21 -148 -96c0 -111 346 -50 345 -252c0 -161 -127 -262 -307 -262c-154 0 -235 73 -235 229l108 18c0 -107 45 -143 149 -143c75 0 176 43 176 131
c0 133 -345 63 -345 251c0 162 129 228 279 228c134 0 184 -69 230 -165z" />
    <glyph glyph-name="scaron" unicode="&#x161;" horiz-adv-x="480" 
d="M475 684l-158 -156h-101l-81 156h106l36 -84l79 84h119zM418 371l-93 -33c-12 35 -34 59 -76 59c-34 0 -64 -25 -64 -47c0 -71 195 -45 195 -196c0 -101 -92 -163 -192 -163c-64 0 -144 22 -168 153l98 25c5 -44 32 -81 82 -80c37 0 77 25 77 65c-1 69 -193 45 -193 182
c0 99 83 154 181 154c71 0 120 -33 153 -119z" />
    <glyph glyph-name="Yacute" unicode="&#xdd;" horiz-adv-x="580" 
d="M549 921l-156 -146h-85l123 146h118zM668 698l-331 -465l-50 -233h-106l50 235l-134 463h118l95 -335l240 335h118z" />
    <glyph glyph-name="yacute" unicode="&#xfd;" horiz-adv-x="515" 
d="M462 691l-156 -146h-85l123 146h118zM545 484l-363 -600c-37 -62 -92 -105 -168 -104h-54l23 102c56 -1 80 -6 112 46l43 70c17 29 16 53 11 86l-67 400h108l47 -325l192 325h116z" />
    <glyph glyph-name="Thorn" unicode="&#xde;" horiz-adv-x="658" 
d="M646 403c-1 -171 -137 -247 -288 -247h-168l-34 -156h-108l153 698h108l-29 -135h155c109 0 212 -31 211 -160zM539 393c0 67 -63 67 -114 67h-168l-44 -201h155c89 0 170 28 171 134z" />
    <glyph glyph-name="thorn" unicode="&#xfe;" horiz-adv-x="619" 
d="M565 324c-3 -158 -84 -334 -267 -335c-36 0 -70 8 -98 25l-50 -234h-105l196 918h105l-47 -220c30 13 62 20 95 20c111 0 173 -68 171 -174zM460 316c2 52 -19 79 -76 79c-56 0 -111 -37 -123 -94l-27 -127c-6 -53 15 -82 74 -82c114 0 150 130 152 224z" />
    <glyph glyph-name="Zcaron" unicode="&#x17d;" horiz-adv-x="598" 
d="M620 931l-159 -156h-101l-80 156h105l37 -84l78 84h120zM648 697l-19 -87l-449 -500c55 -2 122 -17 176 -17c39 0 74 5 123 23l39 -97c-63 -23 -112 -30 -162 -30c-59 0 -130 17 -188 17c-39 0 -74 -5 -123 -23l-34 86l471 525h-314l23 103h457z" />
    <glyph glyph-name="zcaron" unicode="&#x17e;" horiz-adv-x="511" 
d="M521 684l-158 -156h-101l-81 156h106l36 -84l79 84h119zM508 484l-20 -86l-308 -295c37 -4 73 -15 110 -15c29 0 59 4 100 21l45 -86c-59 -25 -102 -32 -145 -32c-49 0 -95 16 -144 16c-29 0 -57 -2 -98 -20l-43 79l329 320h-211l22 98h363z" />
    <glyph glyph-name="onehalf" unicode="&#xbd;" horiz-adv-x="775" 
d="M712 323c-12 -54 -51 -92 -150 -167c-25 -19 -47 -41 -65 -61h165l-21 -95h-292l16 73c36 58 89 117 140 156c92 69 107 89 111 106c3 16 -6 24 -30 24c-27 0 -46 -16 -81 -62l-82 47c52 67 100 110 172 110c65 0 137 -43 117 -131zM621 699l-468 -699h-113l469 699h112z
M270 704l-100 -453h-99l70 318l-59 -30l-34 85l158 80h64z" />
    <glyph glyph-name="onequarter" unicode="&#xbc;" horiz-adv-x="763" 
d="M710 196l-20 -95h-28l-22 -101h-99l22 101h-219l17 78l202 274h123l-186 -257h84l21 85l94 -18l-16 -67h27zM621 699l-468 -699h-113l468 699h113zM267 704l-100 -453h-99l70 318l-59 -30l-34 85l158 80h64z" />
    <glyph glyph-name="onesuperior" unicode="&#xb9;" horiz-adv-x="311" 
d="M267 704l-100 -453h-99l70 318l-59 -30l-34 85l158 80h64z" />
    <glyph glyph-name="threequarters" unicode="&#xbe;" horiz-adv-x="796" 
d="M878 196l-20 -95h-28l-22 -101h-100l23 101h-219l17 78l202 274h123l-187 -257h85l21 85l94 -18l-16 -67h27zM789 699l-468 -699h-112l468 699h112zM428 566c-7 -32 -25 -60 -51 -82c20 -28 26 -63 18 -98c-16 -76 -92 -136 -171 -136c-65 0 -116 41 -123 103l-4 29
l98 28c1 -15 2 -33 7 -47c4 -11 12 -19 30 -19c29 0 60 25 66 54c6 25 -9 41 -32 41h-40l21 95h24c28 0 55 22 60 44c4 18 -6 33 -30 33c-22 0 -44 -13 -55 -32l-16 -26l-90 32l20 35c30 51 89 86 149 86c80 0 136 -63 119 -140z" />
    <glyph glyph-name="threesuperior" unicode="&#xb3;" horiz-adv-x="403" 
d="M337 566c-7 -32 -25 -60 -51 -82c20 -28 26 -63 18 -98c-17 -76 -92 -136 -171 -136c-65 0 -116 41 -123 103l-4 29l98 28c1 -15 1 -33 7 -47c4 -11 12 -19 30 -19c29 0 60 25 66 54c6 25 -9 41 -32 41h-40l21 95h24c28 0 55 22 60 44c4 18 -6 33 -30 33
c-22 0 -44 -13 -55 -32l-16 -26l-90 32l20 35c30 51 89 86 149 86c80 0 136 -63 119 -140z" />
    <glyph glyph-name="twosuperior" unicode="&#xb2;" horiz-adv-x="380" 
d="M450 574c-12 -54 -52 -92 -150 -167c-26 -19 -48 -41 -65 -61h165l-21 -95h-292l16 73c35 59 88 117 140 156c92 70 106 89 110 106s-6 24 -29 24c-27 0 -46 -16 -81 -61l-82 46c51 67 99 110 171 110c66 0 137 -43 118 -131z" />
    <glyph glyph-name="brokenbar" unicode="&#xa6;" horiz-adv-x="306" 
d="M191 373h-81v402h81v-402zM191 -76h-81v402h81v-402z" />
    <glyph glyph-name="minus" unicode="&#x2212;" horiz-adv-x="540" 
d="M491 309l-21 -71h-426l21 71h426z" />
    <glyph glyph-name="multiply" unicode="&#xd7;" horiz-adv-x="471" 
d="M439 385l-143 -114l93 -114l-73 -59l-93 115l-144 -115l-52 64l143 115l-93 114l73 58l94 -114l143 114z" />
    <glyph glyph-name="space" unicode=" " horiz-adv-x="260" 
 />
    <glyph glyph-name="exclam" unicode="!" horiz-adv-x="306" 
d="M316 698l-69 -343l-45 -198h-94l37 209l67 332h104zM191 48c-6 -31 -35 -56 -68 -56c-36 0 -59 32 -52 66c7 31 36 57 68 57c37 0 59 -32 52 -67z" />
    <glyph glyph-name="quotedbl" unicode="&#x22;" horiz-adv-x="357" 
d="M386 645l-27 -98h-102l30 120c5 23 30 40 56 40c45 0 47 -38 43 -62zM249 645l-27 -98h-102l30 120c5 23 30 40 56 40c45 0 47 -38 43 -62z" />
    <glyph glyph-name="numbersign" unicode="#" horiz-adv-x="721" 
d="M721 503l-46 -102h-120l-45 -103h120l-45 -103h-120l-87 -195h-111l87 195h-103l-87 -195h-110l86 195h-120l45 103h120l46 103h-120l45 102h120l87 195h110l-86 -195h103l86 195h111l-86 -195h120zM445 401h-103l-46 -103h103z" />
    <glyph glyph-name="dollar" unicode="$" horiz-adv-x="524" 
d="M504 533l-91 -44c-11 31 -29 45 -53 52l-30 -140c69 -19 139 -55 139 -140c0 -133 -102 -192 -213 -209l-11 -52h-95l12 53c-70 11 -130 49 -143 132l95 33c7 -41 35 -60 68 -69l38 179c-62 16 -133 48 -133 127c0 124 87 175 199 186l13 57h95l-13 -59
c61 -11 100 -43 123 -106zM266 544c-40 -6 -70 -27 -77 -60s19 -50 51 -60zM370 231c9 43 -19 61 -60 74l-33 -156c45 11 83 38 93 82z" />
    <glyph glyph-name="percent" unicode="%" horiz-adv-x="858" 
d="M828 268c0 -125 -65 -278 -216 -278c-85 0 -136 59 -136 140c-1 125 64 279 216 279c85 0 136 -60 136 -141zM749 699l-469 -699h-120l468 699h121zM432 567c0 -125 -65 -279 -216 -279c-85 0 -136 60 -136 140c0 126 64 280 216 280c85 0 136 -60 136 -141zM727 261
c0 27 -9 51 -44 51c-74 0 -106 -111 -106 -173c-1 -28 9 -52 44 -52c77 0 107 114 106 174zM331 560c0 27 -9 51 -44 51c-74 0 -106 -111 -106 -174c0 -27 9 -51 44 -51c77 0 107 114 106 174z" />
    <glyph glyph-name="ampersand" unicode="&#x26;" horiz-adv-x="701" 
d="M645 344c-16 -73 -55 -155 -107 -217c19 -19 32 -28 52 -47l-66 -80c-23 21 -36 30 -57 53c-66 -45 -143 -63 -213 -63c-109 0 -201 55 -200 161c0 113 70 198 174 249c-14 32 -24 69 -24 107c0 108 78 198 196 198c77 0 126 -45 126 -115c1 -103 -87 -172 -169 -219
c35 -62 75 -123 120 -178c33 40 59 102 69 151h99zM420 570c0 22 -13 35 -41 35c-53 0 -73 -50 -73 -97c0 -22 3 -43 11 -60c43 25 103 61 103 122zM403 123c-51 61 -95 127 -134 197c-55 -32 -111 -85 -111 -147c0 -58 60 -85 116 -85c43 0 89 11 129 35z" />
    <glyph glyph-name="quotesingle" unicode="'" horiz-adv-x="214" 
d="M243 643l-23 -96h-100l26 118c6 23 29 42 55 42c46 0 45 -43 42 -64z" />
    <glyph glyph-name="parenleft" unicode="(" horiz-adv-x="367" 
d="M401 698c-140 -98 -223 -229 -249 -349c-25 -120 -10 -240 94 -349h-123c-76 92 -100 223 -73 349c26 125 108 259 221 349h130z" />
    <glyph glyph-name="parenright" unicode=")" horiz-adv-x="367" 
d="M318 349c-27 -126 -107 -257 -222 -349h-130c150 109 224 229 249 349c26 120 5 251 -94 349h124c75 -90 99 -224 73 -349z" />
    <glyph glyph-name="asterisk" unicode="*" horiz-adv-x="450" 
d="M470 535l-117 -29l52 -83l-95 -54l-44 86l-84 -84l-77 60l86 79l-101 29l53 90l101 -36l22 105h107l-27 -101l112 34z" />
    <glyph glyph-name="plus" unicode="+" horiz-adv-x="536" 
d="M506 323l-23 -99h-163l-35 -151h-106l34 151h-163l23 99h163l35 151h106l-34 -151h163z" />
    <glyph glyph-name="comma" unicode="," horiz-adv-x="276" 
d="M204 51l-12 -51l-110 -135h-42l48 195c6 27 35 49 66 49c35 0 58 -27 50 -58z" />
    <glyph glyph-name="hyphen" unicode="-" horiz-adv-x="390" 
d="M360 309l-21 -71h-289l21 71h289z" />
    <glyph glyph-name="period" unicode="." horiz-adv-x="239" 
d="M167 47c-6 -31 -36 -55 -67 -55c-34 0 -56 28 -49 61c7 31 36 55 68 55c34 0 55 -28 48 -61z" />
    <glyph glyph-name="slash" unicode="/" horiz-adv-x="450" 
d="M570 774l-501 -850h-109l501 850h109z" />
    <glyph glyph-name="zero" unicode="0" horiz-adv-x="583" 
d="M578 480c-1 -196 -92 -487 -334 -487c-144 0 -190 106 -190 222c0 197 90 488 334 488c146 0 190 -106 190 -223zM475 467c0 75 -21 139 -102 139c-153 0 -217 -250 -216 -377c0 -74 21 -139 102 -139c152 0 216 251 216 377z" />
    <glyph glyph-name="one" unicode="1" horiz-adv-x="417" 
d="M390 698l-148 -698h-105l118 559l-110 -64l-34 81l217 122h62z" />
    <glyph glyph-name="two" unicode="2" horiz-adv-x="576" 
d="M565 546c-1 -171 -137 -212 -255 -290c-61 -40 -129 -104 -160 -157h342l-21 -99h-465c31 144 136 258 256 337c70 46 201 92 201 188c0 54 -46 86 -101 86c-66 0 -119 -41 -157 -99l-81 41c61 94 131 153 250 153c107 0 191 -59 191 -160z" />
    <glyph glyph-name="three" unicode="3" horiz-adv-x="541" 
d="M543 548c0 -72 -42 -154 -108 -184c37 -25 61 -67 61 -115c0 -159 -117 -256 -277 -256c-107 0 -171 55 -197 171l100 30c11 -71 55 -101 113 -101c80 0 154 59 154 141c0 57 -45 89 -143 88l18 82c79 0 173 25 173 122c0 46 -37 81 -90 81c-49 0 -104 -24 -144 -95
l-88 38c63 117 146 156 245 156c98 0 183 -62 183 -158z" />
    <glyph glyph-name="four" unicode="4" horiz-adv-x="592" 
d="M548 698l-374 -433h204l46 219l97 -15l-44 -204h66l-21 -96h-65l-36 -169h-100l36 169h-331l16 77l393 452h113z" />
    <glyph glyph-name="five" unicode="5" horiz-adv-x="558" 
d="M566 698l-21 -98h-293l-31 -144c35 17 71 28 105 28c126 0 193 -70 193 -179c0 -183 -126 -312 -300 -312c-105 0 -165 53 -187 162l98 34c10 -67 49 -98 111 -98c108 0 174 92 174 193c1 63 -35 103 -108 103c-43 0 -87 -18 -127 -50h-83l77 361h392z" />
    <glyph glyph-name="six" unicode="6" horiz-adv-x="606" 
d="M537 279c0 -169 -125 -285 -283 -285c-108 0 -191 76 -191 184c0 202 176 421 399 550l48 -62c-104 -67 -194 -139 -266 -246c40 24 80 33 119 33c105 0 174 -73 174 -174zM433 251c1 59 -35 104 -101 104c-90 0 -166 -65 -166 -157c0 -61 47 -107 109 -107
c87 0 158 76 158 160z" />
    <glyph glyph-name="seven" unicode="7" horiz-adv-x="515" 
d="M578 698l-17 -82c-146 -127 -287 -303 -345 -616h-106c62 301 190 473 311 600h-213l-10 -47h-98l31 145h447z" />
    <glyph glyph-name="eight" unicode="8" horiz-adv-x="551" 
d="M552 543c0 -72 -49 -141 -110 -176c36 -20 65 -65 65 -109c0 -165 -135 -265 -283 -265c-111 0 -193 62 -193 166c0 85 54 172 137 208c-32 25 -53 67 -53 111c-1 136 135 226 260 226c87 0 177 -62 177 -161zM447 525c0 50 -42 82 -93 82c-67 0 -137 -52 -137 -122
c0 -53 39 -78 95 -78c70 0 135 43 135 118zM403 235c0 59 -44 92 -108 92c-83 0 -159 -58 -159 -145c0 -57 49 -91 108 -91c82 0 158 60 159 144z" />
    <glyph glyph-name="nine" unicode="9" horiz-adv-x="549" 
d="M558 520c0 -202 -176 -421 -398 -550l-49 62c104 68 195 139 266 247c-40 -25 -79 -34 -119 -34c-99 0 -174 81 -174 182c0 164 111 277 283 277c120 0 192 -76 191 -184zM455 501c1 60 -47 106 -109 106c-86 0 -157 -75 -158 -160c0 -59 36 -104 102 -104
c90 0 165 66 165 158z" />
    <glyph glyph-name="colon" unicode=":" horiz-adv-x="253" 
d="M222 345c-7 -31 -36 -55 -67 -55c-34 0 -56 28 -49 61c6 31 36 56 67 56c34 0 56 -29 49 -62zM157 47c-6 -31 -36 -55 -67 -55c-34 0 -56 28 -49 61c7 31 36 55 68 55c34 0 55 -28 48 -61z" />
    <glyph glyph-name="semicolon" unicode=";" horiz-adv-x="272" 
d="M241 345c-7 -31 -36 -55 -67 -55c-34 0 -56 28 -49 61c6 31 36 56 67 56c34 0 56 -29 49 -62zM189 51l-12 -51l-110 -135h-42l48 195c6 27 35 49 66 49c35 0 58 -27 50 -58z" />
    <glyph glyph-name="less" unicode="&#x3c;" horiz-adv-x="530" 
d="M577 698l-351 -349l203 -349h-133l-203 349l351 349h133z" />
    <glyph glyph-name="equal" unicode="=" horiz-adv-x="583" 
d="M553 384l-19 -84h-433l19 84h433zM512 201l-19 -85h-433l19 85h433z" />
    <glyph glyph-name="greater" unicode="&#x3e;" horiz-adv-x="492" 
d="M465 349l-351 -349h-133l351 349l-203 349h134z" />
    <glyph glyph-name="question" unicode="?" horiz-adv-x="491" 
d="M516 558c0 -93 -51 -148 -126 -187c-52 -27 -77 -44 -91 -97l-26 -100h-79s6 75 12 101c21 98 76 134 125 161c46 24 83 49 83 101c0 45 -35 71 -89 71c-58 0 -118 -34 -136 -116h-96c30 144 140 214 253 214c95 0 170 -55 170 -148zM274 56c-8 -36 -43 -65 -79 -65
s-59 29 -51 65s43 65 79 65c35 0 58 -29 51 -65z" />
    <glyph glyph-name="at" unicode="@" horiz-adv-x="708" 
d="M708 492c1 -70 -21 -148 -59 -224l-77 -273l-108 7l33 110c-53 -84 -117 -125 -164 -125c-84 0 -133 60 -134 143c-1 153 158 373 324 373c27 0 54 -7 77 -24c1 62 -27 118 -95 118c-168 0 -354 -265 -354 -427c0 -38 6 -65 30 -96l-75 -84c-49 51 -63 114 -63 182
c0 221 243 528 473 528c125 0 192 -95 192 -208zM547 344c0 24 -5 55 -35 55c-98 0 -204 -169 -204 -257c0 -24 7 -52 35 -51c94 1 204 162 204 253z" />
    <glyph glyph-name="A" unicode="A" horiz-adv-x="718" 
d="M668 0h-108l-36 196h-270l-120 -196h-114l425 698h95zM505 297l-44 240l-146 -240h190z" />
    <glyph glyph-name="B" unicode="B" horiz-adv-x="647" 
d="M639 551c0 -79 -27 -145 -97 -190c40 -23 58 -63 58 -107c0 -176 -129 -254 -287 -254h-271l148 698h250c113 0 199 -42 199 -147zM530 529c0 58 -51 66 -112 66h-144l-41 -194h143c85 0 154 33 154 128zM492 234c0 62 -55 70 -119 70h-161l-42 -201h154
c86 0 168 28 168 131z" />
    <glyph glyph-name="C" unicode="C" horiz-adv-x="609" 
d="M642 574l-87 -63c-34 55 -65 92 -140 92c-170 0 -250 -208 -251 -356c0 -83 34 -152 135 -152c75 0 120 46 178 101l71 -72c-82 -86 -152 -133 -263 -133c-164 0 -228 105 -228 239c0 220 105 477 372 477c111 0 161 -52 213 -133z" />
    <glyph glyph-name="D" unicode="D" horiz-adv-x="663" 
d="M666 522c0 -58 -13 -116 -25 -173c-11 -49 -22 -103 -40 -152c-61 -167 -180 -197 -329 -197h-224l148 698h221c143 0 250 -27 249 -176zM560 499c0 67 -36 96 -165 96h-115l-104 -491h111c199 0 210 68 248 245c14 63 25 113 25 150z" />
    <glyph glyph-name="E" unicode="E" horiz-adv-x="607" 
d="M654 698l-22 -103h-358l-40 -188h313l-20 -96h-314l-44 -208h359l-22 -103h-464l148 698h464z" />
    <glyph glyph-name="F" unicode="F" horiz-adv-x="589" 
d="M647 698l-22 -103h-349l-40 -188h313l-21 -96h-313l-66 -311h-105l148 698h455z" />
    <glyph glyph-name="G" unicode="G" horiz-adv-x="658" 
d="M649 574l-89 -63c-34 55 -69 92 -144 92c-170 0 -246 -208 -247 -356c0 -83 34 -152 135 -152c106 0 175 96 196 192h-175l22 104h275l-82 -391h-98l16 74c-46 -57 -99 -83 -168 -83c-164 0 -228 105 -228 239c0 220 109 477 376 477c111 0 159 -52 211 -133z" />
    <glyph glyph-name="H" unicode="H" horiz-adv-x="693" 
d="M721 698l-148 -698h-106l66 311h-312l-66 -311h-106l148 698h106l-61 -287h312l61 287h106z" />
    <glyph glyph-name="I" unicode="I" horiz-adv-x="296" 
d="M311 698l-148 -698h-109l148 698h109z" />
    <glyph glyph-name="J" unicode="J" horiz-adv-x="559" 
d="M575 698l-102 -477c-32 -149 -109 -228 -270 -228c-129 0 -177 67 -198 181l100 24c17 -71 36 -103 109 -103c92 0 135 36 154 126l101 477h106z" />
    <glyph glyph-name="K" unicode="K" 
d="M665 698l-329 -347l115 -177c28 -41 57 -71 127 -71v-103c-113 0 -171 49 -216 117l-141 232l-74 -349h-106l148 698h106l-72 -341l319 341h123z" />
    <glyph glyph-name="L" unicode="L" horiz-adv-x="526" 
d="M486 103l-22 -103h-423l148 698h105l-126 -595h318z" />
    <glyph glyph-name="M" unicode="M" horiz-adv-x="787" 
d="M798 698l-148 -698h-107l84 394l-232 -394h-89l-64 394l-83 -394h-107l148 698h95l87 -533l314 533h102z" />
    <glyph glyph-name="N" unicode="N" horiz-adv-x="679" 
d="M691 698l-149 -698h-93l-199 483l-102 -483h-106l148 698h85l204 -497l106 497h106z" />
    <glyph glyph-name="O" unicode="O" 
d="M657 468c0 -219 -99 -477 -376 -477c-166 0 -227 105 -227 239c0 235 107 477 378 477c165 0 225 -105 225 -239zM550 451c0 84 -33 152 -140 152c-178 0 -249 -208 -248 -357c0 -83 30 -151 138 -151c177 0 250 207 250 356z" />
    <glyph glyph-name="P" unicode="P" horiz-adv-x="642" 
d="M664 549c1 -167 -106 -263 -288 -263h-165l-61 -286h-106l148 698h267c117 0 205 -41 205 -149zM556 524c0 62 -55 71 -119 71h-161l-44 -211h160c91 0 164 41 164 140z" />
    <glyph glyph-name="Q" unicode="Q" horiz-adv-x="665" 
d="M657 468c0 -156 -50 -332 -180 -420l3 -4c32 -46 73 -44 120 -44v-95c-97 0 -162 23 -201 80l-14 20c-32 -9 -67 -14 -105 -14c-166 0 -226 105 -226 239c0 235 107 477 378 477c165 0 225 -105 225 -239zM550 451c0 84 -33 152 -140 152c-178 0 -249 -208 -248 -357
c0 -83 32 -151 140 -151c6 0 13 0 19 1l-70 99h124l44 -63c92 67 131 209 131 319z" />
    <glyph glyph-name="R" unicode="R" horiz-adv-x="642" 
d="M643 545c0 -115 -82 -222 -200 -238l59 -143c15 -39 25 -61 89 -61l1 -103c-109 0 -162 41 -196 126l-43 121c-11 31 -22 48 -59 48h-82l-63 -295h-106l148 698h250c114 0 202 -45 202 -153zM530 523c0 59 -49 72 -111 72h-144l-43 -203h144c86 0 154 38 154 131z" />
    <glyph glyph-name="S" unicode="S" horiz-adv-x="574" 
d="M611 535l-99 -41c-34 60 -57 105 -152 105c-59 0 -148 -21 -148 -96c0 -111 346 -50 345 -252c0 -161 -127 -262 -307 -262c-154 0 -235 70 -235 226l108 18c0 -107 45 -140 149 -140c75 0 176 43 176 131c0 133 -345 63 -345 251c0 162 129 228 279 228
c134 0 183 -72 229 -168z" />
    <glyph glyph-name="T" unicode="T" horiz-adv-x="549" 
d="M615 698l-22 -103h-209l-126 -595h-106l126 595h-209l22 103h524z" />
    <glyph glyph-name="U" unicode="U" horiz-adv-x="639" 
d="M682 698l-85 -402c-38 -176 -110 -305 -327 -305c-194 0 -235 129 -197 305l85 402h106l-85 -402c-25 -113 -20 -201 113 -201s175 88 199 202l85 401h106z" />
    <glyph glyph-name="V" unicode="V" horiz-adv-x="607" 
d="M672 698l-379 -698h-93l-82 698h112l55 -520l276 520h111z" />
    <glyph glyph-name="W" unicode="W" horiz-adv-x="827" 
d="M891 698l-319 -698h-96l-19 465l-218 -465h-93l-25 698h110l14 -462l217 462h88l21 -462l210 462h110z" />
    <glyph glyph-name="X" unicode="X" horiz-adv-x="662" 
d="M739 698l-294 -339l159 -359h-126l-115 268l-229 -268h-127l312 359l-150 339h126l106 -250l212 250h126z" />
    <glyph glyph-name="Y" unicode="Y" horiz-adv-x="580" 
d="M668 698l-331 -465l-50 -233h-106l50 235l-134 463h118l95 -335l240 335h118z" />
    <glyph glyph-name="Z" unicode="Z" horiz-adv-x="598" 
d="M648 697l-19 -87l-449 -500c55 -2 122 -17 176 -17c39 0 74 5 123 23l39 -97c-63 -23 -112 -30 -162 -30c-59 0 -130 17 -188 17c-39 0 -74 -5 -123 -23l-34 86l471 525h-314l23 103h457z" />
    <glyph glyph-name="bracketleft" unicode="[" horiz-adv-x="344" 
d="M404 774l-21 -96h-90l-138 -658h91l-20 -96h-196l178 850h196z" />
    <glyph glyph-name="backslash" unicode="\" horiz-adv-x="362" 
d="M322 -76h-103l-119 850h103z" />
    <glyph glyph-name="bracketright" unicode="]" horiz-adv-x="344" 
d="M364 774l-178 -850h-196l20 96h91l137 658h-90l20 96h196z" />
    <glyph glyph-name="asciicircum" unicode="^" horiz-adv-x="586" 
d="M556 412l-97 -45l-88 211l-187 -209l-84 50l250 279h86z" />
    <glyph glyph-name="underscore" unicode="_" horiz-adv-x="535" 
d="M485 -76l-24 -79h-541l24 79h541z" />
    <glyph glyph-name="grave" unicode="`" horiz-adv-x="293" 
d="M293 545h-76l-97 146h108z" />
    <glyph glyph-name="a" unicode="a" horiz-adv-x="493" 
d="M483 445l-85 -382l4 -50l-102 -29l-5 73l22 82c-32 -56 -92 -147 -151 -147c-99 0 -126 87 -126 166c0 153 129 332 291 332c52 0 94 -16 152 -45zM367 396c-10 2 -21 3 -33 3c-112 0 -191 -151 -191 -249c0 -24 1 -63 33 -63c81 0 170 214 191 309z" />
    <glyph glyph-name="b" unicode="b" horiz-adv-x="499" 
d="M479 321c0 -152 -127 -327 -288 -329c-52 0 -94 16 -151 46l142 660h104l-75 -350c34 79 97 146 150 146c91 0 118 -96 118 -173zM378 331c0 21 -4 68 -31 68c-92 0 -165 -198 -190 -305c10 -2 21 -4 33 -4c102 0 188 146 188 241z" />
    <glyph glyph-name="c" unicode="c" horiz-adv-x="456" 
d="M466 382l-83 -48c-30 48 -49 56 -78 56c-102 0 -152 -129 -152 -217c0 -49 19 -83 61 -83c32 0 54 5 114 62l70 -68c-76 -71 -118 -92 -184 -92c-121 0 -164 80 -164 176c0 148 87 321 255 321c70 0 120 -28 161 -107z" />
    <glyph glyph-name="d" unicode="d" horiz-adv-x="496" 
d="M526 698l-136 -628l5 -57l-103 -29l-6 75l21 79c-34 -70 -98 -146 -153 -146c-94 0 -124 88 -124 172c0 148 127 329 283 329c20 1 41 -3 61 -9l47 214h105zM355 396c-11 2 -21 4 -33 4c-107 0 -191 -144 -191 -243c0 -19 2 -63 26 -63c100 0 176 200 198 302z" />
    <glyph glyph-name="e" unicode="e" horiz-adv-x="454" 
d="M454 372c0 -125 -214 -157 -303 -162c-3 -15 -5 -30 -5 -42c0 -52 18 -78 66 -78c32 0 57 6 114 64l69 -70c-73 -73 -118 -92 -183 -92c-111 0 -167 73 -167 179c0 147 88 318 255 318c70 0 154 -36 154 -117zM351 372c0 12 -17 19 -51 19c-47 0 -92 -26 -124 -97
c45 7 175 35 175 78z" />
    <glyph glyph-name="f" unicode="f" horiz-adv-x="317" 
d="M397 698l-22 -103c-86 0 -119 -39 -135 -110h98l-20 -92h-98l-88 -407c-31 -147 -107 -209 -262 -209l22 103c96 0 122 42 138 118l85 395h-45l20 92h45c34 150 101 213 262 213z" />
    <glyph glyph-name="g" unicode="g" horiz-adv-x="524" 
d="M499 443l-99 -462c-24 -115 -91 -201 -219 -201c-54 0 -95 15 -146 41l46 88c41 -21 67 -27 100 -27c92 0 107 75 124 147c2 3 26 106 26 109c-31 -61 -93 -148 -146 -148c-144 0 -138 180 -114 256c21 65 51 117 94 162c50 52 113 80 182 81c52 1 95 -16 152 -46z
M384 395c-10 3 -21 4 -33 4c-106 0 -191 -144 -191 -243c0 -17 1 -69 29 -69c101 0 174 227 195 308z" />
    <glyph glyph-name="h" unicode="h" horiz-adv-x="534" 
d="M499 362c0 -22 -3 -61 -8 -82l-62 -280h-105l66 301c3 12 8 35 8 53c-1 19 -7 35 -29 35c-111 0 -182 -192 -205 -301l-19 -88h-105l151 698h105l-75 -351c40 97 102 146 155 146c94 0 123 -54 123 -131z" />
    <glyph glyph-name="i" unicode="i" horiz-adv-x="258" 
d="M278 643c0 -35 -31 -68 -67 -68c-32 0 -53 26 -53 55c0 35 31 68 67 68c33 0 53 -26 53 -55zM237 485l-98 -485h-99l97 485h100z" />
    <glyph glyph-name="j" unicode="j" horiz-adv-x="292" 
d="M312 641c0 -35 -31 -68 -67 -68c-33 0 -54 26 -54 55c0 35 31 68 67 68c33 0 54 -26 54 -55zM272 484l-104 -494c-30 -146 -104 -210 -258 -210l22 103c94 0 119 43 135 119l102 482h103z" />
    <glyph glyph-name="k" unicode="k" horiz-adv-x="482" 
d="M482 485l-176 -217l56 -109c20 -39 44 -58 104 -58v-101c-104 0 -161 43 -192 107l-75 159l-57 -266h-102l148 698h103l-91 -424l168 211h114z" />
    <glyph glyph-name="l" unicode="l" horiz-adv-x="239" 
d="M259 698l-113 -573c-4 -21 11 -24 36 -24l-20 -101c-98 0 -129 50 -111 137l110 561h98z" />
    <glyph glyph-name="m" unicode="m" horiz-adv-x="806" 
d="M767 286l-65 -286h-108l71 307c6 27 19 84 -24 84c-109 0 -165 -179 -185 -264c-10 -42 -19 -81 -29 -127h-108l71 307c6 27 18 84 -20 84c-102 0 -163 -159 -187 -253l-36 -138h-107l111 485h107l-31 -138c26 57 92 143 161 143c65 0 116 -45 109 -143
c25 61 84 143 151 143c125 -1 143 -101 119 -204z" />
    <glyph glyph-name="n" unicode="n" horiz-adv-x="514" 
d="M476 285l-64 -285h-106l69 306c6 26 15 85 -27 85c-95 0 -145 -136 -167 -217l-46 -174h-105l109 485h105l-34 -137c30 59 86 141 162 141c110 0 125 -106 104 -204z" />
    <glyph glyph-name="o" unicode="o" horiz-adv-x="485" 
d="M465 332c0 -168 -71 -341 -271 -341c-119 0 -164 71 -163 166c1 166 72 337 270 337c123 0 163 -69 164 -162zM361 315c0 46 -11 80 -81 80c-113 0 -145 -126 -146 -223c0 -47 11 -83 81 -83c114 0 147 128 146 226z" />
    <glyph glyph-name="p" unicode="p" horiz-adv-x="508" 
d="M485 318c0 -157 -121 -325 -283 -326c-20 0 -40 3 -61 8l-44 -202h-105l149 687h105l-30 -137c35 78 98 142 152 142c96 0 117 -92 117 -172zM383 317c0 14 -1 71 -27 71c-102 0 -177 -209 -196 -304c10 -3 21 -4 33 -4c107 0 190 142 190 237z" />
    <glyph glyph-name="q" unicode="q" horiz-adv-x="505" 
d="M480 445l-139 -645h-104l73 337c-35 -74 -96 -146 -149 -146c-97 0 -121 87 -121 171c0 152 126 329 289 329c52 0 94 -15 151 -46zM364 396c-10 2 -20 3 -32 3c-109 0 -189 -157 -190 -251c0 -19 4 -63 29 -63c96 0 178 240 193 311z" />
    <glyph glyph-name="r" unicode="r" horiz-adv-x="414" 
d="M434 467l-23 -105c-27 25 -44 31 -60 31c-106 0 -175 -206 -198 -308l-18 -85h-105l108 484h104l-33 -136c45 102 94 141 146 141c25 0 51 -9 79 -22z" />
    <glyph glyph-name="s" unicode="s" horiz-adv-x="423" 
d="M418 371l-93 -33c-12 35 -34 59 -76 59c-34 0 -64 -25 -64 -47c0 -71 195 -45 195 -196c0 -101 -92 -163 -192 -163c-64 0 -144 22 -168 153l98 25c5 -44 32 -81 82 -80c37 0 77 25 77 65c-1 69 -193 45 -193 182c0 99 83 154 181 154c71 0 120 -33 153 -119z" />
    <glyph glyph-name="t" unicode="t" horiz-adv-x="311" 
d="M325 485l-16 -83h-69l-57 -278c-1 -8 -1 -23 19 -23h34l-20 -101h-39c-84 0 -105 66 -91 136l54 266h-60l16 83h61l29 141h100l-30 -141h69z" />
    <glyph glyph-name="u" unicode="u" horiz-adv-x="504" 
d="M504 485l-109 -485h-105l33 139c-23 -51 -89 -144 -151 -144c-98 0 -129 50 -125 131c1 22 6 51 11 73l64 286h105l-68 -307c-3 -15 -6 -31 -6 -46c0 -22 6 -38 31 -38c124 0 192 296 215 391h105z" />
    <glyph glyph-name="v" unicode="v" horiz-adv-x="505" 
d="M535 494l-294 -494h-88l-83 494h106l53 -325l192 325h114z" />
    <glyph glyph-name="w" unicode="w" horiz-adv-x="798" 
d="M818 494l-269 -494h-91l-51 312l-185 -312h-90l-57 494h106l34 -312l182 312h89l49 -313l169 313h114z" />
    <glyph glyph-name="x" unicode="x" horiz-adv-x="515" 
d="M545 494l-219 -241l123 -253h-125l-80 165l-149 -165h-125l231 253l-117 241h125l72 -156l139 156h125z" />
    <glyph glyph-name="y" unicode="y" horiz-adv-x="515" 
d="M545 484l-363 -600c-37 -62 -92 -105 -168 -104h-54l23 102c56 -1 80 -6 112 46l43 70c17 29 16 53 11 86l-67 400h108l47 -325l192 325h116z" />
    <glyph glyph-name="z" unicode="z" horiz-adv-x="498" 
d="M508 484l-20 -86l-308 -295c37 -4 73 -15 110 -15c29 0 59 4 100 21l45 -86c-59 -25 -102 -32 -145 -32c-49 0 -95 16 -144 16c-29 0 -57 -2 -98 -20l-43 79l329 320h-211l22 98h363z" />
    <glyph glyph-name="braceleft" unicode="{" horiz-adv-x="410" 
d="M444 795l-20 -93c-86 0 -119 -42 -136 -123c-7 -33 4 -73 -3 -106c-9 -45 -36 -93 -77 -124c28 -30 35 -78 25 -123c-7 -34 -36 -75 -44 -109c-16 -78 6 -120 86 -119l-20 -94c-132 0 -201 64 -172 202c8 38 37 84 45 121c14 67 -15 81 -77 81l18 82c61 0 97 15 111 81
c7 36 -2 80 6 115c30 143 119 209 258 209z" />
    <glyph glyph-name="bar" unicode="|" horiz-adv-x="291" 
d="M286 774l-181 -850h-100l180 850h101z" />
    <glyph glyph-name="braceright" unicode="}" horiz-adv-x="410" 
d="M358 390l-17 -82c-62 0 -97 -14 -111 -81c-8 -37 1 -83 -7 -121c-29 -138 -126 -202 -258 -202l20 94c80 -1 120 41 136 119c7 34 -4 75 3 109c10 45 36 93 78 123c-29 31 -35 79 -25 124c7 33 35 73 42 106c17 81 2 123 -84 123l20 93c139 0 200 -66 170 -209
c-8 -35 -36 -79 -43 -115c-15 -66 15 -81 76 -81z" />
    <glyph glyph-name="asciitilde" unicode="~" horiz-adv-x="533" 
d="M484 295c-45 -45 -94 -81 -155 -81c-73 0 -99 64 -150 64c-26 0 -54 -33 -72 -52l-58 66c45 46 91 83 153 83c73 0 100 -64 150 -64c26 0 57 34 76 52z" />
    <glyph glyph-name="Adieresis" unicode="&#xc4;" horiz-adv-x="723" 
d="M688 830c-6 -30 -36 -55 -67 -55c-34 0 -56 29 -49 61c6 31 36 56 67 56c34 0 56 -29 49 -62zM481 830c-7 -30 -36 -55 -67 -55c-34 0 -56 29 -49 61c6 31 36 56 67 56c34 0 56 -29 49 -62zM668 0h-108l-36 196h-270l-120 -196h-114l425 698h95zM505 297l-44 240
l-146 -240h190z" />
    <glyph glyph-name="Aring" unicode="&#xc5;" horiz-adv-x="718" 
d="M658 868c-15 -68 -81 -123 -150 -123c-72 0 -118 59 -103 129c15 68 81 124 150 124c72 0 118 -60 103 -130zM668 0h-108l-36 196h-270l-120 -196h-114l425 698h95zM583 874c6 28 -11 48 -38 48c-29 0 -59 -24 -65 -54c-6 -27 11 -48 38 -48c29 0 59 24 65 54zM505 297
l-44 240l-146 -240h190z" />
    <glyph glyph-name="Ccedilla" unicode="&#xc7;" horiz-adv-x="611" 
d="M644 574l-89 -63c-34 55 -69 92 -144 92c-170 0 -246 -208 -247 -356c0 -83 38 -152 139 -152c75 0 116 46 174 101l71 -72c-65 -69 -126 -112 -203 -127l11 -54l-103 -139h-140l135 157l-7 33c-134 16 -184 114 -184 236c0 220 109 477 376 477c111 0 159 -52 211 -133z
" />
    <glyph glyph-name="Eacute" unicode="&#xc9;" horiz-adv-x="607" 
d="M595 921l-156 -146h-85l123 146h118zM654 698l-22 -103h-358l-40 -188h313l-20 -96h-314l-44 -208h359l-22 -103h-464l148 698h464z" />
    <glyph glyph-name="Ntilde" unicode="&#xd1;" horiz-adv-x="679" 
d="M631 815l-22 -19c-62 -52 -114 -44 -157 -28c-20 7 -38 16 -55 20c-33 10 -46 -10 -68 -28l-60 49c72 60 121 75 204 37c25 -11 48 -19 65 -8c12 7 22 17 32 26zM691 698l-149 -698h-97l-195 483l-102 -483h-106l148 698h97l195 -483l103 483h106z" />
    <glyph glyph-name="Odieresis" unicode="&#xd6;" 
d="M605 830c-6 -30 -36 -55 -67 -55c-34 0 -56 29 -49 61c7 31 36 56 67 56c34 0 56 -29 49 -62zM398 830c-6 -30 -36 -55 -67 -55c-34 0 -56 29 -49 61c7 31 36 56 67 56c34 0 56 -29 49 -62zM657 468c0 -219 -100 -477 -377 -477c-166 0 -226 105 -226 239
c0 235 107 477 378 477c165 0 225 -105 225 -239zM550 451c0 84 -33 152 -140 152c-178 0 -249 -208 -248 -357c0 -83 32 -151 140 -151c177 0 248 207 248 356z" />
    <glyph glyph-name="Udieresis" unicode="&#xdc;" horiz-adv-x="639" 
d="M608 830c-6 -30 -36 -55 -67 -55c-34 0 -56 29 -49 61c7 31 36 56 67 56c34 0 56 -29 49 -62zM401 830c-6 -30 -36 -55 -67 -55c-34 0 -56 29 -49 61c7 31 36 56 67 56c34 0 56 -29 49 -62zM682 698l-85 -402c-38 -176 -110 -305 -327 -305c-194 0 -235 128 -197 305
l85 402h106l-85 -402c-25 -113 -20 -201 113 -201s175 88 199 202l85 401h106z" />
    <glyph glyph-name="aacute" unicode="&#xe1;" horiz-adv-x="498" 
d="M488 691l-157 -146h-85l123 146h119zM483 445l-85 -382l4 -50l-102 -29l-5 73l22 82c-32 -56 -92 -147 -151 -147c-99 0 -126 87 -126 166c0 153 129 332 291 332c52 0 94 -16 152 -45zM367 396c-10 2 -21 3 -33 3c-112 0 -191 -151 -191 -249c0 -24 1 -63 33 -63
c81 0 170 214 191 309z" />
    <glyph glyph-name="agrave" unicode="&#xe0;" horiz-adv-x="493" 
d="M380 545h-75l-97 146h107zM483 445l-85 -382l4 -50l-102 -29l-5 73l22 82c-32 -56 -92 -147 -151 -147c-99 0 -126 87 -126 166c0 153 129 332 291 332c52 0 94 -16 152 -45zM367 396c-10 2 -21 3 -33 3c-112 0 -191 -151 -191 -249c0 -24 1 -63 33 -63
c81 0 170 214 191 309z" />
    <glyph glyph-name="acircumflex" unicode="&#xe2;" horiz-adv-x="502" 
d="M492 528h-103l-36 84l-79 -84h-119l158 156h99zM483 445l-85 -382l4 -50l-102 -29l-5 73l22 82c-32 -56 -92 -147 -151 -147c-99 0 -126 87 -126 166c0 153 129 332 291 332c52 0 94 -16 152 -45zM367 396c-10 2 -21 3 -33 3c-112 0 -191 -151 -191 -249
c0 -24 1 -63 33 -63c81 0 170 214 191 309z" />
    <glyph glyph-name="adieresis" unicode="&#xe4;" horiz-adv-x="487" 
d="M500 592c-7 -30 -36 -55 -68 -55c-34 0 -56 29 -49 62c7 30 36 55 68 55c34 0 56 -29 49 -62zM292 592c-6 -30 -36 -55 -67 -55c-34 0 -56 29 -49 62c7 30 36 55 68 55c34 0 55 -29 48 -62zM483 445l-85 -382l4 -50l-102 -29l-5 73l22 82c-32 -56 -92 -147 -151 -147
c-99 0 -126 87 -126 166c0 153 129 332 291 332c52 0 94 -16 152 -45zM367 396c-10 2 -21 3 -33 3c-112 0 -191 -151 -191 -249c0 -24 1 -63 33 -63c81 0 170 214 191 309z" />
    <glyph glyph-name="atilde" unicode="&#xe3;" horiz-adv-x="487" 
d="M517 594l-21 -18c-62 -52 -114 -44 -158 -29c-19 7 -37 16 -54 21c-33 9 -46 -10 -68 -29l-60 50c72 60 121 75 204 37c25 -12 48 -19 65 -9c12 7 22 18 32 26zM483 445l-85 -382l4 -50l-102 -29l-5 73l22 82c-32 -56 -92 -147 -151 -147c-99 0 -126 87 -126 166
c0 153 129 332 291 332c52 0 94 -16 152 -45zM367 396c-10 2 -21 3 -33 3c-112 0 -191 -151 -191 -249c0 -24 1 -63 33 -63c81 0 170 214 191 309z" />
    <glyph glyph-name="aring" unicode="&#xe5;" horiz-adv-x="485" 
d="M488 651c-14 -68 -81 -124 -150 -124c-71 0 -117 60 -102 130c14 68 81 123 150 123c71 0 117 -59 102 -129zM483 445l-85 -382l4 -50l-102 -29l-5 73l22 82c-32 -56 -92 -147 -151 -147c-99 0 -126 87 -126 166c0 153 129 332 291 332c52 0 94 -16 152 -45zM413 657
c6 28 -10 48 -37 48c-29 0 -59 -24 -65 -54c-6 -28 11 -48 37 -48c29 0 59 24 65 54zM367 396c-10 2 -21 3 -33 3c-112 0 -191 -151 -191 -249c0 -24 1 -63 33 -63c81 0 170 214 191 309z" />
    <glyph glyph-name="ccedilla" unicode="&#xe7;" horiz-adv-x="456" 
d="M466 382l-83 -48c-30 48 -49 56 -78 56c-102 0 -152 -129 -152 -217c0 -49 19 -83 61 -83c32 0 54 5 114 62l70 -68c-50 -47 -86 -72 -123 -84l14 -60l-101 -136h-138l132 154l-9 37c-90 16 -123 88 -123 173c0 148 87 321 255 321c70 0 120 -28 161 -107z" />
    <glyph glyph-name="eacute" unicode="&#xe9;" horiz-adv-x="456" 
d="M456 691l-156 -146h-85l123 146h118zM454 372c0 -125 -214 -157 -303 -162c-3 -15 -5 -30 -5 -42c0 -52 18 -78 66 -78c32 0 57 6 114 64l69 -70c-73 -73 -118 -92 -183 -92c-111 0 -167 73 -167 179c0 147 88 318 255 318c70 0 154 -36 154 -117zM351 372
c0 12 -17 19 -51 19c-47 0 -92 -26 -124 -97c45 7 175 35 175 78z" />
    <glyph glyph-name="egrave" unicode="&#xe8;" horiz-adv-x="454" 
d="M366 545h-75l-97 146h107zM454 372c0 -125 -214 -157 -303 -162c-3 -15 -5 -30 -5 -42c0 -52 18 -78 66 -78c32 0 57 6 114 64l69 -70c-73 -73 -118 -92 -183 -92c-111 0 -167 73 -167 179c0 147 88 318 255 318c70 0 154 -36 154 -117zM351 372c0 12 -17 19 -51 19
c-47 0 -92 -26 -124 -97c45 7 175 35 175 78z" />
    <glyph glyph-name="ecircumflex" unicode="&#xea;" horiz-adv-x="463" 
d="M463 528h-103l-36 84l-79 -84h-119l158 156h98zM454 372c0 -125 -214 -157 -303 -162c-3 -15 -5 -30 -5 -42c0 -52 18 -78 66 -78c32 0 57 6 114 64l69 -70c-73 -73 -118 -92 -183 -92c-111 0 -167 73 -167 179c0 147 88 318 255 318c70 0 154 -36 154 -117zM351 372
c0 12 -17 19 -51 19c-47 0 -92 -26 -124 -97c45 7 175 35 175 78z" />
    <glyph glyph-name="edieresis" unicode="&#xeb;" horiz-adv-x="493" 
d="M491 592c-6 -30 -36 -55 -67 -55c-34 0 -56 29 -49 62c7 30 36 55 68 55c34 0 55 -29 48 -62zM284 592c-6 -30 -36 -55 -67 -55c-34 0 -56 29 -49 62c7 30 36 55 67 55c34 0 56 -29 49 -62zM454 372c0 -125 -214 -157 -303 -162c-3 -15 -5 -30 -5 -42
c0 -52 18 -78 66 -78c32 0 57 6 114 64l69 -70c-73 -73 -118 -92 -183 -92c-111 0 -167 73 -167 179c0 147 88 318 255 318c70 0 154 -36 154 -117zM351 372c0 12 -17 19 -51 19c-47 0 -92 -26 -124 -97c45 7 175 35 175 78z" />
    <glyph glyph-name="iacute" unicode="&#xed;" horiz-adv-x="260" 
d="M350 691l-157 -146h-85l123 146h119zM237 485l-98 -485h-99l97 485h100z" />
    <glyph glyph-name="igrave" unicode="&#xec;" horiz-adv-x="257" 
d="M253 545h-76l-97 146h108zM237 485l-98 -485h-99l97 485h100z" />
    <glyph glyph-name="icircumflex" unicode="&#xee;" horiz-adv-x="261" 
d="M357 528h-103l-36 84l-79 -84h-119l158 156h99zM239 485l-97 -485h-100l98 485h99z" />
    <glyph glyph-name="idieresis" unicode="&#xef;" horiz-adv-x="257" 
d="M366 592c-7 -30 -36 -55 -68 -55c-34 0 -56 29 -49 62c7 30 36 55 68 55c34 0 55 -29 49 -62zM158 592c-6 -30 -36 -55 -67 -55c-34 0 -56 29 -49 62c7 30 36 55 68 55c34 0 55 -29 48 -62zM237 485l-98 -485h-99l97 485h100z" />
    <glyph glyph-name="ntilde" unicode="&#xf1;" horiz-adv-x="542" 
d="M512 594l-21 -18c-62 -52 -114 -44 -157 -29c-20 7 -38 16 -55 21c-33 9 -46 -10 -68 -29l-60 50c72 60 121 75 204 37c25 -12 48 -19 65 -9c12 7 22 18 32 26zM476 285l-64 -285h-106l69 306c6 26 15 85 -27 85c-95 0 -145 -136 -167 -217l-46 -174h-105l109 485h105
l-34 -137c30 59 86 141 162 141c110 0 125 -106 104 -204z" />
    <glyph glyph-name="oacute" unicode="&#xf3;" horiz-adv-x="485" 
d="M448 691l-156 -146h-85l123 146h118zM465 332c0 -168 -71 -341 -271 -341c-119 0 -164 71 -163 166c1 166 72 337 270 337c123 0 163 -69 164 -162zM361 315c0 46 -11 80 -81 80c-113 0 -145 -126 -146 -223c0 -47 11 -83 81 -83c114 0 147 128 146 226z" />
    <glyph glyph-name="ograve" unicode="&#xf2;" horiz-adv-x="485" 
d="M375 545h-76l-97 146h108zM465 332c0 -168 -71 -341 -271 -341c-119 0 -164 71 -163 166c1 166 72 337 270 337c123 0 163 -69 164 -162zM361 315c0 46 -11 80 -81 80c-113 0 -145 -126 -146 -223c0 -47 11 -83 81 -83c114 0 147 128 146 226z" />
    <glyph glyph-name="ocircumflex" unicode="&#xf4;" horiz-adv-x="491" 
d="M471 528h-103l-37 84l-78 -84h-119l158 156h98zM465 332c0 -168 -71 -341 -271 -341c-119 0 -164 71 -163 166c1 166 72 337 270 337c123 0 163 -69 164 -162zM361 315c0 46 -11 80 -81 80c-113 0 -145 -126 -146 -223c0 -47 11 -83 81 -83c114 0 147 128 146 226z" />
    <glyph glyph-name="odieresis" unicode="&#xf6;" horiz-adv-x="488" 
d="M490 592c-6 -30 -36 -55 -67 -55c-34 0 -56 29 -49 62c7 30 36 55 67 55c34 0 56 -29 49 -62zM283 592c-6 -30 -36 -55 -67 -55c-34 0 -56 29 -49 62c7 30 36 55 67 55c34 0 56 -29 49 -62zM465 332c0 -168 -71 -341 -271 -341c-119 0 -164 71 -163 166
c1 166 72 337 270 337c123 0 163 -69 164 -162zM361 315c0 46 -11 80 -81 80c-113 0 -145 -126 -146 -223c0 -47 11 -83 81 -83c114 0 147 128 146 226z" />
    <glyph glyph-name="otilde" unicode="&#xf5;" horiz-adv-x="486" 
d="M490 594l-22 -18c-61 -52 -114 -44 -157 -29c-19 7 -37 16 -54 21c-33 9 -46 -10 -68 -29l-60 50c71 60 121 75 204 37c25 -12 48 -19 65 -9c11 7 22 18 32 26zM465 332c0 -168 -71 -341 -271 -341c-119 0 -164 71 -163 166c1 166 72 337 270 337c123 0 163 -69 164 -162
zM361 315c0 46 -11 80 -81 80c-113 0 -145 -126 -146 -223c0 -47 11 -83 81 -83c114 0 147 128 146 226z" />
    <glyph glyph-name="uacute" unicode="&#xfa;" horiz-adv-x="500" 
d="M444 691l-156 -146h-85l123 146h118zM500 485l-108 -485h-106l33 139c-31 -71 -99 -144 -151 -144c-84 0 -121 56 -121 137c0 21 3 43 8 67l64 286h105l-68 -307c-5 -20 -6 -35 -6 -46c0 -23 6 -38 30 -38c120 0 187 270 216 391h104z" />
    <glyph glyph-name="ugrave" unicode="&#xf9;" horiz-adv-x="500" 
d="M371 545h-76l-97 146h108zM500 485l-108 -485h-106l33 139c-31 -71 -99 -144 -151 -144c-84 0 -121 56 -121 137c0 21 3 43 8 67l64 286h105l-68 -307c-5 -20 -6 -35 -6 -46c0 -23 6 -38 30 -38c120 0 187 270 216 391h104z" />
    <glyph glyph-name="ucircumflex" unicode="&#xfb;" horiz-adv-x="500" 
d="M474 528h-103l-37 84l-78 -84h-119l158 156h98zM500 485l-108 -485h-106l33 139c-31 -71 -99 -144 -151 -144c-84 0 -121 56 -121 137c0 21 3 43 8 67l64 286h105l-68 -307c-5 -20 -6 -35 -6 -46c0 -23 6 -38 30 -38c120 0 187 270 216 391h104z" />
    <glyph glyph-name="udieresis" unicode="&#xfc;" horiz-adv-x="500" 
d="M486 592c-6 -30 -36 -55 -67 -55c-34 0 -56 29 -49 62c7 30 36 55 67 55c34 0 56 -29 49 -62zM279 592c-7 -30 -36 -55 -67 -55c-34 0 -56 29 -49 62c6 30 36 55 67 55c34 0 56 -29 49 -62zM500 485l-108 -485h-106l33 139c-31 -71 -99 -144 -151 -144
c-84 0 -121 56 -121 137c0 21 3 43 8 67l64 286h105l-68 -307c-5 -20 -6 -35 -6 -46c0 -23 6 -38 30 -38c120 0 187 270 216 391h104z" />
    <glyph glyph-name="dagger" unicode="&#x2020;" horiz-adv-x="501" 
d="M521 493l-20 -94h-162l-87 -399h-97l87 399h-162l20 94h162l45 205h97l-45 -205h162z" />
    <glyph glyph-name="degree" unicode="&#xb0;" horiz-adv-x="325" 
d="M342 658c-12 -57 -67 -103 -124 -103c-60 0 -98 50 -86 109c12 57 67 102 125 102c59 0 98 -50 85 -108zM274 664c5 20 -7 34 -26 34c-21 0 -43 -18 -48 -40c-4 -20 8 -34 26 -34c22 0 44 18 48 40z" />
    <glyph glyph-name="cent" unicode="&#xa2;" horiz-adv-x="525" 
d="M515 395l-88 -53c-20 32 -36 43 -56 49l-130 -300c55 0 95 23 135 60l72 -74c-68 -63 -134 -88 -205 -88c-15 0 -30 2 -45 4l-34 -78l-91 20l40 92c-49 36 -63 88 -63 139c1 164 87 332 268 332l33 77l92 -20l-31 -70c38 -13 70 -38 103 -90zM269 385
c-83 -30 -115 -136 -115 -216c0 -14 1 -26 5 -37z" />
    <glyph glyph-name="sterling" unicode="&#xa3;" horiz-adv-x="584" 
d="M584 587l-90 -57c-36 53 -52 72 -114 72c-59 0 -131 -38 -140 -167c-1 -12 -2 -23 -2 -34h137l-45 -103h-94c-2 -59 -10 -116 -46 -189c62 0 122 -18 184 -18c39 0 75 5 124 24l39 -98c-63 -24 -113 -31 -163 -31c-60 0 -117 18 -177 18c-39 0 -74 -5 -124 -23l-33 84
c76 98 86 166 89 233h-85l45 103h41c1 13 1 27 2 41c14 191 140 265 248 265c113 0 158 -52 204 -120z" />
    <glyph glyph-name="section" unicode="&#xa7;" horiz-adv-x="562" 
d="M552 515l-99 -32c-18 95 -64 107 -80 107c-54 0 -101 -39 -115 -101c-21 -103 231 -37 231 -232c0 -65 -31 -134 -80 -177c8 -16 12 -35 12 -55c0 -119 -101 -225 -222 -225c-85 0 -154 59 -179 178l99 33c24 -99 64 -107 80 -107c54 0 101 38 115 101
c22 102 -231 36 -231 232c0 65 32 134 80 177c-8 16 -11 35 -11 55c0 119 100 224 221 224c85 0 150 -56 179 -178zM385 257c0 58 -100 66 -145 86c-31 -23 -52 -67 -53 -105c-1 -59 100 -67 145 -87c31 22 53 67 53 106z" />
    <glyph glyph-name="bullet" unicode="&#x2022;" horiz-adv-x="464" 
d="M399 338c0 -92 -74 -167 -167 -167c-92 0 -167 75 -167 167c0 93 75 167 167 167c93 0 167 -74 167 -167z" />
    <glyph glyph-name="paragraph" unicode="&#xb6;" horiz-adv-x="600" 
d="M600 698l-182 -849h-107l156 732h-55l-157 -732h-107l93 434c-85 15 -141 83 -141 168c0 131 124 247 254 247h246z" />
    <glyph glyph-name="germandbls" unicode="&#xdf;" horiz-adv-x="529" 
d="M509 321c-1 -79 -31 -189 -81 -249c-46 -55 -115 -86 -225 -89l20 104c118 3 151 57 172 157c19 91 17 148 -78 148l-28 -1l19 94c55 0 78 49 78 76c0 19 -12 34 -36 34c-77 0 -101 -53 -115 -118l-150 -702h-105l153 714c25 119 94 209 227 209c78 0 131 -56 131 -128
c0 -41 -18 -81 -43 -112c48 -34 61 -85 61 -137z" />
    <glyph glyph-name="registered" unicode="&#xae;" horiz-adv-x="790" 
d="M745 348c0 -193 -156 -350 -350 -350c-193 0 -350 157 -350 350s157 350 350 350c194 0 350 -157 350 -350zM666 348c0 149 -122 271 -271 271s-270 -122 -270 -271s121 -271 270 -271s271 122 271 271zM575 151h-98c-27 44 -55 91 -82 135c-6 11 -13 19 -24 19h-25v-154
h-84v395h145c25 0 58 -2 87 -20c33 -21 51 -59 51 -101c0 -51 -25 -92 -70 -110zM461 425c0 17 -6 26 -12 30c-8 5 -23 7 -42 7h-61v-73h61c35 0 54 4 54 36z" />
    <glyph glyph-name="copyright" unicode="&#xa9;" horiz-adv-x="790" 
d="M745 348c0 -193 -156 -350 -350 -350c-193 0 -350 157 -350 350s157 350 350 350c194 0 350 -157 350 -350zM666 348c0 149 -122 271 -271 271s-270 -122 -270 -271s121 -271 270 -271s271 122 271 271zM540 473l-65 -54c-38 46 -52 49 -73 49c-26 0 -46 -11 -60 -32
c-12 -20 -18 -42 -18 -88s6 -68 18 -88c14 -20 34 -31 60 -31c21 0 35 2 73 48l65 -54c-50 -59 -85 -79 -138 -79c-54 0 -101 25 -131 71c-23 36 -31 75 -31 133c0 59 8 97 31 133c30 46 77 71 131 71c53 0 88 -19 138 -79z" />
    <glyph glyph-name="trademark" unicode="&#x2122;" horiz-adv-x="654" 
d="M481 699l-45 -214h-48l22 101l-65 -101h-34l-22 100l-21 -100h-48l45 214h45l32 -146l94 146h45zM251 698l-9 -44h-62l-36 -169h-47l36 169h-62l9 44h171z" />
    <glyph glyph-name="acute" unicode="&#xb4;" horiz-adv-x="351" 
d="M371 691l-156 -146h-85l123 146h118z" />
    <glyph glyph-name="dieresis" unicode="&#xa8;" horiz-adv-x="486" 
d="M475 592c-7 -30 -36 -55 -68 -55c-34 0 -56 29 -49 62c7 30 36 55 68 55c34 0 55 -29 49 -62zM267 592c-6 -30 -36 -55 -67 -55c-34 0 -56 29 -49 62c7 30 36 55 68 55c34 0 55 -29 48 -62z" />
    <glyph glyph-name="notequal" unicode="&#x2260;" horiz-adv-x="569" 
d="M539 379l-19 -86h-157l-50 -85h189l-19 -87h-221l-61 -103l-70 27l45 76h-126l19 87h157l51 85h-190l19 86h221l61 103l71 -27l-45 -76h125z" />
    <glyph glyph-name="AE" unicode="&#xc6;" horiz-adv-x="1036" 
d="M1076 698l-23 -103h-349l-40 -181h302l-23 -103h-303l-46 -208h349l-24 -103h-458l44 196h-216l-142 -196h-127l506 698h550zM595 595h-17l-216 -298h166z" />
    <glyph glyph-name="Oslash" unicode="&#xd8;" horiz-adv-x="704" 
d="M714 707l-79 -101c27 -43 36 -91 36 -139c-1 -211 -121 -476 -365 -476c-47 0 -89 11 -125 33l-25 -32h-126l80 103c-24 41 -33 87 -33 132c-1 213 120 480 364 480c46 0 88 -11 123 -31l24 31h126zM499 592c-16 7 -35 11 -58 11c-178 0 -257 -224 -257 -374
c0 -13 1 -25 3 -36zM564 467c0 15 -1 29 -4 42l-314 -402c16 -7 36 -12 60 -12c178 0 257 222 258 372z" />
    <glyph glyph-name="infinity" unicode="&#x221e;" horiz-adv-x="796" 
d="M776 285c0 -100 -92 -164 -185 -165c-75 0 -140 49 -177 82c-52 -32 -140 -82 -214 -82c-65 1 -130 37 -130 114c0 100 92 164 185 164c75 0 140 -49 177 -81c52 32 140 81 214 81c65 0 130 -36 130 -113zM678 274c0 33 -30 35 -43 36c-36 0 -90 -27 -135 -54
c30 -25 67 -47 101 -47c39 0 77 22 77 65zM346 262c-30 25 -67 48 -100 48c-40 -1 -78 -23 -78 -66c0 -33 30 -35 43 -35c36 0 90 27 135 53z" />
    <glyph glyph-name="plusminus" unicode="&#xb1;" horiz-adv-x="536" 
d="M505 391l-20 -95h-165l-35 -164h-96l35 164h-165l20 95h165l35 163h96l-35 -163h165zM442 94l-20 -94h-426l20 94h426z" />
    <glyph glyph-name="lessequal" unicode="&#x2264;" horiz-adv-x="510" 
d="M514 555l-22 -104l-283 -115l234 -115l-22 -103l-362 178l17 81zM416 95l-20 -95h-400l20 95h400z" />
    <glyph glyph-name="greaterequal" unicode="&#x2265;" horiz-adv-x="510" 
d="M476 377l-17 -81l-438 -178l22 103l284 115l-235 115l22 104zM416 95l-20 -95h-400l20 95h400z" />
    <glyph glyph-name="yen" unicode="&#xa5;" horiz-adv-x="699" 
d="M738 698l-226 -318h86l-43 -101h-115l-30 -42h156l-42 -103h-138l-29 -134h-106l29 134l-160 -1l44 103h137l-12 43h-138l43 101h65l-92 318h119l96 -334l238 334h118z" />
    <glyph glyph-name="mu" unicode="&#xb5;" horiz-adv-x="581" 
d="M562 485l-106 -485h-105l3 14c-30 -13 -62 -19 -96 -19c-39 0 -76 8 -105 25l-48 -216h-105l149 681h105l-58 -270c-16 -71 -16 -119 72 -119c57 0 111 31 121 79l68 310h105z" />
    <glyph glyph-name="partialdiff" unicode="&#x2202;" horiz-adv-x="514" 
d="M494 449c0 -179 -42 -452 -281 -452c-105 0 -173 79 -173 178c0 132 121 263 256 263c34 0 65 -9 92 -25c1 29 3 185 -62 184c-21 0 -69 -17 -114 -71l-73 69c70 72 137 106 197 106c131 1 158 -148 158 -252zM363 236c7 60 -28 100 -77 100c-75 0 -141 -81 -141 -153
c0 -52 34 -84 78 -84c69 0 132 70 140 137z" />
    <glyph glyph-name="summation" unicode="&#x2211;" horiz-adv-x="605" 
d="M595 698l-23 -104h-300l154 -360l-301 -350h294l-23 -104h-436l19 87l324 377l-161 378l16 76h437z" />
    <glyph glyph-name="product" unicode="&#x220f;" horiz-adv-x="665" 
d="M675 752l-205 -949h-106l183 846h-268l-183 -846h-106l205 949h480z" />
    <glyph glyph-name="pi" unicode="&#x3c0;" horiz-adv-x="540" 
d="M540 478l-81 -357c-1 -6 -4 -16 -3 -21c0 -2 2 -2 7 -2h53l-22 -98h-41c-40 0 -77 16 -93 52c-13 29 -8 60 -3 80l56 248h-182l-86 -380h-105l108 478h392z" />
    <glyph glyph-name="integral" unicode="&#x222b;" horiz-adv-x="435" 
d="M455 698l-21 -103h-70c-16 0 -22 -6 -29 -36l-133 -627c-5 -23 -13 -54 -36 -80c-26 -31 -64 -48 -104 -48h-82l22 103h69c17 0 23 7 29 36l133 628c5 23 14 53 36 80c26 30 65 47 105 47h81z" />
    <glyph glyph-name="ordfeminine" unicode="&#xaa;" horiz-adv-x="426" 
d="M434 579l-21 -97l-27 -122l4 -41l-87 -25l-2 21c-26 -12 -59 -21 -97 -21c-71 0 -124 46 -124 108c0 86 91 150 172 150h63c11 0 19 3 27 8l6 27c3 17 -8 35 -44 35c-18 0 -51 -6 -78 -33l-82 27c47 67 116 91 171 91c78 0 135 -55 119 -128zM292 276l-16 -75h-155l16 75
h155zM322 469c-6 -1 -11 -1 -17 -1h-63c-29 0 -75 -22 -74 -56c0 -17 15 -34 46 -34c42 0 71 17 96 36z" />
    <glyph glyph-name="ordmasculine" unicode="&#xba;" horiz-adv-x="461" 
d="M449 569c1 -135 -72 -274 -224 -275c-106 0 -143 60 -144 138c-1 134 74 275 225 275c106 0 143 -60 143 -138zM295 276l-16 -75h-155l16 75h155zM363 563c-1 34 -15 59 -67 59c-94 0 -129 -105 -128 -184c0 -34 15 -59 67 -59c94 0 129 104 128 184z" />
    <glyph glyph-name="Omega" unicode="&#x2126;" horiz-adv-x="680" 
d="M645 571c21 -62 19 -128 -4 -229c-19 -88 -47 -174 -110 -243h41l-4 -99h-229l23 104c46 15 76 36 102 69c33 44 53 91 73 181c20 91 21 137 7 178c-15 42 -44 62 -88 62h-27c-46 0 -91 -22 -129 -71c-34 -43 -54 -90 -74 -181s-20 -136 -6 -177c10 -29 27 -48 73 -65
l-22 -100h-231l40 99h50c-41 80 -25 179 -8 255c23 102 49 166 95 225c58 74 137 118 222 118h27c86 0 151 -46 179 -126z" />
    <glyph glyph-name="ae" unicode="&#xe6;" horiz-adv-x="740" 
d="M740 370c0 -126 -225 -157 -313 -162c-2 -13 -3 -25 -3 -36c0 -51 17 -78 67 -78c34 0 54 7 116 63l74 -69c-78 -71 -122 -92 -190 -92c-83 0 -164 50 -165 160c-22 -59 -93 -160 -162 -160c-95 0 -124 86 -124 168c0 158 133 322 297 323c48 1 87 -12 128 -31
c35 20 74 31 117 31c69 0 158 -35 158 -117zM635 368c0 12 -18 20 -53 20c-49 0 -98 -26 -130 -95c25 3 183 34 183 75zM379 389c-11 2 -29 3 -41 3c-110 0 -193 -136 -193 -235c0 -19 5 -62 30 -62c107 0 181 211 204 294z" />
    <glyph glyph-name="oslash" unicode="&#xf8;" horiz-adv-x="512" 
d="M517 492l-56 -70c20 -29 27 -63 27 -96c-1 -167 -94 -330 -277 -330c-28 0 -54 4 -78 13l-10 -13h-119l54 69c-19 28 -25 62 -25 94c0 167 94 331 277 331c27 -1 53 -5 76 -13l12 15h119zM317 390c-6 0 -11 1 -17 1c-118 0 -164 -126 -163 -227zM383 323l-181 -228
c6 0 12 -1 19 -1c118 1 166 128 162 229z" />
    <glyph glyph-name="questiondown" unicode="&#xbf;" horiz-adv-x="498" 
d="M377 417c-8 -36 -43 -65 -79 -65c-35 0 -58 29 -51 65c8 35 43 65 79 65s59 -30 51 -65zM428 -19c-30 -144 -148 -214 -253 -214c-108 0 -190 72 -165 190c17 79 74 120 121 145c52 27 77 43 91 97l26 100h79s-6 -75 -12 -101c-21 -99 -76 -135 -125 -161
c-37 -20 -71 -34 -81 -80c-12 -58 25 -93 87 -93c58 0 118 35 136 117h96z" />
    <glyph glyph-name="exclamdown" unicode="&#xa1;" horiz-adv-x="309" 
d="M271 416c-7 -35 -43 -65 -78 -65c-36 0 -59 30 -52 65c8 36 43 65 79 65s59 -29 51 -65zM228 297l-35 -189l-71 -333h-104l71 333l45 189h94z" />
    <glyph glyph-name="logicalnot" unicode="&#xac;" horiz-adv-x="526" 
d="M516 281l-49 -178h-100l27 97h-334l22 81h434z" />
    <glyph glyph-name="radical" unicode="&#x221a;" horiz-adv-x="622" 
d="M662 693l-23 -102h-97l-296 -591h-92l-94 496h110c15 -82 40 -213 58 -306l252 503h182z" />
    <glyph glyph-name="florin" unicode="&#x192;" horiz-adv-x="366" 
d="M376 698l-1 -103c-117 1 -127 -56 -143 -148h68v-103h-85l-95 -549l-100 18l92 531h-53v103h70c11 63 19 127 61 178c38 49 95 73 186 73z" />
    <glyph glyph-name="approxequal" unicode="&#x2248;" horiz-adv-x="566" 
d="M556 347l-33 -21c-46 -30 -104 -55 -223 -17c-81 26 -102 13 -120 2l-29 -19l-63 64c101 65 157 70 256 38c81 -25 102 -13 120 -1l29 19zM528 189l-33 -21c-46 -31 -104 -56 -223 -18c-81 26 -102 13 -120 2l-29 -19l-63 64c101 65 157 70 256 38c81 -25 102 -13 120 -1
l29 19z" />
    <glyph glyph-name="Delta" unicode="&#x2206;" horiz-adv-x="678" 
d="M638 0h-598l463 748zM512 100l-66 366l-227 -366h293z" />
    <glyph glyph-name="guillemotleft" unicode="&#xab;" horiz-adv-x="562" 
d="M557 455l-18 -81l-160 -120l105 -121l-19 -81l-30 -24l-175 202l15 64l255 194zM357 455l-18 -81l-160 -120l105 -121l-19 -81l-30 -24l-175 202l15 64l255 194z" />
    <glyph glyph-name="guillemotright" unicode="&#xbb;" horiz-adv-x="562" 
d="M507 286l-15 -65l-256 -193l-26 32l18 81l160 121l-105 121l19 81l30 24zM307 286l-15 -65l-256 -193l-26 32l18 81l160 121l-105 121l19 81l30 24z" />
    <glyph glyph-name="ellipsis" unicode="&#x2026;" horiz-adv-x="681" 
d="M580 47c-7 -31 -36 -55 -67 -55c-34 0 -56 28 -49 61c6 31 36 55 67 55c34 0 56 -28 49 -61zM354 47c-7 -31 -36 -55 -68 -55c-34 0 -55 28 -48 61c6 31 36 55 67 55c34 0 56 -28 49 -61zM127 47c-6 -31 -36 -55 -67 -55c-34 0 -56 28 -49 61c7 31 36 55 68 55
c34 0 55 -28 48 -61z" />
    <glyph glyph-name="nbspace" horiz-adv-x="130" 
 />
    <glyph glyph-name="Agrave" unicode="&#xc0;" horiz-adv-x="718" 
d="M550 775h-76l-97 146h108zM668 0h-108l-36 196h-270l-120 -196h-114l425 698h95zM505 297l-44 240l-146 -240h190z" />
    <glyph glyph-name="Atilde" unicode="&#xc3;" horiz-adv-x="736" 
d="M686 815l-22 -18c-61 -52 -114 -44 -157 -28c-20 7 -37 15 -54 20c-33 9 -46 -10 -68 -28l-60 49c71 60 121 75 204 37c25 -12 48 -19 65 -9c11 8 21 18 32 27zM668 0h-108l-36 196h-270l-120 -196h-114l425 698h95zM505 297l-44 240l-146 -240h190z" />
    <glyph glyph-name="Otilde" unicode="&#xd5;" 
d="M622 815l-22 -18c-61 -52 -114 -44 -157 -28c-19 7 -37 15 -54 20c-33 9 -46 -10 -68 -28l-60 49c71 60 121 75 204 37c25 -12 48 -19 65 -9c12 8 22 18 32 27zM657 468c0 -219 -100 -477 -377 -477c-166 0 -226 105 -226 239c0 235 107 477 378 477
c165 0 225 -105 225 -239zM550 451c0 84 -33 152 -140 152c-178 0 -249 -208 -248 -357c0 -83 32 -151 140 -151c177 0 248 207 248 356z" />
    <glyph glyph-name="OE" unicode="&#x152;" horiz-adv-x="1034" 
d="M1074 699l-21 -95h-358l-42 -194h311l-21 -95h-311l-49 -221h358l-21 -95h-457l11 54c-54 -40 -118 -62 -185 -62c-98 0 -173 45 -208 128c-28 65 -27 134 -4 240c24 106 53 172 105 232c64 74 151 116 244 116c73 0 135 -26 176 -76l15 68h457zM542 543
c-19 44 -57 68 -116 68c-64 0 -122 -27 -168 -81c-40 -46 -63 -97 -84 -191c-11 -47 -15 -83 -15 -112c0 -82 39 -140 130 -140c63 0 121 27 167 81c41 46 63 97 84 191s20 142 2 184z" />
    <glyph glyph-name="oe" unicode="&#x153;" horiz-adv-x="769" 
d="M769 370c0 -126 -225 -157 -314 -162c-2 -13 -3 -25 -3 -36c0 -51 18 -78 68 -78c34 0 54 7 116 63l74 -69c-78 -72 -122 -93 -190 -93c-61 0 -113 23 -144 69c-44 -43 -105 -69 -171 -69c-123 -1 -164 70 -165 160c-1 160 86 333 266 333c55 0 111 -19 142 -65
c44 41 99 64 163 64c69 0 158 -35 158 -117zM667 368c0 12 -21 22 -56 22c-50 0 -98 -30 -129 -94c39 1 185 34 185 72zM367 320c0 39 -14 69 -71 69c-110 1 -152 -134 -152 -226c-1 -39 14 -70 71 -70c112 1 151 134 152 227z" />
    <glyph glyph-name="endash" unicode="&#x2013;" horiz-adv-x="527" 
d="M507 309l-21 -71h-426l21 71h426z" />
    <glyph glyph-name="emdash" unicode="&#x2014;" horiz-adv-x="825" 
d="M805 309l-21 -71h-724l21 71h724z" />
    <glyph glyph-name="quotedblleft" unicode="&#x201c;" horiz-adv-x="440" 
d="M480 752l-46 -183c-8 -33 -40 -58 -72 -58c-33 0 -59 25 -48 58l18 52l113 131h35zM307 752l-46 -183c-8 -33 -40 -58 -72 -58c-33 0 -59 25 -48 58l18 52l113 131h35z" />
    <glyph glyph-name="quotedblright" unicode="&#x201d;" horiz-adv-x="440" 
d="M467 694l-18 -52l-112 -131h-36l46 183c9 33 40 58 73 58c32 0 58 -25 47 -58zM294 694l-18 -52l-112 -131h-35l46 183c8 33 39 58 72 58c32 0 59 -25 47 -58z" />
    <glyph glyph-name="quoteleft" unicode="&#x2018;" horiz-adv-x="267" 
d="M307 752l-46 -183c-8 -33 -40 -58 -72 -58c-33 0 -59 25 -48 58l18 52l113 131h35z" />
    <glyph glyph-name="quoteright" unicode="&#x2019;" horiz-adv-x="267" 
d="M294 694l-18 -52l-112 -131h-35l46 183c8 33 39 58 72 58c32 0 59 -25 47 -58z" />
    <glyph glyph-name="divide" unicode="&#xf7;" horiz-adv-x="535" 
d="M381 425c-7 -33 -38 -59 -72 -59c-37 0 -61 32 -54 67c7 33 39 60 72 60c38 0 62 -32 54 -68zM515 319l-20 -91h-435l19 91h436zM315 114c-7 -33 -38 -59 -72 -59c-37 0 -61 32 -54 68c7 33 39 59 72 59c38 0 62 -32 54 -68z" />
    <glyph glyph-name="lozenge" unicode="&#x25ca;" horiz-adv-x="545" 
d="M515 340l-304 -359l-151 368l304 359zM410 349l-78 189l-167 -198l78 -189z" />
    <glyph glyph-name="ydieresis" unicode="&#xff;" horiz-adv-x="515" 
d="M488 592c-7 -30 -36 -55 -67 -55c-34 0 -56 29 -49 62c6 30 36 55 67 55c34 0 56 -29 49 -62zM281 592c-7 -30 -36 -55 -68 -55c-34 0 -55 29 -48 62c6 30 36 55 67 55c34 0 56 -29 49 -62zM545 484l-363 -600c-37 -62 -92 -105 -168 -104h-54l23 102c56 -1 80 -6 112 46
l43 70c17 29 16 53 11 86l-67 400h108l47 -325l192 325h116z" />
    <glyph glyph-name="Ydieresis" unicode="&#x178;" horiz-adv-x="580" 
d="M568 830c-6 -30 -36 -55 -67 -55c-34 0 -56 29 -49 61c7 31 36 56 68 56c33 0 55 -29 48 -62zM361 830c-6 -30 -36 -55 -67 -55c-34 0 -56 29 -49 61c7 31 36 56 67 56c34 0 56 -29 49 -62zM668 698l-331 -465l-50 -233h-106l50 235l-134 463h118l95 -335l240 335h118z
" />
    <glyph glyph-name="fraction" unicode="&#x2044;" horiz-adv-x="255" 
d="M455 698l-466 -698h-109l466 698h109z" />
    <glyph glyph-name="currency" unicode="&#xa4;" horiz-adv-x="687" 
d="M685 630l-76 -78c-39 45 -72 55 -139 55c-103 0 -181 -63 -221 -162h258l-43 -94h-242l-7 -35h265l-43 -94h-227c9 -82 65 -131 151 -131c66 0 105 19 163 64l46 -86c-74 -55 -147 -78 -230 -78c-145 0 -237 90 -240 231h-83l43 94h48l7 35h-70l42 94h54
c56 158 162 262 351 262c83 0 142 -23 193 -77z" />
    <glyph glyph-name="guilsinglleft" unicode="&#x2039;" horiz-adv-x="355" 
d="M335 455l-17 -80l-153 -121l100 -121l-17 -81l-30 -25l-168 203l14 64l245 194z" />
    <glyph glyph-name="guilsinglright" unicode="&#x203a;" horiz-adv-x="345" 
d="M295 286l-14 -64l-245 -195l-26 33l18 81l152 121l-100 121l17 81l30 24z" />
    <glyph glyph-name="fi" unicode="&#xfb01;" horiz-adv-x="497" 
d="M517 643c1 -38 -34 -70 -71 -70c-35 0 -58 26 -58 57c1 37 35 68 72 68c34 0 57 -25 57 -55zM473 485l-104 -485h-106l84 389h-105l-87 -403c-9 -40 -23 -92 -60 -135c-43 -49 -104 -74 -205 -74l22 103c97 0 123 42 140 118l84 391h-46l21 96h45c30 127 83 196 219 212
l-20 -105c-58 -12 -79 -55 -93 -107h211z" />
    <glyph glyph-name="fl" unicode="&#xfb02;" horiz-adv-x="516" 
d="M526 698l-124 -575c-5 -21 -3 -25 40 -25l-22 -103c-63 0 -102 16 -119 55c-13 30 -7 63 -2 85l99 460h-22c-73 0 -97 -47 -113 -110h79l-21 -96h-79l-87 -403c-9 -40 -23 -92 -60 -135c-43 -49 -104 -74 -205 -74l22 103c97 0 123 42 140 118l84 391h-46l21 96h46
c28 121 92 213 229 213h140z" />
    <glyph glyph-name="daggerdbl" unicode="&#x2021;" horiz-adv-x="548" 
d="M568 489l-21 -94h-163l-63 -292h164l-21 -94h-163l-45 -209h-98l45 209h-163l20 94h164l63 292h-164l21 94h163l45 209h98l-45 -209h163z" />
    <glyph glyph-name="periodcentered" unicode="&#xb7;" horiz-adv-x="259" 
d="M197 262c-6 -31 -36 -56 -67 -56c-34 0 -56 29 -49 62c7 30 36 55 68 55c34 0 55 -29 48 -61z" />
    <glyph glyph-name="quotesinglbase" unicode="&#x201a;" horiz-adv-x="267" 
d="M158 52l-18 -52l-113 -131h-35l46 183c8 33 40 58 72 58c33 0 59 -25 48 -58z" />
    <glyph glyph-name="quotedblbase" unicode="&#x201e;" horiz-adv-x="440" 
d="M331 52l-18 -52l-113 -131h-35l46 183c8 33 40 58 72 58c33 0 59 -25 48 -58zM158 52l-18 -52l-113 -131h-35l46 183c8 33 40 58 72 58c33 0 59 -25 48 -58z" />
    <glyph glyph-name="perthousand" unicode="&#x2030;" horiz-adv-x="1082" 
d="M1050 268c0 -125 -65 -278 -216 -278c-48 0 -85 18 -108 49c-33 -30 -75 -49 -128 -49c-86 0 -136 59 -137 140c0 125 65 279 216 279c48 0 85 -19 108 -49c33 30 76 49 129 49c85 0 136 -60 136 -141zM746 699l-474 -700h-122l475 700h121zM432 567
c0 -125 -65 -279 -216 -279c-85 0 -136 60 -136 140c0 126 64 280 216 280c85 0 136 -60 136 -141zM949 261c0 27 -9 51 -44 51c-74 0 -106 -112 -107 -173c0 -28 10 -52 45 -52c76 0 106 114 106 174zM713 261c0 27 -9 51 -44 51c-75 0 -107 -111 -107 -173
c0 -28 9 -52 44 -52c75 0 107 112 107 174zM331 560c0 27 -9 51 -44 51c-74 0 -106 -111 -106 -174c0 -27 9 -51 44 -51c77 0 107 114 106 174z" />
    <glyph glyph-name="Acircumflex" unicode="&#xc2;" horiz-adv-x="718" 
d="M665 775h-102l-37 84l-78 -84h-120l158 156h99zM668 0h-108l-36 196h-270l-120 -196h-114l425 698h95zM505 297l-44 240l-146 -240h190z" />
    <glyph glyph-name="Ecircumflex" unicode="&#xca;" horiz-adv-x="607" 
d="M588 775h-102l-37 84l-78 -84h-120l158 156h99zM654 698l-22 -103h-358l-40 -188h313l-20 -96h-314l-44 -208h359l-22 -103h-464l148 698h464z" />
    <glyph glyph-name="Aacute" unicode="&#xc1;" horiz-adv-x="714" 
d="M704 921l-156 -146h-85l123 146h118zM668 0h-108l-36 196h-270l-120 -196h-114l425 698h95zM505 297l-44 240l-146 -240h190z" />
    <glyph glyph-name="Edieresis" unicode="&#xcb;" horiz-adv-x="607" 
d="M604 830c-6 -30 -36 -55 -67 -55c-34 0 -56 29 -49 61c7 31 36 56 67 56c34 0 56 -29 49 -62zM397 830c-7 -30 -36 -55 -67 -55c-34 0 -56 29 -49 61c6 31 36 56 67 56c34 0 56 -29 49 -62zM654 698l-22 -103h-358l-40 -188h313l-20 -96h-314l-44 -208h359l-22 -103h-464
l148 698h464z" />
    <glyph glyph-name="Egrave" unicode="&#xc8;" horiz-adv-x="607" 
d="M481 775h-75l-98 146h108zM654 698l-22 -103h-358l-40 -188h313l-20 -96h-314l-44 -208h359l-22 -103h-464l148 698h464z" />
    <glyph glyph-name="Iacute" unicode="&#xcd;" horiz-adv-x="299" 
d="M435 921l-156 -146h-85l123 146h118zM311 698l-148 -698h-109l148 698h109z" />
    <glyph glyph-name="Icircumflex" unicode="&#xce;" horiz-adv-x="300" 
d="M425 775h-103l-37 84l-78 -84h-119l158 156h98zM311 698l-148 -698h-109l148 698h109z" />
    <glyph glyph-name="Idieresis" unicode="&#xcf;" horiz-adv-x="297" 
d="M429 830c-6 -30 -36 -55 -67 -55c-34 0 -56 29 -49 61c7 31 36 56 68 56c34 0 55 -29 48 -62zM222 830c-6 -30 -36 -55 -67 -55c-34 0 -56 29 -49 61c7 31 36 56 68 56c33 0 55 -29 48 -62zM311 698l-148 -698h-109l148 698h109z" />
    <glyph glyph-name="Igrave" unicode="&#xcc;" horiz-adv-x="303" 
d="M315 775h-75l-97 146h107zM311 698l-148 -698h-109l148 698h109z" />
    <glyph glyph-name="Oacute" unicode="&#xd3;" 
d="M601 921l-156 -146h-85l123 146h118zM657 468c0 -219 -100 -477 -377 -477c-166 0 -226 105 -226 239c0 235 107 477 378 477c165 0 225 -105 225 -239zM550 451c0 84 -33 152 -140 152c-178 0 -249 -208 -248 -357c0 -83 32 -151 140 -151c177 0 248 207 248 356z" />
    <glyph glyph-name="Ocircumflex" unicode="&#xd4;" 
d="M599 775h-102l-37 84l-78 -84h-120l159 156h98zM657 468c0 -219 -100 -477 -377 -477c-166 0 -226 105 -226 239c0 235 107 477 378 477c165 0 225 -105 225 -239zM550 451c0 84 -33 152 -140 152c-178 0 -249 -208 -248 -357c0 -83 32 -151 140 -151
c177 0 248 207 248 356z" />
    <glyph glyph-name="Ograve" unicode="&#xd2;" 
d="M512 775h-75l-98 146h108zM657 468c0 -219 -100 -477 -377 -477c-166 0 -226 105 -226 239c0 235 107 477 378 477c165 0 225 -105 225 -239zM550 451c0 84 -33 152 -140 152c-178 0 -249 -208 -248 -357c0 -83 32 -151 140 -151c177 0 248 207 248 356z" />
    <glyph glyph-name="Uacute" unicode="&#xda;" horiz-adv-x="639" 
d="M604 921l-156 -146h-85l123 146h118zM682 698l-85 -402c-38 -176 -110 -305 -327 -305c-194 0 -235 128 -197 305l85 402h106l-85 -402c-25 -113 -20 -201 113 -201s175 88 199 202l85 401h106z" />
    <glyph glyph-name="Ucircumflex" unicode="&#xdb;" horiz-adv-x="639" 
d="M602 775h-102l-37 84l-78 -84h-120l159 156h98zM682 698l-85 -402c-38 -176 -110 -305 -327 -305c-194 0 -235 128 -197 305l85 402h106l-85 -402c-25 -113 -20 -201 113 -201s175 88 199 202l85 401h106z" />
    <glyph glyph-name="Ugrave" unicode="&#xd9;" horiz-adv-x="639" 
d="M515 775h-75l-98 146h108zM682 698l-85 -402c-38 -176 -110 -305 -327 -305c-194 0 -235 128 -197 305l85 402h106l-85 -402c-25 -113 -20 -201 113 -201s175 88 199 202l85 401h106z" />
    <glyph glyph-name="dotlessi" unicode="&#x131;" horiz-adv-x="274" 
d="M227 487l-103 -487h-77l103 487h77z" />
    <glyph glyph-name="circumflex" unicode="&#x2c6;" horiz-adv-x="395" 
d="M431 528h-102l-37 84l-78 -84h-120l158 156h99z" />
    <glyph glyph-name="tilde" unicode="&#x2dc;" horiz-adv-x="406" 
d="M461 594l-21 -18c-62 -52 -114 -44 -158 -29c-19 7 -37 16 -54 21c-33 9 -46 -10 -68 -29l-60 50c72 60 121 75 204 37c25 -12 48 -19 65 -9c12 7 22 18 32 26z" />
    <glyph glyph-name="macron" unicode="&#xaf;" horiz-adv-x="490" 
d="M511 650l-21 -68h-326l20 68h327z" />
    <glyph glyph-name="breve" unicode="&#x2d8;" horiz-adv-x="467" 
d="M518 708c-63 -95 -143 -143 -225 -143c-84 0 -145 50 -162 143h86c15 -43 45 -64 86 -64c42 0 86 22 121 64h94z" />
    <glyph glyph-name="dotaccent" unicode="&#x2d9;" horiz-adv-x="274" 
d="M282 582c-6 -30 -36 -55 -67 -55c-34 0 -56 29 -49 62c7 30 36 55 68 55c34 0 55 -29 48 -62z" />
    <glyph glyph-name="ring" unicode="&#x2da;" horiz-adv-x="408" 
d="M415 646c-14 -68 -81 -124 -150 -124c-71 0 -117 60 -102 130c14 68 81 123 150 123c71 0 117 -59 102 -129zM341 652c5 28 -11 48 -38 48c-29 0 -59 -24 -65 -54c-6 -28 11 -48 37 -48c29 0 59 24 66 54z" />
    <glyph glyph-name="cedilla" unicode="&#xb8;" horiz-adv-x="473" 
d="M279 -81l-115 -120h-122l152 140v69l84 28z" />
    <glyph glyph-name="hungarumlaut" unicode="&#x2dd;" horiz-adv-x="430" 
d="M506 721l-159 -156h-93l132 156h120zM363 721l-159 -156h-93l132 156h120z" />
    <glyph glyph-name="ogonek" unicode="&#x2db;" horiz-adv-x="432" 
d="M225 -201h-103l-64 206h88z" />
    <glyph glyph-name="caron" unicode="&#x2c7;" horiz-adv-x="403" 
d="M463 684l-158 -156h-101l-81 156h106l37 -84l78 84h119z" />
    <glyph glyph-name="Eth" unicode="&#xd0;" horiz-adv-x="711" 
d="M662 522c0 -58 -13 -116 -25 -173c-11 -49 -22 -103 -40 -152c-61 -167 -183 -197 -332 -197h-221l63 295l-38 1l23 103h37l63 299h221c143 0 250 -27 249 -176zM556 499c0 67 -36 96 -165 96h-115l-41 -196h162l-23 -103l-161 -1l-41 -191h115c199 0 206 68 244 245
c14 63 25 113 25 150z" />
    <glyph glyph-name="Euro" unicode="&#x20ac;" horiz-adv-x="687" 
d="M685 630l-76 -78c-39 45 -72 55 -139 55c-103 0 -181 -63 -221 -162h258l-43 -94h-242l-7 -35h265l-43 -94h-227c9 -82 65 -131 151 -131c66 0 105 19 163 64l46 -86c-74 -55 -147 -78 -230 -78c-145 0 -237 90 -240 231h-83l43 94h48l7 35h-70l42 94h54
c56 158 162 262 351 262c83 0 142 -23 193 -77z" />
    <glyph glyph-name="uni00A0" unicode="&#xa0;" horiz-adv-x="130" 
 />
    <glyph glyph-name="apple" unicode="&#xf8ff;" horiz-adv-x="500" 
 />
    </font>
</defs>
</svg>
