<?xml version="1.0" encoding="UTF-8" standalone="no"?>
<svg width="180px" height="180px" viewBox="0 0 180 180" version="1.1" xmlns="http://www.w3.org/2000/svg" xmlns:xlink="http://www.w3.org/1999/xlink">
    <!-- Generator: Sketch 3.8.3 (29802) - http://www.bohemiancoding.com/sketch -->
    <title>IT / Technology</title>
    <desc>Created with Sketch.</desc>
    <defs></defs>
    <g id="Page-1" stroke="none" stroke-width="1" fill="none" fill-rule="evenodd">
        <g id="IT-/-Technology" fill="#E06A4C">
            <g id="Page-1" transform="translate(0.000000, 1.000000)">
                <path d="M167.5488,142.5224 C166.2552,130.1936 156,120.5 143.7,120.5 C136.0224,120.5 128.7552,124.3712 124.2552,130.7 C123.384,130.5488 122.484,130.4552 121.6128,130.4552 C114.6552,130.4552 108.468,135.2 106.4064,141.884 C100.6776,145.2776 97.0512,151.6064 97.0512,158.384 C97.0512,168.9128 105.4224,177.4616 115.6776,177.4616 L147.984,177.4616 C148.1616,177.4616 148.3416,177.4616 148.4904,177.4352 C148.668,177.4352 148.848,177.4616 149.0616,177.4616 L162,177.4616 C171.6552,177.4616 179.5488,169.3904 179.5488,159.4904 C179.5488,151.7552 174.6288,144.9224 167.5488,142.5224 L167.5488,142.5224 Z M162,171.5 L115.6776,171.5 C108.7224,171.5 103.0512,165.6224 103.0512,158.4224 C103.0512,153.416 105.9,148.7936 110.3064,146.6288 L111.6,146 L111.9,144.5936 C112.8936,139.916 116.9712,136.5224 121.5936,136.5224 C122.616,136.5224 123.6648,136.7 124.6512,137.0288 L126.9936,137.8064 L128.2224,135.6776 C131.5224,129.9488 137.2776,126.5552 143.7,126.5552 C153.4776,126.5552 161.5776,134.8064 161.7,144.9128 L161.7288,147.3416 L164.1288,147.8192 C169.584,148.868 173.5776,153.8192 173.5776,159.5744 C173.5488,166.1288 168.3552,171.5 162,171.5 L162,171.5 Z" id="Fill-1"></path>
                <path d="M31.5,18.5 C24.0552,18.5 18,24.5552 18,32 C18,39.4448 24.0552,45.5 31.5,45.5 C38.9448,45.5 45,39.4448 45,32 C45,24.5552 38.9448,18.5 31.5,18.5 L31.5,18.5 Z M31.5,39.5 C27.3552,39.5 24,36.1448 24,32 C24,27.8552 27.3552,24.5 31.5,24.5 C35.6448,24.5 39,27.8552 39,32 C39,36.1448 35.6448,39.5 31.5,39.5 L31.5,39.5 Z" id="Fill-2"></path>
                <path d="M153,27.5 C153,31.5032 147,31.5032 147,27.5 C147,23.4968 153,23.4968 153,27.5" id="Fill-3"></path>
                <path d="M141,27.5 C141,31.5032 135,31.5032 135,27.5 C135,23.4968 141,23.4968 141,27.5" id="Fill-4"></path>
                <path d="M159,36.5 C159,40.5032 153,40.5032 153,36.5 C153,32.4968 159,32.4968 159,36.5" id="Fill-5"></path>
                <path d="M147,36.5 C147,40.5032 141,40.5032 141,36.5 C141,32.4968 147,32.4968 147,36.5" id="Fill-6"></path>
                <path d="M129,27.5 C129,31.5032 123,31.5032 123,27.5 C123,23.4968 129,23.4968 129,27.5" id="Fill-7"></path>
                <path d="M135,36.5 C135,40.5032 129,40.5032 129,36.5 C129,32.4968 135,32.4968 135,36.5" id="Fill-8"></path>
                <path d="M117,27.5 C117,31.5032 111,31.5032 111,27.5 C111,23.4968 117,23.4968 117,27.5" id="Fill-9"></path>
                <path d="M123,36.5 C123,40.5032 117,40.5032 117,36.5 C117,32.4968 123,32.4968 123,36.5" id="Fill-10"></path>
                <path d="M105,27.5 C105,31.5032 99,31.5032 99,27.5 C99,23.4968 105,23.4968 105,27.5" id="Fill-11"></path>
                <path d="M111,36.5 C111,40.5032 105,40.5032 105,36.5 C105,32.4968 111,32.4968 111,36.5" id="Fill-12"></path>
                <path d="M180,49.6712 L180,14.3288 C180,6.7064 173.7936,0.5 166.1712,0.5 L13.8288,0.5 C6.2064,0.5 0,6.7064 0,14.3288 L0,49.6712 C0,54.0776 2.1,57.9488 5.3448,60.5 C2.1,63.0224 0,66.9224 0,71.3288 L0,106.6712 C0,111.0776 2.1,114.9488 5.3448,117.5 C2.1,120.0224 0,123.9224 0,128.3288 L0,163.6712 C0,171.2936 6.2064,177.5 13.8288,177.5 L84,177.5 L84,171.5 L13.8288,171.5 C9.5064,171.5 6,167.9936 6,163.6712 L6,128.3288 C6,124.0064 9.5064,120.5 13.8288,120.5 L114,120.5 L114,114.5 L13.8288,114.5 C9.5064,114.5 6,110.9936 6,106.6712 L6,71.3288 C6,67.0064 9.5064,63.5 13.8288,63.5 L166.1712,63.5 C170.4936,63.5 174,67.0064 174,71.3288 L174,114.5 L180,114.5 L180,71.3288 C180,66.9224 177.9,63.0512 174.6552,60.5 C177.9,57.9776 180,54.0776 180,49.6712 L180,49.6712 Z M13.8288,57.5 C9.5064,57.5 6,53.9936 6,49.6712 L6,14.3288 C6,10.0064 9.5064,6.5 13.8288,6.5 L166.1712,6.5 C170.4936,6.5 174,10.0064 174,14.3288 L174,49.6712 C174,53.9936 170.4936,57.5 166.1712,57.5 L13.8288,57.5 Z" id="Fill-13"></path>
                <path d="M18,89 C18,96.4448 24.0552,102.5 31.5,102.5 C38.9448,102.5 45,96.4448 45,89 C45,81.5552 38.9448,75.5 31.5,75.5 C24.0552,75.5 18,81.5552 18,89 L18,89 Z M39,89 C39,93.1448 35.6448,96.5 31.5,96.5 C27.3552,96.5 24,93.1448 24,89 C24,84.8552 27.3552,81.5 31.5,81.5 C35.6448,81.5 39,84.8552 39,89 L39,89 Z" id="Fill-14"></path>
                <path d="M153,84.5 C153,88.5032 147,88.5032 147,84.5 C147,80.4968 153,80.4968 153,84.5" id="Fill-15"></path>
                <path d="M141,84.5 C141,88.5032 135,88.5032 135,84.5 C135,80.4968 141,80.4968 141,84.5" id="Fill-16"></path>
                <path d="M159,93.5 C159,97.5032 153,97.5032 153,93.5 C153,89.4968 159,89.4968 159,93.5" id="Fill-17"></path>
                <path d="M147,93.5 C147,97.5032 141,97.5032 141,93.5 C141,89.4968 147,89.4968 147,93.5" id="Fill-18"></path>
                <path d="M129,84.5 C129,88.5032 123,88.5032 123,84.5 C123,80.4968 129,80.4968 129,84.5" id="Fill-19"></path>
                <path d="M135,93.5 C135,97.5032 129,97.5032 129,93.5 C129,89.4968 135,89.4968 135,93.5" id="Fill-20"></path>
                <path d="M117,84.5 C117,88.5032 111,88.5032 111,84.5 C111,80.4968 117,80.4968 117,84.5" id="Fill-21"></path>
                <path d="M123,93.5 C123,97.5032 117,97.5032 117,93.5 C117,89.4968 123,89.4968 123,93.5" id="Fill-22"></path>
                <path d="M105,84.5 C105,88.5032 99,88.5032 99,84.5 C99,80.4968 105,80.4968 105,84.5" id="Fill-23"></path>
                <path d="M111,93.5 C111,97.5032 105,97.5032 105,93.5 C105,89.4968 111,89.4968 111,93.5" id="Fill-24"></path>
                <path d="M18,146 C18,153.4448 24.0552,159.5 31.5,159.5 C38.9448,159.5 45,153.4448 45,146 C45,138.5552 38.9448,132.5 31.5,132.5 C24.0552,132.5 18,138.5552 18,146 L18,146 Z M39,146 C39,150.1448 35.6448,153.5 31.5,153.5 C27.3552,153.5 24,150.1448 24,146 C24,141.8552 27.3552,138.5 31.5,138.5 C35.6448,138.5 39,141.8552 39,146 L39,146 Z" id="Fill-25"></path>
            </g>
        </g>
    </g>
</svg>