<?xml version="1.0" encoding="UTF-8" standalone="no"?>
<svg width="180px" height="180px" viewBox="0 0 180 180" version="1.1" xmlns="http://www.w3.org/2000/svg" xmlns:xlink="http://www.w3.org/1999/xlink">
    <!-- Generator: Sketch 3.8.3 (29802) - http://www.bohemiancoding.com/sketch -->
    <title>Behavioral Science</title>
    <desc>Created with Sketch.</desc>
    <defs></defs>
    <g id="Page-1" stroke="none" stroke-width="1" fill="none" fill-rule="evenodd">
        <g id="Behavioral-Science" fill="#E6C952">
            <path d="M78.5083906,180 C78.5083906,180 73.3066228,164.381352 72.7034419,159.179584 C72.0975921,153.977816 64.0907664,154.781168 62.0890599,154.781168 C60.2848552,154.781168 44.4713744,158.178731 35.6718729,158.178731 C27.0591973,158.178731 20.0532248,154.175318 21.054078,147.972697 C22.0549312,141.770076 24.6624875,132.354049 21.054078,130.352342 C17.4483375,128.153134 16.2473136,124.544725 21.054078,122.345517 C21.054078,122.345517 18.0515183,121.344664 15.8523102,119.540459 C13.653102,117.738923 15.4546378,115.737217 17.4563443,112.932159 C19.260549,110.127101 18.4571975,107.124541 8.84633766,102.317777 C-0.767191124,97.7111828 10.4503717,88.9116813 12.2439007,87.505149 C14.0481055,85.8984459 24.2541393,75.692412 24.2541393,65.0887058 C24.2541393,54.4769927 19.8557231,31.8630479 48.4747872,14.442864 C77.1018582,-2.96931305 110.527687,-6.57505358 144.9517,14.442864 C179.375712,35.4607816 185.986682,79.6958249 157.356942,109.721421 C136.539195,133.9394 147.746082,145.752137 158.357795,174.579379 L78.5083906,180 Z M127.550198,123.148868 C127.550198,123.148868 126.154342,110.53278 139.165434,103.329306 C152.176525,96.1258313 152.176525,85.1164459 152.176525,85.1164459 C152.176525,85.1164459 164.792614,72.1053541 154.981583,60.898467 C154.981583,60.898467 156.179938,36.6804881 142.971345,36.6804881 C142.971345,36.6804881 137.163727,19.863485 118.147516,23.6693962 C118.147516,23.6693962 101.738861,11.4589869 93.1261855,23.0635464 C93.1261855,23.0635464 75.3083292,14.8592189 68.9082065,28.0678125 C68.9082065,28.0678125 49.6944937,25.6711026 47.6927872,43.4756142 C47.6927872,43.4756142 36.6834018,46.2806721 35.6825486,62.2943236 C34.6816954,78.3079751 51.0903503,82.1138863 58.8996744,81.5080365 C66.7089984,81.1130331 69.9090598,79.50633 69.9090598,79.50633 C69.9090598,79.50633 76.7175306,85.71162 89.7286224,81.5080365 C89.7286224,81.5080365 106.542956,86.3148009 106.542956,95.9176539 L106.542956,122.940691 L114.549782,122.940691 C114.549782,122.940691 114.352281,107.53022 114.352281,99.5233944 C114.352281,91.5165687 119.962396,88.9116813 122.556608,86.5123026 C123.162458,85.9091217 127.958546,82.906562 129.762751,75.5029172 C131.564287,68.1019412 131.764458,61.0959687 124.152635,58.093409 C116.540813,55.0908494 109.139837,54.0899962 106.940629,55.8942009 C104.741421,57.6984056 101.330513,63.5033543 106.334779,72.3028558 L102.729038,75.1079138 C102.729038,75.1079138 99.5263082,70.4986511 99.120629,65.0993816 C99.120629,65.0993816 92.1146565,63.703525 88.1112436,68.2994429 L84.3160082,66.1002348 C84.3160082,66.1002348 88.5169228,59.291764 99.7264788,60.2926172 C99.7264788,60.2926172 100.527161,56.0917026 103.927393,52.6834638 C103.927393,52.6834638 101.528015,45.2798189 95.3147179,46.4781738 C89.1120968,47.6791977 91.7089773,48.6800509 83.910329,49.2832318 C83.910329,49.2832318 82.1061243,58.8967606 70.8992372,63.0976751 C70.8992372,63.0976751 67.093326,67.2985897 58.4913262,65.9027331 C52.0912035,65.2968833 52.2887052,70.5093268 52.2887052,70.5093268 L47.6821115,69.3109719 C47.6821115,69.3109719 48.8804664,64.1092041 52.4862069,62.1074977 C56.0946164,60.1057912 62.2972374,62.9108492 66.498152,60.7089721 C66.498152,60.7089721 64.1014421,54.1006719 57.8881454,53.7029996 L57.6906437,49.0964058 C57.6906437,49.0964058 65.8949711,48.6987335 70.7017355,58.1040848 C70.7017355,58.1040848 77.3100357,56.2998801 79.7094145,47.6978803 C79.7094145,47.6978803 77.3100357,43.4969657 72.5032713,41.4952593 L73.9017969,37.096843 C73.9017969,37.096843 79.9069162,38.9010477 83.1069775,44.4978189 C83.1069775,44.4978189 86.5072095,44.4978189 90.1129501,43.1019623 C93.7213595,41.7034367 96.5157417,42.1011091 96.5157417,42.1011091 C96.5157417,42.1011091 99.120629,38.4926996 99.3181307,34.0942833 L104.322397,34.8976349 C104.322397,34.8976349 104.124895,39.0985494 101.520008,42.9044606 C101.520008,42.9044606 106.721776,45.1036687 108.128308,50.513614 C108.128308,50.513614 112.131721,50.3161123 115.331782,50.9112863 C115.331782,50.9112863 114.330929,44.3003172 120.138547,41.1002559 L122.746103,45.1036687 C122.746103,45.1036687 119.137693,48.1062284 120.544226,51.9121396 C120.544226,51.9121396 131.356109,53.7136754 134.556171,61.9206718 C134.556171,61.9206718 139.165434,62.1181735 143.56385,56.5187333 L147.567263,59.3237913 C147.567263,59.3237913 143.56385,64.9312382 135.557024,66.9329447 C135.557024,66.9329447 135.954696,73.7414155 133.160314,80.5498863 C133.160314,80.5498863 140.772137,83.7499477 141.562143,90.1634151 L136.95555,91.5592717 C134.756341,85.7516541 130.752929,85.3566507 130.752929,85.3566507 C130.752929,85.3566507 125.748663,90.1634151 122.140253,92.9658041 C118.534513,95.7708621 118.940192,101.973483 118.940192,101.973483 L118.74269,122.793899 L127.550198,122.793899 L127.550198,123.148868 Z" id="Page-1"></path>
        </g>
    </g>
</svg>