<?xml version="1.0" encoding="UTF-8" standalone="no"?>
<svg width="180px" height="180px" viewBox="0 0 180 180" version="1.1" xmlns="http://www.w3.org/2000/svg" xmlns:xlink="http://www.w3.org/1999/xlink">
    <!-- Generator: Sketch 3.8.3 (29802) - http://www.bohemiancoding.com/sketch -->
    <title>Criminal Justice &amp; Law</title>
    <desc>Created with Sketch.</desc>
    <defs></defs>
    <g id="Page-1" stroke="none" stroke-width="1" fill="none" fill-rule="evenodd">
        <g id="Criminal-Justice-&amp;-Law" fill="#D68DE5">
            <g id="Page-1" transform="translate(-2.000000, 0.000000)">
                <polygon id="Fill-1" points="45.7849138 179.712288 45.7849138 170.118745 138.843724 170.118745 138.843724 179.712288"></polygon>
                <path d="M94.4392241,0.546310345 C98.2215517,2.07289655 100.822634,4.56527586 100.9875,8.89262069 C101.156255,13.3344828 97.9306034,17.1885517 93.6148759,17.8402759 C89.2409483,18.4997586 85.1347034,15.825 83.8991379,11.5092414 C82.7043103,7.33903448 84.7855552,2.95541379 88.8025862,1.16896552 C89.266169,0.963413793 89.7278069,0.753827586 90.1913793,0.544344828 C91.6073276,0.546310345 93.0232759,0.546310345 94.4392241,0.546310345 L94.4392241,0.546310345 L94.4392241,0.546310345 L94.4392241,0.546310345 Z" id="Fill-3"></path>
                <path d="M59.9017241,126.381466 C58.1327586,126.381466 56.6489172,126.515307 55.2116379,126.311638 C54.6782379,126.235986 54.0614276,125.450431 53.8112069,124.853017 C49.8368483,115.381676 45.9109966,105.889014 41.9812448,96.3982759 C38.3463414,87.6193966 34.7230552,78.8365862 31.0900862,70.0577586 C30.9271552,69.6640345 30.725431,69.2857241 30.399569,68.5991379 C30.0193966,69.4235172 29.742031,69.9704483 29.5073276,70.5348621 C22.1385828,88.3273759 14.7426724,106.110134 7.45538793,123.935555 C6.68534483,125.818966 5.77176724,126.755814 3.70991379,126.445469 C2.89913793,126.323276 2.05538793,126.426083 0.860560345,126.426083 C10.682969,102.684693 20.4413793,79.0985172 30.3918103,55.0448276 C40.3422414,79.1023448 50.0909483,102.667241 59.9017241,126.381466 L59.9017241,126.381466 L59.9017241,126.381466 L59.9017241,126.381466 Z" id="Fill-4"></path>
                <path d="M124.224517,126.385345 C134.07031,102.593534 143.807276,79.0597241 153.744207,55.0486552 C163.696552,79.1023448 173.482138,102.750641 183.27931,126.426083 C181.613172,126.426083 180.123517,126.577366 178.693966,126.352366 C178.100483,126.259272 177.409862,125.452366 177.142241,124.81229 C171.552207,111.426724 166.018345,98.0198276 160.472793,84.6168103 C158.535103,79.9306034 156.599379,75.2424828 154.657759,70.5582414 C154.393966,69.921931 154.097172,69.2974138 153.720931,68.4575172 C149.614655,78.3575172 145.603448,88.0209103 141.6,97.6862069 C137.965138,106.465086 134.287448,115.226514 130.757379,124.048055 C130.049379,125.817021 129.192,126.684052 127.260103,126.406676 C126.381414,126.280603 125.471793,126.385345 124.224517,126.385345 L124.224517,126.385345 L124.224517,126.385345 L124.224517,126.385345 Z" id="Fill-5"></path>
                <path d="M58.287931,128.922414 C52.2497897,137.891379 42.0045207,143.793755 30.3801724,143.793755 C18.7558138,143.793755 8.51056034,137.891379 2.47435345,128.922414 L58.287931,128.922414 L58.287931,128.922414 L58.287931,128.922414 L58.287931,128.922414 Z" id="Fill-6"></path>
                <path d="M181.659724,128.922414 C175.621552,137.891379 165.376345,143.793755 153.751966,143.793755 C142.127586,143.793755 131.882379,137.891379 125.844207,128.922414 L181.659724,128.922414 L181.659724,128.922414 L181.659724,128.922414 L181.659724,128.922414 Z" id="Fill-7"></path>
                <path d="M166.320931,35.4213103 C159.347897,42.7202069 151.967483,41.5564138 145.552966,37.6325172 C125.466,25.3467931 103.805793,20.0068966 80.3010724,22.9125517 C65.2027966,24.7784483 51.2566862,29.8681034 38.5306034,38.2086207 C31.8698276,42.5747586 25.4728448,41.9851034 19.8982759,36.3077586 C19.5859862,35.9896552 19.333831,35.6134138 18.9614172,35.1477931 C16.3545207,37.4114483 13.8989276,39.5431034 11.3831897,41.729069 C11.8060345,42.2314138 12.1105552,42.6407586 12.4616379,43.0054138 C21.5043103,52.4029655 32.8260724,53.6637931 43.9053931,46.6286897 C46.9913793,44.6695862 50.1762931,42.8307931 53.4562448,41.2228966 C64.0040897,36.0497586 75.1493586,33.0083793 87.0666,32.2519655 L87.0666,151.424359 L65.5907276,151.424359 L65.5907276,161.403869 L87.0666,161.403869 L87.0666,161.403869 L97.3972034,161.403869 L97.3972034,161.403869 L118.968103,161.403869 L118.968103,151.424359 L97.3972034,151.424359 L97.7075379,32.2422414 C112.801966,33.3963103 127.430793,38.2008621 140.283,46.1301724 C146.229931,49.8 152.619207,51.5321379 159.607759,50.3353448 C165.347172,49.353931 169.940276,46.4017241 173.776966,41.862931 C171.206897,39.6439655 168.759,37.5278276 166.320931,35.4213103 L166.320931,35.4213103 L166.320931,35.4213103 L166.320931,35.4213103 Z" id="Fill-8"></path>
            </g>
        </g>
    </g>
</svg>