<?xml version="1.0" encoding="UTF-8" standalone="no"?>
<svg width="75px" height="75px" viewBox="0 0 75 75" version="1.1" xmlns="http://www.w3.org/2000/svg" xmlns:xlink="http://www.w3.org/1999/xlink">
    <!-- Generator: Sketch 3.8.3 (29802) - http://www.bohemiancoding.com/sketch -->
    <title>LiberalArts@1x</title>
    <desc>Created with Sketch.</desc>
    <defs></defs>
    <g id="Page-1" stroke="none" stroke-width="1" fill="none" fill-rule="evenodd" stroke-linecap="round" stroke-linejoin="round">
        <g id="LiberalArts" stroke="#D68DE5" stroke-width="3.125">
            <g id="Page-1" transform="translate(2.000000, 1.000000)">
                <path d="M44.0583244,41.3150793 C44.0583244,53.5192496 34.2472796,63.4120531 22.1450672,63.4120531 C10.0428548,63.4120531 0.232771848,53.5192496 0.232771848,41.3150793 C0.232771848,29.1118709 10.0428548,19.2152199 22.1450672,19.2152199 C34.2472796,19.2152199 44.0583244,29.1118709 44.0583244,41.3150793" id="Stroke-1"></path>
                <path d="M35.9161191,41.3150793 C35.9161191,53.5192496 29.7505507,63.4120531 22.1450672,63.4120531 C14.5405456,63.4120531 8.3749772,53.5192496 8.3749772,41.3150793 C8.3749772,29.1118709 14.5405456,19.2152199 22.1450672,19.2152199 C29.7505507,19.2152199 35.9161191,29.1118709 35.9161191,41.3150793" id="Stroke-2"></path>
                <path d="M27.4882392,41.3150793 C27.4882392,53.5192496 25.0989612,63.4120531 22.1450672,63.4120531 C19.1959825,63.4120531 16.8028571,53.5192496 16.8028571,41.3150793 C16.8028571,29.1118709 19.1959825,19.2152199 22.1450672,19.2152199 C25.0989612,19.2152199 27.4882392,29.1118709 27.4882392,41.3150793" id="Stroke-3"></path>
                <path d="M0.518446389,41.3150793 L43.7726499,41.3150793" id="Stroke-4"></path>
                <path d="M2.52105378,31.4520936 L41.7738899,31.4520936" id="Stroke-5"></path>
                <path d="M2.52105378,51.1742175 L41.7738899,51.1742175" id="Stroke-6"></path>
                <path d="M12.6437436,21.0033309 L12.6437436,8.99826711" id="Stroke-7"></path>
                <path d="M65.4935336,0.540569333 L18.5313323,0.540569333 C15.2917638,0.540569333 12.6437436,3.11837327 12.6437436,6.27137376 L12.6437436,7.7661153 C12.6437436,10.9152683 15.2917638,13.4959579 18.5313323,13.4959579 L68.0597952,13.4959579 L68.0597952,69.675732 L20.4589141,69.675732 C20.4589141,69.675732 16.6220261,69.595897 14.6569315,67.6952475 C13.9278362,66.9853896 13.4622925,66.1476033 13.1660374,65.3694528 L13.1660374,61.3526956" id="Stroke-8"></path>
                <path d="M62.7358605,0.540569333 C62.7358605,0.540569333 56.8665473,7.42465246 65.4935336,13.4959579" id="Stroke-9"></path>
            </g>
        </g>
    </g>
</svg>