<?xml version="1.0" encoding="UTF-8" standalone="no"?>
<svg width="180px" height="180px" viewBox="0 0 180 180" version="1.1" xmlns="http://www.w3.org/2000/svg" xmlns:xlink="http://www.w3.org/1999/xlink">
    <!-- Generator: Sketch 3.8.3 (29802) - http://www.bohemiancoding.com/sketch -->
    <title>Social Sciences</title>
    <desc>Created with Sketch.</desc>
    <defs></defs>
    <g id="Page-1" stroke="none" stroke-width="1" fill="none" fill-rule="evenodd">
        <g id="Social-Sciences" fill="#5BC655">
            <path d="M152.9136,50.674 C148.6921,50.674 144.7614,51.9049 141.4245,53.9989 L130.8608,39.3587 C134.0047,36.5929 136.032,32.5884 136.032,28.082 C136.032,19.7661 129.2659,13 120.9501,13 C112.6342,13 105.8681,19.7661 105.8681,28.082 C105.8681,34.1158 109.4533,39.2946 114.5849,41.7036 L110.3886,53.515 L91.68728,45.4976 C92.50321,43.1886 92.9396,40.7763 92.9396,38.2943 C92.9396,26.3273 83.20316,16.5908 71.23475,16.5908 C59.26634,16.5908 49.5299,26.3273 49.5299,38.2943 C49.5299,41.2632 50.13193,44.0934 51.21598,46.6731 L32.83189,55.8444 C30.16353,51.588 25.46569,48.7298 20.08194,48.7298 C11.7661,48.7298 5,55.4959 5,63.8117 C5,72.1276 11.7661,78.8923 20.08194,78.8923 C20.60431,78.8923 21.09861,78.7901 21.60747,78.738 L25.13159,96.33267 C15.90665,98.83258 9.090541,107.25529 9.090541,117.26107 C9.090541,129.22807 18.82698,138.96452 30.79258,138.96452 C36.92769,138.96452 42.46463,136.39513 46.41602,132.28932 L60.0363,143.75221 C58.35127,146.18614 57.35162,149.12788 57.35162,152.3058 C57.35162,160.62164 64.11772,167.38774 72.43355,167.38774 C80.7494,167.38774 87.51269,160.62164 87.51269,152.3058 C87.51269,146.64375 84.3402,141.75993 79.71412,139.18175 L85.65955,125.53111 C88.9475,126.78256 92.49724,127.49865 96.21877,127.49865 C112.6567,127.49865 126.0317,114.12368 126.0317,97.68431 C126.0317,94.01192 125.3324,90.50797 124.1126,87.25652 L134.0092,83.00139 C137.181,88.62361 142.7829,92.68115 149.381,93.76854 L147.7432,110.55639 C147.7351,110.55639 147.7278,110.55393 147.7197,110.55393 C139.4038,110.55393 132.6377,117.31863 132.6377,125.63447 C132.6377,133.95032 139.4038,140.71642 147.7197,140.71642 C156.0355,140.71642 162.7988,133.95032 162.7988,125.63447 C162.7988,118.30687 157.5432,112.19773 150.6056,110.84574 L152.2445,94.04841 C152.4688,94.05525 152.6877,94.08228 152.9136,94.08228 C164.882,94.08228 174.6184,84.34584 174.6184,72.3774 C174.6184,60.4104 164.882,50.674 152.9136,50.674 L152.9136,50.674 L152.9136,50.674 L152.9136,50.674 Z M140.6434,135.54218 C141.8748,134.1291 143.6967,132.82976 144.9066,132.58446 C146.0689,132.35284 146.956,131.52461 147.2143,130.44653 C147.3014,130.10402 147.3182,129.6492 147.3463,128.76344 C147.3603,128.30582 147.1554,127.86784 146.7932,127.58709 C146.0352,126.99471 145.3726,126.04156 145.0189,125.03507 C144.8953,124.68553 144.6483,124.40759 144.3394,124.24195 C144.331,124.19702 144.3226,124.14929 144.3142,124.10437 C144.564,123.83486 144.7128,123.47128 144.7128,123.08806 C144.7072,121.43443 144.7044,120.00541 145.3108,119.39618 C145.7095,118.99611 146.5124,118.79257 147.7393,118.79116 C148.9241,118.79257 149.727,118.99611 150.1257,119.39618 C150.7321,120.00541 150.7293,121.43443 150.7237,123.12174 C150.7237,123.50497 150.8725,123.85732 151.1196,124.11841 C151.114,124.15772 151.1055,124.20123 151.0999,124.24195 C150.7883,124.40618 150.5412,124.68413 150.4177,125.03507 C150.0639,126.04156 149.4014,126.99471 148.6434,127.58709 C148.2812,127.86784 148.0818,128.41672 148.0931,128.87433 C148.1183,129.6492 148.1352,130.10402 148.2194,130.42828 C148.4861,131.52744 149.3733,132.35423 150.5272,132.58446 C151.739,132.82957 153.5607,134.12823 154.796,135.54147 C152.7957,136.97557 150.3631,137.84152 147.7197,137.84152 C145.0766,137.84152 142.6441,136.97575 140.6434,135.54218 L140.6434,135.54218 L140.6434,135.54218 L140.6434,135.54218 Z M159.9239,125.63447 C159.9239,128.67552 158.7664,131.42583 156.9204,133.56532 C155.4347,131.90451 153.1022,130.17439 151.0157,129.77414 C151.0017,129.67587 150.9904,129.5341 150.9848,129.35582 C151.7681,128.5992 152.4335,127.63622 152.8911,126.59043 C153.4217,126.20439 153.8204,125.52497 153.9776,124.65184 C154.1152,123.80678 153.9636,123.04173 153.5986,122.50129 C153.593,120.52621 153.4779,118.68869 152.1612,117.36776 C151.1926,116.39355 149.7467,115.91908 147.6916,115.91628 C145.6898,115.91908 144.244,116.39355 143.2754,117.36776 C141.9643,118.68308 141.8436,120.51077 141.8379,122.49989 C141.4702,123.04454 141.3214,123.8152 141.4646,124.67571 C141.619,125.5362 142.0148,126.21141 142.5454,126.59604 C143.0031,127.63482 143.6628,128.59218 144.4433,129.34599 C144.4265,129.52007 144.3984,129.66885 144.3423,129.76572 C142.3245,130.17439 140.0017,131.90363 138.517,133.56499 C136.6707,131.42548 135.5126,128.67535 135.5126,125.63447 C135.5126,118.90487 140.9901,113.42882 147.7197,113.42882 C154.4493,113.42882 159.9239,118.90487 159.9239,125.63447 L159.9239,125.63447 L159.9239,125.63447 L159.9239,125.63447 Z M120.0264,30.036 C119.2684,29.4436 118.6058,28.4876 118.2493,27.4797 C118.1257,27.1302 117.8787,26.8551 117.5698,26.6894 C117.5614,26.6445 117.553,26.5968 117.5446,26.5519 C117.7944,26.2823 117.9432,25.9188 117.9432,25.5355 C117.9376,23.8819 117.9348,22.4529 118.5412,21.8437 C118.9399,21.4436 119.7429,21.2401 120.9697,21.2387 C122.1573,21.2401 122.9603,21.4436 123.3589,21.8437 C123.9654,22.4529 123.9625,23.8819 123.9569,25.5692 C123.9569,25.9511 124.1057,26.3034 124.3528,26.5631 C124.3444,26.6038 124.3388,26.6487 124.3303,26.688 C124.0187,26.8537 123.7716,27.1316 123.6481,27.4826 C123.2944,28.489 122.6318,29.4436 121.8738,30.036 C121.5172,30.3153 121.3123,30.7491 121.3235,31.2039 C121.3459,32.1177 121.3684,32.5515 121.4498,32.8758 C121.7165,33.9707 122.6009,34.7975 123.7576,35.0319 C124.9697,35.2758 126.7922,36.5752 128.0255,37.989 C126.025,39.422 123.5927,40.2876 120.9501,40.2876 C118.3075,40.2876 115.8752,39.422 113.8746,37.989 C115.108,36.5752 116.9306,35.2758 118.1454,35.0319 C119.2993,34.7975 120.1836,33.9707 120.4503,32.8772 C120.5318,32.5515 120.5542,32.1177 120.5767,31.2039 C120.5879,30.7491 120.383,30.3153 120.0264,30.036 L120.0264,30.036 L120.0264,30.036 L120.0264,30.036 Z M108.743,28.082 C108.743,21.351 114.2205,15.8749 120.9501,15.8749 C127.6797,15.8749 133.1571,21.351 133.1571,28.082 C133.1571,31.1228 131.9987,33.8733 130.1517,36.0126 C128.6623,34.3492 126.3305,32.6205 124.2489,32.2301 C124.2321,32.129 124.2236,31.9788 124.2152,31.8033 C124.9985,31.0467 125.6639,30.0837 126.1215,29.0379 C126.6521,28.6519 127.0508,27.9739 127.208,27.1063 C127.3484,26.2557 127.1996,25.4892 126.8318,24.946 C126.8262,22.9723 126.7111,21.1376 125.3944,19.8152 C124.4258,18.841 122.9799,18.3666 120.9248,18.3638 C118.9203,18.3666 117.4744,18.841 116.5058,19.8152 C115.1947,21.132 115.074,22.9583 115.0684,24.9474 C114.7006,25.492 114.5518,26.2641 114.695,27.1232 C114.8494,27.9837 115.248,28.6603 115.7787,29.0435 C116.2363,30.0823 116.896,31.0397 117.6737,31.7921 C117.6569,31.969 117.6288,32.1192 117.5755,32.2132 C115.5598,32.6184 113.2368,34.349 111.7485,36.0126 C109.9015,33.8733 108.743,31.1228 108.743,28.082 L108.743,28.082 L108.743,28.082 L108.743,28.082 Z M117.2928,42.6622 C118.4702,42.9582 119.6821,43.1625 120.9501,43.1625 C123.7258,43.1625 126.2956,42.356 128.5321,41.0425 L139.0841,55.6666 C136.5983,57.7278 134.5963,60.3416 133.2252,63.305 L113.0341,54.6491 L117.2928,42.6622 L117.2928,42.6622 L117.2928,42.6622 L117.2928,42.6622 Z M96.21877,67.8714 C79.78081,67.8714 66.40584,81.2449 66.40584,97.68431 C66.40584,100.15299 66.74063,102.53938 67.30897,104.83486 L51.10491,109.68255 C49.37233,105.05613 46.11316,101.18317 41.93225,98.66887 L62.6471,58.2185 C65.28318,59.3588 68.18474,59.9977 71.23475,59.9977 C79.44163,59.9977 86.83169,55.3632 90.52199,48.1263 L109.424,56.2295 L104.8331,69.1518 C102.1035,68.326 99.21421,67.8714 96.21877,67.8714 L96.21877,67.8714 L96.21877,67.8714 L96.21877,67.8714 Z M69.42952,41.7447 C68.20545,40.7859 67.13298,39.2488 66.56586,37.6345 C66.40864,37.1853 66.04647,36.8568 65.61131,36.7305 C65.56077,36.628 65.50182,36.4708 65.46251,36.2644 C65.42601,36.037 65.42882,35.8602 65.44286,35.7436 C65.82749,35.4657 66.07174,34.9954 66.07174,34.5055 C66.06613,32.2876 66.06051,30.3729 66.71185,29.1572 C67.13859,28.3571 68.03419,27.4376 71.26563,27.432 C74.43531,27.4376 75.33091,28.3571 75.75764,29.1572 C76.40899,30.3729 76.40337,32.2876 76.39776,34.5659 C76.39776,35.0558 76.64201,35.4966 77.02664,35.7577 C77.04068,35.8714 77.04349,36.037 77.00979,36.2392 C76.97049,36.461 76.90873,36.6252 76.85819,36.7305 C76.42302,36.8568 76.06086,37.1853 75.90364,37.6345 C75.33652,39.2488 74.26405,40.7859 73.03998,41.7447 C72.68062,42.0269 72.47567,42.5013 72.48971,42.9561 C72.51778,44.0918 72.54305,44.8091 72.65535,45.2485 C72.98663,46.6143 74.0956,47.6433 75.54428,47.9324 C77.63464,48.3541 80.88855,50.6984 82.78186,53.1123 C79.54129,55.6359 75.52322,57.1228 71.23475,57.1228 C66.87679,57.1228 62.87083,55.621 59.67624,53.1262 C61.56779,50.7071 64.83082,48.3548 66.92241,47.9324 C68.3739,47.6433 69.48286,46.6143 69.81415,45.2583 C69.92645,44.8091 69.95172,44.0918 69.9826,42.9168 C69.99383,42.4606 69.78888,42.0269 69.42952,41.7447 L69.42952,41.7447 L69.42952,41.7447 L69.42952,41.7447 Z M71.23475,19.4657 C81.61692,19.4657 90.06471,27.9121 90.06471,38.2943 C90.06471,40.8702 89.55375,43.3674 88.54585,45.7159 C87.65745,47.7842 86.39705,49.5998 84.90995,51.1774 C82.54725,48.2383 78.85591,45.6685 76.10859,45.1137 C75.97944,45.087 75.54428,44.9705 75.44882,44.5733 C75.40671,44.3655 75.38986,43.9795 75.37863,43.5289 C76.62236,42.396 77.67237,40.8898 78.3602,39.2488 C79.07612,38.808 79.6292,37.911 79.84257,36.7277 C80.0391,35.5359 79.81169,34.5041 79.27265,33.8528 C79.27265,31.6012 79.19684,29.4927 78.29564,27.8026 C77.13052,25.6254 74.83397,24.5627 71.19825,24.5571 C67.63552,24.5627 65.33898,25.6254 64.17386,27.8026 C63.27827,29.4815 63.19966,31.5745 63.19685,33.8542 C62.65781,34.5069 62.43321,35.5457 62.62974,36.7529 C62.8431,37.9195 63.39338,38.8123 64.10929,39.2502 C64.79713,40.8898 65.84714,42.3974 67.09086,43.5289 C67.07964,43.9711 67.06279,44.3627 67.02348,44.5691 C66.92522,44.9705 66.49006,45.087 66.35811,45.1137 C63.61008,45.6692 59.91294,48.2444 57.5506,51.1883 C54.37022,47.8154 52.40479,43.2848 52.40479,38.2943 C52.40479,27.9121 60.85258,19.4657 71.23475,19.4657 L71.23475,19.4657 L71.23475,19.4657 L71.23475,19.4657 Z M7.874889,63.8117 C7.874889,57.0807 13.35234,51.6047 20.08194,51.6047 C26.81154,51.6047 32.28618,57.0807 32.28618,63.8117 C32.28618,66.8519 31.12878,69.6015 29.28337,71.7406 C27.79574,70.0797 25.46428,68.3511 23.38076,67.9584 C23.36392,67.8573 23.35549,67.7085 23.34707,67.5317 C24.13317,66.775 24.79575,65.8121 25.25618,64.7663 C25.78399,64.3788 26.18266,63.6994 26.33988,62.8291 C26.48025,61.9644 26.33145,61.1979 25.96367,60.6603 C25.94402,57.7208 25.59308,54.1019 20.05386,54.0921 C17.46534,54.0963 15.78364,54.8937 14.91331,56.529 C14.27601,57.7208 14.20582,59.1414 14.20021,60.6785 C13.83523,61.2232 13.68362,61.9939 13.82681,62.853 C13.98122,63.7121 14.37708,64.3859 14.9077,64.7719 C15.36532,65.8093 16.02509,66.768 16.80558,67.5218 C16.78873,67.6987 16.76065,67.8489 16.7045,67.9416 C14.68906,68.349 12.36603,70.0798 10.87963,71.7415 C9.032986,69.6022 7.874889,66.8523 7.874889,63.8117 L7.874889,63.8117 L7.874889,63.8117 L7.874889,63.8117 Z M13.00649,73.7187 C14.23934,72.3057 16.05913,71.0054 17.26881,70.7603 C18.42831,70.5287 19.31549,69.7033 19.5822,68.6055 C19.66362,68.2714 19.68046,67.8208 19.70854,66.9393 C19.72258,66.4817 19.51763,66.0451 19.15546,65.7629 C18.39743,65.1706 17.73486,64.2174 17.38111,63.2123 C17.25758,62.8614 17.01052,62.5848 16.7017,62.4192 C16.69327,62.3743 16.68485,62.3251 16.67643,62.2802 C16.9263,62.0107 17.0751,61.6471 17.0751,61.2639 C17.07229,59.8924 17.06667,58.5968 17.44849,57.8809 C17.58325,57.6324 17.93419,56.9712 20.10159,56.967 C22.98771,56.9726 23.09439,57.791 23.08878,61.299 C23.08878,61.6794 23.23758,62.0304 23.48464,62.2915 C23.47622,62.3336 23.46779,62.3771 23.46218,62.4192 C23.15054,62.5834 22.90348,62.8614 22.77995,63.2123 C22.42621,64.2188 21.76364,65.172 21.00561,65.7615 C20.64625,66.0437 20.4413,66.5111 20.45534,66.9702 C20.4778,67.7843 20.49745,68.2616 20.58167,68.6041 C20.84839,69.7019 21.73275,70.5287 22.88945,70.7603 C24.10141,71.0054 25.92349,72.3055 27.15686,73.7184 C25.15669,75.1516 22.72468,76.0174 20.08194,76.0174 C17.43937,76.0174 15.00719,75.1518 13.00649,73.7187 L13.00649,73.7187 L13.00649,73.7187 L13.00649,73.7187 Z M24.42708,78.1779 C30.61589,76.2986 35.16107,70.6068 35.16107,63.8117 C35.16107,61.9047 34.76854,60.096 34.12001,58.415 L52.52095,49.2353 C54.36618,52.3785 56.97489,55.0102 60.09683,56.8875 L39.38198,97.33776 C36.74556,96.19686 33.84347,95.55763 30.79258,95.55763 C29.8268,95.55763 28.88278,95.64308 27.94998,95.76591 L24.42708,78.1779 L24.42708,78.1779 L24.42708,78.1779 L24.42708,78.1779 Z M11.96543,117.26107 C11.96543,106.87891 20.41042,98.43251 30.79258,98.43251 C41.17475,98.43251 49.62254,106.87891 49.62254,117.26107 C49.62254,122.2516 47.65729,126.78221 44.47691,130.15508 C42.11456,127.21001 38.41725,124.63605 35.66923,124.08192 C35.53727,124.05525 35.10211,123.93873 35.00665,123.54006 C34.96454,123.33231 34.9477,122.94628 34.93647,122.49568 C36.18019,121.36284 37.23301,119.85661 37.91804,118.21562 C38.63395,117.77485 39.18704,116.87644 39.40041,115.69448 C39.59413,114.5041 39.36952,113.47234 38.83048,112.821 C38.83048,110.56938 38.75468,108.45954 37.85347,106.76941 C36.68835,104.59219 34.39181,103.52955 30.75609,103.52394 C27.19336,103.52955 24.89681,104.59219 23.7317,106.76941 C22.8361,108.4483 22.75749,110.5427 22.75469,112.8224 C22.21564,113.47655 21.99104,114.51393 22.18757,115.71975 C22.40094,116.88627 22.95121,117.77765 23.66713,118.21703 C24.35496,119.85661 25.40497,121.36424 26.6487,122.49568 C26.63747,122.93785 26.62062,123.3295 26.58132,123.53585 C26.48306,123.93873 26.04789,124.05525 25.91594,124.08192 C23.16809,124.63605 19.47148,127.20948 17.10896,130.15421 C13.92981,126.78134 11.96543,122.25107 11.96543,117.26107 L11.96543,117.26107 L11.96543,117.26107 L11.96543,117.26107 Z M19.23442,132.09244 C21.12616,129.67393 24.38883,127.32301 26.48306,126.90065 C27.93454,126.60867 29.0407,125.57972 29.37198,124.2251 C29.48429,123.7759 29.50955,123.05858 29.54044,121.88364 C29.55167,121.42742 29.34672,120.99365 28.98736,120.7115 C27.76328,119.75274 26.69081,118.21703 26.1237,116.6013 C25.96648,116.15351 25.60431,115.82503 25.16914,115.69869 C25.11861,115.59622 25.05965,115.43759 25.02035,115.23124 C24.98385,115.00383 24.98666,114.82696 25.00069,114.71045 C25.38532,114.4325 25.62958,113.96225 25.62958,113.47234 C25.62396,111.2544 25.61834,109.33969 26.26969,108.12403 C26.69643,107.32389 27.59202,106.40444 30.82347,106.39882 C33.99314,106.40444 34.88874,107.32389 35.31548,108.12403 C35.96682,109.33969 35.96121,111.2544 35.95559,113.5327 C35.95559,114.02261 36.19985,114.46339 36.58447,114.72449 C36.59851,114.83819 36.60132,115.00244 36.56763,115.20597 C36.52832,115.42917 36.46656,115.59341 36.41322,115.69869 C35.98086,115.82503 35.61869,116.15351 35.46147,116.6013 C34.89435,118.21703 33.82189,119.75274 32.59781,120.7115 C32.23845,120.99365 32.0335,121.46813 32.04754,121.92294 C32.07561,123.05858 32.10088,123.7759 32.21318,124.21527 C32.54447,125.57972 33.65063,126.60867 35.10211,126.90065 C37.19651,127.32301 40.45954,129.6743 42.3511,132.09297 C39.1565,134.58778 35.15054,136.08963 30.79258,136.08963 C26.43445,136.08963 22.42849,134.58743 19.23442,132.09244 L19.23442,132.09244 L19.23442,132.09244 L19.23442,132.09244 Z M65.35723,162.2135 C66.59025,160.79922 68.41057,159.49986 69.62044,159.25578 C70.78274,159.02415 71.66991,158.19595 71.92821,157.11787 C72.01523,156.77534 72.03208,156.32054 72.06016,155.43478 C72.07419,154.97716 71.86925,154.53918 71.50708,154.25842 C70.74905,153.66743 70.08648,152.71288 69.73273,151.70641 C69.6092,151.35545 69.36214,151.07893 69.05331,150.91328 C69.04489,150.86836 69.03647,150.82063 69.02805,150.77571 C69.27791,150.5062 69.42671,150.14262 69.42671,149.75938 C69.4211,148.10577 69.41829,146.67674 70.02471,146.0675 C70.42338,145.66743 71.22632,145.46391 72.45321,145.46249 C73.63798,145.46391 74.44092,145.66743 74.83959,146.0675 C75.44601,146.67674 75.4432,148.10577 75.43759,149.79308 C75.43759,150.17491 75.58639,150.52725 75.83345,150.78835 C75.82783,150.82906 75.81941,150.87257 75.81099,150.91328 C75.50216,151.0789 75.2551,151.35545 75.13157,151.70641 C74.77782,152.71288 74.11526,153.66743 73.35723,154.25842 C72.99505,154.53918 72.79572,155.08804 72.80695,155.54565 C72.83222,156.32054 72.84907,156.77534 72.93049,157.09399 C73.19439,158.19595 74.08156,159.02415 75.24106,159.25578 C76.45286,159.49969 78.27458,160.79939 79.50989,162.21278 C77.50953,163.64691 75.077,164.51286 72.43355,164.51286 C69.79064,164.51286 67.35793,163.64709 65.35723,162.2135 L65.35723,162.2135 L65.35723,162.2135 L65.35723,162.2135 Z M84.6378,152.3058 C84.6378,155.34705 83.48022,158.09735 81.63411,160.23685 C80.14648,158.57498 77.81397,156.84448 75.72957,156.44547 C75.71554,156.34721 75.70431,156.20544 75.69869,156.02715 C76.48198,155.27052 77.14736,154.30894 77.60499,153.26598 C78.1356,152.87994 78.53427,152.19913 78.68869,151.33018 C78.82906,150.47952 78.68027,149.71307 78.31248,149.16982 C78.30687,147.19614 78.19175,145.36003 76.87504,144.03909 C75.90645,143.0649 74.46058,142.59042 72.40548,142.58762 C70.40373,142.59042 68.95786,143.0649 67.98927,144.03909 C66.67816,145.35442 66.55744,147.18208 66.55182,149.1712 C66.18404,149.71588 66.03524,150.48654 66.17843,151.34705 C66.33284,152.20753 66.7287,152.88275 67.26212,153.26736 C67.71694,154.30615 68.37671,155.2635 69.15719,156.01733 C69.14035,156.19141 69.11227,156.33878 69.05612,156.43706 C67.03822,156.84326 64.71712,158.5741 63.23107,160.2365 C61.3846,158.09698 60.22651,155.34686 60.22651,152.3058 C60.22651,145.5762 65.70396,140.10016 72.43355,140.10016 C79.16315,140.10016 84.6378,145.5762 84.6378,152.3058 L84.6378,152.3058 L84.6378,152.3058 L84.6378,152.3058 Z M77.08069,138.03348 C75.60797,137.55199 74.06524,137.22527 72.43355,137.22527 C68.3288,137.22527 64.61043,138.88345 61.8882,141.55287 L48.26283,130.08577 C50.91172,126.48777 52.49743,122.06139 52.49743,117.26107 C52.49743,115.60043 52.29266,113.98927 51.93769,112.43461 L68.13333,107.58938 C70.73203,114.93347 76.11719,120.95119 83.02699,124.38056 L77.08069,138.03348 L77.08069,138.03348 L77.08069,138.03348 L77.08069,138.03348 Z M79.17315,118.52428 C79.22983,118.47023 79.30266,118.44163 79.35126,118.37705 C82.07454,114.74133 86.8838,111.25862 90.06752,110.6157 C91.87836,110.25494 93.25966,108.97892 93.67236,107.29161 C93.80993,106.73712 93.84362,105.79099 93.89135,104.14298 C93.90258,103.68537 93.69763,103.2488 93.33827,102.96804 C91.53866,101.56149 89.96926,99.31267 89.14104,96.95156 C88.95855,96.43356 88.50374,96.07421 87.97873,96.00262 C87.8552,95.83557 87.6671,95.46357 87.56884,94.93436 C87.47899,94.37707 87.53515,93.95735 87.59691,93.75942 C88.08542,93.50674 88.41389,92.95647 88.41389,92.39076 C88.40548,89.20423 88.39986,86.45428 89.37687,84.62097 C89.99733,83.45726 91.37581,81.90892 96.26369,81.9005 C101.0561,81.90892 102.4374,83.45586 103.0578,84.61817 C104.0376,86.44866 104.0292,89.19721 104.0236,92.46516 C104.0236,93.03087 104.3521,93.53201 104.8434,93.76644 C104.9024,93.96717 104.9585,94.37847 104.8687,94.9119 C104.7704,95.46076 104.5795,95.83416 104.4588,96.00262 C103.9338,96.07421 103.479,96.43356 103.2965,96.95156 C102.4683,99.31267 100.8989,101.56148 99.09927,102.96804 C98.73991,103.2488 98.53496,103.68256 98.54619,104.13877 C98.58831,105.72221 98.62481,106.72309 98.76518,107.286 C99.17788,108.97892 100.5591,110.25493 102.3644,110.6157 C105.5481,111.25862 110.3602,114.74133 113.0863,118.37705 C113.134,118.44093 113.2017,118.47602 113.2573,118.52954 C108.6114,122.33441 102.6786,124.62377 96.21877,124.62377 C89.75571,124.62377 83.82011,122.33248 79.17315,118.52428 L79.17315,118.52428 L79.17315,118.52428 L79.17315,118.52428 Z M115.3574,116.61552 C112.2084,112.44023 106.7604,108.57096 102.9287,107.79696 C102.2184,107.65518 101.7046,107.20879 101.5558,106.59956 C101.4997,106.35109 101.4632,105.51305 101.4407,104.76064 C103.2544,103.17299 104.7788,100.99577 105.739,98.61921 C106.6767,98.13352 107.4207,96.9684 107.7015,95.40041 C107.9654,93.80855 107.6453,92.45533 106.8985,91.68888 C106.9013,88.52622 106.8227,85.56289 105.5958,83.26354 C104.0741,80.4195 101.0252,79.034 96.16543,79.0256 C91.40951,79.034 88.35775,80.4209 86.83888,83.26776 C85.62043,85.55306 85.5362,88.49253 85.5362,91.69028 C84.79502,92.45813 84.47496,93.81557 84.73606,95.42426 C85.01962,96.97542 85.7608,98.13352 86.69851,98.61921 C87.65867,100.99436 89.18316,103.17299 90.9968,104.75923 C90.97153,105.51164 90.93785,106.3553 90.8817,106.60377 C90.7329,107.20879 90.21912,107.65518 89.50321,107.79696 C85.67148,108.57096 80.22632,112.44023 77.08016,116.61552 C72.26352,111.74607 69.28072,105.05876 69.28072,97.68431 C69.28072,82.83119 81.36424,70.7463 96.21877,70.7463 C111.0733,70.7463 123.1568,82.83119 123.1568,97.68431 C123.1568,105.05876 120.174,111.74607 115.3574,116.61552 L115.3574,116.61552 L115.3574,116.61552 L115.3574,116.61552 Z M122.9738,84.61659 C119.7748,78.0947 114.287,72.8995 107.5384,70.1177 L112.0698,57.3637 L132.1754,65.983 C131.5505,68.0054 131.2115,70.1525 131.2115,72.3774 C131.2115,75.2146 131.7741,77.9189 132.7685,80.4053 L122.9738,84.61659 L122.9738,84.61659 L122.9738,84.61659 L122.9738,84.61659 Z M141.3559,87.21002 C143.2445,84.79188 146.5091,82.43954 148.6069,82.01701 C150.0583,81.72503 151.1645,80.6961 151.4958,79.3316 C151.6053,78.8852 151.6333,78.1525 151.6642,77 C151.6755,76.5438 151.4705,76.11 151.1112,75.8279 C149.8871,74.8691 148.8146,73.3334 148.2475,71.7177 C148.0903,71.2699 147.7281,70.94 147.2929,70.8136 C147.2424,70.7112 147.1806,70.554 147.1441,70.3434 C147.1076,70.1188 147.1105,69.9433 147.1245,69.8282 C147.5063,69.5503 147.7506,69.0842 147.7506,68.5957 C147.7449,66.3764 147.7393,64.4588 148.3907,63.2418 C148.8174,62.4403 149.713,61.5208 152.9473,61.5152 C156.1169,61.5208 157.0125,62.4403 157.4393,63.2418 C158.0906,64.4588 158.085,66.3764 158.0794,68.6491 C158.0794,69.1376 158.3236,69.5783 158.7083,69.8394 C158.7195,69.9531 158.7223,70.1202 158.6886,70.3265 C158.6493,70.5469 158.5876,70.7098 158.537,70.8136 C158.1019,70.9414 157.7397,71.2699 157.5825,71.7177 C157.0153,73.3334 155.9429,74.8691 154.7188,75.8279 C154.3594,76.11 154.1545,76.5438 154.1657,77 C154.1966,78.1525 154.2247,78.8852 154.3342,79.3316 C154.6655,80.6961 155.7716,81.72503 157.2231,82.01701 C159.3205,82.43954 162.5844,84.79135 164.4733,87.20915 C161.2785,89.70484 157.2721,91.20739 152.9136,91.20739 C148.5556,91.20739 144.5498,89.70519 141.3559,87.21002 L141.3559,87.21002 L141.3559,87.21002 L141.3559,87.21002 Z M166.599,85.27074 C164.2364,82.32636 160.5403,79.7524 157.7902,79.1983 C157.6583,79.1716 157.2231,79.0551 157.1277,78.6648 C157.0883,78.4557 157.0715,78.0598 157.0575,77.612 C158.3012,76.4806 159.3512,74.9744 160.039,73.3348 C160.7577,72.894 161.3108,71.9956 161.5214,70.815 C161.7207,69.6219 161.4961,68.5887 160.9543,67.9359 C160.9543,65.6857 160.8785,63.5773 159.9773,61.8886 C158.8121,59.7085 156.5156,58.6459 152.8771,58.6403 C149.3143,58.6459 147.0178,59.7085 145.8527,61.8886 C144.9571,63.5675 144.8785,65.6619 144.8757,67.9374 C144.3366,68.5915 144.112,69.6289 144.3114,70.8319 C144.5219,72.0026 145.0722,72.8968 145.7909,73.3362 C146.4788,74.9744 147.5288,76.4806 148.7725,77.612 C148.7585,78.0584 148.7444,78.4515 148.7051,78.6522 C148.6069,79.0551 148.1717,79.1716 148.0397,79.1983 C145.2893,79.7524 141.5926,82.32707 139.2303,85.27162 C136.051,81.89839 134.0864,77.3676 134.0864,72.3774 C134.0864,61.9953 142.5314,53.5489 152.9136,53.5489 C163.2957,53.5489 171.7435,61.9953 171.7435,72.3774 C171.7435,77.3673 169.7786,81.89769 166.599,85.27074 L166.599,85.27074 L166.599,85.27074 L166.599,85.27074 Z" id="Page-1"></path>
        </g>
    </g>
</svg>