<?xml version="1.0" encoding="UTF-8" standalone="no"?>
<svg width="180px" height="180px" viewBox="0 0 180 180" version="1.1" xmlns="http://www.w3.org/2000/svg" xmlns:xlink="http://www.w3.org/1999/xlink">
    <!-- Generator: Sketch 3.8.3 (29802) - http://www.bohemiancoding.com/sketch -->
    <title>Arts &amp; Humanities</title>
    <desc>Created with Sketch.</desc>
    <defs></defs>
    <g id="Page-1" stroke="none" stroke-width="1" fill="none" fill-rule="evenodd">
        <g id="Arts-&amp;-Humanities" fill="#5BC655">
            <g id="Page-1" transform="translate(0.000000, 35.500000)">
                <path d="M57.0602011,42.6221899 C55.7479106,37.2101229 47.6877318,39.3749497 47.6877318,39.3749497 C47.6877318,39.3749497 39.5316201,41.1433743 40.8402905,46.5536313 C40.919933,46.8722011 41.1190391,47.6867263 41.1190391,47.6867263 C41.1190391,47.6867263 43.2567151,45.4893184 48.8425475,44.1353966 C54.432,42.7796648 57.3353296,43.7534749 57.3353296,43.7534749 C57.3353296,43.7534749 57.152514,42.9968715 57.0602011,42.6221899 L57.0602011,42.6221899 L57.0602011,42.6221899 L57.0602011,42.6221899 Z" id="Fill-1"></path>
                <path d="M78.277676,53.996581 C78.277676,53.996581 75.5101006,58.2303017 67.5476648,60.1399106 C59.583419,62.0513296 55.1723128,59.5480223 55.1723128,59.5480223 C55.1723128,59.5480223 55.566905,61.1607821 55.7623911,61.9590168 C58.5679777,73.4637318 70.0183911,70.2707933 70.0183911,70.2707933 C70.0183911,70.2707933 81.6715307,67.9159106 78.8641341,56.4093855 C78.699419,55.7288045 78.277676,53.996581 78.277676,53.996581 L78.277676,53.996581 L78.277676,53.996581 L78.277676,53.996581 Z" id="Fill-3"></path>
                <path d="M85.0581453,35.8344804 C83.7458547,30.4242235 75.6838659,32.5836201 75.6838659,32.5836201 C75.6838659,32.5836201 67.5277542,34.3538547 68.8382346,39.7659218 C68.9178771,40.0863017 69.1133631,40.8972067 69.1133631,40.8972067 C69.1133631,40.8972067 71.2510391,38.7052291 76.8404916,37.3494972 C82.4281341,35.9937654 85.3314637,36.9657654 85.3314637,36.9657654 C85.3314637,36.9657654 85.148648,36.2109721 85.0581453,35.8344804 L85.0581453,35.8344804 L85.0581453,35.8344804 L85.0581453,35.8344804 Z" id="Fill-4"></path>
                <path d="M179.990145,67.5249385 C179.990145,67.5249385 168.398547,65.789095 164.344022,64.6252291 C160.285877,63.4667933 169.835732,55.4482458 164.344022,53.6164693 C159.616156,52.0399106 154.423106,52.7892737 150.145944,54.0762235 C151.239218,48.4469497 152.357832,42.7344134 153.029363,39.2989274 L154.071955,33.8886704 L149.266257,36.596514 C149.226436,36.6182346 147.803732,37.3838883 145.007196,38.183933 C138.633989,37.6771173 128.448804,37.1015196 117.121475,35.2552626 C109.432358,34.0027039 102.450972,32.3664134 96.8035978,30.9563799 C95.2143687,23.5623017 92.5934078,11.326324 91.3553296,5.5486257 L90.1914637,0.163709497 L86.832,4.54223464 C86.8048492,4.57481564 85.8002682,5.83823464 83.5449385,7.67182123 C77.4866816,9.70813408 67.8879553,13.1816313 56.7452514,15.9311061 C46.0749721,18.5665475 36.3332514,19.9584804 29.9835754,20.9630615 C26.6838436,20.3349721 24.980581,19.5711285 24.9443799,19.554838 L19.9033743,17.1076425 L21.3731397,22.5142793 C24.1443352,32.7248045 29.4622793,52.3476201 29.7518883,53.542257 C29.8966927,54.1395754 30.0614078,54.7224134 30.2315531,55.3088715 C27.0024134,54.0907039 22.1985251,53.187486 16.5475307,55.0717542 C11.048581,56.9053408 20.6038659,64.9238883 16.5475307,66.082324 C12.4948156,67.2425698 0.905027933,68.9784134 0.905027933,68.9784134 L11.3363799,72.4573408 L3.80292737,79.4115754 L22.3451397,75.9362682 C22.3451397,75.9362682 31.1239106,73.8510838 28.1409385,67.8235978 C24.2927598,60.0494078 31.0677989,64.1853855 35.3703017,66.5782793 C45.2278659,82.0488268 63.5329609,90.5198883 74.3154637,87.9278883 L74.4077765,87.9025475 L74.4095866,87.9025475 C76.5526927,87.3758212 78.7573408,86.3115084 80.9312179,84.8109721 C86.3812961,97.4849832 96.4759777,106.920804 105.008581,108.365229 L105.102704,108.379709 L105.106324,108.379709 C118.759575,110.606078 142.922011,94.6793966 146.907754,70.8518212 C146.969296,70.4861899 147.521363,67.6226816 148.287017,63.6821899 C152.327061,61.7291397 156.102838,60.2231732 152.759665,66.3665028 C149.105162,73.0781899 158.551844,74.4809832 158.551844,74.4809832 L177.097676,77.9581006 L169.562413,71.0020559 L179.990145,67.5249385 L179.990145,67.5249385 L179.990145,67.5249385 L179.990145,67.5249385 Z M107.772536,54.7115531 C107.772536,54.7115531 107.653073,55.4826369 107.591531,55.8627486 C106.719084,61.3616983 98.5086704,59.8539218 98.5086704,59.8539218 C98.5086704,59.8539218 98.1213184,59.7978101 97.5294302,59.6620559 C97.9620335,58.0999777 98.3222346,56.5053184 98.6046034,54.8835084 C98.8326704,54.9251397 99.0390168,54.9740112 99.2761341,55.0120223 C104.957899,55.9152402 107.772536,54.7115531 107.772536,54.7115531 L107.772536,54.7115531 L107.772536,54.7115531 L107.772536,54.7115531 Z M73.1859888,82.9574749 L73.7977877,85.4282011 L73.1244469,82.9719553 C63.1003575,85.3811397 39.9841341,74.1063017 34.7078212,52.3458101 C34.4145922,51.143933 29.7790391,34.037095 27.5128492,25.678257 C33.1059218,26.9670168 43.5752849,28.0675307 58.8738771,24.3587263 L59.2974302,24.253743 C74.3317542,20.5431285 83.0109721,14.8468827 87.349676,11.1706592 C89.1742123,19.6869721 92.9155978,37.1503911 93.1617654,38.1730726 C98.4290279,59.8955531 83.1467263,80.4976089 73.1859888,82.9574749 L73.1859888,82.9574749 L73.1859888,82.9574749 L73.1859888,82.9574749 Z M120.171419,89.7614749 C120.059196,90.4492961 119.778637,92.2122905 119.778637,92.2122905 C119.778637,92.2122905 116.674391,88.2156872 108.585251,86.9540782 C100.496112,85.6870391 96.3004022,88.5396872 96.3004022,88.5396872 C96.3004022,88.5396872 96.5610503,86.9015866 96.6931844,86.0888715 C98.5665922,74.3922905 110.236022,76.6548603 110.236022,76.6548603 C110.236022,76.6548603 122.041207,78.0648939 120.171419,89.7614749 L120.171419,89.7614749 L120.171419,89.7614749 L120.171419,89.7614749 Z M136.043799,60.3770279 C135.171352,65.8705475 126.960939,64.3700112 126.960939,64.3700112 C126.960939,64.3700112 118.688983,63.262257 119.56143,57.7614972 C119.613922,57.4374972 119.746056,56.6121117 119.746056,56.6121117 C119.746056,56.6121117 122.050257,58.628514 127.730212,59.5263017 C133.410168,60.4313296 136.226615,59.2258324 136.226615,59.2258324 C136.226615,59.2258324 136.103531,59.9932961 136.043799,60.3770279 L136.043799,60.3770279 L136.043799,60.3770279 L136.043799,60.3770279 Z" id="Fill-5"></path>
            </g>
        </g>
    </g>
</svg>