<?xml version="1.0" encoding="UTF-8" standalone="no"?>
<svg width="180px" height="180px" viewBox="0 0 180 180" version="1.1" xmlns="http://www.w3.org/2000/svg" xmlns:xlink="http://www.w3.org/1999/xlink">
    <!-- Generator: Sketch 3.8.3 (29802) - http://www.bohemiancoding.com/sketch -->
    <title>Computer Science</title>
    <desc>Created with Sketch.</desc>
    <defs></defs>
    <g id="Page-1" stroke="none" stroke-width="1" fill="none" fill-rule="evenodd">
        <g id="Computer-Science" fill="#5CB4F8">
            <g id="Group-2" transform="translate(0.000000, 25.000000)">
                <path d="M19.4,63.39999 L38.8,52.6 L19.4,41.8 C18.4,41.2 17.8,40.8 17.4,40.4 C17,40 17,39.4 17,38.8 C17,38 17.4,37.2 18,36.6 C18.6,36 19.4,35.6 20.2,35.6 C20.8,35.6 21.4,35.8 22.6,36.4 L51.4,52.4 L22.6,68.39999 C21.6,69 20.8,69.2 20.2,69.2 C19.4,69.2 18.6,68.8 18,68.2 C17.4,67.6 17,66.8 17,66 C17,65.39999 17.2,64.8 17.4,64.39999 C17.8,64.39999 18.4,64 19.4,63.39999 L19.4,63.39999 L19.4,63.39999 L19.4,63.39999 L19.4,63.39999 Z M48,84.6 C48,85.39999 48.4,86.2 49,86.8 C49.6,87.39999 50.6,87.6 52,87.6 L84.8,87.6 C86.2,87.6 87.2,87.39999 87.8,86.8 C88.4,86.2 88.8,85.6 88.8,84.6 C88.8,83.8 88.4,83 87.8,82.39999 C87.2,81.8 86.2,81.6 84.8,81.6 L52,81.6 C50.6,81.6 49.6,81.8 49,82.39999 C48.4,83 48,83.8 48,84.6 L48,84.6 L48,84.6 L48,84.6 L48,84.6 Z M180,11.6 L180,119 C180,125.2 175,130 169,130 L11,130 C4.8,130 0,125 0,119 L0,11.6 C0,10.8 0,10.2 0.2,9.6 L0.2,0.2 L179.8,0.2 L179.8,9.6 C180,10.2 180,11 180,11.6 L180,11.6 L180,11.6 L180,11.6 L180,11.6 Z M38.6,16 C40,17.2 42.2,17 43.6,15.6 C44.8,14.2 44.6,12 43.2,10.6 C41.8,9.4 39.6,9.6 38.2,11 C36.8,12.4 37,14.6 38.6,16 L38.6,16 L38.6,16 L38.6,16 L38.6,16 Z M25,16 C26.4,17.2 28.6,17 30,15.6 C31.2,14.2 31,12 29.6,10.6 C28.2,9.4 26,9.6 24.6,11 C23.2,12.4 23.4,14.6 25,16 L25,16 L25,16 L25,16 L25,16 Z M12,16 C13.4,17.2 15.6,17 17,15.6 C18.2,14 18,11.8 16.4,10.6 C15,9.2 12.8,9.4 11.6,11 C10.2,12.4 10.4,14.6 12,16 L12,16 L12,16 L12,16 L12,16 Z M173.8,26 L6.2,26 L6.2,119 C6.2,121.60001 8.4,123.79999 11,123.79999 L168.8,123.79999 C171.4,123.79999 173.6,121.60001 173.6,119 L173.6,26 L173.8,26 L173.8,26 L173.8,26 L173.8,26 Z" id="Page-1"></path>
            </g>
        </g>
    </g>
</svg>