<?xml version="1.0" encoding="UTF-8" standalone="no"?>
<svg width="180px" height="180px" viewBox="0 0 180 180" version="1.1" xmlns="http://www.w3.org/2000/svg" xmlns:xlink="http://www.w3.org/1999/xlink">
    <!-- Generator: Sketch 3.8.3 (29802) - http://www.bohemiancoding.com/sketch -->
    <title>Health Sciences</title>
    <desc>Created with Sketch.</desc>
    <defs></defs>
    <g id="Page-1" stroke="none" stroke-width="1" fill="none" fill-rule="evenodd">
        <g id="Health-Sciences" fill="#E6C952">
            <g id="Page-1" transform="translate(15.000000, 0.000000)">
                <path d="M79.87857,38.7737191 C79.92786,35.7313146 80.06928,32.2728876 80.03286,28.8144607 C80.03286,28.7212247 80.03072,28.6259663 80.03928,28.5327303 C80.08215,28.0689775 80.14857,27.9888876 80.61357,28.0712022 C81.19,28.1730337 81.76643,28.2315843 82.34929,28.2033708 C83.67357,28.1362247 84.87143,27.7158539 85.8229,26.7644831 C86.5257,26.0624831 86.9886,25.1783596 87.3893,24.2747191 C88,22.9008539 88.585,21.5161685 89.1721,20.1315843 C90.0314,18.1054719 91.12,16.2181011 92.6179,14.6058876 C93.7793,13.3577191 95.1464,12.3825843 96.7514,11.7931348 C97.705,11.4421348 98.68,11.5591348 99.6421,11.7693708 C101.5193,12.1789213 103.285,12.9134831 105.0186,13.7238876 C109.0343,15.6004382 112.9086,17.7652921 116.8793,19.7285056 C120.2907,21.4165618 123.7579,22.9637528 127.3814,24.1295056 C129.895,24.9377865 132.4579,25.5661685 135.085,25.754764 C138.1386,25.9757191 141.1814,25.8478989 144.1107,24.7665843 C145.4029,24.2898876 146.7164,23.9019775 148.0921,23.7394719 C148.5957,23.6787978 149.0693,23.733 149.5343,23.8911573 C149.9929,24.047191 150.1557,24.3050562 150.1621,24.7947978 C150.1686,25.2303371 150.025,25.6268427 149.845,26.0126292 C149.3521,27.0700787 148.6429,27.980191 147.8157,28.775427 C146.1636,30.366 144.2822,31.6075955 142.1136,32.3747191 C140.8321,32.8297753 139.5207,33.1179775 138.16,33.1656067 C137.4871,33.1894719 137.4121,33.2523708 137.5257,33.904618 C137.6414,34.5720337 137.35,34.9945281 136.8186,35.2957753 C136.03,35.7421348 135.1557,35.8851236 134.275,35.9848315 C131.8557,36.2622135 129.4986,35.9176854 127.1779,35.2394494 C127.0664,35.2068876 126.9529,35.1787753 126.8414,35.1462135 C126.5586,35.0682472 126.385,35.174427 126.34,35.4647528 C126.3079,35.672764 126.295,35.8851236 126.2714,36.0953596 C126.0293,38.2839775 124.9429,39.304618 123.1064,39.6707865 C121.81,39.9286517 120.5586,39.699 119.3029,39.445382 C118.8014,39.3435506 118.3107,39.1918652 117.8179,39.051 C116.9736,38.8083034 116.9757,38.8040562 116.6029,39.575427 C116.3479,40.1042022 116.0907,40.6307528 115.7286,41.0987528 C114.8414,42.2450899 113.6779,42.8258427 112.2507,42.9189775 C110.8343,43.0099888 109.4714,42.7435281 108.1279,42.3231573 C107.5943,42.1563034 107.0607,41.9872247 106.5229,41.837764 C105.8286,41.6426966 105.8286,41.6513933 105.4943,42.2776517 C105.3829,42.4834382 105.2693,42.6893258 105.1429,42.8865169 C104.2471,44.2776742 102.91,44.7565955 101.3543,44.6720562 C99.43,44.5681011 97.6943,43.8334382 96.0271,42.9060337 C95.8643,42.8150225 95.7057,42.7153146 95.5407,42.6265281 C94.5721,42.0956292 94.5614,42.0912809 93.73,42.8583034 C93.2821,43.2700787 92.8621,43.7120899 92.4164,44.1259888 C91.1371,45.3091348 89.6007,45.6147303 87.9336,45.4175393 C85.3279,45.1098202 82.855,44.2668539 80.37572,43.4521011 C79.96,43.3155843 79.86786,43.0360787 79.87215,42.6438202 C79.885,41.4953596 79.87857,40.3425506 79.87857,38.7737191 L79.87857,38.7737191 L79.87857,38.7737191 L79.87857,38.7737191 Z" id="Fill-1"></path>
                <path d="M70.39643,40.4248652 C70.39643,41.3501461 70.38571,42.0327303 70.40071,42.7153146 C70.40929,43.0988764 70.255,43.3220562 69.89072,43.4498764 C67.42214,44.3036629 64.94071,45.1054719 62.33714,45.4283596 C60.49643,45.6558876 58.87643,45.1942584 57.55,43.8313146 C57.19,43.4629213 56.82357,43.101 56.44857,42.7478764 C55.79929,42.1389101 55.67929,42.1064494 54.92286,42.5441124 C53.93071,43.1183933 52.91286,43.6276517 51.84357,44.0393258 C50.85571,44.4206629 49.83143,44.6720562 48.78357,44.6936966 C47.07143,44.728382 45.71286,44.0523708 44.88357,42.4574494 C44.45929,41.640573 44.45071,41.6448202 43.55071,41.9092584 C42.76857,42.1389101 41.98857,42.3751348 41.20428,42.5939663 C40.32571,42.8388876 39.42786,42.9276742 38.51286,42.9384944 C36.43214,42.9623596 34.96857,41.9936966 33.98928,40.1886404 C33.85429,39.9416966 33.74072,39.6838315 33.62072,39.4280899 C33.33571,38.817 33.33786,38.817 32.66928,38.9990225 C32.10786,39.1529326 31.55286,39.3349551 30.98286,39.4519551 C29.77429,39.699 28.56786,39.933 27.31857,39.6967753 C25.255,39.3088652 24.18143,38.1366404 24.01429,36.0172921 C23.935,35.0053483 23.92643,34.9901798 22.99429,35.2849551 C21.31429,35.8136292 19.58286,36.0390337 17.83857,36.0974831 C16.61071,36.1386404 15.37214,36.0303371 14.19143,35.6120899 C13.93,35.5189551 13.66643,35.4127753 13.42643,35.2719101 C12.92286,34.9728876 12.66143,34.5654607 12.78357,33.9240337 C12.90571,33.2783596 12.80714,33.2025169 12.14286,33.1699551 C8.78071,33.0074494 5.88571,31.6834382 3.32071,29.5360787 C2.34571,28.7191011 1.49286,27.7938202 0.82,26.7081573 C0.52214,26.2271124 0.26286,25.724427 0.16,25.1609663 C0.01643,24.3787753 0.26286,24.0341461 1.01071,23.8109663 C1.74143,23.5964831 2.44643,23.7806292 3.15143,23.893382 C4.04929,24.0363708 4.91714,24.3158764 5.77214,24.6279438 C8.05,25.4622135 10.39643,25.8154382 12.82,25.8327303 C16.23786,25.8587191 19.525,25.1869551 22.76286,24.1750112 C26.12929,23.1240337 29.36714,21.7436966 32.51929,20.1619213 C35.95857,18.4369551 39.36357,16.6384719 42.805,14.9157303 C44.86857,13.8821461 46.94072,12.8571573 49.15214,12.1681011 C50.06714,11.8820225 50.995,11.663191 51.94643,11.5743034 C52.90857,11.4855169 53.78072,11.817 54.61428,12.2633596 C56.83857,13.4552022 58.47786,15.2450899 59.755,17.4098427 C60.84357,19.2582809 61.62143,21.2497079 62.45286,23.2193933 C62.83643,24.1295056 63.26072,25.0179775 63.77714,25.8630674 C64.71786,27.3994382 66.14714,28.060382 67.86143,28.1946742 C68.36929,28.2337079 68.88143,28.2098427 69.39143,28.1167079 C70.00857,28.0040562 70.11786,28.097191 70.20358,28.7407416 C70.24429,29.0419888 70.24857,29.3497079 70.25072,29.6552022 C70.26357,32.0800449 70.27428,34.5047865 70.28286,36.9296292 C70.28286,38.1777978 70.47572,39.4172697 70.39643,40.4248652 L70.39643,40.4248652 L70.39643,40.4248652 L70.39643,40.4248652 Z" id="Fill-3"></path>
                <path d="M58.54857,52.9280899 C59.48928,52.8565955 60.50714,52.9757191 61.525,53.0797753 C62.08643,53.1383258 62.62,53.3289438 63.09786,53.630191 C64.73071,54.6573034 66.04214,55.9986067 66.92286,57.7429888 C66.955,57.8058876 66.985,57.8709101 67.01286,57.9337079 C67.59571,59.2360787 67.43072,59.7344157 66.18571,60.3714944 C64.17571,61.4008315 62.02857,61.6911573 59.80857,61.5286517 C59.25143,61.4874944 58.71571,61.3032472 58.21214,61.0411348 C57.34214,60.5903258 56.45714,60.1678315 55.59571,59.6997303 C54.19429,58.9391798 52.68357,58.6011236 51.11714,58.4602584 C49.46928,58.3129213 47.81929,58.2869326 46.16714,58.3021011 C45.62714,58.3064494 45.09786,58.3822921 44.57928,58.5144607 C42.70428,58.9911573 41.91357,60.8851011 42.86071,62.6077416 C43.18214,63.1928427 43.63,63.6674157 44.14857,64.0769663 C45.83286,65.4161461 47.74214,66.3349551 49.72,67.1171461 C53.62643,68.6578652 57.68714,69.5484607 61.84214,70.0295056 C63.87571,70.2636067 65.91357,70.4001236 67.96214,70.4542247 C71.82143,70.5560562 75.67643,70.7403034 79.47357,71.5507079 C83.49571,72.4088427 87.4364,73.5031011 91.0921,75.4664157 C93.2157,76.6061798 95.0907,78.0493146 96.4729,80.0754371 C97.66,81.815491 98.3157,83.7267169 98.1571,85.8503225 C98.0264,87.5968685 97.3857,89.1895652 96.4579,90.6587494 C95.0029,92.9578652 93.0314,94.7369225 90.8543,96.3014461 C88.8357,97.7511236 86.6629,98.9277775 84.43643,100.011236 C84.01643,100.217093 83.68,100.219257 83.27286,99.9592281 C82.16929,99.2549831 81.00357,98.6634101 79.79929,98.156336 C79.54857,98.0501663 79.23572,97.9764876 79.20143,97.6319393 C79.16286,97.2375573 79.10286,96.8280067 79.26786,96.4487933 C79.37071,96.2169371 79.63214,96.1735955 79.84643,96.0847483 C81.32928,95.4628483 82.825,94.8691011 84.265,94.1475135 C85.6707,93.4432584 86.9929,92.6003225 88.1243,91.5016854 C89.455,90.2101955 90.4107,88.6868393 90.3443,86.7300978 C90.2886,85.1005618 89.5407,83.7505618 88.4586,82.5869225 C87.0293,81.0462236 85.2529,80.0191011 83.34785,79.2216404 C81.34,78.3808989 79.25928,77.7914494 77.09071,77.5574494 C76.39643,77.4816067 75.69786,77.4577416 75.00357,77.4165843 C72.35714,77.258427 69.71928,77.0136067 67.07928,76.7990225 C63.57357,76.5151685 60.09357,76.0601124 56.68643,75.1391798 C52.59143,74.034 48.69143,72.4651685 45.07643,70.2094045 C42.82214,68.8030787 40.76929,67.1497079 39.13857,65.021764 C38.29214,63.9165843 37.63214,62.7096742 37.38786,61.2967753 C37.14143,59.862236 37.55071,58.6487528 38.47643,57.5804831 C39.09786,56.8632135 39.84786,56.3127978 40.68357,55.8751348 C42.48357,54.936809 44.41643,54.425427 46.39214,54.0678539 C48.22429,53.7363708 50.07786,53.5782135 51.93571,53.469809 C52.81643,53.4199551 53.69286,53.2769663 54.56929,53.1664382 C55.85929,53.0082809 57.15572,52.8804607 58.54857,52.9280899 L58.54857,52.9280899 L58.54857,52.9280899 L58.54857,52.9280899 Z" id="Fill-4"></path>
                <path d="M72.19428,63.4681011 C72.19428,62.6446517 72.22,61.8189775 72.19,60.9956292 C72.04642,56.9261124 72.13857,52.8522472 72.02071,48.7849551 C71.92643,45.5605281 72.01643,42.3361011 71.89214,39.1160225 C71.76357,35.7984607 71.87714,32.4787753 71.74643,29.1633371 C71.62857,26.1751348 71.73143,23.1847079 71.61143,20.2008539 C71.52357,17.9884719 71.515,15.7782135 71.5,13.5678539 C71.49786,13.1756966 71.35857,12.9113596 71.04572,12.6816067 C69.30357,11.3945056 68.37572,9.63060674 68.2,7.47879775 C68.07786,6.00744944 68.44428,4.62498876 69.21786,3.37034831 C70.55286,1.20549438 72.53286,0.0310449438 75.01643,0.00505617978 C79.23572,-0.0383258427 81.97857,3.50029213 82.03,6.71389888 C82.07072,9.17120225 81.145,11.0997303 79.285,12.6014157 C78.91428,12.9004382 78.775,13.2189775 78.76857,13.678382 C78.70643,17.2083034 78.685,20.7383258 78.60786,24.2660225 C78.53072,27.7006854 78.59286,31.1395955 78.46643,34.569809 C78.34857,37.7465056 78.46214,40.925427 78.33572,44.0978764 C78.19428,47.6039326 78.325,51.1122135 78.19,54.6139213 C78.06143,57.9792135 78.15357,61.3445056 78.05929,64.707573 C78.02071,66.1182472 77.96714,67.5289213 77.94786,68.9395955 C77.93929,69.5441124 77.80214,69.6762809 77.23643,69.5787978 C75.81357,69.3339775 74.37572,69.2299213 72.94428,69.0609438 C72.31,68.9872247 72.23714,68.9287753 72.23286,68.2678315 C72.22,66.6664382 72.22857,65.0672697 72.22857,63.4658764 C72.21571,63.4681011 72.205,63.4681011 72.19428,63.4681011 L72.19428,63.4681011 L72.19428,63.4681011 L72.19428,63.4681011 Z" id="Fill-5"></path>
                <path d="M67.17142,78.4091124 C66.99786,78.7189551 66.74072,78.7189551 66.53714,78.7947978 C64.66,79.5033708 62.92857,80.4546506 61.58286,81.9888472 C60.09143,83.6920618 59.37143,85.6509674 60.00786,87.9197461 C60.47929,89.5991157 61.51,90.9296191 62.83214,92.0325843 C64.44786,93.3782461 66.28429,94.3252079 68.2,95.1486371 C71.88571,96.7305034 75.63571,98.1455056 79.34715,99.6645236 C81.98929,100.745828 84.32928,102.319018 86.3007,104.407948 C87.9186,106.119819 89.1421,108.080899 89.5514,110.46236 C89.9586,112.83298 89.575,115.099604 88.5957,117.275208 C87.3079,120.139888 85.3343,122.4585 83.00072,124.495422 C82.41785,125.002487 81.79857,125.461881 81.19215,125.936434 C80.89214,126.172628 80.63715,126.194299 80.32,125.942936 C79.99214,125.682907 79.62357,125.470547 79.26357,125.258188 C78.92928,125.060997 78.76,124.798793 78.77286,124.397919 C78.79214,123.763004 78.79857,123.125926 78.78143,122.491011 C78.76857,122.020787 78.97,121.706585 79.33,121.420547 C80.80428,120.25257 82.105,118.909072 83.15929,117.342374 C84.07643,115.977206 84.69357,114.508031 84.655,112.800479 C84.61429,111.040928 83.83643,109.634592 82.69857,108.399438 C81.03571,106.594382 78.95929,105.389565 76.77357,104.362443 C74.34357,103.2183 71.77643,102.429536 69.28,101.454411 C65.51071,99.9808989 61.9,98.1953494 58.65786,95.7228775 C56.67357,94.2103517 54.925,92.4681337 53.62643,90.2990427 C52.73071,88.7995213 52.18428,87.1808157 52.12429,85.4321056 C52.07071,83.8719101 52.49286,82.3962236 53.23643,81.0353933 C54.08072,79.4946742 55.23571,78.2096966 56.60286,77.1175618 C56.89857,76.8813371 57.19,76.8792135 57.51786,76.9594045 C59.03286,77.3299213 60.56714,77.6181236 62.11,77.8369551 C63.23714,77.9973371 64.36643,78.1382022 65.50429,78.2140449 C66.04857,78.2508539 66.58643,78.3397416 67.17142,78.4091124 L67.17142,78.4091124 L67.17142,78.4091124 L67.17142,78.4091124 Z" id="Fill-6"></path>
                <path d="M82.65572,70.4607978 C83.41214,70.4304607 84.16857,70.3588652 84.92286,70.3199326 C87.4343,70.187764 89.9243,69.8800449 92.3971,69.4314607 C95.6393,68.8420112 98.7871,67.9318989 101.8107,66.605764 C103.3514,65.9296517 104.83,65.1366404 106.1564,64.0790899 C106.6171,63.7107978 107.0157,63.2882022 107.3329,62.7876404 C107.8,62.0552022 107.9093,61.2686629 107.7271,60.4213483 C107.5364,59.5328764 107.0114,58.9630449 106.1779,58.6682697 C105.5821,58.4581348 104.9671,58.3324382 104.3329,58.3172697 C102.2136,58.2695393 100.0986,58.3345618 97.9964,58.6141685 C96.6893,58.789618 95.4786,59.2706629 94.3171,59.8861011 C93.595,60.2675393 92.8686,60.6401798 92.1443,61.0150449 C91.4264,61.3856629 90.6679,61.5568652 89.86,61.5741573 C87.85,61.6175393 85.9193,61.3054719 84.11072,60.3779663 C82.87643,59.745236 82.69,59.2750112 83.26,58.007427 C84.12572,56.0810225 85.5379,54.6442584 87.3186,53.5695169 C88.2529,53.0039326 89.3264,52.9995843 90.3657,52.9432584 C92.86,52.8088652 95.3329,53.0884719 97.8036,53.4221798 C98.6543,53.5369551 99.5179,53.5630449 100.3729,53.6345393 C103.2829,53.877236 106.1436,54.3495843 108.8543,55.5175618 C109.87,55.9553258 110.7893,56.5425506 111.5757,57.3334382 C113.02,58.7852697 113.3264,60.4841461 112.645,62.3932584 C112.1714,63.721618 111.3979,64.8592584 110.4636,65.8950674 C108.4,68.1832921 105.9271,69.9255506 103.24,71.3751573 C100.3729,72.9223483 97.3664,74.1033708 94.2379,74.9810225 C93.865,75.0849775 93.5307,75.1196629 93.1729,74.8942584 C90.28,73.0719101 87.115,71.9147528 83.84929,71.0002921 C83.44857,70.8876404 83.05214,70.7662921 82.65357,70.6492921 C82.65572,70.5821461 82.65572,70.5214719 82.65572,70.4607978 L82.65572,70.4607978 L82.65572,70.4607978 L82.65572,70.4607978 Z" id="Fill-7"></path>
                <path d="M78.50285,144.767093 C78.505,144.273034 78.54357,143.781148 78.57571,143.287089 C78.60571,142.823356 78.80071,142.496151 79.12,142.19277 C79.69643,141.644538 80.22572,141.055129 80.67357,140.385549 C81.62286,138.966219 81.68714,137.497025 80.99072,135.967187 C80.60928,135.126404 80.08215,134.37447 79.48,133.687567 C77.815,131.789326 75.86714,130.233458 73.76286,128.863962 C72.04214,127.743664 70.20786,126.805379 68.57928,125.537724 C66.235,123.715325 64.16929,121.635071 62.63071,119.058593 C61.38357,116.967489 60.58857,114.737724 60.59714,112.256575 C60.60357,110.271671 61.16071,108.45361 62.17643,106.772076 C63.22214,105.040689 64.61285,103.634353 66.205,102.416531 C66.51357,102.180337 66.78357,102.108833 67.16286,102.269184 C68.27929,102.737235 69.41286,103.166292 70.54214,103.608354 C71.16785,103.853215 71.17,103.913879 71.23857,104.581304 C71.32,105.367894 71.00714,105.827289 70.34286,106.226009 C69.07643,106.988764 67.975,107.966053 67.08786,109.173034 C65.55785,111.253288 65.37143,113.480899 66.37643,115.836361 C66.85214,116.950156 67.52715,117.938275 68.33071,118.828891 C69.77929,120.432418 71.38,121.862599 73.12643,123.130264 C74.90714,124.41958 76.76929,125.576727 78.64,126.725208 C80.87071,128.094704 82.83786,129.765418 84.29714,131.986517 C85.2443,133.429692 85.8036,135.024563 85.8614,136.751612 C85.9,137.906575 85.6493,139.042062 85.2421,140.132022 C84.83714,141.219819 84.25214,142.20361 83.575,143.137567 C82.56357,144.530899 81.35928,145.735706 80.03714,146.821348 C79.55071,147.220069 79.52071,147.183219 79.04072,146.76934 C78.63143,146.4183 78.44286,146.008749 78.49643,145.469184 C78.52214,145.239492 78.50285,145.003288 78.50285,144.767093 L78.50285,144.767093 L78.50285,144.767093 L78.50285,144.767093 Z" id="Fill-8"></path>
                <path d="M78.38071,167.593581 C78.20286,167.39638 78.22643,167.201363 78.24571,167.01934 C78.42571,165.305296 78.31643,163.586922 78.33786,161.870703 C78.355,160.577049 78.56071,159.29639 78.49429,157.998398 C78.33357,154.919184 77.17857,152.353537 74.75928,150.42062 C73.22714,149.196307 71.66286,148.006658 70.16286,146.743331 C68.23857,145.122462 66.51786,143.302257 65.42072,140.983625 C64.24429,138.495984 64.12,135.962848 65.23643,133.412349 C66.12572,131.381949 67.58286,129.815252 69.26071,128.43274 C69.49,128.244216 69.71072,128.205222 69.95715,128.378569 C69.97643,128.391573 69.99786,128.402413 70.01714,128.415408 C71.78286,129.511881 71.41857,128.989648 71.54929,130.944226 C71.635,132.24871 71.36929,133.312692 70.41143,134.235799 C69.85857,134.766698 69.49429,135.477445 69.20286,136.203371 C68.62,137.659551 68.72285,139.048554 69.61,140.363889 C70.33857,141.443019 71.24072,142.359634 72.23071,143.180899 C74.09929,144.732418 76.04714,146.192936 77.86429,147.802975 C80.03072,149.722867 81.42142,152.123845 81.73214,155.083874 C82.20358,159.558593 80.95643,163.595589 78.66572,167.363889 C78.62929,167.422399 78.58215,167.478735 78.53286,167.526394 C78.50072,167.552413 78.45143,167.563244 78.38071,167.593581 L78.38071,167.593581 L78.38071,167.593581 L78.38071,167.593581 Z" id="Fill-9"></path>
                <path d="M77.81071,83.4276944 C77.65643,87.7268831 77.66071,92.026082 77.65429,96.3274449 C77.65429,96.3989596 77.65643,96.4683 77.65,96.5398045 C77.61143,97.1227112 77.49571,97.2245629 76.95571,97.0186955 C75.67214,96.5311382 74.40357,96.0067416 73.12215,95.510518 C72.77286,95.3740011 72.58857,95.1551292 72.61429,94.7694236 C72.61857,94.7000831 72.61214,94.6285685 72.61214,94.557064 C72.55,89.9761652 72.43,85.3952663 72.46429,80.8121933 C72.46857,80.3181337 72.46643,79.8262584 72.40643,79.3343933 C72.37,79.0352697 72.47285,78.8143146 72.82429,78.8403034 C74.26,78.9486067 75.7,78.966 77.12714,79.1609663 C77.78286,79.2498539 77.80428,79.2931348 77.80857,79.9714315 C77.81715,81.1242303 77.81071,82.2748854 77.81071,83.4276944 L77.81071,83.4276944 L77.81071,83.4276944 L77.81071,83.4276944 Z" id="Fill-10"></path>
                <path d="M77.51714,108.057064 C77.30286,111.977049 77.44643,115.929536 77.35429,119.87552 C77.32858,121.026165 77.27715,122.1768 77.25357,123.327455 C77.24286,123.90386 77.15285,123.942853 76.64928,123.639492 C75.52857,122.965574 74.48714,122.172472 73.42429,121.414045 C73.01071,121.11934 72.90357,120.742291 72.90357,120.2634 C72.90786,118.193976 72.94428,116.122399 72.87572,114.057303 C72.78143,111.214284 72.76215,108.371265 72.75357,105.526082 C72.75143,104.390606 72.76,104.384113 73.83143,104.819663 C74.80214,105.214045 75.75143,105.658261 76.70286,106.095984 C77.32214,106.382022 77.60072,106.789409 77.51714,107.465491 C77.49571,107.654016 77.51714,107.844704 77.51714,108.057064 L77.51714,108.057064 L77.51714,108.057064 L77.51714,108.057064 Z" id="Fill-11"></path>
                <path d="M78.08929,174.048881 C77.52143,173.795347 77.13143,173.394455 76.71143,173.049913 C74.02,170.837484 71.86429,168.185144 70.35786,165.012765 C69.36143,162.915169 68.78072,160.70489 68.53643,158.386278 C68.40143,157.107782 68.45928,155.850967 68.62857,154.591969 C68.86,152.87576 69.56928,151.352413 70.54,149.943903 C70.66643,149.761871 70.74571,149.495349 71.04143,149.51701 C71.25571,149.532179 71.71214,149.980743 71.755,150.227778 C71.78714,150.411954 71.78714,150.602653 71.78714,150.789003 C71.78928,153.259311 71.84071,155.731783 71.77857,158.199917 C71.70143,161.270474 72.53286,164.102643 73.78857,166.841646 C74.85786,169.177601 76.23143,171.33154 77.75285,173.390134 C77.88571,173.569989 78.08071,173.721669 78.08929,174.048881 L78.08929,174.048881 L78.08929,174.048881 L78.08929,174.048881 Z" id="Fill-12"></path>
                <path d="M77.09286,138.478652 C77.09286,139.724646 77.10571,140.972794 77.08857,142.218779 C77.07786,142.946869 77.02857,143.674958 76.97929,144.400884 C76.94929,144.832096 76.80785,144.905784 76.45214,144.624074 C75.445,143.826654 74.46143,142.998876 73.465,142.190616 C73.16714,141.947909 73.18214,141.618539 73.18,141.28916 C73.17571,139.689971 73.20571,138.088608 73.15857,136.489399 C73.10714,134.77319 73.03857,133.059155 73.04714,131.342946 C73.04714,131.225916 73.04285,131.106731 73.04714,130.989731 C73.06643,130.404661 73.15643,130.350489 73.64286,130.677684 C74.70786,131.397118 75.72572,132.177206 76.67714,133.048325 C76.99643,133.338691 77.13143,133.668061 77.12714,134.101446 C77.11214,135.55979 77.12071,137.018134 77.12071,138.476478 C77.11214,138.478652 77.10357,138.478652 77.09286,138.478652 L77.09286,138.478652 L77.09286,138.478652 L77.09286,138.478652 Z" id="Fill-13"></path>
                <path d="M76.705,168.672711 C76.42214,168.638036 76.36857,168.497191 76.30428,168.378007 C75.07429,166.096234 73.98785,163.758104 73.54214,161.168612 C73.50571,160.960601 73.46714,160.750396 73.45643,160.5402 C73.32357,157.718862 73.32143,154.895349 73.315,152.071827 C73.315,152.047992 73.31286,152.024167 73.315,152.000322 C73.34286,151.824802 73.25072,151.586444 73.47786,151.508427 C73.65143,151.447753 73.76286,151.627611 73.88928,151.725125 C75.475,152.932106 76.33643,154.583302 76.76286,156.503204 C76.84,156.852081 76.84,157.203142 76.83786,157.556336 C76.82928,160.310508 76.81857,163.06468 76.81214,165.818862 C76.81214,166.759311 76.65786,167.691084 76.705,168.672711 L76.705,168.672711 L76.705,168.672711 L76.705,168.672711 Z" id="Fill-14"></path>
                <path d="M73.68357,172.536364 C74.20428,172.809479 74.5,173.245167 74.90071,173.550794 C75.4,173.930131 75.85857,174.365819 76.34071,174.771156 C76.51,174.912049 76.64286,175.057279 76.62143,175.300058 C76.51643,176.587603 76.405,177.875164 75.92072,179.09119 C75.76428,179.481359 75.625,179.962566 75.145,179.997253 C74.62428,180.036276 74.53,179.503038 74.34143,179.145381 C74.13357,178.748716 74.035,178.310852 73.94714,177.873004 C73.60857,176.208282 73.54429,174.52188 73.6,172.828983 C73.60214,172.759624 73.63643,172.692426 73.68357,172.536364 L73.68357,172.536364 L73.68357,172.536364 L73.68357,172.536364 Z" id="Fill-15"></path>
            </g>
        </g>
    </g>
</svg>