<?xml version="1.0" encoding="UTF-8" standalone="no"?>
<svg width="180px" height="180px" viewBox="0 0 180 180" version="1.1" xmlns="http://www.w3.org/2000/svg" xmlns:xlink="http://www.w3.org/1999/xlink">
    <!-- Generator: Sketch 3.8.3 (29802) - http://www.bohemiancoding.com/sketch -->
    <title>General Studies</title>
    <desc>Created with Sketch.</desc>
    <defs></defs>
    <g id="Page-1" stroke="none" stroke-width="1" fill="none" fill-rule="evenodd">
        <g id="General-Studies" fill="#5BC655">
            <g id="Page-1">
                <path d="M177.874382,179.494382 L2.29550562,179.494382 C1.40764045,179.494382 0.687640449,178.768313 0.687640449,177.870334 L0.687640449,78.2534831 C0.687640449,77.3575281 1.40764045,76.6294382 2.29550562,76.6294382 L13.1925843,76.6294382 C14.0804494,76.6294382 14.8004494,77.3575281 14.8004494,78.2534831 C14.8004494,79.1494382 14.0804494,79.8775281 13.1925843,79.8775281 L3.90337079,79.8775281 L3.90337079,176.244265 L176.272584,176.244265 L176.460674,79.8775281 L165.385618,79.8775281 C164.499775,79.8775281 163.777753,79.1514607 163.777753,78.2534831 C163.777753,77.3555056 164.497753,76.6294382 165.385618,76.6294382 L178.068539,76.6294382 C178.495281,76.6294382 178.905843,76.8013483 179.207191,77.1047191 C179.506517,77.4121348 179.678427,77.8247191 179.674382,78.2575281 L179.480225,177.874392 C179.478202,178.770334 178.76427,179.494382 177.874382,179.494382 L177.874382,179.494382 L177.874382,179.494382 L177.874382,179.494382 Z" id="Fill-1"></path>
                <path d="M68.7478652,79.8775281 L36.5925843,79.8775281 C35.7047191,79.8775281 34.9847191,79.1514607 34.9847191,78.2534831 C34.9847191,77.3555056 35.7047191,76.6294382 36.5925843,76.6294382 L68.7458427,76.6294382 C69.6316854,76.6294382 70.3537079,77.3575281 70.3537079,78.2534831 C70.3537079,79.1494382 69.6337079,79.8775281 68.7478652,79.8775281 L68.7478652,79.8775281 L68.7478652,79.8775281 L68.7478652,79.8775281 Z" id="Fill-3"></path>
                <path d="M77.3211236,102.978202 L28.0193258,102.978202 C27.1314607,102.978202 26.4114607,102.252135 26.4114607,101.354157 C26.4114607,100.45618 27.1314607,99.7280899 28.0193258,99.7280899 L77.3211236,99.7280899 C78.2089888,99.7280899 78.9289888,100.45618 78.9289888,101.354157 C78.9289888,102.252135 78.2089888,102.978202 77.3211236,102.978202 L77.3211236,102.978202 L77.3211236,102.978202 L77.3211236,102.978202 Z" id="Fill-4"></path>
                <path d="M77.3211236,126.076854 L28.0193258,126.076854 C27.1314607,126.076854 26.4114607,125.350787 26.4114607,124.452809 C26.4114607,123.554831 27.1314607,122.826742 28.0193258,122.826742 L77.3211236,122.826742 C78.2089888,122.826742 78.9289888,123.554831 78.9289888,124.452809 C78.9289888,125.350787 78.2089888,126.076854 77.3211236,126.076854 L77.3211236,126.076854 L77.3211236,126.076854 L77.3211236,126.076854 Z" id="Fill-5"></path>
                <path d="M77.3211236,149.177528 L28.0193258,149.177528 C27.1314607,149.177528 26.4114607,148.449438 26.4114607,147.551461 C26.4114607,146.653483 27.1314607,145.927416 28.0193258,145.927416 L77.3211236,145.927416 C78.2089888,145.927416 78.9289888,146.653483 78.9289888,147.551461 C78.9289888,148.449438 78.2089888,149.177528 77.3211236,149.177528 L77.3211236,149.177528 L77.3211236,149.177528 L77.3211236,149.177528 Z" id="Fill-6"></path>
                <path d="M152.344719,126.076854 L103.042921,126.076854 C102.155056,126.076854 101.435056,125.350787 101.435056,124.452809 C101.435056,123.554831 102.153034,122.826742 103.042921,122.826742 L152.344719,122.826742 C153.232584,122.826742 153.952584,123.554831 153.952584,124.452809 C153.952584,125.350787 153.234607,126.076854 152.344719,126.076854 L152.344719,126.076854 L152.344719,126.076854 L152.344719,126.076854 Z" id="Fill-7"></path>
                <path d="M152.344719,149.177528 L103.042921,149.177528 C102.155056,149.177528 101.435056,148.449438 101.435056,147.551461 C101.435056,146.653483 102.153034,145.927416 103.042921,145.927416 L152.344719,145.927416 C153.232584,145.927416 153.952584,146.653483 153.952584,147.551461 C153.952584,148.449438 153.234607,149.177528 152.344719,149.177528 L152.344719,149.177528 L152.344719,149.177528 L152.344719,149.177528 Z" id="Fill-8"></path>
                <path d="M143.771461,79.8775281 L111.61618,79.8775281 C110.730337,79.8775281 110.008315,79.1514607 110.008315,78.2534831 C110.008315,77.3555056 110.728315,76.6294382 111.61618,76.6294382 L143.769438,76.6294382 C144.655281,76.6294382 145.377303,77.3575281 145.377303,78.2534831 C145.377303,79.1494382 144.657303,79.8775281 143.771461,79.8775281 L143.771461,79.8775281 L143.771461,79.8775281 L143.771461,79.8775281 Z" id="Fill-9"></path>
                <path d="M152.344719,102.978202 L103.042921,102.978202 C102.155056,102.978202 101.435056,102.252135 101.435056,101.354157 C101.435056,100.45618 102.153034,99.7280899 103.042921,99.7280899 L152.344719,99.7280899 C153.232584,99.7280899 153.952584,100.45618 153.952584,101.354157 C153.952584,102.252135 153.234607,102.978202 152.344719,102.978202 L152.344719,102.978202 L152.344719,102.978202 L152.344719,102.978202 Z" id="Fill-10"></path>
                <path d="M165.015506,166.49999 L15.158427,166.49999 C14.2705618,166.49999 13.5505618,165.773943 13.5505618,164.875965 L13.5505618,60.9289888 C13.5505618,60.0330337 14.2705618,59.3049438 15.158427,59.3049438 L62.3022472,59.3049438 C63.1901124,59.3049438 63.9101124,60.0330337 63.9101124,60.9289888 C63.9101124,61.8249438 63.1901124,62.5530337 62.3022472,62.5530337 L16.7662921,62.5530337 L16.7662921,163.253933 L163.411685,163.253933 L163.599775,62.5530337 L134.379101,62.5530337 C133.493258,62.5530337 132.771236,61.8269663 132.771236,60.9289888 C132.771236,60.0310112 133.491236,59.3049438 134.379101,59.3049438 L165.205618,59.3049438 C165.63236,59.3049438 166.042921,59.4748315 166.34427,59.7802247 C166.643596,60.085618 166.815506,60.5002247 166.811461,60.9310112 L166.619326,164.877988 C166.617303,165.775965 165.901348,166.49999 165.015506,166.49999 L165.015506,166.49999 L165.015506,166.49999 L165.015506,166.49999 Z" id="Fill-11"></path>
                <path d="M125.625843,62.5530337 L116.963596,62.5530337 C116.077753,62.5530337 115.35573,61.8269663 115.35573,60.9289888 C115.35573,60.0310112 116.07573,59.3049438 116.963596,59.3049438 L125.625843,59.3049438 C126.511685,59.3049438 127.233708,60.0330337 127.233708,60.9289888 C127.233708,61.8249438 126.513708,62.5530337 125.625843,62.5530337 L125.625843,62.5530337 L125.625843,62.5530337 L125.625843,62.5530337 Z" id="Fill-12"></path>
                <path d="M90.1820225,166.49999 C89.2941573,166.49999 88.5741573,165.773943 88.5741573,164.875965 L88.5741573,71.9352809 C88.5741573,71.0393258 89.2941573,70.311236 90.1820225,70.311236 C91.0698876,70.311236 91.7898876,71.0393258 91.7898876,71.9352809 L91.7898876,164.877988 C91.7898876,165.773943 91.0698876,166.49999 90.1820225,166.49999 L90.1820225,166.49999 L90.1820225,166.49999 L90.1820225,166.49999 Z" id="Fill-13"></path>
                <path d="M90.4955056,45.5622472 C90.2366292,45.5622472 89.9757303,45.4995506 89.7310112,45.3660674 L56.5301124,27.1779775 C55.9880899,26.8826966 55.6624719,26.3002247 55.688764,25.6813483 C55.7150562,25.0604494 56.091236,24.5103371 56.6555056,24.261573 L89.3406742,9.92426966 C90.1537079,9.55617978 91.1022472,9.94449438 91.4561798,10.765618 C91.8080899,11.588764 91.4359551,12.5453933 90.6208989,12.9013483 L60.9613483,25.9119101 L91.26,42.5103371 C92.0406742,42.9370787 92.3298876,43.9240449 91.907191,44.712809 C91.6179775,45.2568539 91.0658427,45.5622472 90.4955056,45.5622472 L90.4955056,45.5622472 L90.4955056,45.5622472 L90.4955056,45.5622472 Z" id="Fill-14"></path>
                <path d="M90.4550562,73.508764 C72.394382,73.508764 61.1777528,66.3896629 61.1777528,54.9323596 L61.1777528,37.941573 C61.1777528,37.045618 61.8977528,36.3175281 62.785618,36.3175281 C63.6714607,36.3175281 64.3934831,37.0435955 64.3934831,37.941573 L64.3934831,54.9323596 C64.3934831,66.2339326 77.8570787,70.2606742 90.4550562,70.2606742 C103.055056,70.2606742 116.518652,66.2339326 116.518652,54.9323596 L116.518652,38.768764 C116.518652,37.872809 117.238652,37.1447191 118.126517,37.1447191 C119.014382,37.1447191 119.734382,37.872809 119.734382,38.768764 L119.734382,54.9323596 C119.734382,66.3896629 108.513708,73.508764 90.4550562,73.508764 L90.4550562,73.508764 L90.4550562,73.508764 L90.4550562,73.508764 Z" id="Fill-15"></path>
                <path d="M92.6413483,55.8101124 C92.3764045,55.8101124 92.1134831,55.7453933 91.8748315,55.6139326 L39.205618,26.7552809 C38.6635955,26.46 38.3379775,25.8775281 38.3642697,25.2586517 C38.3905618,24.6357303 38.7667416,24.085618 39.3310112,23.8388764 L91.1629213,1.09617978 C91.5896629,0.906067416 92.0791011,0.916179775 92.4977528,1.12044944 L139.819551,23.9905618 C140.351461,24.2474157 140.703371,24.7773034 140.731685,25.3739326 C140.762022,25.9685393 140.466742,26.5307865 139.965169,26.8422472 L93.4806742,55.5714607 C93.2217978,55.7292135 92.9305618,55.8101124 92.6413483,55.8101124 L92.6413483,55.8101124 L92.6413483,55.8101124 L92.6413483,55.8101124 Z M43.6388764,25.487191 L92.5907865,52.311236 L135.762472,25.6307865 L91.7716854,4.3705618 L43.6388764,25.487191 L43.6388764,25.487191 L43.6388764,25.487191 L43.6388764,25.487191 Z" id="Fill-16"></path>
                <path d="M130.188539,52.8350562 C129.312809,52.8350562 128.594831,52.1211236 128.580674,51.2332584 C128.546292,48.7435955 128.590787,46.6179775 128.619101,44.7937079 C128.746517,38.0608989 128.677753,36.5946067 126.00809,35.3791011 C118.253933,31.8438202 111.614157,28.3752809 111.547416,28.3408989 C110.754607,27.9283146 110.451236,26.9494382 110.85573,26.1525843 C111.266292,25.3516854 112.235056,25.0462921 113.02382,25.4568539 C113.090562,25.491236 119.659551,28.9233708 127.330787,32.4182022 C132.022921,34.5559551 131.95618,38.2146067 131.834831,44.8523596 C131.806517,46.6483146 131.764045,48.7395506 131.796404,51.1867416 C131.810562,52.0847191 131.102697,52.8208989 130.214831,52.8330337 C130.206742,52.8350562 130.198652,52.8350562 130.188539,52.8350562 L130.188539,52.8350562 L130.188539,52.8350562 L130.188539,52.8350562 Z" id="Fill-17"></path>
                <path d="M129.881124,72.1213483 C126.659326,72.1213483 124.034157,69.6357303 124.034157,66.5817978 L124.034157,55.5289888 C124.034157,52.4689888 126.659326,49.9793258 129.881124,49.9793258 C133.108989,49.9793258 135.730112,52.4669663 135.730112,55.5289888 L135.730112,66.5817978 C135.72809,69.6357303 133.106966,72.1213483 129.881124,72.1213483 L129.881124,72.1213483 L129.881124,72.1213483 L129.881124,72.1213483 Z M129.881124,53.2274157 C128.431011,53.2274157 127.249888,54.2588764 127.249888,55.5289888 L127.249888,66.5817978 C127.249888,67.8458427 128.431011,68.8732584 129.881124,68.8732584 C131.333258,68.8732584 132.514382,67.8458427 132.514382,66.5817978 L132.514382,55.5289888 C132.514382,54.2588764 131.333258,53.2274157 129.881124,53.2274157 L129.881124,53.2274157 L129.881124,53.2274157 L129.881124,53.2274157 Z" id="Fill-18"></path>
            </g>
        </g>
    </g>
</svg>