<?xml version="1.0" encoding="UTF-8" standalone="no"?>
<svg width="180px" height="180px" viewBox="0 0 180 180" version="1.1" xmlns="http://www.w3.org/2000/svg" xmlns:xlink="http://www.w3.org/1999/xlink">
    <!-- Generator: Sketch 3.8.3 (29802) - http://www.bohemiancoding.com/sketch -->
    <title>Journalism &amp; Communication</title>
    <desc>Created with Sketch.</desc>
    <defs></defs>
    <g id="Page-1" stroke="none" stroke-width="1" fill="none" fill-rule="evenodd">
        <g id="Journalism-&amp;-Communication" fill="#E6C952">
            <g id="Page-1" transform="translate(0.000000, 14.000000)">
                <path d="M171.805734,134.100166 L25.4440405,152.420286 C20.4657503,153.017677 15.8857179,149.433305 15.288326,144.455025 L0.552589595,26.5691445 L13.0978821,24.9760925 L12.3013561,19.4003584 L164.039618,0.283734104 L179.57185,123.745328 C180.169283,128.922753 176.58489,133.30364 171.805734,134.100166 L171.805734,134.100166 L171.805734,134.100166 L171.805734,134.100166 Z M33.0110324,145.848933 L171.00926,128.524495 C173.000497,128.325361 174.394405,126.533175 174.195364,124.541865 L159.459607,6.6559422 L18.4744301,24.378659 L33.2101665,142.264571 C33.4093006,143.459365 33.4093006,144.65416 33.0110324,145.848933 L33.0110324,145.848933 L33.0110324,145.848933 L33.0110324,145.848933 Z M6.52653988,31.5474451 L20.664874,143.857634 C20.8640081,145.848933 22.6561942,147.242861 24.6475145,147.043727 C26.6388243,146.844593 28.0327422,145.052407 27.8336185,143.061087 L13.695274,30.5517225 L6.52653988,31.5474451 L6.52653988,31.5474451 L6.52653988,31.5474451 L6.52653988,31.5474451 Z" id="Fill-1"></path>
                <polygon id="Fill-3" points="73.0364775 104.827828 39.7815087 109.009602 35.9980127 76.1528913 69.2529815 71.9711272"></polygon>
                <polygon id="Fill-4" points="110.498358 66.1958116 110.873861 69.1591838 78.0791723 73.3143017 77.7037006 70.3509295"></polygon>
                <polygon id="Fill-5" points="111.085283 71.7796613 111.460682 74.7430335 78.6660035 78.8981514 78.2905422 75.9347792"></polygon>
                <polygon id="Fill-6" points="111.843988 77.1425168 112.219491 80.105889 79.4247815 84.2610069 79.0493098 81.2976347"></polygon>
                <polygon id="Fill-7" points="112.62704 82.7033202 113.002439 85.6667029 80.2077815 89.8218208 79.8323202 86.8584382"></polygon>
                <polygon id="Fill-8" points="73.8764636 115.091397 74.2519145 118.054769 41.457215 122.209887 41.0817538 119.246514"></polygon>
                <polygon id="Fill-9" points="74.4382613 120.477881 74.8137225 123.441264 42.0190335 127.596382 41.6435723 124.632999"></polygon>
                <polygon id="Fill-10" points="75.2220728 126.038102 75.5975237 129.001474 42.8028347 133.156592 42.4273734 130.19322"></polygon>
                <polygon id="Fill-11" points="75.782289 131.426376 76.1577503 134.389748 43.3630509 138.544866 42.9875896 135.581494"></polygon>
                <polygon id="Fill-12" points="113.187642 88.0916046 113.563145 91.0549769 80.7683931 95.2100948 80.3929422 92.2467225"></polygon>
                <polygon id="Fill-13" points="113.946763 93.4530659 114.322266 96.4164382 81.5275769 100.571556 81.1521052 97.6081838"></polygon>
                <polygon id="Fill-14" points="114.533272 99.0382994 114.908671 102.001682 82.1140127 106.1568 81.7385514 103.193428"></polygon>
                <polygon id="Fill-15" points="115.29104 104.401758 115.666439 107.365131 82.8717815 111.520249 82.4963202 108.556876"></polygon>
                <polygon id="Fill-16" points="73.2668358 109.543942 73.6422971 112.507325 40.8475977 116.662443 40.4721364 113.69906"></polygon>
                <polygon id="Fill-17" points="115.876717 109.987783 116.252116 112.951165 83.457437 117.106283 83.0819757 114.142911"></polygon>
                <polygon id="Fill-18" points="116.634277 115.351044 117.009676 118.314416 84.2150081 122.469534 83.8395468 119.506162"></polygon>
                <polygon id="Fill-19" points="117.41941 120.909465 117.794913 123.872837 85.0002035 128.027955 84.6247422 125.064583"></polygon>
                <polygon id="Fill-20" points="117.980012 126.297749 118.355514 129.261121 85.560815 133.416239 85.1853642 130.452867"></polygon>
                <polygon id="Fill-21" points="150.128324 61.2193526 150.503827 64.1827977 117.709075 68.3378844 117.333676 65.3745434"></polygon>
                <polygon id="Fill-22" points="150.713584 66.8050335 151.089087 69.7684162 118.294335 73.9235341 117.918832 70.9601618"></polygon>
                <polygon id="Fill-23" points="151.471145 72.1686902 151.846647 75.1320624 119.051896 79.2871803 118.676497 76.3238081"></polygon>
                <polygon id="Fill-24" points="152.255757 77.7279017 152.63126 80.691274 119.836509 84.8463919 119.461006 81.8830197"></polygon>
                <polygon id="Fill-25" points="152.817191 83.1151873 153.19259 86.0785595 120.397942 90.2336775 120.022439 87.2703052"></polygon>
                <polygon id="Fill-26" points="153.574543 88.4780428 153.950046 91.441415 121.155295 95.5965329 120.779896 92.6331607"></polygon>
                <polygon id="Fill-27" points="154.160012 94.0644728 154.53541 97.0278451 121.740763 101.182963 121.36526 98.2196012"></polygon>
                <polygon id="Fill-28" points="154.919549 99.4257364 155.295052 102.389109 122.500301 106.544237 122.124902 103.580854"></polygon>
                <polygon id="Fill-29" points="155.505642 105.011168 155.88104 107.97455 123.086393 112.129668 122.71089 109.166296"></polygon>
                <polygon id="Fill-30" points="156.263618 110.374023 156.639017 113.337406 123.84437 117.492524 123.468867 114.529151"></polygon>
                <polygon id="Fill-31" points="157.046358 115.935035 157.421861 118.898417 124.62711 123.053535 124.251711 120.090153"></polygon>
                <polygon id="Fill-32" points="157.606751 121.323714 157.982254 124.287087 125.187607 128.442205 124.812104 125.478832"></polygon>
                <polygon id="Fill-33" points="30.1085376 30.7363006 144.936312 16.6330405 148.407503 44.8953295 33.5797387 58.9985896"></polygon>
            </g>
        </g>
    </g>
</svg>