<?xml version="1.0" encoding="UTF-8" standalone="no"?>
<svg width="180px" height="180px" viewBox="0 0 180 180" version="1.1" xmlns="http://www.w3.org/2000/svg" xmlns:xlink="http://www.w3.org/1999/xlink">
    <!-- Generator: Sketch 3.8.3 (29802) - http://www.bohemiancoding.com/sketch -->
    <title>Education</title>
    <desc>Created with Sketch.</desc>
    <defs></defs>
    <g id="Page-1" stroke="none" stroke-width="1" fill="none" fill-rule="evenodd">
        <g id="Education" fill="#5CB4F8">
            <g id="Page-1" transform="translate(2.000000, 14.000000)">
                <path d="M79.8233333,95.03 C86.9833333,100.25 94.4066667,96.24 96.02,95.25 C97.6366667,96.24 105.07,100.25 112.22,95.03 C120.316667,89.13 145.993333,58.61 127.35,35.3166667 C127.35,35.3166667 119.446667,26.7866667 110.24,27.8166667 C101.136667,28.8166667 105.67,30.3533333 96.02,30.3933333 C86.3733333,30.3533333 90.9166667,28.8166667 81.8166667,27.8166667 C72.5966667,26.8 64.7066667,35.3166667 64.7066667,35.3166667 C46.0466667,58.61 71.7366667,89.1166667 79.8233333,95.03 L79.8233333,95.03 Z" id="Fill-1"></path>
                <path d="M94.8866667,29.43 L97.2566667,29.43 C100.576667,13.6866667 92.8833333,0.196666667 92.8833333,0.196666667 L85.9033333,4.34 C99.4966667,14.5066667 94.8866667,29.43 94.8866667,29.43 L94.8866667,29.43 Z" id="Fill-2"></path>
                <path d="M114.46,10.6666667 C105.8,11.46 99.55,21.8133333 99.55,21.8133333 C113.806667,28.7666667 120.41,7.82666667 120.41,7.82666667 C101.41,1.08333333 99.12,20.0933333 99.12,20.0933333 C107.623333,10.1466667 114.46,10.6666667 114.46,10.6666667 L114.46,10.6666667 Z" id="Fill-3"></path>
                <path d="M0.616666667,149.34 L46.2666667,149.34 L46.2666667,2.64666667 L0.616666667,2.64666667 L0.616666667,149.34 Z M5.48666667,20.0933333 L41.41,20.0933333 L41.41,26.7466667 L5.48666667,26.7466667 L5.48666667,20.0933333 Z M5.48666667,100.016667 L41.41,100.016667 L41.41,106.67 L5.48666667,106.67 L5.48666667,100.016667 Z" id="Fill-4"></path>
                <path d="M168.376667,124.313333 C168.376667,106.423333 175.46,99.6266667 175.46,99.6266667 L52.83,99.6266667 C52.83,99.6266667 48.1033333,103.91 48.1033333,124.573333 C48.1033333,142.88 52.83,149.34 52.83,149.34 L175.473333,149.34 C175.46,149.34 168.376667,143.023333 168.376667,124.313333 L168.376667,124.313333 Z M54.9533333,145.796667 C53.7933333,143.14 51.6466667,136.616667 51.6466667,124.586667 C51.6466667,111.28 53.6766667,105.366667 54.7333333,103.18 L169.003333,103.18 C168.273333,104.69 167.556667,106.54 166.92,108.686667 L56.96,108.686667 L56.96,110.613333 L166.41,110.613333 C166.1,111.876667 165.813333,113.206667 165.576667,114.65 L56.2033333,114.65 L56.2033333,116.576667 L165.316667,116.576667 C165.16,117.853333 165.016667,119.196667 164.94,120.613333 L55.4333333,120.613333 L55.4333333,122.54 L164.886667,122.54 C164.873333,123.126667 164.85,123.7 164.85,124.313333 C164.85,125.04 164.886667,125.72 164.9,126.41 L55.4466667,126.41 L55.4466667,128.336667 L164.966667,128.336667 C165.043333,129.766667 165.173333,131.096667 165.316667,132.373333 L56.2033333,132.373333 L56.2033333,134.3 L165.566667,134.3 C165.786667,135.756667 166.073333,137.086667 166.36,138.336667 L56.97,138.336667 L56.97,140.263333 L166.866667,140.263333 C167.493333,142.423333 168.196667,144.26 168.9,145.77 L54.9533333,145.77 L54.9533333,145.796667 Z" id="Fill-5"></path>
            </g>
        </g>
    </g>
</svg>