<?xml version="1.0" encoding="UTF-8" standalone="no"?>
<svg width="180px" height="180px" viewBox="0 0 180 180" version="1.1" xmlns="http://www.w3.org/2000/svg" xmlns:xlink="http://www.w3.org/1999/xlink">
    <!-- Generator: Sketch 3.8.3 (29802) - http://www.bohemiancoding.com/sketch -->
    <title>Business</title>
    <desc>Created with Sketch.</desc>
    <defs></defs>
    <g id="Page-1" stroke="none" stroke-width="1" fill="none" fill-rule="evenodd">
        <g id="Business" fill="#E06A4C">
            <g id="Group" transform="translate(0.000000, 23.000000)">
                <path d="M111.089629,9.75394972 C113.016742,10.384152 114.834742,9.52632051 115.412562,7.87001713 C115.988258,6.20896096 115.11,4.39561264 113.45127,3.82224185 C99.5607303,-0.99680309 80.5302809,-0.930870506 66.7784831,3.97918567 C65.1243539,4.56630927 64.2620225,6.38875871 64.8513202,8.04061264 C65.3177528,9.3398486 66.5395787,10.1520733 67.8455899,10.1520733 C68.1436517,10.1520733 68.446264,10.0838149 68.7466011,9.99502837 L68.7466011,12.1976014 L0.126404494,12.1976014 L0.126404494,121.738715 C0.126404494,129.663528 6.57455056,136.11394 14.4993539,136.11394 L165.061517,136.11394 C172.986371,136.11394 179.434416,129.663528 179.434416,121.738715 L179.434416,12.1976014 L111.089629,12.1976014 L111.089629,9.75394972 Z M72.9831742,8.75050028 C83.4176124,6.00651152 96.2661236,5.91550028 106.848506,8.52529803 L106.848506,12.1998261 L72.9831742,12.1998261 L72.9831742,8.75050028 L72.9831742,8.75050028 L72.9831742,8.75050028 L72.9831742,8.75050028 Z M175.193292,121.741 C175.193292,125.26086 173.386719,128.362068 170.656483,130.177742 L170.656483,129.734062 L167.266213,129.734062 L167.266213,131.615719 C166.554101,131.774989 165.821461,131.872816 165.061517,131.872816 L14.4993539,131.872816 C14.078427,131.872816 13.6779775,131.797732 13.2707022,131.747676 L13.2707022,129.731777 L9.88053371,129.731777 L9.88053371,130.705597 C6.62233146,129.019634 4.36525281,125.654483 4.36525281,121.73645 L4.36525281,93.6367205 L9.88053371,93.6367205 L9.88053371,95.7572823 L13.2707022,95.7572823 L13.2707022,93.6367205 L73.872809,93.6367205 C74.5735955,99.1247081 77.9319101,103.174708 82.1138764,103.174708 L100.272944,103.174708 C104.452584,103.174708 107.810899,99.1247081 108.511685,93.6367205 L167.266213,93.6367205 L167.266213,95.7572823 L170.656483,95.7572823 L170.656483,93.6367205 L175.193292,93.6367205 L175.193292,121.741 L175.193292,121.741 L175.193292,121.741 L175.193292,121.741 Z M77.963764,91.5207194 C77.963764,87.1521801 80.1525843,84.1055789 82.1138764,84.1055789 L100.272944,84.1055789 C102.234135,84.1055789 104.42073,87.1521801 104.42073,91.5207194 C104.42073,95.8938093 102.234135,98.9404104 100.272944,98.9404104 L82.1138764,98.9404104 C80.1525843,98.9404104 77.963764,95.8938093 77.963764,91.5207194 L77.963764,91.5207194 L77.963764,91.5207194 L77.963764,91.5207194 Z M175.193292,89.4024329 L108.511685,89.4024329 C108.313787,87.8506913 107.906461,86.4195396 107.323989,85.159034 L109.155539,85.159034 L109.155539,81.7643149 L104.916742,81.7643149 L104.916742,81.773416 C103.594854,80.5720677 102.006708,79.8690059 100.275169,79.8690059 L82.1161517,79.8690059 C80.3892135,79.8690059 78.805618,80.5697924 77.4859551,81.7643149 L74.4348034,81.7643149 L74.4348034,85.159034 L75.0650562,85.159034 C74.4825843,86.4195396 74.0730337,87.8506913 73.8773596,89.4024329 L4.36752809,89.4024329 L4.36752809,16.4363992 L9.88280899,16.4363992 L9.88280899,18.556961 L13.2729775,18.556961 L13.2729775,16.4363992 L167.266213,16.4363992 L167.266213,18.556961 L170.656483,18.556961 L170.656483,16.4363992 L175.193292,16.4363992 L175.193292,89.4024329 L175.193292,89.4024329 L175.193292,89.4024329 L175.193292,89.4024329 Z M24.1920506,85.159034 L32.5650843,85.159034 L32.5650843,81.7643149 L24.1920506,81.7643149 L24.1920506,85.159034 L24.1920506,85.159034 L24.1920506,85.159034 L24.1920506,85.159034 Z M13.2729775,27.2257812 L9.88280899,27.2257812 L9.88280899,35.8900508 L13.2729775,35.8900508 L13.2729775,27.2257812 L13.2729775,27.2257812 L13.2729775,27.2257812 L13.2729775,27.2257812 Z M13.2729775,61.8920115 L9.88280899,61.8920115 L9.88280899,70.5562812 L13.2729775,70.5562812 L13.2729775,61.8920115 L13.2729775,61.8920115 L13.2729775,61.8920115 L13.2729775,61.8920115 Z M13.2729775,44.5565452 L9.88280899,44.5565452 L9.88280899,53.2208149 L13.2729775,53.2208149 L13.2729775,44.5565452 L13.2729775,44.5565452 L13.2729775,44.5565452 L13.2729775,44.5565452 Z M40.938118,85.159034 L49.313427,85.159034 L49.313427,81.7643149 L40.938118,81.7643149 L40.938118,85.159034 L40.938118,85.159034 L40.938118,85.159034 L40.938118,85.159034 Z M13.2729775,79.2205508 L9.88280899,79.2205508 L9.88280899,85.1567486 L15.8167416,85.1567486 L15.8167416,81.7620396 L13.2729775,81.7620396 L13.2729775,79.2205508 L13.2729775,79.2205508 L13.2729775,79.2205508 L13.2729775,79.2205508 Z M57.6864607,85.159034 L66.0594944,85.159034 L66.0594944,81.7643149 L57.6864607,81.7643149 L57.6864607,85.159034 L57.6864607,85.159034 L57.6864607,85.159034 L57.6864607,85.159034 Z M148.84564,85.159034 L156.784045,85.159034 L156.784045,81.7643149 L148.84564,81.7643149 L148.84564,85.159034 L148.84564,85.159034 L148.84564,85.159034 L148.84564,85.159034 Z M167.266213,81.7643149 L164.722551,81.7643149 L164.722551,85.159034 L170.656483,85.159034 L170.656483,79.2228261 L167.266213,79.2228261 L167.266213,81.7643149 L167.266213,81.7643149 L167.266213,81.7643149 L167.266213,81.7643149 Z M167.266213,70.5562812 L170.656483,70.5562812 L170.656483,61.8920115 L167.266213,61.8920115 L167.266213,70.5562812 L167.266213,70.5562812 L167.266213,70.5562812 L167.266213,70.5562812 Z M167.266213,35.8923767 L170.656483,35.8923767 L170.656483,27.228107 L167.266213,27.228107 L167.266213,35.8923767 L167.266213,35.8923767 L167.266213,35.8923767 L167.266213,35.8923767 Z M167.266213,53.2254666 L170.656483,53.2254666 L170.656483,44.5611969 L167.266213,44.5611969 L167.266213,53.2254666 L167.266213,53.2254666 L167.266213,53.2254666 L167.266213,53.2254666 Z M117.091719,85.159034 L125.030225,85.159034 L125.030225,81.7643149 L117.091719,81.7643149 L117.091719,85.159034 L117.091719,85.159034 L117.091719,85.159034 L117.091719,85.159034 Z M132.96873,85.159034 L140.904809,85.159034 L140.904809,81.7643149 L132.96873,81.7643149 L132.96873,85.159034 L132.96873,85.159034 L132.96873,85.159034 L132.96873,85.159034 Z M9.88053371,109.352096 L13.2707022,109.352096 L13.2707022,102.553556 L9.88053371,102.553556 L9.88053371,109.352096 L9.88053371,109.352096 L9.88053371,109.352096 L9.88053371,109.352096 Z M9.88053371,122.940073 L13.2707022,122.940073 L13.2707022,116.146074 L9.88053371,116.146074 L9.88053371,122.940073 L9.88053371,122.940073 L9.88053371,122.940073 L9.88053371,122.940073 Z M167.266213,109.352096 L170.656483,109.352096 L170.656483,102.558097 L167.266213,102.558097 L167.266213,109.352096 L167.266213,109.352096 L167.266213,109.352096 L167.266213,109.352096 Z M167.266213,122.944624 L170.656483,122.944624 L170.656483,116.146074 L167.266213,116.146074 L167.266213,122.944624 L167.266213,122.944624 L167.266213,122.944624 L167.266213,122.944624 Z" id="Page-1"></path>
            </g>
        </g>
    </g>
</svg>