<?xml version="1.0" encoding="UTF-8" standalone="no"?>
<svg width="180px" height="180px" viewBox="0 0 180 180" version="1.1" xmlns="http://www.w3.org/2000/svg" xmlns:xlink="http://www.w3.org/1999/xlink">
    <!-- Generator: Sketch 3.8.3 (29802) - http://www.bohemiancoding.com/sketch -->
    <title>Public Administration &amp; Community Service</title>
    <desc>Created with Sketch.</desc>
    <defs></defs>
    <g id="Page-1" stroke="none" stroke-width="1" fill="none" fill-rule="evenodd">
        <g id="Public-Administration-&amp;-Community-Service" fill="#5CB4F8">
            <g id="Page-1" transform="translate(28.000000, 0.000000)">
                <path d="M97.6750787,150.222125 L97.6750787,82.2494831 L105.711371,82.2494831 L105.711371,77.7189438 L18.054809,77.7189438 L18.054809,82.2494831 L27.0430787,82.2494831 L27.0430787,150.222125 L18.8902921,150.222125 L18.8902921,153.627785 L106.539573,153.627785 L106.539573,150.222125 L97.6750787,150.222125 L97.6750787,150.222125 L97.6750787,150.222125 L97.6750787,150.222125 Z M88.4392584,150.222125 L76.9154157,150.222125 L76.9154157,82.2494831 L88.4392584,82.2494831 L88.4392584,150.222125 L88.4392584,150.222125 L88.4392584,150.222125 L88.4392584,150.222125 Z M67.6795955,150.222125 L56.5980674,150.222125 L56.5980674,82.2494831 L67.6795955,82.2494831 L67.6795955,150.222125 L67.6795955,150.222125 L67.6795955,150.222125 L67.6795955,150.222125 Z M36.2697978,82.2494831 L47.3695281,82.2494831 L47.3695281,150.222125 L36.2697978,150.222125 L36.2697978,82.2494831 L36.2697978,82.2494831 L36.2697978,82.2494831 L36.2697978,82.2494831 Z" id="Fill-1"></path>
                <polygon id="Fill-3" points="9.30316854 158.587898 116.128517 158.587898 116.128517 166.680617 9.30316854 166.680617"></polygon>
                <polygon id="Fill-4" points="0.87188764 171.795435 122.901573 171.795435 122.901573 179.899071 0.87188764 179.899071"></polygon>
                <path d="M17.8090787,74.1877079 C17.8090787,49.7402697 37.6094831,29.9398652 62.0478202,29.9398652 C86.4861573,29.9398652 106.295663,49.7402697 106.295663,74.1877079" id="Fill-5"></path>
                <polygon id="Fill-6" points="60.085618 0.100921348 63.5003596 0.100921348 63.5003596 32.0003596 60.085618 32.0003596"></polygon>
                <polygon id="Fill-7" points="60.085618 0.100921348 84.491191 0.100921348 84.491191 16.2153708 60.085618 16.2153708"></polygon>
            </g>
        </g>
    </g>
</svg>