<?xml version="1.0" encoding="UTF-8" standalone="no"?>
<svg width="180px" height="180px" viewBox="0 0 180 180" version="1.1" xmlns="http://www.w3.org/2000/svg" xmlns:xlink="http://www.w3.org/1999/xlink">
    <!-- Generator: Sketch 3.8.3 (29802) - http://www.bohemiancoding.com/sketch -->
    <title>Travel &amp; Tourism</title>
    <desc>Created with Sketch.</desc>
    <defs></defs>
    <g id="Page-1" stroke="none" stroke-width="1" fill="none" fill-rule="evenodd">
        <g id="Travel-&amp;-Tourism" fill="#5CB4F8">
            <path d="M171.447034,51.7112855 L44.3738859,110.968042 C39.9621974,113.027363 34.967079,112.308066 31.3546094,109.540104 L31.3466172,109.55076 C31.3466172,109.55076 23.0107636,103.130368 2.16446958,87.2285753 C-2.25787523,83.8585354 0.728539546,79.6839484 5.45458755,80.5790737 C14.1420974,82.2254647 25.9039362,84.4712699 36.8612279,86.5732157 L63.1581951,74.3158612 C50.3573717,64.5733823 32.8438207,51.2344182 20.6370834,41.9288457 L31.9806642,36.6433444 C55.602912,43.8043461 81.3590745,51.5461136 99.9968602,57.1433102 L139.936495,38.5161808 C161.997602,28.2355611 176.069183,31.7121635 179.012973,38.0393135 C181.687692,43.7617211 178.847801,48.2586597 171.447034,51.7112855 L171.447034,51.7112855 Z M81.2871448,101.100352 C78.1435503,102.557595 76.7902062,106.295275 78.2474487,109.425549 C79.7046913,112.558488 83.4397078,113.922488 86.5833023,112.465245 C89.7268968,110.997347 91.0775768,107.272986 89.6229983,104.140048 C88.1657558,100.996454 84.4387314,99.6351173 81.2871448,101.100352 L81.2871448,101.100352 Z M99.0804224,92.8177797 C95.939492,94.2856785 94.5861479,98.0100388 96.0433905,101.153633 C97.500633,104.297228 101.23565,105.647908 104.379244,104.193329 C107.509518,102.725431 108.873519,98.9984062 107.416276,95.868132 C105.948377,92.7138813 102.224017,91.3605372 99.0804224,92.8177797 L99.0804224,92.8177797 Z M106.377291,143.954472 C106.377291,141.290408 104.222064,139.137845 101.547345,139.137845 L7.4526349,139.137845 C4.78857177,139.137845 2.63334469,141.301065 2.63334469,143.954472 C2.63334469,146.618535 4.79922802,148.784418 7.4526349,148.784418 L101.547345,148.784418 C104.211408,148.773762 106.377291,146.618535 106.377291,143.954472 L106.377291,143.954472 Z" id="Page-1"></path>
        </g>
    </g>
</svg>