<?xml version="1.0" encoding="UTF-8" standalone="no"?>
<svg width="180px" height="180px" viewBox="0 0 180 180" version="1.1" xmlns="http://www.w3.org/2000/svg" xmlns:xlink="http://www.w3.org/1999/xlink">
    <!-- Generator: Sketch 3.8.3 (29802) - http://www.bohemiancoding.com/sketch -->
    <title>Science &amp; Technology</title>
    <desc>Created with Sketch.</desc>
    <defs></defs>
    <g id="Page-1" stroke="none" stroke-width="1" fill="none" fill-rule="evenodd">
        <g id="Science-&amp;-Technology" fill="#E06A4C">
            <g id="Page-1" transform="translate(9.000000, 0.000000)">
                <path d="M80.8356742,0.189606742 C75.9912573,0.189606742 71.6470382,3.17629213 67.9424157,7.9002809 C64.2377933,12.6242697 61.0188876,19.2139888 58.3356742,27.3033708 C52.9692573,43.4821348 49.7401685,65.5760225 49.7401685,90 C49.7401685,114.424008 52.9692573,136.581078 58.3356742,152.759831 C61.0188876,160.849213 64.2377933,167.438943 67.9424157,172.162921 C71.6470382,176.886904 75.9912573,179.810393 80.8356742,179.810393 C85.680091,179.810393 90.0875124,176.886904 93.7921348,172.162921 C97.4967978,167.438943 100.652461,160.849213 103.335674,152.759831 C108.702101,136.581078 111.994382,114.424008 111.994382,90 C111.994382,65.5760225 108.702101,43.4821348 103.335674,27.3033708 C100.652461,19.2139888 97.4967978,12.6242697 93.7921348,7.9002809 C90.0875124,3.17629213 85.680091,0.189606742 80.8356742,0.189606742 L80.8356742,0.189606742 L80.8356742,0.189606742 L80.8356742,0.189606742 Z M80.8356742,4.23455056 C84.0324539,4.23455056 87.305764,6.20423596 90.5688202,10.3651685 C93.8318764,14.5261011 96.9571011,20.7697753 99.5435393,28.5674157 C104.716416,44.1625955 107.949438,65.9385506 107.949438,90 C107.949438,114.061449 104.716416,135.837364 99.5435393,151.432584 C96.9571011,159.230194 93.8318764,165.473909 90.5688202,169.634831 C87.305764,173.795749 84.0324539,175.765449 80.8356742,175.765449 C77.6388944,175.765449 74.3655843,173.795749 71.1025281,169.634831 C67.8394719,165.473909 64.7774393,159.230194 62.1910112,151.432584 C57.0181551,135.837364 53.7851124,114.061449 53.7851124,90 C53.7851124,65.9385506 57.0181551,44.1625955 62.1910112,28.5674157 C64.7774393,20.7697753 67.8394719,14.5261011 71.1025281,10.3651685 C74.3655843,6.20423596 77.6388944,4.23455056 80.8356742,4.23455056 L80.8356742,4.23455056 L80.8356742,4.23455056 L80.8356742,4.23455056 Z" id="Fill-1"></path>
                <path d="M146.219056,28.4037978 C142.896742,24.8780225 137.743888,23.7645506 131.765157,24.3079888 C125.786427,24.851427 118.78291,27.027809 111.055348,30.6226517 C95.6002247,37.8121348 77.3058236,50.6137753 59.5300247,67.3634831 C41.7542157,84.1131607 27.842764,101.658357 19.7480831,116.659254 C15.7007427,124.159702 13.1122213,131.021596 12.2146989,136.95746 C11.3171764,142.893354 12.1686573,148.059971 15.4909213,151.585746 C18.8131652,155.111511 23.9634404,156.314336 29.9421506,155.770908 C35.9208607,155.22748 42.8810157,153.005046 50.6085775,149.410284 C66.0637213,142.220751 84.4474652,129.42181 102.223315,112.672102 C119.999022,95.9223843 133.821202,78.3745281 141.915843,63.3736517 C145.963213,55.8732135 148.595056,49.0572809 149.492629,43.121427 C150.390101,37.185573 149.54127,31.929573 146.219056,28.4037978 L146.219056,28.4037978 L146.219056,28.4037978 L146.219056,28.4037978 Z M143.275146,31.1778202 C145.467404,33.5043708 146.278719,37.2375506 145.488135,42.4658427 C144.697551,47.694236 142.296674,54.2506854 138.395326,61.480618 C130.592528,75.940382 116.96127,93.2271067 99.4492921,109.728192 C81.9373551,126.229257 63.8716449,138.809943 48.9739449,145.740155 C41.5251,149.205256 34.8376652,151.2126 29.5715831,151.691238 C24.3055011,152.169907 20.6271506,151.138396 18.4348315,148.811774 C16.2425124,146.485143 15.4312584,142.752024 16.2218124,137.523661 C17.0123663,132.295308 19.4566449,125.78488 23.3580034,118.554967 C31.1607202,104.095122 44.7920596,86.8084281 62.3039966,70.3073933 C79.8159236,53.8062472 97.8816742,41.2256629 112.779303,34.2953596 C120.228169,30.8302584 126.872292,28.7769438 132.138404,28.2983258 C137.404416,27.8196067 141.082787,28.8511685 143.275146,31.1778202 L143.275146,31.1778202 L143.275146,31.1778202 L143.275146,31.1778202 Z" id="Fill-3"></path>
                <path d="M159.318708,133.749981 C161.677719,129.518767 161.184539,124.270018 158.862539,118.733906 C156.540539,113.197803 152.352404,107.17738 146.593618,100.894571 C135.075944,88.3289629 117.351101,74.7497528 96.0186742,62.8561011 C74.6861562,50.9625506 53.761227,42.9932022 37.0170809,39.8019438 C28.6450079,38.2062135 21.3219101,37.8087978 15.3918506,38.7440899 C9.46180112,39.679382 4.79289438,42.0500225 2.4338427,46.281236 C0.0747808989,50.5124494 0.481975281,55.7856404 2.80399551,61.3217528 C5.12601573,66.8578652 9.34491236,72.8231461 15.1037393,79.1059551 C26.6213831,91.6715225 44.3706371,105.336758 65.7031146,117.230349 C87.035582,129.12393 107.93609,137.007273 124.680236,140.198582 C133.052258,141.794242 140.344584,142.246931 146.274674,141.311629 C152.204764,140.376337 156.959596,137.981215 159.318708,133.749981 L159.318708,133.749981 L159.318708,133.749981 L159.318708,133.749981 Z M155.785753,131.780245 C154.229056,134.572379 150.914629,136.472198 145.691393,137.296001 C140.468157,138.119825 133.492955,137.809011 125.422787,136.270911 C109.282652,133.194711 88.6886596,125.414444 67.6728506,113.697404 C46.6570416,101.980355 29.211836,88.5524865 18.109618,76.4401348 C12.558509,70.3839438 8.62696517,64.6138315 6.58172022,59.7375506 C4.53646517,54.8612697 4.41007079,51.0431461 5.96678764,48.2510225 C7.52350449,45.4588989 10.8378607,43.5590899 16.0610865,42.735236 C21.2843124,41.9114831 28.2288135,42.2774494 36.2989213,43.8155393 C52.439127,46.8917191 73.0330787,54.6720674 94.0488876,66.3890562 C115.064697,78.1061461 132.509933,91.5339843 143.61209,103.646366 C149.16327,109.702567 153.125494,115.417476 155.17082,120.293717 C157.216045,125.169947 157.342449,128.988111 155.785753,131.780245 L155.785753,131.780245 L155.785753,131.780245 L155.785753,131.780245 Z" id="Fill-4"></path>
                <path d="M19.6958831,70.0662135 C19.6958831,74.590382 16.028373,78.2578315 11.5042854,78.2578315 C6.98018764,78.2578315 3.31267753,74.590382 3.31267753,70.0662135 C3.31267753,65.5421461 6.98018764,61.8745955 11.5042854,61.8745955 C16.028373,61.8745955 19.6958831,65.5421461 19.6958831,70.0662135 L19.6958831,70.0662135 L19.6958831,70.0662135 L19.6958831,70.0662135 Z" id="Fill-5"></path>
                <path d="M143.077348,70.9291011 C143.077348,75.4531685 139.409899,79.120618 134.88573,79.120618 C130.361663,79.120618 126.694213,75.4531685 126.694213,70.9291011 C126.694213,66.4049326 130.361663,62.7374831 134.88573,62.7374831 C139.409899,62.7374831 143.077348,66.4049326 143.077348,70.9291011 L143.077348,70.9291011 L143.077348,70.9291011 L143.077348,70.9291011 Z" id="Fill-6"></path>
                <path d="M111.153438,149.444555 C111.153438,153.968633 107.485989,157.636143 102.961921,157.636143 C98.4377528,157.636143 94.7703034,153.968633 94.7703034,149.444555 C94.7703034,144.920457 98.4377528,141.252947 102.961921,141.252947 C107.485989,141.252947 111.153438,144.920457 111.153438,149.444555 L111.153438,149.444555 L111.153438,149.444555 L111.153438,149.444555 Z" id="Fill-7"></path>
                <path d="M74.3890449,75.5898876 C68.9890146,75.5898876 64.6558989,80.1127416 64.6558989,85.7022472 C64.6558989,88.0652225 65.4303438,90.236973 66.741573,91.9592697 C69.1791978,89.2458101 72.6698831,87.5351124 76.5379213,87.5351124 C76.6213382,87.5351124 76.7071618,87.5339292 76.7907303,87.5351124 C78.1066213,84.7240584 80.3581382,82.4455618 83.1109551,81.1516854 C81.4945652,77.8683034 78.1892899,75.5898876 74.3890449,75.5898876 L74.3890449,75.5898876 L74.3890449,75.5898876 L74.3890449,75.5898876 Z" id="Fill-8"></path>
                <path d="M75.511527,89.6991371 C70.102264,89.6991371 65.7151787,94.2756472 65.7151787,99.8746989 C65.7151787,105.473761 70.102264,109.987058 75.511527,109.987058 C78.6714978,109.987058 81.4944944,108.409743 83.2854034,106.005317 C78.9299393,103.72588 75.9539427,99.0267067 75.9539427,93.6808787 C75.9539427,92.3065888 76.1549056,91.0155135 76.5227629,89.7623393 C76.1935146,89.7277449 75.8496135,89.6991371 75.511527,89.6991371 L75.511527,89.6991371 L75.511527,89.6991371 L75.511527,89.6991371 Z" id="Fill-9"></path>
                <path d="M100.490056,93.200582 C100.491573,97.3963416 98.3294494,101.274027 94.8186404,103.372342 C91.3078315,105.470666 86.9818652,105.470666 83.4710258,103.372342 C79.9601865,101.274027 77.7981135,97.3963416 77.7995899,93.200582 C77.7981135,89.0048225 79.9601865,85.127127 83.4710258,83.0288124 C86.9818652,80.9304978 91.3078315,80.9304978 94.8186404,83.0288124 C98.3294494,85.127127 100.491573,89.0048225 100.490056,93.200582 L100.490056,93.200582 L100.490056,93.200582 L100.490056,93.200582 Z" id="Fill-10"></path>
            </g>
        </g>
    </g>
</svg>