<?xml version="1.0" standalone="no"?>
<!DOCTYPE svg PUBLIC "-//W3C//DTD SVG 1.1//EN" "http://www.w3.org/Graphics/SVG/1.1/DTD/svg11.dtd" >
<svg xmlns="http://www.w3.org/2000/svg" width="100%" height="100%">
<metadata>
Created by FontXChange 20110222 at Fri Aug  2 14:06:20 2013
 By James Beall
2004 T.26 Digital Type Foundry www.t26.com PSID#5134569 designer: Neil Summerour / Positype
</metadata>
<defs>
<font id="AauxProOT-Light" horiz-adv-x="489" >
  <font-face 
    font-family="AauxProOT"
    font-weight="400"
    font-stretch="normal"
    units-per-em="1000"
    panose-1="2 0 5 6 2 0 0 2 0 4"
    ascent="775"
    descent="-225"
    x-height="478"
    cap-height="698"
    bbox="-105 -220.019 957 978"
    underline-thickness="60"
    underline-position="-75"
    stemh="48"
    stemv="47"
    unicode-range="U+0020-FB02"
  />
<missing-glyph horiz-adv-x="1000" 
 />
    <glyph glyph-name=".notdef" horiz-adv-x="1000" 
 />
    <glyph glyph-name="eth" unicode="&#xf0;" horiz-adv-x="519" 
d="M459 237c0 -134 -45 -246 -199 -246s-200 112 -200 246c0 135 46 247 200 247c29 0 59 -5 86 -17l-48 109h-120v45h101l-57 129h48l57 -129h88v-45h-68c20 -42 39 -84 59 -126c7 -15 16 -30 24 -45c27 -51 29 -111 29 -168zM411 237c0 107 -25 199 -151 199
c-127 0 -152 -92 -152 -199c0 -106 26 -198 151 -198c126 0 152 92 152 198z" />
    <glyph glyph-name="Lslash" unicode="&#x141;" horiz-adv-x="496" 
d="M466 0h-393v0v270l-38 -17v51l38 16v378h51v-355l168 75v-51l-168 -75v-242h342v-50z" />
    <glyph glyph-name="lslash" unicode="&#x142;" horiz-adv-x="249" 
d="M214 344l-77 -34v-198c0 -35 7 -64 48 -64v-48c-69 0 -96 49 -96 112v176l-54 -25v51l54 25v359h48v-338l77 35v-51z" />
    <glyph glyph-name="Scaron" unicode="&#x160;" horiz-adv-x="595" 
d="M440 921l-95 -146h-87l-95 146h67l72 -123l71 123h67zM550 193c0 -133 -119 -204 -240 -204c-129 0 -241 56 -265 193l50 8c19 -111 112 -150 215 -150c92 0 189 48 189 153c0 221 -428 90 -428 338c0 123 110 172 217 172c108 0 191 -36 238 -137l-46 -22
c-39 84 -104 108 -192 108c-77 0 -166 -28 -166 -121c0 -193 428 -69 428 -338z" />
    <glyph glyph-name="scaron" unicode="&#x161;" horiz-adv-x="447" 
d="M367 679l-95 -146h-87l-95 146h67l71 -123l72 123h67zM407 134c0 -95 -89 -143 -175 -143c-91 0 -174 37 -192 135l47 8c14 -73 79 -95 145 -95c58 0 127 28 127 95c0 141 -301 54 -301 228c0 89 83 123 159 123s137 -24 172 -96l-43 -21c-27 55 -71 69 -129 69
c-48 0 -111 -15 -111 -75c0 -120 301 -41 301 -228z" />
    <glyph glyph-name="Yacute" unicode="&#xdd;" horiz-adv-x="555" 
d="M363 921l-95 -146h-57l85 146h67zM530 698l-227 -468v-230h-51v232l-227 466h56l197 -403l196 403h56z" />
    <glyph glyph-name="yacute" unicode="&#xfd;" horiz-adv-x="438" 
d="M314 691l-95 -146h-57l85 146h67zM423 478l-224 -600c-23 -60 -63 -99 -130 -98h-19v48h20c46 0 69 26 84 67l39 105l-178 478h51l153 -409l152 409h52z" />
    <glyph glyph-name="Thorn" unicode="&#xde;" horiz-adv-x="624" 
d="M574 360c0 -143 -99 -190 -227 -190h-201v-170h-51v698h51v-147h201c129 0 227 -47 227 -191zM524 360c0 115 -78 141 -177 141h-201v-281h201c99 0 177 26 177 140z" />
    <glyph glyph-name="thorn" unicode="&#xfe;" horiz-adv-x="508" 
d="M463 237c0 -128 -39 -246 -190 -246c-50 0 -98 9 -135 53v-264h-48v918h48v-272c35 42 85 58 135 58c151 0 190 -118 190 -247zM415 237c0 100 -20 199 -142 199c-73 0 -135 -47 -135 -124v-150c0 -76 63 -123 135 -123c122 0 142 98 142 198z" />
    <glyph glyph-name="Zcaron" unicode="&#x17d;" horiz-adv-x="571" 
d="M440 921l-95 -146h-87l-95 146h67l72 -123l71 123h67zM516 0h-471v47c95 139 370 543 410 601h-374v50h435v-50c-97 -142 -368 -540 -407 -597h407v-51z" />
    <glyph glyph-name="zcaron" unicode="&#x17e;" horiz-adv-x="446" 
d="M367 679l-95 -146h-87l-95 146h67l71 -123l72 123h67zM401 0h-361v52c82 104 261 329 300 378h-276v48h337v-49c-82 -103 -263 -331 -303 -381h303v-48z" />
    <glyph glyph-name="onehalf" unicode="&#xbd;" horiz-adv-x="778" 
d="M728 0h-243v36v1c16 42 52 107 103 156c78 73 99 102 99 134c0 50 -47 64 -74 64c-34 0 -61 -18 -79 -52l-3 -5l-36 19l3 5c25 48 66 74 115 74c57 0 115 -36 115 -105c0 -46 -24 -81 -111 -164c-46 -43 -75 -97 -86 -122h197v-41zM527 698l-302 -698h-45l302 698h45z
M181 274h-41v372s-14 -8 -79 -47l-21 35l119 70h22v-430z" />
    <glyph glyph-name="onequarter" unicode="&#xbc;" horiz-adv-x="740" 
d="M705 110h-29v-110h-41v110h-178v39l176 282h48c-164 -264 -174 -280 -174 -280h128v170l41 -8v-162h29v-41zM527 698l-302 -698h-45l302 698h45zM181 274h-41v372s-14 -8 -79 -47l-21 35l119 70h22v-430z" />
    <glyph glyph-name="onesuperior" unicode="&#xb9;" horiz-adv-x="256" 
d="M181 274h-41v372s-14 -8 -79 -47l-21 35l119 70h22v-430z" />
    <glyph glyph-name="threequarters" unicode="&#xbe;" horiz-adv-x="821" 
d="M786 110h-29v-110h-41v110h-179v39l176 282h49l-175 -280h129v170l41 -8v-162h29v-41zM607 698l-302 -698h-45l303 698h44zM285 395c0 -68 -55 -123 -122 -123c-53 0 -100 34 -116 84l-2 6l39 13l2 -6c11 -34 42 -56 77 -56c44 0 81 37 81 82c0 46 -37 83 -81 83h-23v41
h19c43 0 77 32 77 73c0 40 -34 73 -77 73c-33 0 -63 -21 -73 -51l-2 -5l-39 13l2 6c16 46 61 78 112 78c65 0 118 -52 118 -114c0 -37 -18 -71 -49 -93c35 -22 57 -61 57 -104z" />
    <glyph glyph-name="threesuperior" unicode="&#xb3;" horiz-adv-x="330" 
d="M285 395c0 -68 -55 -123 -122 -123c-53 0 -100 34 -116 84l-2 6l39 13l2 -6c11 -34 42 -56 77 -56c44 0 81 37 81 82c0 46 -37 83 -81 83h-23v41h19c43 0 77 32 77 73c0 40 -34 73 -77 73c-33 0 -63 -21 -73 -51l-2 -5l-39 13l2 6c16 46 61 78 112 78
c65 0 118 -52 118 -114c0 -37 -18 -71 -49 -93c35 -22 57 -61 57 -104z" />
    <glyph glyph-name="twosuperior" unicode="&#xb2;" horiz-adv-x="333" 
d="M288 274h-243v36v1c16 41 52 107 103 156c78 73 99 101 99 133c0 51 -47 64 -74 64c-34 0 -61 -18 -79 -52l-3 -5l-36 19l3 5c25 48 66 74 115 74c57 0 115 -36 115 -105c0 -45 -24 -81 -111 -163c-47 -44 -75 -98 -86 -122h197v-41z" />
    <glyph glyph-name="brokenbar" unicode="&#xa6;" horiz-adv-x="311" 
d="M176 394h-51v381h51v-381zM176 -76h-51v381h51v-381z" />
    <glyph glyph-name="minus" unicode="&#x2212;" horiz-adv-x="474" 
d="M434 248h-394v51h394v-51z" />
    <glyph glyph-name="multiply" unicode="&#xd7;" horiz-adv-x="435" 
d="M375 152l-36 -36l-122 122l-121 -122l-36 36l122 122l-122 121l36 36l121 -122l122 122l36 -36l-122 -121z" />
    <glyph glyph-name="space" unicode=" " horiz-adv-x="270" 
 />
    <glyph glyph-name="exclam" unicode="!" horiz-adv-x="280" 
d="M167 359l-10 -187h-33l-11 187v339h54v-339zM180 31c0 -22 -18 -39 -40 -39s-40 17 -40 39s18 40 40 40s40 -18 40 -40z" />
    <glyph glyph-name="quotedbl" unicode="&#x22;" horiz-adv-x="340" 
d="M270 547h-66v151c0 18 15 33 33 33s33 -15 33 -33v-151zM136 547h-66v151c0 18 15 33 33 33s33 -15 33 -33v-151z" />
    <glyph glyph-name="numbersign" unicode="#" horiz-adv-x="692" 
d="M637 486l-11 -50h-125l-37 -174h125l-10 -49h-126l-45 -213h-49l45 213h-174l-46 -213h-49l45 213h-125l10 49h126l37 174h-125l10 50h125l46 212h49l-45 -212h174l45 212h49l-45 -212h126zM452 436h-175l-37 -174h175z" />
    <glyph glyph-name="dollar" unicode="$" horiz-adv-x="506" 
d="M459 227c0 -101 -82 -156 -175 -166v-61h-50v62c-103 9 -160 55 -189 154l50 12c22 -74 61 -110 139 -117v231c-81 16 -172 54 -172 151c0 94 86 147 172 151v54h50v-54c69 -5 128 -48 157 -109l-44 -20c-26 45 -58 76 -113 79v-211c80 -20 175 -59 175 -156zM234 393
v201c-63 -1 -120 -32 -120 -101c0 -65 67 -88 120 -100zM409 227c0 64 -75 89 -125 105v-222c64 11 125 44 125 117z" />
    <glyph glyph-name="percent" unicode="%" horiz-adv-x="788" 
d="M728 186c0 -92 -32 -196 -144 -196c-113 0 -144 104 -144 196c0 93 31 197 144 197c112 0 144 -104 144 -197zM571 698l-302 -698h-53l303 698h52zM348 511c0 -93 -31 -197 -144 -197c-112 0 -144 104 -144 197s32 197 144 197c113 0 144 -104 144 -197zM683 186
c0 67 -15 152 -99 152s-99 -85 -99 -152c0 -66 15 -151 99 -151s99 85 99 151zM303 511c0 67 -15 152 -99 152s-99 -85 -99 -152s15 -152 99 -152s99 85 99 152z" />
    <glyph glyph-name="ampersand" unicode="&#x26;" horiz-adv-x="649" 
d="M583 44l-25 -44c-28 22 -56 44 -83 67c-53 -54 -132 -77 -208 -77c-115 0 -218 64 -218 189c0 107 53 164 141 216c-34 50 -66 107 -66 169c0 81 56 141 138 141c81 0 131 -56 131 -135c0 -92 -64 -140 -135 -186c63 -86 132 -167 210 -241c31 52 43 114 43 174h51
c0 -72 -16 -147 -56 -209c25 -22 50 -44 77 -64zM343 570c0 50 -29 85 -81 85c-55 0 -88 -37 -88 -91c0 -50 29 -103 58 -143c55 36 111 76 111 149zM437 104c-81 76 -154 162 -220 252c-73 -46 -117 -85 -117 -177s83 -141 167 -141c62 0 126 21 170 66z" />
    <glyph glyph-name="quotesingle" unicode="'" horiz-adv-x="206" 
d="M136 547h-66v151c0 18 15 33 33 33s33 -15 33 -33v-151z" />
    <glyph glyph-name="parenleft" unicode="(" horiz-adv-x="316" 
d="M266 0h-63c-90 87 -143 224 -143 349c0 124 54 263 143 349h63c-96 -76 -156 -228 -156 -349c0 -120 60 -273 156 -349z" />
    <glyph glyph-name="parenright" unicode=")" horiz-adv-x="316" 
d="M266 349c0 -125 -53 -262 -143 -349h-63c96 76 156 229 156 349c0 121 -60 273 -156 349h63c89 -86 143 -225 143 -349z" />
    <glyph glyph-name="asterisk" unicode="*" horiz-adv-x="423" 
d="M378 559l-132 -39l84 -109l-41 -29l-78 113l-77 -113l-41 29l84 109l-132 39l16 48l129 -46l-4 137h51l-4 -137l129 46z" />
    <glyph glyph-name="plus" unicode="+" horiz-adv-x="491" 
d="M446 248h-175v-175h-51v175h-175v51h175v175h51v-175h175v-51z" />
    <glyph glyph-name="comma" unicode="," horiz-adv-x="210" 
d="M145 -12l-76 -123h-4v167c0 22 18 39 40 39s40 -17 40 -39v-44z" />
    <glyph glyph-name="hyphen" unicode="-" horiz-adv-x="387" 
d="M322 248h-257v51h257v-51z" />
    <glyph glyph-name="period" unicode="." horiz-adv-x="217" 
d="M152 35c0 -24 -20 -43 -44 -43s-43 19 -43 43s19 43 43 43s44 -19 44 -43z" />
    <glyph glyph-name="slash" unicode="/" horiz-adv-x="403" 
d="M383 774l-309 -850h-54l309 850h54z" />
    <glyph glyph-name="zero" unicode="0" horiz-adv-x="557" 
d="M507 349c0 -149 -40 -356 -228 -356c-189 0 -229 207 -229 356c0 150 40 354 229 354c188 0 228 -204 228 -354zM458 349c0 119 -24 307 -179 307c-156 0 -180 -188 -180 -307c0 -118 24 -309 180 -309s179 191 179 309z" />
    <glyph glyph-name="one" unicode="1" horiz-adv-x="353" 
d="M223 0h-50v630l-107 -72l-26 35l153 105h30v-698z" />
    <glyph glyph-name="two" unicode="2" horiz-adv-x="549" 
d="M489 0h-429v49c39 103 99 193 184 261c78 63 176 93 176 213c0 88 -74 135 -157 135c-67 0 -125 -32 -151 -94l-43 20c34 79 110 122 194 122c114 0 207 -64 207 -184c0 -144 -101 -176 -195 -251c-65 -51 -136 -141 -161 -222h375v-49z" />
    <glyph glyph-name="three" unicode="3" horiz-adv-x="509" 
d="M459 193c0 -123 -90 -200 -210 -200c-94 0 -169 44 -199 136l47 15c22 -69 82 -103 152 -103c89 0 159 61 159 152c0 105 -75 151 -171 150v43c88 -1 156 39 156 135c0 80 -72 139 -149 139c-63 0 -122 -36 -143 -97l-46 17c32 80 105 126 191 126
c108 0 195 -74 195 -185c0 -69 -28 -127 -93 -155c75 -27 111 -96 111 -173z" />
    <glyph glyph-name="four" unicode="4" horiz-adv-x="542" 
d="M492 183h-68v-183h-49v183h-330v49l294 466h56l-292 -466h272v297l49 -10v-287h68v-49z" />
    <glyph glyph-name="five" unicode="5" horiz-adv-x="528" 
d="M478 232c0 -137 -80 -239 -223 -239c-89 0 -167 46 -195 133l47 15c21 -66 81 -100 149 -100c114 0 172 83 172 191c0 106 -56 189 -169 189c-49 0 -98 -19 -133 -53h-46v330h352v-47h-306v-231c39 33 84 48 132 48c144 0 220 -99 220 -236z" />
    <glyph glyph-name="six" unicode="6" horiz-adv-x="536" 
d="M486 208c0 -122 -93 -214 -215 -214c-139 0 -221 109 -221 242c0 192 88 348 246 462l76 1c-126 -83 -237 -205 -265 -357c41 53 90 91 165 91c133 0 214 -104 214 -225zM438 208c0 92 -61 177 -166 177c-93 0 -172 -81 -172 -173c0 -93 81 -171 172 -171
c94 0 166 73 166 167z" />
    <glyph glyph-name="seven" unicode="7" horiz-adv-x="491" 
d="M451 649c-117 -127 -238 -339 -230 -649h-56c-2 326 117 512 226 649h-302v-58h-49v107h411v-49z" />
    <glyph glyph-name="eight" unicode="8" horiz-adv-x="530" 
d="M480 193c0 -123 -96 -200 -215 -200s-215 77 -215 200c0 78 36 146 111 173c-66 28 -92 94 -92 155c0 112 88 183 196 183c107 0 196 -70 196 -183c0 -60 -27 -127 -92 -155c75 -27 111 -95 111 -173zM411 521c0 81 -69 136 -146 136s-146 -55 -146 -136
c0 -88 63 -133 146 -133c84 0 146 44 146 133zM429 193c0 99 -70 148 -164 148s-165 -48 -165 -148c0 -92 76 -152 165 -152c88 0 164 60 164 152z" />
    <glyph glyph-name="nine" unicode="9" horiz-adv-x="519" 
d="M469 464c0 -194 -94 -352 -250 -464h-70c122 83 234 207 262 357c-38 -50 -94 -79 -157 -79c-120 0 -209 94 -209 213c0 116 91 214 210 214c138 0 214 -111 214 -241zM418 491c0 90 -73 167 -164 167s-161 -78 -161 -167s71 -166 161 -166c93 0 164 73 164 166z" />
    <glyph glyph-name="colon" unicode=":" horiz-adv-x="217" 
d="M152 338c0 -23 -20 -43 -44 -43c-23 0 -43 20 -43 43c0 24 20 44 43 44c24 0 44 -20 44 -44zM152 35c0 -24 -20 -43 -44 -43c-23 0 -43 19 -43 43s20 43 43 43c24 0 44 -19 44 -43z" />
    <glyph glyph-name="semicolon" unicode=";" horiz-adv-x="227" 
d="M157 338c0 -24 -20 -43 -44 -43s-43 19 -43 43s19 44 43 44s44 -20 44 -44zM153 -12l-75 -123h-5v167c0 22 18 39 40 39s40 -17 40 -39v-44z" />
    <glyph glyph-name="less" unicode="&#x3c;" horiz-adv-x="447" 
d="M397 0h-62l-285 349l285 349h62l-285 -349z" />
    <glyph glyph-name="equal" unicode="=" horiz-adv-x="511" 
d="M456 325h-401v49h401v-49zM456 126h-401v50h401v-50z" />
    <glyph glyph-name="greater" unicode="&#x3e;" horiz-adv-x="447" 
d="M397 349l-285 -349h-62l285 349l-285 349h62z" />
    <glyph glyph-name="question" unicode="?" horiz-adv-x="468" 
d="M428 523c0 -166 -169 -104 -177 -266l-4 -83h-33s-7 55 -7 83c0 191 170 135 170 266c0 85 -66 133 -146 133c-76 0 -153 -46 -152 -129h-48c0 111 96 179 200 179c107 0 197 -71 197 -183zM271 31c0 -21 -18 -39 -39 -39c-22 0 -40 18 -40 39c0 22 18 40 40 40
c21 0 39 -18 39 -40z" />
    <glyph glyph-name="at" unicode="@" horiz-adv-x="700" 
d="M635 416c0 -50 -17 -95 -20 -143l-17 -275l-50 3l6 112c-37 -63 -102 -125 -180 -125c-100 0 -143 98 -143 185c0 123 92 313 234 313c54 0 96 -32 120 -79c1 104 -39 243 -168 243c-183 0 -306 -259 -306 -416c0 -77 38 -175 98 -212l-27 -43c-83 53 -122 159 -122 254
c0 188 145 467 359 467c152 0 216 -153 216 -284zM557 300c0 56 -23 135 -92 135c-111 0 -183 -167 -183 -261c0 -56 22 -136 91 -136c111 0 184 168 184 262z" />
    <glyph glyph-name="A" unicode="A" horiz-adv-x="617" 
d="M607 0h-54l-82 213h-325l-82 -213h-54l267 698h63zM453 261l-145 379l-144 -379h289z" />
    <glyph glyph-name="B" unicode="B" horiz-adv-x="606" 
d="M561 191c0 -144 -106 -191 -234 -191h-252v698h234c122 0 225 -46 225 -183c0 -61 -29 -129 -88 -154c75 -22 115 -95 115 -170zM484 515c0 108 -82 134 -175 134h-183v-270h190c95 0 168 28 168 136zM511 191c0 114 -85 143 -184 143h-201v-284h201c98 0 184 26 184 141
z" />
    <glyph glyph-name="C" unicode="C" horiz-adv-x="573" 
d="M528 101c-58 -71 -115 -110 -210 -110c-208 0 -273 179 -273 358s65 358 273 358c95 0 152 -39 210 -110l-38 -32c-49 59 -93 91 -172 91c-178 0 -222 -158 -222 -307s44 -307 222 -307c79 0 123 32 172 91z" />
    <glyph glyph-name="D" unicode="D" horiz-adv-x="624" 
d="M564 349c0 -54 0 -108 -8 -161c-25 -164 -132 -188 -277 -188h-204v698h203c146 0 253 -24 278 -187c8 -54 8 -108 8 -162zM513 349c0 202 3 299 -235 299h-152v-597h152c238 0 235 96 235 298z" />
    <glyph glyph-name="E" unicode="E" horiz-adv-x="559" 
d="M509 0h-434v0v698h434v-50h-383v-262h335v-48h-335v-288h383v-50z" />
    <glyph glyph-name="F" unicode="F" horiz-adv-x="539" 
d="M499 648h-373v-262h335v-47h-335v-339h-51v698h424v-50z" />
    <glyph glyph-name="G" unicode="G" horiz-adv-x="618" 
d="M553 364l-1 -364h-50v105c-34 -78 -103 -114 -186 -114c-205 0 -271 183 -271 358c0 176 73 358 276 358c95 0 152 -39 210 -110l-38 -32c-49 59 -93 91 -172 91c-178 0 -225 -158 -225 -307c0 -145 46 -307 220 -307c150 0 186 149 186 271h-180v51h231z" />
    <glyph glyph-name="H" unicode="H" horiz-adv-x="644" 
d="M569 0h-51v338h-392v-338h-51v698h51v-312h392v312h51v-698z" />
    <glyph glyph-name="I" unicode="I" horiz-adv-x="221" 
d="M136 0h-51v698h51v-698z" />
    <glyph glyph-name="J" unicode="J" horiz-adv-x="521" 
d="M451 210c0 -142 -72 -217 -216 -217c-97 0 -179 46 -205 144l49 13c20 -75 82 -106 156 -106c117 0 166 52 166 166v488h50v-488z" />
    <glyph glyph-name="K" unicode="K" horiz-adv-x="549" 
d="M529 0h-72l-331 349v-349h-51v698h51v-348l311 348h66l-310 -347z" />
    <glyph glyph-name="L" unicode="L" horiz-adv-x="493" 
d="M468 0h-393v698h51v-651h342v-47z" />
    <glyph glyph-name="M" unicode="M" horiz-adv-x="718" 
d="M643 0h-51v562l-208 -562h-51l-207 560v-560h-51v698h51l233 -628l233 628h51v-698z" />
    <glyph glyph-name="N" unicode="N" horiz-adv-x="620" 
d="M545 0h-54l-365 607v-607h-51v698h54l366 -607v607h50v-698z" />
    <glyph glyph-name="O" unicode="O" horiz-adv-x="636" 
d="M591 349c0 -177 -64 -358 -273 -358s-273 181 -273 358s64 358 273 358s273 -181 273 -358zM541 349c0 147 -43 307 -223 307c-179 0 -222 -160 -222 -307s43 -307 222 -307c180 0 223 160 223 307z" />
    <glyph glyph-name="P" unicode="P" horiz-adv-x="589" 
d="M554 507c0 -143 -99 -191 -227 -191h-201v-316h-51v698h252c129 0 227 -47 227 -191zM504 507c0 115 -78 140 -177 140h-201v-282h201c99 0 177 28 177 142z" />
    <glyph glyph-name="Q" unicode="Q" horiz-adv-x="631" 
d="M591 349c0 -95 -10 -189 -72 -265l69 -84h-66l-39 48c-47 -38 -105 -57 -165 -57c-209 0 -273 181 -273 358s64 358 273 358c210 0 273 -181 273 -358zM541 349c0 147 -44 307 -223 307s-222 -160 -222 -307s43 -307 222 -307c48 0 95 14 132 45c-36 41 -76 66 -132 71
v48c69 -6 122 -32 167 -83c49 66 56 147 56 226z" />
    <glyph glyph-name="R" unicode="R" horiz-adv-x="593" 
d="M543 0h-59l-146 252c-20 34 -47 70 -91 70h-121v-322h-51v698h234c125 0 218 -53 218 -188c0 -117 -72 -179 -185 -187c18 -17 34 -36 47 -57zM477 510c0 107 -73 137 -168 137h-183v-276h183c96 0 168 33 168 139z" />
    <glyph glyph-name="S" unicode="S" horiz-adv-x="595" 
d="M550 193c0 -133 -119 -202 -240 -202c-136 0 -241 47 -265 184l50 8c19 -111 117 -143 215 -143c92 0 189 48 189 153c0 221 -428 90 -428 338c0 123 110 174 217 174c108 0 191 -38 238 -139l-46 -22c-39 84 -104 110 -192 110c-77 0 -166 -30 -166 -123
c0 -193 428 -69 428 -338z" />
    <glyph glyph-name="T" unicode="T" horiz-adv-x="534" 
d="M514 648h-222v-648h-50v648h-222v50h494v-50z" />
    <glyph glyph-name="U" unicode="U" horiz-adv-x="634" 
d="M564 301c0 -175 -54 -310 -247 -310s-247 142 -247 310v397h51v-397c0 -138 33 -259 196 -259s196 122 196 259v397h51v-397z" />
    <glyph glyph-name="V" unicode="V" horiz-adv-x="552" 
d="M537 698l-234 -698h-54l-234 698h53l208 -615l208 615h53z" />
    <glyph glyph-name="W" unicode="W" horiz-adv-x="765" 
d="M735 698l-164 -698h-51l-138 587l-137 -587h-52l-163 698h52l137 -587l137 587h52l137 -587l138 587h52z" />
    <glyph glyph-name="X" unicode="X" horiz-adv-x="567" 
d="M542 0h-60l-198 313l-199 -313h-60l229 360l-215 338h60l185 -291l184 291h60l-214 -338z" />
    <glyph glyph-name="Y" unicode="Y" horiz-adv-x="555" 
d="M530 698l-227 -468v-230h-51v232l-227 466h56l197 -403l196 403h56z" />
    <glyph glyph-name="Z" unicode="Z" horiz-adv-x="571" 
d="M516 0h-471v47l410 601h-374v50h435v-50l-407 -597h407v-51z" />
    <glyph glyph-name="bracketleft" unicode="[" horiz-adv-x="269" 
d="M219 -61h-149v820h149v-41h-98v-738h98v-41z" />
    <glyph glyph-name="backslash" unicode="\" horiz-adv-x="403" 
d="M383 -76h-54l-309 850h54z" />
    <glyph glyph-name="bracketright" unicode="]" horiz-adv-x="269" 
d="M219 -61h-149v41h99v738h-99v41h149v-820z" />
    <glyph glyph-name="asciicircum" unicode="^" horiz-adv-x="513" 
d="M458 403l-42 -25c-126 215 -159 272 -159 272s-33 -57 -160 -272l-42 25l173 295h57z" />
    <glyph glyph-name="underscore" unicode="_" horiz-adv-x="529" 
d="M504 -49h-479v49h479v-49z" />
    <glyph glyph-name="grave" unicode="`" horiz-adv-x="302" 
d="M227 545h-57l-95 146h67z" />
    <glyph glyph-name="a" unicode="a" horiz-adv-x="466" 
d="M421 5l-44 -13l-19 48c-44 -35 -82 -50 -144 -50c-92 0 -169 48 -169 145c0 92 77 140 161 140h70c29 0 59 1 80 24v46c0 56 -61 91 -112 91c-56 0 -112 -22 -130 -79l-46 14c30 82 94 113 178 113c76 0 158 -54 158 -136v-297zM356 101v143c-25 -14 -40 -15 -68 -15h-82
c-58 0 -112 -30 -112 -94c0 -67 58 -97 120 -97c59 0 100 20 142 63z" />
    <glyph glyph-name="b" unicode="b" horiz-adv-x="488" 
d="M443 237c0 -128 -39 -246 -190 -246c-50 0 -102 9 -135 56v-47h-48v698h48v-272c31 39 85 58 135 58c151 0 190 -118 190 -247zM395 237c0 100 -20 199 -142 199c-73 0 -135 -47 -135 -124v-150c0 -76 63 -123 135 -123c122 0 142 98 142 198z" />
    <glyph glyph-name="c" unicode="c" horiz-adv-x="462" 
d="M417 66c-48 -53 -88 -74 -159 -74c-147 0 -213 113 -213 247c0 135 66 248 213 248c71 0 111 -22 159 -74l-35 -32c-37 41 -68 61 -124 61c-122 0 -162 -97 -162 -203s39 -202 162 -202c56 0 87 20 124 61z" />
    <glyph glyph-name="d" unicode="d" horiz-adv-x="492" 
d="M432 7l-46 -14l-15 51c-39 -41 -79 -53 -134 -53c-154 0 -192 113 -192 246c0 131 43 247 194 247c49 0 98 -17 132 -53v267h48v-651c0 -1 12 -36 13 -40zM371 162v150c0 76 -59 124 -132 124c-123 0 -145 -97 -145 -199c0 -100 21 -198 143 -198c73 0 134 46 134 123z
" />
    <glyph glyph-name="e" unicode="e" horiz-adv-x="477" 
d="M432 266v-40h-337c2 -111 41 -187 164 -187c55 0 93 14 123 53l38 -30c-39 -51 -90 -71 -161 -71c-158 0 -214 103 -214 246c0 135 52 247 204 247c131 0 183 -100 183 -218zM383 274c-1 88 -34 162 -134 162c-103 0 -147 -66 -153 -162h287z" />
    <glyph glyph-name="f" unicode="f" horiz-adv-x="286" 
d="M266 698v-48c-26 0 -72 -5 -98 -45c-19 -29 -22 -71 -22 -106v-21h104v-48h-104v-430h-46v430h-50v48h50v21c0 43 2 91 27 131c28 44 78 68 139 68z" />
    <glyph glyph-name="g" unicode="g" horiz-adv-x="488" 
d="M453 -13c0 -111 -121 -175 -218 -175c-79 0 -190 34 -190 130c0 14 3 28 7 42l46 -15c-3 -9 -5 -18 -5 -27c0 -63 93 -85 142 -85c71 0 170 46 170 129c0 41 -38 61 -74 61c-55 0 -109 -25 -165 -25c-43 0 -81 17 -81 66c0 40 27 74 58 97c-53 27 -74 86 -74 142
c0 110 62 160 168 160c43 0 89 -6 122 -37c26 7 39 23 39 51h48c0 -40 -20 -76 -59 -89c13 -26 18 -56 18 -85c0 -110 -62 -159 -168 -159c-19 0 -37 1 -56 4c-27 -16 -51 -45 -51 -78c0 -24 13 -28 34 -28c57 0 111 28 167 28c64 0 122 -39 122 -107zM357 327
c0 81 -42 114 -120 114c-77 0 -120 -33 -120 -114c0 -79 43 -116 120 -116c78 0 120 37 120 116z" />
    <glyph glyph-name="h" unicode="h" horiz-adv-x="503" 
d="M443 0h-48v268c0 101 -31 168 -142 168c-63 0 -135 -42 -135 -112v-324h-48v698h48v-273c35 42 81 59 135 59c138 0 190 -88 190 -216v-268z" />
    <glyph glyph-name="i" unicode="i" horiz-adv-x="202" 
d="M137 662c0 -20 -16 -36 -36 -36s-36 16 -36 36s16 36 36 36s36 -16 36 -36zM125 0h-48v478h48v-478z" />
    <glyph glyph-name="j" unicode="j" horiz-adv-x="230" 
d="M160 662c0 -20 -17 -36 -36 -36c-20 0 -36 16 -36 36s16 36 36 36c19 0 36 -16 36 -36zM148 -21c0 -112 -43 -199 -168 -199v48c97 0 120 68 120 151v499h48v-499z" />
    <glyph glyph-name="k" unicode="k" horiz-adv-x="439" 
d="M429 0h-67l-244 256v-256h-48v698h48v-439l204 219h63l-204 -219z" />
    <glyph glyph-name="l" unicode="l" horiz-adv-x="201" 
d="M166 0c-69 0 -96 49 -96 112v586h48v-586c0 -35 7 -64 48 -64v-48z" />
    <glyph glyph-name="m" unicode="m" horiz-adv-x="770" 
d="M710 0h-48v268c0 90 -21 168 -127 168c-101 0 -123 -84 -123 -168v-268h-48v268c0 90 -21 168 -127 168c-57 0 -119 -42 -119 -104v-332h-48v478h48v-51c27 37 77 57 122 57c70 0 121 -29 151 -87c28 54 74 87 144 87c134 0 175 -97 175 -216v-268z" />
    <glyph glyph-name="n" unicode="n" horiz-adv-x="503" 
d="M443 0h-48v268c0 101 -31 168 -142 168c-79 0 -135 -52 -135 -118v-318h-48v478h48v-52c34 40 82 58 135 58c138 0 190 -88 190 -216v-268z" />
    <glyph glyph-name="o" unicode="o" 
d="M444 237c0 -134 -45 -246 -199 -246s-200 112 -200 246c0 135 46 247 200 247s199 -112 199 -247zM396 237c0 107 -25 199 -151 199c-127 0 -151 -92 -151 -199c0 -106 25 -198 150 -198c126 0 152 92 152 198z" />
    <glyph glyph-name="p" unicode="p" horiz-adv-x="488" 
d="M443 241c0 -129 -39 -247 -190 -247c-50 0 -101 16 -135 56v-270h-48v698h48v-51c34 43 85 61 135 61c151 0 190 -118 190 -247zM395 241c0 100 -20 199 -142 199c-72 0 -135 -47 -135 -124v-150c0 -76 62 -123 135 -123c122 0 142 98 142 198z" />
    <glyph glyph-name="q" unicode="q" horiz-adv-x="491" 
d="M431 471l-13 -40v-651h-48v269c-35 -38 -77 -55 -134 -55c-151 0 -191 118 -191 247s40 247 191 247c56 0 99 -19 134 -55l15 53zM370 166v150c0 76 -62 124 -134 124c-122 0 -143 -99 -143 -199s21 -198 143 -198c72 0 134 47 134 123z" />
    <glyph glyph-name="r" unicode="r" horiz-adv-x="374" 
d="M344 466l-24 -45c-21 9 -45 15 -67 15c-70 0 -135 -52 -135 -118v-318h-48v478h48v-56c33 45 88 62 135 62c31 0 62 -5 91 -18z" />
    <glyph glyph-name="s" unicode="s" horiz-adv-x="447" 
d="M407 134c0 -95 -89 -143 -175 -143c-91 0 -174 37 -192 135l47 8c14 -73 79 -95 145 -95c58 0 127 28 127 95c0 141 -301 54 -301 228c0 89 83 123 159 123s137 -24 172 -96l-43 -21c-27 55 -71 69 -129 69c-48 0 -111 -15 -111 -75c0 -120 301 -41 301 -228z" />
    <glyph glyph-name="t" unicode="t" horiz-adv-x="271" 
d="M226 440h-79v-328c0 -55 15 -64 66 -64v-48h-18c-69 0 -96 49 -96 112v328h-69v38h69v148h48v-148h79v-38z" />
    <glyph glyph-name="u" unicode="u" horiz-adv-x="498" 
d="M433 0h-48v47c-35 -36 -85 -53 -134 -53c-139 0 -191 82 -191 216v268h48v-268c0 -103 31 -169 143 -169c57 0 134 43 134 109v328h48v-478z" />
    <glyph glyph-name="v" unicode="v" horiz-adv-x="448" 
d="M428 478l-179 -478h-51l-178 478h51l153 -409l153 409h51z" />
    <glyph glyph-name="w" unicode="w" horiz-adv-x="731" 
d="M711 478l-151 -478h-51l-145 405l-144 -405h-51l-149 478h50l126 -402l143 402h50l144 -402l127 402h51z" />
    <glyph glyph-name="x" unicode="x" horiz-adv-x="436" 
d="M416 0h-59l-139 204l-140 -204h-58l169 247l-161 231h60l130 -189l129 189h59l-159 -231z" />
    <glyph glyph-name="y" unicode="y" horiz-adv-x="448" 
d="M428 478l-224 -600c-23 -60 -63 -99 -130 -98h-19v48h20c46 0 69 26 84 67l39 105l-178 478h51l153 -409l152 409h52z" />
    <glyph glyph-name="z" unicode="z" horiz-adv-x="446" 
d="M401 0h-361v52l300 378h-276v48h337v-49l-303 -381h303v-48z" />
    <glyph glyph-name="braceleft" unicode="{" horiz-adv-x="334" 
d="M284 -61c-112 0 -155 61 -155 167c0 39 15 77 15 116c0 64 -24 108 -94 108v39c70 -1 94 44 94 108c0 37 -15 72 -15 109c0 110 36 173 155 173v-41c-93 0 -107 -62 -107 -140c0 -34 16 -66 16 -100c0 -54 -20 -114 -79 -129c58 -14 79 -75 79 -128
c0 -36 -16 -69 -16 -104c0 -74 20 -137 107 -137v-41z" />
    <glyph glyph-name="bar" unicode="|" horiz-adv-x="241" 
d="M146 -76h-51v850h51v-850z" />
    <glyph glyph-name="braceright" unicode="}" horiz-adv-x="334" 
d="M284 330c-71 0 -94 -44 -94 -108c0 -39 15 -77 15 -116c0 -106 -43 -167 -155 -167v41c86 0 107 63 107 137c0 35 -17 68 -17 104c0 53 21 114 79 128c-58 15 -78 75 -78 129c0 34 15 66 15 100c0 78 -14 140 -106 140v41c119 0 154 -63 154 -173c0 -37 -14 -72 -14 -109
c0 -64 24 -109 94 -108v-39z" />
    <glyph glyph-name="asciitilde" unicode="~" horiz-adv-x="465" 
d="M415 295c-29 -31 -59 -56 -103 -56c-66 0 -102 64 -163 64c-28 0 -50 -18 -65 -39l-34 30c26 32 58 56 101 56c67 0 103 -64 163 -64c30 0 50 19 68 40z" />
    <glyph glyph-name="Adieresis" unicode="&#xc4;" horiz-adv-x="617" 
d="M454 818c0 -24 -19 -43 -43 -43s-44 19 -44 43s20 44 44 44s43 -20 43 -44zM247 818c0 -24 -19 -43 -43 -43s-44 19 -44 43s20 44 44 44s43 -20 43 -44zM607 0h-54l-82 213h-325l-82 -213h-54l267 698h63zM453 261l-145 379l-144 -379h289z" />
    <glyph glyph-name="Aring" unicode="&#xc5;" horiz-adv-x="617" 
d="M425 861c0 -64 -52 -116 -117 -116c-64 0 -116 52 -116 116s52 117 116 117c65 0 117 -53 117 -117zM607 0h-54l-82 213h-325l-82 -213h-54l267 698h63zM377 861c0 38 -31 68 -69 68c-37 0 -68 -30 -68 -68s31 -68 68 -68c38 0 69 30 69 68zM453 261l-145 379l-144 -379
h289z" />
    <glyph glyph-name="Ccedilla" unicode="&#xc7;" horiz-adv-x="573" 
d="M528 101c-48 -59 -101 -101 -179 -108l27 -64l-65 -125h-66l82 129l-25 59c-199 11 -257 187 -257 357c0 177 64 358 273 358c95 0 151 -38 210 -110l-38 -32c-49 59 -93 91 -172 91c-179 0 -222 -160 -222 -307s43 -307 222 -307c79 0 123 32 172 91z" />
    <glyph glyph-name="Eacute" unicode="&#xc9;" horiz-adv-x="564" 
d="M384 921l-95 -146h-57l85 146h67zM509 0h-434v0v0v698h434v-50h-383v-259h335v-51h-335v-288h383v-50z" />
    <glyph glyph-name="Ntilde" unicode="&#xd1;" horiz-adv-x="620" 
d="M471 818c-22 -28 -44 -49 -83 -49c-56 0 -100 43 -145 43c-22 0 -32 -15 -45 -31l-37 30c22 29 44 49 82 49c56 0 100 -43 145 -43c22 0 33 15 45 31zM545 0h-54l-365 607v-607h-51v698h54l366 -607v607h50v-698z" />
    <glyph glyph-name="Odieresis" unicode="&#xd6;" horiz-adv-x="636" 
d="M461 818c0 -23 -20 -43 -43 -43c-24 0 -44 20 -44 43c0 24 20 44 44 44c23 0 43 -20 43 -44zM254 818c0 -23 -20 -43 -43 -43c-24 0 -44 20 -44 43c0 24 20 44 44 44c23 0 43 -20 43 -44zM591 349c0 -185 -64 -358 -273 -358s-273 173 -273 358c0 177 64 358 273 358
s273 -181 273 -358zM541 349c0 147 -43 307 -223 307c-179 0 -222 -160 -222 -307s43 -307 222 -307c180 0 223 160 223 307z" />
    <glyph glyph-name="Udieresis" unicode="&#xdc;" horiz-adv-x="634" 
d="M466 818c0 -23 -19 -43 -43 -43s-43 20 -43 43c0 24 19 44 43 44s43 -20 43 -44zM259 818c0 -23 -19 -43 -43 -43s-43 20 -43 43c0 24 19 44 43 44s43 -20 43 -44zM564 289c0 -167 -54 -298 -247 -298s-247 130 -247 298v409h51v-409c0 -138 33 -247 196 -247
s196 110 196 247v409h51v-409z" />
    <glyph glyph-name="aacute" unicode="&#xe1;" horiz-adv-x="461" 
d="M335 691l-95 -146h-57l85 146h67zM421 5l-44 -13l-19 48c-44 -35 -82 -50 -144 -50c-92 0 -169 48 -169 145c0 92 77 140 161 140h70c29 0 59 1 80 24v46c0 56 -61 91 -112 91c-56 0 -112 -22 -130 -79l-46 14c30 82 94 113 178 113c76 0 158 -54 158 -136v-297zM356 101
v143c-25 -14 -40 -15 -68 -15h-82c-58 0 -112 -30 -112 -94c0 -67 58 -97 120 -97c59 0 100 20 142 63z" />
    <glyph glyph-name="agrave" unicode="&#xe0;" horiz-adv-x="461" 
d="M296 545h-57l-95 146h67zM421 5l-44 -13l-19 48c-44 -35 -82 -50 -144 -50c-92 0 -169 48 -169 145c0 92 77 140 161 140h70c29 0 59 1 80 24v46c0 56 -61 91 -112 91c-56 0 -112 -22 -130 -79l-46 14c30 82 94 113 178 113c76 0 158 -54 158 -136v-297zM356 101v143
c-25 -14 -40 -15 -68 -15h-82c-58 0 -112 -30 -112 -94c0 -67 58 -97 120 -97c59 0 100 20 142 63z" />
    <glyph glyph-name="acircumflex" unicode="&#xe2;" horiz-adv-x="461" 
d="M369 533h-58l-72 122l-71 -122h-57l91 146h76zM421 5l-44 -13l-19 48c-44 -35 -82 -50 -144 -50c-92 0 -169 48 -169 145c0 92 77 140 161 140h70c29 0 59 1 80 24v46c0 56 -61 91 -112 91c-56 0 -112 -22 -130 -79l-46 14c30 82 94 113 178 113c76 0 158 -54 158 -136
v-297zM356 101v143c-25 -14 -40 -15 -68 -15h-82c-58 0 -112 -30 -112 -94c0 -67 58 -97 120 -97c59 0 100 20 142 63z" />
    <glyph glyph-name="adieresis" unicode="&#xe4;" horiz-adv-x="461" 
d="M381 585c0 -23 -20 -43 -43 -43c-24 0 -44 20 -44 43c0 24 20 44 44 44c23 0 43 -20 43 -44zM184 585c0 -23 -20 -43 -44 -43s-43 20 -43 43c0 24 19 44 43 44s44 -20 44 -44zM421 5l-44 -13l-19 48c-44 -35 -82 -50 -144 -50c-92 0 -169 48 -169 145
c0 92 77 140 161 140h70c29 0 59 1 80 24v46c0 56 -61 91 -112 91c-56 0 -112 -22 -130 -79l-46 14c30 82 94 113 178 113c76 0 158 -54 158 -136v-297zM356 101v143c-25 -14 -40 -15 -68 -15h-82c-58 0 -112 -30 -112 -94c0 -67 58 -97 120 -97c59 0 100 20 142 63z" />
    <glyph glyph-name="atilde" unicode="&#xe3;" horiz-adv-x="461" 
d="M388 595c-22 -29 -43 -49 -82 -49c-57 0 -100 43 -145 43c-23 0 -33 -15 -46 -31l-37 30c22 29 43 49 82 49c57 0 100 -43 145 -43c23 0 33 14 46 31zM421 5l-44 -13l-19 48c-44 -35 -82 -50 -144 -50c-92 0 -169 48 -169 145c0 92 77 140 161 140h70c29 0 59 1 80 24v46
c0 56 -61 91 -112 91c-56 0 -112 -22 -130 -79l-46 14c30 82 94 113 178 113c76 0 158 -54 158 -136v-297zM356 101v143c-25 -14 -40 -15 -68 -15h-82c-58 0 -112 -30 -112 -94c0 -67 58 -97 120 -97c59 0 100 20 142 63z" />
    <glyph glyph-name="aring" unicode="&#xe5;" horiz-adv-x="461" 
d="M358 649c0 -64 -52 -117 -116 -117c-65 0 -117 53 -117 117s52 116 117 116c64 0 116 -52 116 -116zM421 5l-44 -13l-19 48c-44 -35 -82 -50 -144 -50c-92 0 -169 48 -169 145c0 92 77 140 161 140h70c29 0 59 1 80 24v46c0 56 -61 91 -112 91c-56 0 -112 -22 -130 -79
l-46 14c30 82 94 113 178 113c76 0 158 -54 158 -136v-297zM310 649c0 38 -31 68 -68 68c-38 0 -69 -30 -69 -68s31 -68 69 -68c37 0 68 30 68 68zM356 101v143c-25 -14 -40 -15 -68 -15h-82c-58 0 -112 -30 -112 -94c0 -67 58 -97 120 -97c59 0 100 20 142 63z" />
    <glyph glyph-name="ccedilla" unicode="&#xe7;" horiz-adv-x="462" 
d="M417 66c-42 -46 -78 -68 -134 -73l28 -64l-65 -125h-66l82 129l-26 59c-131 11 -191 119 -191 247c0 135 66 248 213 248c71 0 111 -22 159 -74l-35 -32c-37 41 -68 61 -124 61c-122 0 -162 -97 -162 -203s39 -202 162 -202c56 0 87 20 124 61z" />
    <glyph glyph-name="eacute" unicode="&#xe9;" horiz-adv-x="477" 
d="M362 691l-95 -146h-57l85 146h67zM432 266v-40h-337c2 -111 41 -187 164 -187c55 0 93 14 123 53l38 -30c-39 -51 -90 -71 -161 -71c-158 0 -214 103 -214 246c0 135 52 247 204 247c131 0 183 -100 183 -218zM383 274c-1 88 -34 162 -134 162c-103 0 -147 -66 -153 -162
h287z" />
    <glyph glyph-name="egrave" unicode="&#xe8;" horiz-adv-x="477" 
d="M307 545h-57l-95 146h67zM432 266v-40h-337c1 -112 42 -187 164 -187c50 0 91 11 123 53l38 -30c-41 -53 -96 -71 -161 -71c-157 0 -214 103 -214 246c0 136 53 247 204 247c132 0 183 -100 183 -218zM383 274c-1 88 -35 162 -134 162c-102 0 -147 -66 -153 -162h287z
" />
    <glyph glyph-name="ecircumflex" unicode="&#xea;" horiz-adv-x="477" 
d="M378 533h-58l-72 122l-71 -122h-57l91 146h76zM432 266v-40h-337c2 -111 41 -187 164 -187c55 0 93 14 123 53l38 -30c-39 -51 -90 -71 -161 -71c-158 0 -214 103 -214 246c0 135 52 247 204 247c131 0 183 -100 183 -218zM383 274c-1 88 -34 162 -134 162
c-103 0 -147 -66 -153 -162h287z" />
    <glyph glyph-name="edieresis" unicode="&#xeb;" horiz-adv-x="477" 
d="M391 585c0 -23 -20 -43 -43 -43c-24 0 -44 20 -44 43c0 24 20 44 44 44c23 0 43 -20 43 -44zM194 585c0 -23 -20 -43 -44 -43s-43 20 -43 43c0 24 19 44 43 44s44 -20 44 -44zM432 266v-40h-337c2 -111 41 -187 164 -187c55 0 93 14 123 53l38 -30
c-39 -51 -90 -71 -161 -71c-158 0 -214 103 -214 246c0 135 52 247 204 247c131 0 183 -100 183 -218zM383 274c-1 88 -34 162 -134 162c-103 0 -147 -66 -153 -162h287z" />
    <glyph glyph-name="iacute" unicode="&#xed;" horiz-adv-x="212" 
d="M218 691l-95 -146h-57l85 146h67zM130 0h-48v478h48v-478z" />
    <glyph glyph-name="igrave" unicode="&#xec;" horiz-adv-x="212" 
d="M163 545h-57l-95 146h67zM130 0h-48v478h48v-478z" />
    <glyph glyph-name="icircumflex" unicode="&#xee;" horiz-adv-x="212" 
d="M232 533h-58l-71 122l-72 -122h-57l91 146h76zM130 0h-48v478h48v-478z" />
    <glyph glyph-name="idieresis" unicode="&#xef;" horiz-adv-x="212" 
d="M232 585c0 -23 -19 -43 -43 -43s-43 20 -43 43c0 24 19 44 43 44s43 -20 43 -44zM68 585c0 -23 -20 -43 -44 -43s-43 20 -43 43c0 24 19 44 43 44s44 -20 44 -44zM130 0h-48v478h48v-478z" />
    <glyph glyph-name="ntilde" unicode="&#xf1;" horiz-adv-x="493" 
d="M409 595c-22 -29 -43 -49 -82 -49c-57 0 -100 43 -145 43c-23 0 -33 -15 -46 -31l-37 30c22 29 43 49 82 49c57 0 100 -43 145 -43c23 0 33 14 46 31zM438 0h-48v268c0 101 -31 168 -142 168c-79 0 -135 -52 -135 -118v-318h-48v478h48v-50c34 39 82 56 135 56
c138 0 190 -88 190 -216v-268z" />
    <glyph glyph-name="oacute" unicode="&#xf3;" 
d="M352 691l-95 -146h-57l85 146h67zM444 237c0 -135 -46 -246 -199 -246c-154 0 -200 111 -200 246c0 136 46 247 200 247c153 0 199 -111 199 -247zM396 237c0 107 -26 199 -151 199c-126 0 -152 -92 -152 -199c0 -106 26 -198 151 -198c126 0 152 92 152 198z" />
    <glyph glyph-name="ograve" unicode="&#xf2;" 
d="M302 545h-57l-95 146h67zM444 237c0 -134 -45 -246 -199 -246s-200 112 -200 246c0 135 46 247 200 247s199 -112 199 -247zM396 237c0 107 -25 199 -151 199c-127 0 -152 -92 -152 -199c0 -106 26 -198 151 -198c126 0 152 92 152 198z" />
    <glyph glyph-name="ocircumflex" unicode="&#xf4;" 
d="M373 533h-58l-72 122l-71 -122h-57l91 146h76zM444 237c0 -134 -45 -246 -199 -246s-200 112 -200 246c0 135 46 247 200 247s199 -112 199 -247zM396 237c0 107 -25 199 -151 199c-127 0 -152 -92 -152 -199c0 -106 26 -198 151 -198c126 0 152 92 152 198z" />
    <glyph glyph-name="odieresis" unicode="&#xf6;" 
d="M387 585c0 -23 -20 -43 -43 -43c-24 0 -44 20 -44 43c0 24 20 44 44 44c23 0 43 -20 43 -44zM190 585c0 -23 -20 -43 -44 -43s-43 20 -43 43c0 24 19 44 43 44s44 -20 44 -44zM444 237c0 -134 -45 -246 -199 -246s-200 112 -200 246c0 135 46 247 200 247
s199 -112 199 -247zM396 237c0 107 -25 199 -151 199c-127 0 -152 -92 -152 -199c0 -106 26 -198 151 -198c126 0 152 92 152 198z" />
    <glyph glyph-name="otilde" unicode="&#xf5;" 
d="M404 595c-22 -29 -44 -49 -82 -49c-56 0 -100 43 -145 43c-23 0 -33 -15 -46 -31l-37 30c22 29 44 49 82 49c56 0 100 -43 145 -43c23 0 33 14 46 31zM444 237c0 -135 -46 -246 -199 -246c-154 0 -200 111 -200 246c0 136 46 247 200 247c153 0 199 -111 199 -247z
M396 237c0 107 -26 199 -151 199c-126 0 -152 -92 -152 -199c0 -106 26 -198 151 -198c126 0 152 92 152 198z" />
    <glyph glyph-name="uacute" unicode="&#xfa;" horiz-adv-x="498" 
d="M364 691l-95 -146h-57l85 146h67zM433 0h-48v47c-35 -36 -85 -53 -134 -53c-139 0 -191 88 -191 216v268h48v-268c0 -100 31 -168 143 -168c57 0 134 42 134 108v328h48v-478z" />
    <glyph glyph-name="ugrave" unicode="&#xf9;" horiz-adv-x="498" 
d="M307 545h-57l-95 146h67zM433 0h-48v47c-35 -36 -85 -53 -134 -53c-139 0 -191 88 -191 216v268h48v-268c0 -100 31 -168 143 -168c57 0 134 42 134 108v328h48v-478z" />
    <glyph glyph-name="ucircumflex" unicode="&#xfb;" horiz-adv-x="498" 
d="M376 533h-58l-72 122l-71 -122h-57l91 146h76zM433 0h-48v47c-35 -36 -85 -53 -134 -53c-139 0 -191 88 -191 216v268h48v-268c0 -100 31 -168 143 -168c57 0 134 42 134 108v328h48v-478z" />
    <glyph glyph-name="udieresis" unicode="&#xfc;" horiz-adv-x="498" 
d="M393 585c0 -23 -20 -43 -43 -43c-24 0 -44 20 -44 43c0 24 20 44 44 44c23 0 43 -20 43 -44zM194 585c0 -23 -20 -43 -44 -43s-43 20 -43 43c0 24 19 44 43 44s44 -20 44 -44zM433 0h-48v47c-35 -36 -85 -53 -134 -53c-139 0 -191 88 -191 216v268h48v-268
c0 -100 31 -168 143 -168c57 0 134 42 134 108v328h48v-478z" />
    <glyph glyph-name="dagger" unicode="&#x2020;" horiz-adv-x="499" 
d="M444 428h-170v-428h-49v428h-170v50h170v220h49v-220h170v-50z" />
    <glyph glyph-name="degree" unicode="&#xb0;" horiz-adv-x="271" 
d="M226 661c0 -50 -41 -91 -91 -91c-49 0 -90 41 -90 91c0 49 41 90 90 90c50 0 91 -41 91 -90zM187 661c0 28 -23 52 -52 52c-28 0 -51 -24 -51 -52s23 -52 51 -52c29 0 52 24 52 52z" />
    <glyph glyph-name="cent" unicode="&#xa2;" horiz-adv-x="462" 
d="M417 66c-47 -52 -88 -74 -159 -74c-22 0 -44 2 -65 8l-19 -86l-37 8l19 93c-82 43 -111 137 -111 224c0 134 66 247 212 248l16 77l38 -8l-15 -71c51 -8 87 -35 121 -72l-35 -32c-26 29 -56 53 -96 59l-84 -395c18 -6 37 -8 56 -8c55 0 88 20 124 61zM247 442
c-116 -7 -151 -102 -151 -203c0 -67 11 -134 71 -176z" />
    <glyph glyph-name="sterling" unicode="&#xa3;" horiz-adv-x="502" 
d="M457 615l-37 -32c-43 50 -80 69 -146 69c-93 0 -133 -68 -133 -153c0 -42 9 -84 18 -125h127l-10 -48h-108c8 -38 14 -77 14 -116c0 -55 -13 -109 -33 -161h299v-49h-356v41c24 53 41 110 41 169c0 39 -7 78 -15 116h-73l10 48h53c-8 41 -16 83 -16 125
c0 112 62 202 182 202c82 0 131 -25 183 -86z" />
    <glyph glyph-name="section" unicode="&#xa7;" horiz-adv-x="502" 
d="M437 222c0 -54 -17 -107 -59 -143c28 -27 39 -64 39 -102c0 -100 -66 -177 -168 -177c-86 0 -139 67 -176 136l43 23c28 -50 68 -109 133 -109c74 0 119 55 119 127c0 78 -57 94 -123 111c-98 25 -180 71 -180 184c0 54 17 107 59 142c-28 28 -38 64 -38 103
c0 100 65 176 168 176c85 0 138 -67 175 -135l-43 -24c-28 51 -68 110 -132 110c-75 0 -119 -55 -119 -127c0 -78 56 -94 122 -111c98 -25 180 -71 180 -184zM388 222c0 87 -69 118 -143 136c-27 7 -53 14 -78 27c-39 -26 -53 -69 -53 -113c0 -87 69 -118 143 -136
c27 -7 53 -15 78 -27c39 25 53 69 53 113z" />
    <glyph glyph-name="bullet" unicode="&#x2022;" horiz-adv-x="424" 
d="M359 338c0 -81 -65 -147 -147 -147c-81 0 -147 66 -147 147s66 147 147 147c82 0 147 -66 147 -147z" />
    <glyph glyph-name="paragraph" unicode="&#xb6;" horiz-adv-x="557" 
d="M472 -151h-50v795h-123v-795h-51v462c-106 0 -193 87 -193 194s87 193 193 193h224v-849z" />
    <glyph glyph-name="germandbls" unicode="&#xdf;" horiz-adv-x="492" 
d="M447 235c0 -130 -50 -233 -195 -237v48c119 3 146 89 146 192c0 107 -26 188 -147 194v43c44 7 68 50 68 89c0 47 -39 86 -86 86c-96 0 -120 -67 -120 -151v-499h-48v432h-43v45h43v22c0 112 44 199 168 199c73 0 134 -61 134 -134c0 -37 -16 -73 -43 -98
c104 -36 123 -132 123 -231z" />
    <glyph glyph-name="registered" unicode="&#xae;" horiz-adv-x="790" 
d="M745 348c0 -193 -157 -350 -350 -350s-350 157 -350 350s157 350 350 350s350 -157 350 -350zM702 348c0 169 -138 307 -307 307s-307 -138 -307 -307s138 -307 307 -307s307 138 307 307zM549 160h-57l-72 121c-12 20 -24 40 -50 40h-48v-161h-48v377h134
c72 0 125 -33 125 -110c0 -50 -34 -102 -88 -102c6 -6 12 -12 16 -19zM485 427c0 50 -33 62 -77 62h-86v-126h86c44 0 77 14 77 64z" />
    <glyph glyph-name="copyright" unicode="&#xa9;" horiz-adv-x="790" 
d="M745 348c0 -193 -157 -350 -350 -350s-350 157 -350 350s157 350 350 350s350 -157 350 -350zM702 348c0 169 -138 307 -307 307s-307 -138 -307 -307s138 -307 307 -307s307 138 307 307zM520 213c-33 -39 -65 -60 -117 -60c-114 0 -154 97 -154 195s40 195 154 195
c52 0 84 -21 117 -60l-37 -31c-23 27 -43 43 -80 43c-85 0 -104 -77 -104 -147c0 -69 19 -147 104 -147c37 0 57 16 80 43z" />
    <glyph glyph-name="trademark" unicode="&#x2122;" horiz-adv-x="483" 
d="M421 489h-25v152l-59 -152h-27l-59 151v-151h-24v209h25l72 -180l71 180h26v-209zM203 673h-68v-184h-25v184h-68v25h161v-25z" />
    <glyph glyph-name="acute" unicode="&#xb4;" horiz-adv-x="282" 
d="M217 691l-95 -146h-57l85 146h67z" />
    <glyph glyph-name="dieresis" unicode="&#xa8;" 
d="M387 585c0 -23 -20 -43 -43 -43c-24 0 -44 20 -44 43c0 24 20 44 44 44c23 0 43 -20 43 -44zM190 585c0 -23 -20 -43 -44 -43s-43 20 -43 43c0 24 19 44 43 44s44 -20 44 -44z" />
    <glyph glyph-name="notequal" unicode="&#x2260;" horiz-adv-x="511" 
d="M456 136h-221l-38 -103l-36 13l33 90h-139v49h156l48 130h-204v49h222l37 103l36 -13l-32 -90h138v-49h-156l-48 -130h204v-49z" />
    <glyph glyph-name="AE" unicode="&#xc6;" horiz-adv-x="903" 
d="M858 0h-409v0h-1v213h-276l-101 -213h-56l330 698h513v-50h-359v-259h311v-51h-311v-288h359v-50zM448 261v387h-71l-182 -387h253z" />
    <glyph glyph-name="Oslash" unicode="&#xd8;" horiz-adv-x="636" 
d="M591 349c0 -177 -64 -358 -273 -358c-62 0 -112 17 -151 44l-19 -35h-55l38 67c-63 69 -86 176 -86 282c0 177 64 358 273 358c60 0 108 -15 146 -40l17 31h55l-35 -62c66 -69 90 -179 90 -287zM541 349c0 88 -16 180 -66 240l-283 -509c32 -24 73 -38 126 -38
c180 0 223 160 223 307zM439 622c-31 22 -71 34 -121 34c-179 0 -222 -160 -222 -307c0 -85 14 -174 61 -235z" />
    <glyph glyph-name="infinity" unicode="&#x221e;" horiz-adv-x="761" 
d="M716 252c0 -76 -60 -127 -134 -127c-73 0 -148 57 -201 102c-54 -45 -129 -102 -201 -102c-82 0 -135 61 -135 141c0 76 60 127 135 127c72 0 147 -56 201 -101c53 45 128 101 201 101c81 0 134 -61 134 -141zM667 252c0 53 -32 92 -86 92c-56 0 -121 -50 -163 -85
c42 -35 107 -84 163 -84c47 0 86 28 86 77zM343 259c-42 35 -107 85 -163 85c-47 0 -86 -29 -86 -78c0 -52 32 -91 86 -91c56 0 121 49 163 84z" />
    <glyph glyph-name="plusminus" unicode="&#xb1;" horiz-adv-x="511" 
d="M456 248h-175v-175h-51v175h-175v51h175v175h51v-175h175v-51zM456 0h-401v49h401v-49z" />
    <glyph glyph-name="lessequal" unicode="&#x2264;" horiz-adv-x="470" 
d="M415 64l-360 167v54l360 167v-54l-302 -140l302 -140v-54zM415 0h-360v51h360v-51z" />
    <glyph glyph-name="greaterequal" unicode="&#x2265;" horiz-adv-x="470" 
d="M415 231l-360 -167v54l302 140l-302 140v54l360 -167v-54zM415 0h-360v51h360v-51z" />
    <glyph glyph-name="yen" unicode="&#xa5;" horiz-adv-x="575" 
d="M540 698l-157 -324h92l-10 -48h-106l-42 -88h158l-10 -48h-152v-190h-51v190h-162l10 48h149l-42 88h-117l10 48h83l-158 324h56l197 -403l196 403h56z" />
    <glyph glyph-name="mu" unicode="&#xb5;" horiz-adv-x="503" 
d="M438 0h-48v47c-35 -35 -85 -53 -134 -53c-62 0 -102 9 -143 59v-249h-48v674h48v-268c0 -100 32 -168 143 -168c58 0 134 43 134 108v328h48v-478z" />
    <glyph glyph-name="partialdiff" unicode="&#x2202;" horiz-adv-x="487" 
d="M432 205c0 -108 -81 -208 -193 -208c-113 0 -194 88 -194 209c0 108 65 209 190 209c52 0 106 -26 141 -65c-7 77 -42 300 -156 300c-44 0 -82 -32 -108 -64l-40 31c36 45 88 84 148 84c196 0 212 -370 212 -496zM383 206c0 81 -63 159 -148 159
c-93 0 -141 -78 -141 -159c0 -91 59 -160 145 -160c85 0 144 79 144 160z" />
    <glyph glyph-name="summation" unicode="&#x2211;" horiz-adv-x="506" 
d="M451 -220h-396v48l260 411l-260 411v48h396v-49h-337l259 -410l-259 -410h337v-49z" />
    <glyph glyph-name="product" unicode="&#x220f;" horiz-adv-x="589" 
d="M514 -197h-48v901h-343v-901h-48v949h439v-949z" />
    <glyph glyph-name="pi" unicode="&#x3c0;" horiz-adv-x="530" 
d="M485 0h-18c-69 0 -96 49 -96 112v318h-258v-430h-48v478h354v-366c0 -55 15 -64 66 -64v-48z" />
    <glyph glyph-name="integral" unicode="&#x222b;" horiz-adv-x="312" 
d="M277 650c-62 0 -97 10 -97 -63v-671c0 -63 -27 -112 -96 -112h-49v48c61 0 97 -10 97 64v671c0 62 27 111 96 111h49v-48z" />
    <glyph glyph-name="ordfeminine" unicode="&#xaa;" horiz-adv-x="394" 
d="M354 321l-45 -16l-14 32c-33 -26 -64 -37 -111 -37c-75 0 -140 39 -140 122c0 77 65 118 134 118h55c22 0 43 1 57 15v34c0 41 -44 68 -83 68c-42 0 -84 -17 -98 -65l-48 14c26 75 80 101 148 101c62 0 131 -45 131 -115v-236zM263 201h-132v49h132v-49zM290 397v102
c-16 -8 -28 -8 -47 -8h-65c-45 0 -83 -23 -83 -69c0 -49 41 -72 89 -72c44 0 75 15 106 47z" />
    <glyph glyph-name="ordmasculine" unicode="&#xba;" horiz-adv-x="421" 
d="M375 504c0 -111 -38 -204 -164 -204s-165 93 -165 204c0 110 39 203 165 203c125 0 164 -93 164 -203zM277 201h-132v49h132v-49zM325 504c0 81 -18 153 -114 153c-97 0 -115 -72 -115 -153c0 -82 18 -153 115 -153c96 0 114 71 114 153z" />
    <glyph glyph-name="Omega" unicode="&#x2126;" horiz-adv-x="596" 
d="M551 348c0 -108 -23 -229 -111 -302h90l9 -46h-174v43c110 79 137 173 137 305c0 134 -39 299 -204 299s-204 -165 -204 -299c0 -132 27 -226 137 -305v-43h-173l8 46h90c-87 73 -111 194 -111 302c0 164 57 349 253 349s253 -185 253 -349z" />
    <glyph glyph-name="ae" unicode="&#xe6;" horiz-adv-x="778" 
d="M737 266l-1 -40h-338c1 -112 44 -187 166 -187c50 0 91 12 123 53l38 -30c-41 -53 -96 -71 -161 -71c-69 0 -135 20 -174 80c-52 -54 -106 -81 -182 -81c-90 0 -169 47 -169 145c0 91 77 140 161 140h70c29 0 57 1 79 24v46c0 56 -60 91 -111 91c-55 0 -113 -22 -130 -79
l-46 14c30 81 94 113 178 113c59 0 121 -31 147 -85c36 61 98 85 167 85c130 0 183 -100 183 -218zM688 274c-1 88 -35 162 -134 162c-102 0 -150 -66 -156 -162h290zM368 117c-15 41 -19 83 -19 127c-23 -13 -40 -15 -67 -15h-82c-58 0 -112 -30 -112 -94
c0 -68 60 -97 120 -97c66 0 115 34 160 79z" />
    <glyph glyph-name="oslash" unicode="&#xf8;" 
d="M444 237c0 -134 -45 -246 -199 -246c-46 0 -81 9 -109 26l-11 -17h-49l26 44c-42 46 -57 116 -57 193c0 135 46 247 200 247c44 0 79 -9 106 -25l13 20h49l-28 -47c44 -45 59 -116 59 -195zM396 237c0 60 -8 115 -37 152l-198 -330c21 -13 48 -20 83 -20
c126 0 152 92 152 198zM326 417c-20 12 -47 19 -81 19c-127 0 -152 -92 -152 -199c0 -58 8 -112 36 -149z" />
    <glyph glyph-name="questiondown" unicode="&#xbf;" horiz-adv-x="468" 
d="M267 666c0 -21 -18 -40 -39 -40c-22 0 -40 19 -40 40s18 40 40 40c21 0 39 -19 39 -40zM428 170c0 -111 -96 -178 -200 -178c-107 0 -197 70 -197 182c0 166 169 104 177 266l4 83h33s7 -55 7 -83c0 -190 -170 -135 -170 -266c0 -85 66 -133 146 -133
c76 0 153 46 152 129h48z" />
    <glyph glyph-name="exclamdown" unicode="&#xa1;" horiz-adv-x="280" 
d="M180 667c0 -22 -18 -40 -40 -40s-40 18 -40 40s18 40 40 40s40 -18 40 -40zM167 0h-54v339l10 187h33l11 -187v-339z" />
    <glyph glyph-name="logicalnot" unicode="&#xac;" horiz-adv-x="501" 
d="M446 103h-43v135h-358v43h401v-178z" />
    <glyph glyph-name="radical" unicode="&#x221a;" horiz-adv-x="603" 
d="M568 644h-96l-175 -644h-52l-190 478h53l159 -400l167 615h134v-49z" />
    <glyph glyph-name="florin" unicode="&#x192;" horiz-adv-x="361" 
d="M336 698v-48c-45 0 -84 -17 -110 -49c-25 -30 -35 -70 -41 -106l-11 -65h79v-48h-88l-103 -582l-47 8l101 574h-63v48h72l13 73c7 42 19 90 51 129c35 43 87 66 147 66z" />
    <glyph glyph-name="approxequal" unicode="&#x2248;" horiz-adv-x="498" 
d="M453 343c-32 -30 -58 -46 -104 -46c-72 0 -135 44 -205 44c-32 0 -45 -10 -66 -30l-33 31c32 30 57 46 103 46c72 0 135 -44 206 -44c31 0 44 10 66 30zM453 202c-32 -30 -58 -46 -104 -46c-72 0 -135 44 -205 44c-32 0 -45 -10 -66 -30l-33 32c32 30 57 46 103 46
c72 0 135 -44 206 -44c31 0 44 10 66 30z" />
    <glyph glyph-name="Delta" unicode="&#x2206;" horiz-adv-x="569" 
d="M554 0h-539l270 695zM485 46l-200 516l-201 -516h401z" />
    <glyph glyph-name="guillemotleft" unicode="&#xab;" horiz-adv-x="471" 
d="M416 40l-199 194v48l199 194v0v-67l-155 -151l155 -151v-67zM244 40l-199 194v48l199 194v0v-67l-154 -151l154 -151v-67z" />
    <glyph glyph-name="guillemotright" unicode="&#xbb;" horiz-adv-x="471" 
d="M426 234l-199 -194v0v67l154 151l-154 151v67v0l199 -194v-48zM254 234l-199 -194v0v67l155 151l-155 151v67v0l199 -194v-48z" />
    <glyph glyph-name="ellipsis" unicode="&#x2026;" horiz-adv-x="629" 
d="M554 35c0 -24 -19 -43 -43 -43s-43 19 -43 43s19 43 43 43s43 -19 43 -43zM358 35c0 -24 -20 -43 -43 -43c-24 0 -44 19 -44 43s20 43 44 43c23 0 43 -19 43 -43zM162 35c0 -24 -20 -43 -44 -43c-23 0 -43 19 -43 43s20 43 43 43c24 0 44 -19 44 -43z" />
    <glyph glyph-name="nbspace" horiz-adv-x="135" 
 />
    <glyph glyph-name="Agrave" unicode="&#xc0;" horiz-adv-x="617" 
d="M358 775h-57l-95 146h67zM607 0h-54l-82 213h-325l-82 -213h-54l267 698h63zM453 261l-145 379l-144 -379h289z" />
    <glyph glyph-name="Atilde" unicode="&#xc3;" horiz-adv-x="617" 
d="M466 818c-22 -28 -44 -49 -83 -49c-56 0 -100 43 -145 43c-22 0 -32 -15 -45 -31l-37 30c22 29 44 49 82 49c56 0 100 -43 145 -43c22 0 33 15 45 31zM607 0h-54l-82 213h-325l-82 -213h-54l267 698h63zM453 261l-145 379l-144 -379h289z" />
    <glyph glyph-name="Otilde" unicode="&#xd5;" horiz-adv-x="636" 
d="M480 818c-22 -28 -44 -49 -83 -49c-56 0 -100 43 -145 43c-22 0 -32 -15 -45 -31l-37 30c22 29 44 49 82 49c56 0 100 -43 145 -43c22 0 33 15 45 31zM591 349c0 -177 -64 -358 -273 -358s-273 181 -273 358s64 358 273 358s273 -181 273 -358zM541 349
c0 147 -43 307 -223 307c-179 0 -222 -160 -222 -307s43 -307 222 -307c180 0 223 160 223 307z" />
    <glyph glyph-name="OE" unicode="&#x152;" horiz-adv-x="1006" 
d="M951 0h-410v0v116c-46 -81 -132 -125 -223 -125c-209 0 -273 181 -273 358s64 358 273 358c91 0 178 -44 223 -124v115h410v-50h-360v-259h312v-51h-312v-288h360v-50zM541 349c0 147 -43 307 -223 307c-179 0 -222 -160 -222 -307s43 -307 222 -307
c180 0 223 160 223 307z" />
    <glyph glyph-name="oe" unicode="&#x153;" horiz-adv-x="826" 
d="M781 266v-40h-336c1 -111 40 -187 163 -187c48 0 99 15 130 54l38 -30c-40 -51 -105 -72 -168 -72c-77 0 -153 31 -187 104c-32 -71 -101 -104 -176 -104c-154 0 -200 112 -200 246c0 135 46 247 200 247c75 0 144 -34 176 -105c33 71 101 105 178 105
c131 0 183 -101 182 -218zM733 274c-2 88 -35 162 -134 162c-104 0 -147 -66 -153 -162h287zM396 237c0 107 -25 199 -151 199c-127 0 -152 -92 -152 -199c0 -106 26 -198 151 -198c126 0 152 92 152 198z" />
    <glyph glyph-name="endash" unicode="&#x2013;" horiz-adv-x="504" 
d="M449 248h-394v51h394v-51z" />
    <glyph glyph-name="emdash" unicode="&#x2014;" horiz-adv-x="802" 
d="M747 248h-692v51h692v-51z" />
    <glyph glyph-name="quotedblleft" unicode="&#x201c;" horiz-adv-x="355" 
d="M285 752l-7 -166c-1 -21 -18 -40 -40 -40c-20 0 -40 15 -40 36c0 15 4 33 7 47l75 123h5zM157 752l-7 -166c-1 -21 -18 -40 -40 -40c-19 0 -40 15 -40 36c0 15 5 33 7 47l76 123h4z" />
    <glyph glyph-name="quotedblright" unicode="&#x201d;" horiz-adv-x="355" 
d="M285 716c0 -14 -5 -32 -8 -47l-75 -123h-4l7 166c0 22 17 40 39 40c20 0 41 -15 41 -36zM157 716c0 -14 -5 -32 -7 -47l-76 -123h-4l7 166c1 22 18 40 40 40c20 0 40 -15 40 -36z" />
    <glyph glyph-name="quoteleft" unicode="&#x2018;" horiz-adv-x="227" 
d="M157 752l-7 -166c-1 -21 -18 -40 -40 -40c-20 0 -40 15 -40 36c0 15 5 33 7 47l76 123h4z" />
    <glyph glyph-name="quoteright" unicode="&#x2019;" horiz-adv-x="227" 
d="M157 716c0 -14 -5 -32 -7 -47l-76 -123h-4l7 166c1 22 18 40 40 40c20 0 40 -15 40 -36z" />
    <glyph glyph-name="divide" unicode="&#xf7;" horiz-adv-x="504" 
d="M293 429c0 -23 -19 -43 -43 -43s-43 20 -43 43c0 24 19 44 43 44s43 -20 43 -44zM449 248h-394v51h394v-51zM293 119c0 -24 -19 -44 -43 -44s-43 20 -43 44c0 23 19 43 43 43s43 -20 43 -43z" />
    <glyph glyph-name="lozenge" unicode="&#x25ca;" horiz-adv-x="528" 
d="M473 345l-209 -341l-209 341l209 340zM422 345l-158 257l-158 -257l158 -258z" />
    <glyph glyph-name="ydieresis" unicode="&#xff;" horiz-adv-x="453" 
d="M370 585c0 -23 -20 -43 -43 -43c-24 0 -44 20 -44 43c0 24 20 44 44 44c23 0 43 -20 43 -44zM173 585c0 -23 -20 -43 -44 -43c-23 0 -43 20 -43 43c0 24 20 44 43 44c24 0 44 -20 44 -44zM433 478l-224 -600c-23 -60 -64 -99 -131 -98h-19v48h20c46 0 69 26 84 67l38 109
l-181 474h55l153 -409l152 409h53z" />
    <glyph glyph-name="Ydieresis" unicode="&#x178;" horiz-adv-x="555" 
d="M426 818c0 -23 -19 -43 -43 -43s-43 20 -43 43c0 24 19 44 43 44s43 -20 43 -44zM219 818c0 -23 -19 -43 -43 -43s-44 20 -44 43c0 24 20 44 44 44s43 -20 43 -44zM530 698l-227 -468v-230h-51v232l-227 466h56l197 -409l196 409h56z" />
    <glyph glyph-name="fraction" unicode="&#x2044;" horiz-adv-x="137" 
d="M242 698l-302 -698h-45l302 698h45z" />
    <glyph glyph-name="currency" unicode="&#xa4;" horiz-adv-x="585" 
d="M552 56c-46 -43 -95 -65 -168 -65c-149 0 -244 106 -266 247h-73l10 48h57c-2 30 -2 59 -1 88h-66l10 48h58c5 61 19 116 52 168c50 76 128 117 219 117c73 0 122 -22 168 -65l-26 -45c-43 43 -82 59 -142 59c-140 0 -209 -107 -220 -234h256l-11 -48h-248v-25
c0 -21 1 -42 2 -63h257l-11 -48h-240c20 -113 95 -196 215 -196c60 0 99 16 142 59z" />
    <glyph glyph-name="guilsinglleft" unicode="&#x2039;" horiz-adv-x="299" 
d="M244 40l-199 194v48l199 194v0v-67l-154 -151l154 -151v-67z" />
    <glyph glyph-name="guilsinglright" unicode="&#x203a;" horiz-adv-x="299" 
d="M254 234l-199 -194v0v67l155 151l-155 151v67v0l199 -194v-48z" />
    <glyph glyph-name="fi" unicode="&#xfb01;" horiz-adv-x="461" 
d="M396 662c0 -20 -16 -36 -36 -36s-36 16 -36 36s16 36 36 36s36 -16 36 -36zM384 0h-48v430h-195v-430h-48v430h-48v48h48v21c0 43 4 91 29 131c28 44 78 68 139 68v-48c-26 0 -72 -6 -98 -46c-19 -29 -22 -70 -22 -105v-21h243v-478z" />
    <glyph glyph-name="fl" unicode="&#xfb02;" 
d="M434 0c-70 0 -96 49 -96 112v538h-78c-39 0 -76 -13 -98 -46c-23 -35 -22 -86 -22 -126h105v-48h-105v-430h-48v430h-47v48h47c0 52 0 106 29 152c31 48 84 68 139 68h126v-586c0 -35 6 -64 47 -64z" />
    <glyph glyph-name="daggerdbl" unicode="&#x2021;" horiz-adv-x="499" 
d="M444 20h-170v-220h-49v220h-170v50h170v358h-170v50h170v220h49v-220h170v-50h-170v-358h170v-50z" />
    <glyph glyph-name="periodcentered" unicode="&#xb7;" horiz-adv-x="217" 
d="M152 265c0 -24 -20 -44 -44 -44s-43 20 -43 44s19 43 43 43s44 -19 44 -43z" />
    <glyph glyph-name="quotesinglbase" unicode="&#x201a;" horiz-adv-x="227" 
d="M157 48l-7 -43l-76 -123h-4l7 166c1 22 18 40 40 40s43 -18 40 -40z" />
    <glyph glyph-name="quotedblbase" unicode="&#x201e;" horiz-adv-x="355" 
d="M284 48l-7 -43l-75 -123h-4l7 166c0 22 17 40 39 40s44 -18 40 -40zM157 48l-7 -43l-76 -123h-4l7 166c1 22 18 40 40 40s43 -18 40 -40z" />
    <glyph glyph-name="perthousand" unicode="&#x2030;" horiz-adv-x="1002" 
d="M957 186c0 -93 -31 -196 -144 -196c-54 0 -98 29 -122 77c-24 -48 -68 -77 -122 -77c-112 0 -144 103 -144 196c0 94 32 197 144 197c54 0 98 -29 122 -77c24 48 68 77 122 77c113 0 144 -103 144 -197zM556 698l-302 -698h-53l303 698h52zM333 511
c0 -93 -31 -197 -144 -197c-112 0 -144 104 -144 197s32 197 144 197c113 0 144 -104 144 -197zM914 186c0 67 -15 154 -101 154s-100 -87 -100 -154s14 -153 100 -153s101 87 101 153zM669 202c1 63 -24 138 -100 138c-86 0 -101 -87 -101 -154c0 -66 15 -153 101 -153
s99 86 100 153v16zM290 511c0 67 -15 153 -101 153c-85 0 -101 -86 -101 -153s16 -153 101 -153c86 0 101 86 101 153z" />
    <glyph glyph-name="Acircumflex" unicode="&#xc2;" horiz-adv-x="617" 
d="M437 775h-57l-72 122l-71 -122h-57l85 146h87zM607 0h-54l-82 213h-325l-82 -213h-54l267 698h63zM453 261l-145 379l-144 -379h289z" />
    <glyph glyph-name="Ecircumflex" unicode="&#xca;" horiz-adv-x="564" 
d="M437 775h-57l-72 122l-71 -122h-57l85 146h87zM509 0h-434v0v0v698h434v-50h-383v-259h335v-51h-335v-288h383v-50z" />
    <glyph glyph-name="Aacute" unicode="&#xc1;" horiz-adv-x="617" 
d="M408 921l-95 -146h-57l85 146h67zM607 0h-54l-82 213h-325l-82 -213h-54l267 698h63zM453 261l-145 379l-144 -379h289z" />
    <glyph glyph-name="Edieresis" unicode="&#xcb;" horiz-adv-x="564" 
d="M444 818c0 -23 -19 -43 -43 -43s-44 20 -44 43c0 24 20 44 44 44s43 -20 43 -44zM247 818c0 -23 -20 -43 -43 -43c-24 0 -44 20 -44 43c0 24 20 44 44 44c23 0 43 -20 43 -44zM509 0h-434v0v698h434v-50h-383v-261h335v-49h-335v-288h383v-50z" />
    <glyph glyph-name="Egrave" unicode="&#xc8;" horiz-adv-x="564" 
d="M348 775h-57l-95 146h67zM509 0h-434v0v0v698h434v-50h-383v-262h335v-48h-335v-288h383v-50z" />
    <glyph glyph-name="Iacute" unicode="&#xcd;" horiz-adv-x="243" 
d="M217 921l-95 -146h-57l85 146h67zM145 0h-51v698h51v-698z" />
    <glyph glyph-name="Icircumflex" unicode="&#xce;" horiz-adv-x="297" 
d="M277 775h-57l-72 122l-71 -122h-57l85 146h87zM171 0h-51v698h51v-698z" />
    <glyph glyph-name="Idieresis" unicode="&#xcf;" horiz-adv-x="274" 
d="M264 818c0 -24 -20 -43 -43 -43c-24 0 -44 19 -44 43s20 44 44 44c23 0 43 -20 43 -44zM97 818c0 -24 -20 -43 -44 -43s-43 19 -43 43s19 44 43 44s44 -20 44 -44zM163 0h-51v698h51v-698z" />
    <glyph glyph-name="Igrave" unicode="&#xcc;" horiz-adv-x="232" 
d="M167 775h-57l-95 146h67zM138 0h-50v698h50v-698z" />
    <glyph glyph-name="Oacute" unicode="&#xd3;" horiz-adv-x="636" 
d="M411 921l-95 -146h-57l85 146h67zM591 349c0 -177 -64 -358 -273 -358s-273 181 -273 358s64 358 273 358s273 -181 273 -358zM541 349c0 147 -43 307 -223 307c-179 0 -222 -160 -222 -307s43 -307 222 -307c180 0 223 160 223 307z" />
    <glyph glyph-name="Ocircumflex" unicode="&#xd4;" horiz-adv-x="636" 
d="M446 775h-57l-71 122l-71 -122h-57l85 146h87zM591 349c0 -177 -64 -358 -273 -358s-273 181 -273 358s64 358 273 358s273 -181 273 -358zM541 349c0 147 -43 307 -223 307c-179 0 -222 -160 -222 -307s43 -307 222 -307c180 0 223 160 223 307z" />
    <glyph glyph-name="Ograve" unicode="&#xd2;" horiz-adv-x="636" 
d="M371 775h-57l-95 146h67zM591 349c0 -177 -64 -358 -273 -358s-273 181 -273 358s64 358 273 358s273 -181 273 -358zM541 349c0 147 -43 307 -223 307c-179 0 -222 -160 -222 -307s43 -307 222 -307c180 0 223 160 223 307z" />
    <glyph glyph-name="Uacute" unicode="&#xda;" horiz-adv-x="634" 
d="M402 921l-95 -146h-57l85 146h67zM564 294c0 -167 -54 -303 -247 -303s-247 135 -247 303v404h51v-404c0 -138 33 -252 196 -252s196 115 196 252v404h51v-404z" />
    <glyph glyph-name="Ucircumflex" unicode="&#xdb;" horiz-adv-x="634" 
d="M449 775h-57l-71 122l-72 -122h-57l85 146h87zM564 294c0 -167 -54 -303 -247 -303s-247 135 -247 303v404h51v-404c0 -138 33 -252 196 -252s196 115 196 252v404h51v-404z" />
    <glyph glyph-name="Ugrave" unicode="&#xd9;" horiz-adv-x="634" 
d="M373 775h-57l-95 146h67zM564 294c0 -167 -54 -303 -247 -303s-247 135 -247 303v404h51v-404c0 -138 33 -252 196 -252s196 115 196 252v404h51v-404z" />
    <glyph glyph-name="dotlessi" unicode="&#x131;" horiz-adv-x="212" 
d="M130 0h-48v478h48v-478z" />
    <glyph glyph-name="circumflex" unicode="&#x2c6;" horiz-adv-x="498" 
d="M376 533h-58l-72 122l-71 -122h-57l91 146h76z" />
    <glyph glyph-name="tilde" unicode="&#x2dc;" horiz-adv-x="495" 
d="M400 595c-22 -29 -44 -49 -82 -49c-57 0 -100 43 -145 43c-23 0 -33 -15 -46 -31l-37 30c22 29 44 49 82 49c57 0 100 -43 145 -43c23 0 33 15 46 31z" />
    <glyph glyph-name="macron" unicode="&#xaf;" horiz-adv-x="484" 
d="M389 592h-294v48h294v-48z" />
    <glyph glyph-name="breve" unicode="&#x2d8;" horiz-adv-x="487" 
d="M412 698c-26 -71 -92 -123 -169 -123s-142 52 -168 123h49c23 -44 68 -75 119 -75s96 31 119 75h50z" />
    <glyph glyph-name="dotaccent" unicode="&#x2d9;" horiz-adv-x="497" 
d="M292 585c0 -23 -20 -43 -44 -43s-43 20 -43 43c0 24 19 44 43 44s44 -20 44 -44z" />
    <glyph glyph-name="ring" unicode="&#x2da;" horiz-adv-x="483" 
d="M358 649c0 -64 -52 -117 -116 -117c-65 0 -117 53 -117 117s52 116 117 116c64 0 116 -52 116 -116zM310 649c0 38 -31 68 -68 68c-38 0 -69 -30 -69 -68s31 -68 69 -68c37 0 68 30 68 68z" />
    <glyph glyph-name="cedilla" unicode="&#xb8;" horiz-adv-x="481" 
d="M301 -71l-65 -125h-66l82 129l-32 73l40 17z" />
    <glyph glyph-name="hungarumlaut" unicode="&#x2dd;" horiz-adv-x="435" 
d="M390 716l-95 -146h-57l85 146h67zM267 716l-95 -146h-57l85 146h67z" />
    <glyph glyph-name="ogonek" unicode="&#x2db;" horiz-adv-x="509" 
d="M344 -196h-66l-98 196h52z" />
    <glyph glyph-name="caron" unicode="&#x2c7;" horiz-adv-x="467" 
d="M372 679l-95 -146h-87l-95 146h67l71 -123l72 123h67z" />
    <glyph glyph-name="Eth" unicode="&#xd0;" horiz-adv-x="659" 
d="M584 349c0 -53 -1 -109 -8 -161c-23 -163 -133 -188 -277 -188h-204v322h-43v51h43v325h203c145 0 255 -25 278 -187c7 -53 8 -109 8 -162zM533 349c0 51 0 105 -7 155c-19 134 -111 144 -228 144h-152v-275h163v-51h-163v-271h152c117 0 209 9 228 143c7 51 7 104 7 155
z" />
    <glyph glyph-name="Euro" unicode="&#x20ac;" horiz-adv-x="585" 
d="M552 56c-46 -43 -95 -65 -168 -65c-149 0 -244 106 -266 247h-73l10 48h57c-2 30 -2 59 -1 88h-66l10 48h58c5 61 19 116 52 168c50 76 128 117 219 117c73 0 122 -22 168 -65l-26 -45c-43 43 -82 59 -142 59c-140 0 -209 -107 -220 -234h256l-11 -48h-248v-25
c0 -21 1 -42 2 -63h257l-11 -48h-240c20 -113 95 -196 215 -196c60 0 99 16 142 59z" />
    <glyph glyph-name="uni00A0" unicode="&#xa0;" horiz-adv-x="135" 
 />
    <glyph glyph-name="apple" unicode="&#xf8ff;" horiz-adv-x="500" 
 />
    </font>
</defs>
</svg>
