<?xml version="1.0" standalone="no"?>
<!DOCTYPE svg PUBLIC "-//W3C//DTD SVG 1.1//EN" "http://www.w3.org/Graphics/SVG/1.1/DTD/svg11.dtd" >
<svg xmlns="http://www.w3.org/2000/svg" width="100%" height="100%">
<metadata>
Created by FontXChange 20110222 at Fri Aug  2 14:06:20 2013
 By James Beall
2004 T.26 Digital Type Foundry www.t26.com PSID#5134570 designer: Neil Summerour / Positype
</metadata>
<defs>
<font id="AauxProOT-LightItalic" horiz-adv-x="481" >
  <font-face 
    font-family="AauxProOT"
    font-weight="400"
    font-style="italic"
    font-stretch="normal"
    units-per-em="1000"
    panose-1="2 0 5 6 2 0 0 9 0 4"
    ascent="775"
    descent="-225"
    x-height="478"
    cap-height="698"
    bbox="-120 -225 1057 978"
    underline-thickness="60"
    underline-position="-75"
    stemh="48"
    stemv="48"
    unicode-range="U+0020-FB02"
  />
<missing-glyph horiz-adv-x="1000" 
 />
    <glyph glyph-name=".notdef" horiz-adv-x="1000" 
 />
    <glyph glyph-name="eth" unicode="&#xf0;" horiz-adv-x="499" 
d="M494 621l-10 -45h-68l32 -126c14 -53 21 -85 20 -121c-1 -158 -72 -338 -264 -338c-114 0 -158 68 -158 155c0 158 74 338 263 338c32 0 60 -6 83 -17l-24 109h-121l10 45h100l-29 129h49l29 -129h88zM419 324c-1 74 -44 112 -120 112c-149 0 -203 -154 -204 -279
c-1 -66 25 -118 119 -118c150 0 206 159 205 285z" />
    <glyph glyph-name="Lslash" unicode="&#x141;" horiz-adv-x="504" 
d="M449 50l-11 -50h-393v0v0l57 270l-41 -17l10 51l42 16l80 378h51l-76 -355l185 75l-11 -51l-184 -75l-52 -242h343z" />
    <glyph glyph-name="lslash" unicode="&#x142;" horiz-adv-x="247" 
d="M262 395l-11 -51l-84 -34l-42 -198c-3 -16 -6 -34 -1 -46c7 -15 23 -18 36 -18l-11 -48c-34 0 -60 15 -71 40c-9 22 -6 49 -1 72l38 176l-60 -25l11 51l59 25l77 359h48l-72 -338z" />
    <glyph glyph-name="Scaron" unicode="&#x160;" horiz-adv-x="514" 
d="M509 921l-126 -146h-83l-63 146h63l45 -123l97 123h67zM529 569l-48 -19c-28 72 -65 101 -127 101c-89 0 -151 -43 -167 -117c-15 -70 19 -112 115 -145c128 -43 185 -115 170 -212c-17 -110 -111 -184 -235 -184c-112 0 -180 66 -202 197l50 8c23 -139 98 -155 152 -155
c99 0 172 56 185 141c7 46 1 111 -136 157c-77 26 -176 76 -148 204c20 97 103 157 216 157c84 0 139 -43 175 -133z" />
    <glyph glyph-name="scaron" unicode="&#x161;" horiz-adv-x="451" 
d="M436 679l-126 -146h-83l-63 146h63l45 -123l97 123h67zM387 389l-45 -18c-21 53 -47 64 -80 64c-57 0 -96 -27 -106 -73c-7 -37 2 -66 74 -90c90 -30 130 -81 119 -151c-12 -78 -79 -130 -166 -130c-55 0 -124 24 -143 139l48 8c14 -88 58 -99 95 -99c64 0 110 35 118 89
c5 30 -1 69 -87 98c-31 11 -127 43 -105 146c15 69 74 111 153 111c60 0 100 -30 125 -94z" />
    <glyph glyph-name="Yacute" unicode="&#xdd;" horiz-adv-x="531" 
d="M481 921l-126 -146h-57l116 146h67zM599 698l-304 -468l-49 -230h-51l50 233l-107 465h56l91 -398l259 398h55z" />
    <glyph glyph-name="yacute" unicode="&#xfd;" horiz-adv-x="426" 
d="M363 691l-126 -146h-57l116 146h67zM466 478l-351 -600c-13 -21 -29 -45 -54 -65c-29 -22 -63 -33 -97 -33h-19l11 48h19c22 0 43 7 61 21c16 12 28 30 37 46l45 76c19 32 29 48 18 114l-63 393h51l63 -389l228 389h51z" />
    <glyph glyph-name="Thorn" unicode="&#xde;" horiz-adv-x="611" 
d="M601 360c-15 -69 -56 -127 -112 -158c-51 -28 -107 -32 -156 -32h-201l-36 -170h-51l148 698h51l-31 -147h201c49 0 104 -4 142 -32c44 -31 60 -89 45 -159zM550 360c11 52 0 95 -30 116c-29 22 -75 25 -116 25h-202l-60 -281h202c41 0 89 3 127 25c39 21 68 63 79 115z
" />
    <glyph glyph-name="thorn" unicode="&#xfe;" horiz-adv-x="570" 
d="M515 399c18 -49 9 -109 -2 -162c-11 -49 -27 -111 -66 -161c-43 -54 -107 -85 -177 -85c-54 -1 -98 19 -124 53l-56 -264h-48l195 918h48l-56 -267c40 34 92 53 145 53c71 0 122 -31 141 -85zM468 375c-13 39 -51 61 -104 61c-52 0 -100 -22 -130 -61
c-15 -19 -24 -40 -31 -63l-32 -150c-2 -22 -2 -44 4 -62c14 -39 52 -61 105 -61c52 0 100 22 130 61c31 40 45 94 54 137c10 47 18 99 4 138z" />
    <glyph glyph-name="Zcaron" unicode="&#x17d;" horiz-adv-x="567" 
d="M560 921l-126 -146h-83l-64 146h63l45 -123l98 123h67zM601 697l-11 -50l-497 -592c17 2 36 4 56 4c34 0 56 -4 90 -9l11 -2c32 -5 52 -8 82 -8c44 0 84 6 112 16l18 -47c-33 -13 -80 -20 -130 -20c-34 0 -57 4 -90 9l-11 2c-32 5 -52 8 -82 8c-44 0 -85 -6 -112 -16
l-18 47l511 608h-343l11 50h403z" />
    <glyph glyph-name="zcaron" unicode="&#x17e;" horiz-adv-x="475" 
d="M480 679l-126 -146h-83l-64 146h63l45 -123l98 123h67zM478 478l-11 -49l-376 -374c12 1 25 2 39 2c29 0 57 -6 86 -11c27 -5 42 -8 67 -8c34 0 68 6 89 15l22 -42c-28 -13 -69 -20 -111 -20c-30 0 -49 3 -77 9c-28 5 -52 10 -76 10c-35 0 -68 -6 -90 -16l-24 48l391 388
h-262l11 48h322z" />
    <glyph glyph-name="onehalf" unicode="&#xbd;" horiz-adv-x="720" 
d="M673 327c-10 -46 -41 -81 -146 -164c-56 -43 -95 -97 -112 -122h198l-9 -41h-244l8 36l1 1c24 42 74 107 136 156c93 73 120 102 127 134c10 50 -33 64 -61 64c-33 0 -64 -18 -90 -52l-3 -5l-33 19l4 5c36 48 82 74 131 74c57 0 107 -36 93 -105zM551 698l-451 -698h-45
l451 698h45zM206 704l-92 -430h-41c75 353 80 372 80 372s-16 -8 -90 -47l-13 35l134 70h22z" />
    <glyph glyph-name="onequarter" unicode="&#xbc;" horiz-adv-x="708" 
d="M648 431c-221 -264 -234 -280 -234 -280h129c0 0 2 11 36 170l39 -8c-32 -151 -34 -162 -34 -162h29l-9 -41h-29s-2 -10 -23 -110h-41c21 100 23 110 23 110h-178l8 39l236 282h48zM551 698l-451 -698h-45l451 698h45zM206 704l-92 -430h-41c75 353 80 372 80 372
s-16 -8 -90 -47l-13 35l134 70h22z" />
    <glyph glyph-name="onesuperior" unicode="&#xb9;" horiz-adv-x="256" 
d="M206 704l-92 -430h-41c75 353 80 372 80 372s-16 -8 -90 -47l-13 35l134 70h22z" />
    <glyph glyph-name="threequarters" unicode="&#xbe;" horiz-adv-x="741" 
d="M821 431c-220 -264 -234 -280 -234 -280h129c0 0 2 11 36 170l39 -8c-32 -151 -34 -162 -34 -162h29l-9 -41h-29s-2 -10 -23 -110h-41c21 100 23 110 23 110h-178l8 39l236 282h48zM724 698l-451 -698h-45l451 698h45zM371 592c-8 -37 -34 -71 -69 -93
c30 -22 44 -61 35 -104c-15 -68 -81 -123 -149 -123c-52 0 -92 34 -97 84l-1 6l42 13v-6c4 -34 30 -56 65 -56c45 0 89 37 99 82c9 46 -19 83 -64 83h-22l9 41h18c43 0 84 32 93 73c8 40 -19 73 -62 73c-33 0 -67 -21 -84 -51l-3 -5l-36 13l3 6c26 46 78 78 129 78
c65 0 107 -52 94 -114z" />
    <glyph glyph-name="threesuperior" unicode="&#xb3;" horiz-adv-x="348" 
d="M296 592c-8 -37 -34 -71 -69 -93c30 -22 44 -61 35 -104c-15 -68 -81 -123 -149 -123c-52 0 -92 34 -97 84l-1 6l42 13v-6c4 -34 30 -56 65 -56c45 0 89 37 99 82c9 46 -19 83 -64 83h-22l9 41h18c43 0 84 32 93 73c8 40 -19 73 -62 73c-33 0 -67 -21 -84 -51l-3 -5
l-36 13l3 6c26 46 78 78 129 78c65 0 107 -52 94 -114z" />
    <glyph glyph-name="twosuperior" unicode="&#xb2;" horiz-adv-x="325" 
d="M402 600c-10 -45 -41 -81 -146 -163c-55 -44 -95 -98 -111 -122h197l-9 -41h-243l8 36v1c24 41 74 107 136 156c93 73 120 101 127 133c11 51 -33 64 -60 64c-34 0 -65 -18 -90 -52l-4 -5l-32 19l4 5c35 48 82 74 130 74c58 0 108 -36 93 -105z" />
    <glyph glyph-name="brokenbar" unicode="&#xa6;" horiz-adv-x="251" 
d="M151 394h-51v381h51v-381zM151 -76h-51v381h51v-381z" />
    <glyph glyph-name="minus" unicode="&#x2212;" horiz-adv-x="485" 
d="M445 299l-11 -51h-394l11 51h394z" />
    <glyph glyph-name="multiply" unicode="&#xd7;" horiz-adv-x="416" 
d="M391 395l-147 -121l96 -122l-44 -36l-95 122l-148 -122l-28 36l147 122l-95 121l43 36l96 -122l147 122z" />
    <glyph glyph-name="space" unicode=" " horiz-adv-x="260" 
 />
    <glyph glyph-name="exclam" unicode="!" horiz-adv-x="280" 
d="M265 698l-72 -339l-49 -187h-34l29 187l72 339h54zM137 40c0 -26 -24 -48 -49 -48c-18 0 -32 12 -32 31c0 25 24 48 49 48c18 0 32 -13 32 -31z" />
    <glyph glyph-name="quotedbl" unicode="&#x22;" horiz-adv-x="338" 
d="M367 674l-27 -127h-66l26 127c4 18 22 33 41 33c18 0 30 -15 26 -33zM213 674l-27 -127h-66l27 127c4 18 22 33 40 33c19 0 30 -15 26 -33z" />
    <glyph glyph-name="numbersign" unicode="#" horiz-adv-x="660" 
d="M660 486l-21 -50h-126l-74 -174h126l-21 -49h-126l-90 -213h-49l90 213h-174l-91 -213h-49l90 213h-125l21 49h125l75 174h-126l21 50h125l91 212h49l-90 -212h174l90 212h50l-91 -212h126zM464 436h-174l-74 -174h174z" />
    <glyph glyph-name="dollar" unicode="$" horiz-adv-x="504" 
d="M499 535l-48 -20c-15 46 -42 76 -96 79l-45 -211c67 -18 145 -54 145 -124c0 -117 -110 -187 -213 -198l-13 -61h-50l13 62c-101 9 -148 62 -156 154l53 12c5 -74 37 -110 113 -117l49 231c-69 15 -141 51 -142 124c0 116 107 174 206 178l12 54h50l-11 -54
c67 -5 117 -48 133 -109zM305 594c-68 -1 -143 -41 -143 -116c-1 -54 54 -74 100 -85zM404 243c0 53 -62 75 -105 89l-47 -222c68 11 152 63 152 133z" />
    <glyph glyph-name="percent" unicode="%" horiz-adv-x="778" 
d="M410 582c0 -113 -56 -268 -189 -268c-79 0 -116 52 -116 126c0 113 56 268 190 268c79 0 115 -52 115 -126zM665 698l-451 -698h-53l451 698h53zM721 258c0 -113 -56 -268 -189 -268c-80 0 -116 52 -116 125c0 113 56 268 189 268c80 0 116 -52 116 -125zM364 575
c0 50 -19 88 -74 88c-101 0 -139 -134 -139 -216c0 -50 19 -88 75 -88c100 0 138 134 138 216zM675 250c0 50 -19 88 -74 88c-101 0 -139 -134 -139 -215c0 -51 19 -88 74 -88c101 0 139 134 139 215z" />
    <glyph glyph-name="ampersand" unicode="&#x26;" horiz-adv-x="609" 
d="M580 317c-15 -72 -50 -148 -103 -210c20 -22 41 -44 63 -64l-31 -43c-24 22 -47 44 -68 67c-66 -54 -150 -77 -225 -77c-102 0 -182 52 -182 150c0 124 80 198 191 255c-18 38 -35 83 -35 128c0 98 70 182 173 182c68 0 106 -40 106 -100c0 -111 -95 -173 -181 -222
c44 -86 96 -167 158 -241c43 52 71 115 84 175h50zM418 592c0 38 -18 63 -66 63c-72 0 -110 -61 -110 -126c0 -39 12 -79 27 -109c65 37 148 91 149 172zM410 104c-65 76 -120 162 -166 252c-82 -45 -158 -98 -158 -207c0 -78 66 -111 140 -111c62 0 130 21 184 66z" />
    <glyph glyph-name="quotesingle" unicode="'" horiz-adv-x="184" 
d="M213 674l-27 -127h-66l27 127c4 18 22 33 40 33c19 0 30 -15 26 -33z" />
    <glyph glyph-name="parenleft" unicode="(" horiz-adv-x="316" 
d="M364 698c-133 -90 -239 -278 -239 -440c0 -89 25 -195 91 -258h-63c-56 69 -79 161 -79 249c0 168 98 345 228 449h62z" />
    <glyph glyph-name="parenright" unicode=")" horiz-adv-x="316" 
d="M301 448c0 -168 -99 -344 -228 -448h-63c133 90 240 279 240 441c0 89 -25 194 -92 257h63c57 -69 80 -162 80 -250z" />
    <glyph glyph-name="asterisk" unicode="*" horiz-adv-x="403" 
d="M423 559l-140 -39l61 -109l-48 -29l-53 113l-102 -113l-34 29l107 109l-124 39l26 48l120 -46l25 137h50l-33 -137l140 46z" />
    <glyph glyph-name="plus" unicode="+" horiz-adv-x="492" 
d="M462 299l-11 -51h-175l-37 -175h-51l37 175h-175l11 51h175l37 175h51l-37 -175h175z" />
    <glyph glyph-name="comma" unicode="," horiz-adv-x="226" 
d="M155 32l-9 -44l-102 -123h-4l35 167c5 22 27 39 49 39s36 -17 31 -39z" />
    <glyph glyph-name="hyphen" unicode="-" horiz-adv-x="348" 
d="M318 299l-11 -51h-257l11 51h257z" />
    <glyph glyph-name="period" unicode="." horiz-adv-x="209" 
d="M138 35c-5 -24 -29 -43 -53 -43s-39 19 -34 43s29 43 53 43s39 -19 34 -43z" />
    <glyph glyph-name="slash" unicode="/" horiz-adv-x="384" 
d="M504 774l-490 -850h-54l490 850h54z" />
    <glyph glyph-name="zero" unicode="0" horiz-adv-x="547" 
d="M542 485c0 -180 -92 -492 -315 -492c-133 0 -173 103 -173 219c0 181 90 491 314 491c133 0 174 -102 174 -218zM494 485c0 88 -28 171 -131 171c-189 0 -261 -295 -261 -444c0 -88 27 -172 130 -172c189 0 262 297 262 445z" />
    <glyph glyph-name="one" unicode="1" horiz-adv-x="343" 
d="M316 698l-148 -698h-50l134 630l-123 -72l-18 35l175 105h30z" />
    <glyph glyph-name="two" unicode="2" horiz-adv-x="539" 
d="M528 551c0 -162 -136 -205 -247 -280c-77 -52 -165 -139 -208 -222h372l-11 -49h-428c17 117 155 246 249 310c92 62 223 101 223 236c0 74 -62 112 -130 112c-70 0 -131 -38 -169 -96l-41 22c47 74 125 122 213 122c93 0 177 -54 177 -155z" />
    <glyph glyph-name="three" unicode="3" horiz-adv-x="499" 
d="M501 557c0 -85 -51 -160 -130 -191c54 -21 79 -77 79 -132c0 -141 -115 -241 -253 -241c-88 0 -164 41 -175 136l50 15c8 -70 65 -103 131 -103c105 0 196 84 196 191c0 84 -72 112 -145 111l9 43c98 -1 189 57 189 162c0 68 -58 112 -123 112c-66 0 -131 -39 -164 -97
l-42 17c46 75 123 126 213 126c87 0 165 -56 165 -149z" />
    <glyph glyph-name="four" unicode="4" horiz-adv-x="532" 
d="M488 698l-391 -466h272l63 297l47 -10l-61 -287h69l-11 -49h-68l-39 -183h-49l39 183h-333l10 49l396 466h56z" />
    <glyph glyph-name="five" unicode="5" horiz-adv-x="518" 
d="M526 698l-10 -47h-307l-49 -231c42 30 91 48 143 48c108 0 176 -64 176 -175c0 -160 -108 -300 -275 -300c-86 0 -163 44 -172 133l50 15c7 -68 63 -100 128 -100c133 0 219 120 219 246c0 85 -50 134 -136 134c-52 0 -103 -21 -144 -53h-46l70 330h353z" />
    <glyph glyph-name="six" unicode="6" horiz-adv-x="526" 
d="M481 254c0 -143 -118 -260 -261 -260c-110 0 -179 75 -179 184c0 145 81 284 187 392c45 45 122 106 185 143l28 -29c-134 -81 -258 -190 -316 -337c48 57 107 86 183 86c105 0 173 -76 173 -179zM432 250c0 81 -52 135 -133 135c-112 0 -209 -92 -209 -205
c0 -77 53 -139 133 -139c110 0 209 99 209 209z" />
    <glyph glyph-name="seven" unicode="7" 
d="M545 698l-11 -49c-193 -169 -321 -397 -368 -649h-56c56 268 172 459 364 649h-312l-12 -58h-49l22 107h422z" />
    <glyph glyph-name="eight" unicode="8" horiz-adv-x="520" 
d="M520 554c0 -84 -49 -164 -131 -190c56 -21 82 -72 82 -130c0 -143 -124 -241 -261 -241c-96 0 -179 61 -179 163c0 96 64 180 155 211c-43 23 -66 73 -66 120c0 129 114 217 237 217c88 0 163 -57 163 -150zM470 549c0 68 -57 108 -121 108c-91 0 -178 -75 -178 -170
c0 -70 54 -102 118 -102c94 0 181 65 181 164zM420 230c0 80 -65 111 -136 111c-106 0 -201 -69 -201 -181c0 -77 64 -119 135 -119c104 0 202 82 202 189z" />
    <glyph glyph-name="nine" unicode="9" horiz-adv-x="514" 
d="M523 520c0 -144 -80 -283 -187 -392c-45 -45 -121 -106 -185 -143l-27 29c133 81 258 191 316 338c-48 -58 -107 -86 -183 -86c-105 0 -173 75 -173 178c0 143 117 260 261 260c110 0 178 -75 178 -184zM475 518c0 77 -54 139 -133 139c-111 0 -209 -98 -209 -209
c0 -80 52 -134 133 -134c112 0 209 91 209 204z" />
    <glyph glyph-name="colon" unicode=":" horiz-adv-x="223" 
d="M193 347c0 -27 -26 -52 -53 -52c-20 0 -36 14 -36 34c0 28 27 53 54 53c20 0 35 -15 35 -35zM129 44c0 -28 -27 -52 -54 -52c-20 0 -35 14 -35 34c0 27 26 52 54 52c19 0 35 -14 35 -34z" />
    <glyph glyph-name="semicolon" unicode=";" horiz-adv-x="240" 
d="M210 347c0 -27 -27 -52 -54 -52c-20 0 -35 14 -35 34c0 28 26 53 54 53c20 0 35 -15 35 -35zM141 40c0 -17 -7 -35 -10 -52l-102 -123h-4l35 167c5 21 26 39 49 39c18 0 32 -13 32 -31z" />
    <glyph glyph-name="less" unicode="&#x3c;" horiz-adv-x="467" 
d="M514 698l-359 -353l209 -345h-58l-213 349l355 349h66z" />
    <glyph glyph-name="equal" unicode="=" horiz-adv-x="544" 
d="M514 374l-11 -49h-401l11 49h401zM471 176l-10 -50h-401l10 50h401z" />
    <glyph glyph-name="greater" unicode="&#x3e;" horiz-adv-x="467" 
d="M440 349l-355 -349h-66l359 355l-211 343h59z" />
    <glyph glyph-name="question" unicode="?" horiz-adv-x="468" 
d="M494 563c0 -197 -195 -141 -239 -306l-21 -83h-33c2 27 5 55 10 83c42 199 231 135 231 297c0 70 -58 102 -122 102c-78 0 -162 -48 -179 -129h-48c23 108 131 179 238 179c86 0 163 -49 163 -143zM229 39c0 -24 -26 -47 -49 -47c-18 0 -32 14 -32 32c0 24 25 47 49 47
c18 0 32 -14 32 -32z" />
    <glyph glyph-name="at" unicode="@" horiz-adv-x="678" 
d="M678 503c0 -60 -14 -120 -36 -175c-7 -18 -19 -37 -24 -55l-75 -273h-50l30 113c-47 -59 -127 -125 -207 -125c-75 0 -110 59 -110 129c0 142 153 369 308 369c51 0 88 -30 102 -79c7 28 11 57 11 85c0 81 -35 158 -127 158c-201 0 -398 -308 -398 -495
c0 -49 14 -104 56 -133l-36 -43c-54 38 -72 105 -72 169c0 219 231 552 463 552c115 0 165 -93 165 -197zM571 346c0 44 -17 89 -68 89c-121 0 -244 -197 -244 -308c0 -44 17 -89 68 -89c119 0 244 196 244 308z" />
    <glyph glyph-name="A" unicode="A" horiz-adv-x="637" 
d="M572 0h-51l-36 213h-326l-127 -213h-57l415 698h64zM476 261l-64 379l-224 -379h288z" />
    <glyph glyph-name="B" unicode="B" horiz-adv-x="629" 
d="M603 543c0 -79 -39 -155 -115 -185c56 -18 85 -71 85 -127c0 -167 -131 -231 -281 -231h-252l148 698h235c95 0 180 -50 180 -155zM552 542c0 85 -68 107 -140 107h-184l-57 -270h191c107 0 190 46 190 163zM521 229c0 91 -86 105 -158 105h-201l-61 -284h202
c117 0 218 49 218 179z" />
    <glyph glyph-name="C" unicode="C" horiz-adv-x="593" 
d="M615 597l-45 -32c-36 61 -74 91 -147 91c-213 0 -302 -247 -302 -425c0 -114 50 -189 171 -189c79 0 136 37 191 91l35 -38c-67 -65 -135 -104 -231 -104c-146 0 -217 95 -217 236c0 211 112 480 359 480c88 0 142 -35 186 -110z" />
    <glyph glyph-name="D" unicode="D" horiz-adv-x="639" 
d="M630 532c0 -83 -40 -264 -69 -344c-58 -158 -162 -188 -317 -188h-204l148 698h179c124 0 263 -14 263 -166zM580 522c0 118 -104 126 -199 126h-153l-127 -597h137c237 0 271 95 314 298c12 56 28 116 28 173z" />
    <glyph glyph-name="E" unicode="E" horiz-adv-x="574" 
d="M612 698l-10 -50h-374l-55 -262h325l-10 -48h-325l-62 -288h374l-11 -50h-424v0l148 698h424z" />
    <glyph glyph-name="F" unicode="F" horiz-adv-x="544" 
d="M596 698l-11 -50h-357l-55 -262h320l-10 -47h-320l-72 -339h-51l148 698h408z" />
    <glyph glyph-name="G" unicode="G" horiz-adv-x="635" 
d="M620 597l-45 -32c-38 63 -77 91 -152 91c-177 0 -259 -155 -291 -307c-28 -131 -27 -307 155 -307c148 0 217 146 243 271h-180l11 51h231l-78 -364h-50l22 105c-48 -74 -114 -114 -202 -114c-148 0 -217 96 -217 234c0 211 116 482 359 482c90 0 148 -34 194 -110z" />
    <glyph glyph-name="H" unicode="H" horiz-adv-x="664" 
d="M682 698l-148 -698h-51l72 338h-392l-72 -338h-51l148 698h51l-66 -312h392l67 312h50z" />
    <glyph glyph-name="I" unicode="I" horiz-adv-x="231" 
d="M244 698l-148 -698h-51l148 698h51z" />
    <glyph glyph-name="J" unicode="J" horiz-adv-x="521" 
d="M550 698l-104 -488c-30 -141 -108 -217 -253 -217c-99 0 -175 40 -184 144l52 13c6 -78 65 -106 130 -106c118 0 183 63 206 169l102 485h51z" />
    <glyph glyph-name="K" unicode="K" horiz-adv-x="564" 
d="M613 698l-385 -356l132 -201c35 -53 73 -90 140 -90l-12 -51c-75 0 -133 54 -171 113l-152 236l-74 -349h-51l148 698h51l-74 -348l381 348h67z" />
    <glyph glyph-name="L" unicode="L" horiz-adv-x="503" 
d="M444 48l-11 -48h-393v0v0l148 698h51l-138 -650h343z" />
    <glyph glyph-name="M" unicode="M" horiz-adv-x="738" 
d="M756 698l-148 -698h-51l120 562l-330 -562h-47l-90 560l-119 -560h-51l148 698h49v0l99 -628l369 628h1h50z" />
    <glyph glyph-name="N" unicode="N" horiz-adv-x="640" 
d="M659 698l-149 -698h-44l-245 610l-130 -610h-51l148 698h45l245 -610l130 610h51z" />
    <glyph glyph-name="O" unicode="O" horiz-adv-x="646" 
d="M635 467c0 -213 -111 -476 -358 -476c-150 0 -207 104 -207 240c0 213 112 476 359 476c149 0 206 -104 206 -240zM584 465c0 111 -40 191 -163 191c-216 0 -300 -243 -300 -423c0 -111 40 -191 162 -191c214 0 301 244 301 423z" />
    <glyph glyph-name="P" unicode="P" horiz-adv-x="609" 
d="M632 560c0 -18 -1 -35 -5 -53c-29 -139 -130 -191 -268 -191h-201l-67 -316h-51l149 699h241c94 0 202 -26 202 -139zM581 548c0 88 -81 100 -151 100h-202l-60 -283h181c124 0 232 51 232 183z" />
    <glyph glyph-name="Q" unicode="Q" horiz-adv-x="650" 
d="M641 481c0 -149 -58 -345 -185 -434c31 -28 71 -43 112 -47v-51c-59 4 -115 29 -157 71c-38 -19 -80 -29 -123 -29c-135 0 -210 97 -210 227c0 205 108 489 351 489c135 0 212 -96 212 -226zM589 480c0 101 -53 176 -160 176c-213 0 -300 -262 -300 -438
c0 -100 53 -176 159 -176c30 0 60 6 88 18l-78 95h66c19 -24 37 -49 58 -71c117 84 167 259 167 396z" />
    <glyph glyph-name="R" unicode="R" horiz-adv-x="593" 
d="M604 546c0 -154 -98 -219 -239 -225c81 -56 60 -271 199 -271l-10 -50c-202 0 -139 321 -287 321h-108l-68 -321h-51l148 698h220c105 0 196 -29 196 -152zM555 545c0 93 -85 103 -158 103h-169l-59 -282h169c113 0 217 37 217 179z" />
    <glyph glyph-name="S" unicode="S" horiz-adv-x="529" 
d="M544 574l-48 -20c-22 63 -70 98 -137 98c-88 0 -179 -48 -179 -147c0 -144 311 -98 311 -298c0 -133 -116 -214 -241 -214c-120 0 -197 61 -215 181l52 16c14 -89 71 -147 163 -147c94 0 185 61 185 163c0 163 -310 105 -310 296c0 130 117 200 236 200
c88 0 152 -47 183 -128z" />
    <glyph glyph-name="T" unicode="T" horiz-adv-x="534" 
d="M586 698l-10 -50h-212l-138 -648h-50l137 648h-211l10 50h474z" />
    <glyph glyph-name="U" unicode="U" horiz-adv-x="629" 
d="M658 698l-85 -397c-36 -172 -99 -308 -298 -308c-125 0 -195 71 -195 196c0 37 5 75 13 112l85 397h50l-84 -397c-8 -36 -13 -72 -13 -109c0 -95 42 -151 145 -151c165 0 216 120 246 260l84 397h52z" />
    <glyph glyph-name="V" unicode="V" horiz-adv-x="572" 
d="M650 698l-382 -698h-54l-86 698h51l77 -615l338 615h56z" />
    <glyph glyph-name="W" unicode="W" horiz-adv-x="775" 
d="M843 698l-312 -698h-51l-13 587l-262 -587h-52l-15 698h50l13 -587l262 587h52l12 -587l262 587h54z" />
    <glyph glyph-name="X" unicode="X" horiz-adv-x="587" 
d="M638 698l-285 -338l156 -360h-60l-134 315l-264 -315h-61l305 364l-143 334h55l125 -289l241 289h65z" />
    <glyph glyph-name="Y" unicode="Y" horiz-adv-x="575" 
d="M644 698l-327 -468l-49 -230h-51l50 232l-129 466h53l111 -403l281 403h61z" />
    <glyph glyph-name="Z" unicode="Z" horiz-adv-x="591" 
d="M625 698l-11 -50l-522 -595c23 3 45 6 68 6c65 0 128 -20 193 -20c38 0 78 4 114 17l18 -47c-42 -16 -88 -20 -132 -20c-65 0 -128 19 -193 19c-41 0 -83 0 -122 -14l-19 49l534 605h-364l11 50h425z" />
    <glyph glyph-name="bracketleft" unicode="[" horiz-adv-x="300" 
d="M360 774l-9 -41h-99l-163 -768h99l-9 -41h-149l181 850h149z" />
    <glyph glyph-name="backslash" unicode="\" horiz-adv-x="322" 
d="M282 -76h-53l-129 850h54z" />
    <glyph glyph-name="bracketright" unicode="]" horiz-adv-x="300" 
d="M320 774l-181 -850h-149l9 41h98l164 768h-99l9 41h149z" />
    <glyph glyph-name="asciicircum" unicode="^" horiz-adv-x="533" 
d="M503 403l-44 -25l-102 272l-217 -272l-40 25l236 295h57z" />
    <glyph glyph-name="underscore" unicode="_" horiz-adv-x="480" 
d="M430 -91l-11 -49h-499l10 49h500z" />
    <glyph glyph-name="grave" unicode="`" horiz-adv-x="241" 
d="M241 545h-57l-64 146h67z" />
    <glyph glyph-name="a" unicode="a" horiz-adv-x="472" 
d="M457 448l-86 -405l3 -36l-47 -14l-4 53l30 142c-33 -73 -102 -196 -198 -196c-85 0 -105 92 -105 159c0 148 119 332 280 332c47 0 86 -13 127 -35zM403 424c-23 10 -47 15 -72 15c-133 0 -233 -170 -233 -290c0 -36 8 -108 57 -108c128 0 231 279 248 383z" />
    <glyph glyph-name="b" unicode="b" 
d="M456 325c0 -148 -119 -333 -280 -333c-47 0 -84 13 -126 36l143 670h48l-88 -410c33 73 108 195 199 195c84 0 104 -90 104 -158zM408 326c0 37 -8 109 -57 109c-36 0 -70 -25 -94 -50c-75 -77 -106 -175 -137 -275c-6 -19 -14 -38 -17 -58c23 -10 48 -15 73 -15
c132 0 232 170 232 289z" />
    <glyph glyph-name="c" unicode="c" horiz-adv-x="414" 
d="M424 405l-42 -24c-23 39 -42 54 -88 54c-134 0 -196 -164 -196 -276c0 -68 27 -119 102 -119c54 0 83 22 120 59l34 -35c-47 -46 -87 -72 -154 -72c-103 0 -150 71 -150 167c0 141 81 324 244 324c64 0 98 -23 130 -78z" />
    <glyph glyph-name="d" unicode="d" horiz-adv-x="474" 
d="M499 698l-138 -651l4 -40l-49 -14l-5 47s29 135 32 148c-33 -73 -102 -196 -198 -196c-85 0 -105 91 -105 159c0 148 119 332 280 332c28 0 56 -4 82 -15l49 230h48zM393 424c-23 10 -47 15 -72 15c-133 0 -233 -170 -233 -290c0 -36 8 -108 57 -108
c127 0 232 279 248 383z" />
    <glyph glyph-name="e" unicode="e" horiz-adv-x="438" 
d="M433 383c0 -121 -234 -151 -322 -153c-5 -23 -8 -47 -8 -71c0 -68 26 -119 102 -119c54 0 83 22 120 59l34 -35c-47 -46 -87 -72 -154 -72c-103 0 -150 71 -150 167c0 141 81 324 244 324c60 0 134 -30 134 -100zM385 381c0 43 -52 54 -86 54c-97 0 -155 -86 -179 -171
c61 3 265 33 265 117z" />
    <glyph glyph-name="f" unicode="f" horiz-adv-x="288" 
d="M363 698l-10 -48c-110 0 -137 -82 -156 -172h103l-10 -48h-103l-97 -454c-24 -112 -85 -199 -210 -199l10 48c97 0 134 67 152 151l96 454h-48l11 48h48c25 119 75 220 214 220z" />
    <glyph glyph-name="g" unicode="g" horiz-adv-x="494" 
d="M464 448l-100 -474c-23 -110 -84 -194 -207 -194c-39 0 -77 9 -112 27l22 43c28 -15 60 -25 91 -25c99 0 140 73 159 159l43 204c-33 -73 -108 -196 -198 -196c-85 0 -105 91 -105 159c0 148 120 332 280 332c48 0 86 -13 127 -35zM410 424c-22 10 -47 15 -72 15
c-133 0 -233 -170 -233 -290c0 -36 8 -108 57 -108c127 0 232 279 248 383z" />
    <glyph glyph-name="h" unicode="h" horiz-adv-x="506" 
d="M466 361c0 -23 -4 -46 -9 -69l-62 -292h-49l64 302c5 19 8 39 8 60c0 42 -13 73 -60 73c-36 0 -71 -25 -95 -50c-75 -78 -106 -174 -137 -275c-11 -36 -20 -73 -27 -110h-49l148 697h50l-87 -409c33 75 100 195 197 195c75 0 108 -52 108 -122z" />
    <glyph glyph-name="i" unicode="i" horiz-adv-x="237" 
d="M252 670c0 -23 -22 -44 -45 -44c-17 0 -29 12 -29 29c0 22 22 43 45 43c16 0 29 -11 29 -28zM200 478l-102 -478h-48l102 478h48z" />
    <glyph glyph-name="j" unicode="j" horiz-adv-x="273" 
d="M288 670c0 -23 -22 -44 -44 -44c-17 0 -30 12 -30 29c0 22 22 43 45 43c17 0 29 -11 29 -28zM236 478l-106 -499c-10 -47 -25 -93 -57 -130c-38 -45 -94 -69 -153 -69l10 48c97 0 134 67 152 151l106 499h48z" />
    <glyph glyph-name="k" unicode="k" horiz-adv-x="442" 
d="M447 478l-236 -224l84 -129c24 -38 59 -77 108 -77v-48c-68 0 -113 46 -149 99c-35 51 -67 105 -101 157l-55 -256h-48l148 698h49l-94 -440l231 220h63z" />
    <glyph glyph-name="l" unicode="l" horiz-adv-x="218" 
d="M233 698l-125 -586c-2 -10 -4 -20 -4 -29c0 -25 15 -35 38 -35l-10 -48c-46 0 -77 25 -77 73c0 13 2 26 5 39l125 586h48z" />
    <glyph glyph-name="m" unicode="m" horiz-adv-x="784" 
d="M749 371c0 -27 -4 -53 -10 -79l-62 -292h-49l64 302c5 22 9 46 9 69c0 41 -13 64 -56 64c-36 0 -71 -25 -95 -50c-71 -73 -108 -167 -134 -264c-10 -40 -17 -81 -26 -121h-49l64 302c5 22 9 46 9 69c0 41 -13 64 -56 64c-36 0 -71 -25 -95 -50
c-100 -103 -136 -248 -164 -385h-49l102 478h49l-38 -182c19 44 45 83 76 120s69 67 119 67c71 0 104 -45 104 -112c0 -22 -3 -44 -7 -65c34 70 102 177 190 177c70 0 104 -45 104 -112z" />
    <glyph glyph-name="n" unicode="n" horiz-adv-x="491" 
d="M456 361c0 -23 -4 -46 -9 -69l-62 -292h-49l64 302c5 19 8 39 8 60c0 42 -13 73 -60 73c-36 0 -71 -25 -95 -50c-104 -108 -129 -244 -164 -385h-49l102 478h49l-40 -190c33 75 104 195 197 195c75 0 108 -52 108 -122z" />
    <glyph glyph-name="o" unicode="o" horiz-adv-x="467" 
d="M442 338c0 -34 -6 -67 -13 -101c-27 -126 -90 -246 -236 -246c-92 0 -143 55 -143 146c0 34 6 67 13 100c27 127 89 247 235 247c92 0 144 -55 144 -146zM392 328c0 68 -34 108 -104 108c-117 0 -156 -101 -177 -199c-6 -29 -12 -59 -12 -90c0 -68 35 -108 105 -108
c116 0 156 101 177 198c6 30 11 60 11 91z" />
    <glyph glyph-name="p" unicode="p" horiz-adv-x="486" 
d="M456 325c0 -148 -119 -333 -280 -333c-28 0 -56 5 -82 15l-46 -215h-48l146 686h48l-41 -185c33 73 108 190 199 190c84 0 104 -90 104 -158zM408 327c0 36 -7 108 -57 108c-127 0 -232 -279 -248 -383c23 -10 48 -15 72 -15c133 0 233 170 233 290z" />
    <glyph glyph-name="q" unicode="q" horiz-adv-x="486" 
d="M456 448l-139 -656h-48l84 396c-33 -73 -108 -196 -198 -196c-85 0 -105 91 -105 159c0 147 119 332 280 332c48 0 85 -13 126 -35zM403 423c-23 11 -47 16 -72 16c-133 0 -233 -171 -233 -290c0 -36 8 -109 57 -109c121 0 232 280 248 383z" />
    <glyph glyph-name="r" unicode="r" horiz-adv-x="386" 
d="M401 472l-11 -52c-12 11 -26 15 -42 15c-147 0 -238 -323 -259 -435h-49l102 478h49l-40 -190c33 75 104 195 197 195c18 0 37 -3 53 -11z" />
    <glyph glyph-name="s" unicode="s" horiz-adv-x="402" 
d="M387 389l-45 -18c-16 40 -35 64 -80 64c-57 0 -108 -30 -108 -92c0 -89 197 -60 197 -201c0 -93 -80 -151 -168 -151c-86 0 -130 53 -143 134l48 13c9 -58 32 -99 95 -99c61 0 119 37 119 103c0 103 -196 65 -196 201c0 89 73 140 156 140c65 0 102 -36 125 -94z" />
    <glyph glyph-name="t" unicode="t" horiz-adv-x="285" 
d="M295 478l-8 -38h-79l-70 -328c-2 -10 -4 -20 -4 -29c0 -37 30 -35 57 -35l-10 -48h-19c-45 0 -77 25 -77 73c0 13 2 26 5 39l70 328h-69l8 38h69l31 148h49l-32 -148h79z" />
    <glyph glyph-name="u" unicode="u" 
d="M476 478l-102 -478h-50l41 190c-34 -75 -104 -195 -198 -195c-75 0 -107 53 -107 122c0 24 3 47 8 70l62 291h50l-65 -301c-4 -20 -7 -40 -7 -60c0 -42 12 -74 60 -74c36 0 70 25 94 50c105 108 130 245 164 385h50z" />
    <glyph glyph-name="v" unicode="v" horiz-adv-x="463" 
d="M488 478l-280 -478h-52l-76 478h49l66 -409l240 409h53z" />
    <glyph glyph-name="w" unicode="w" horiz-adv-x="761" 
d="M776 478l-253 -478h-51l-58 405l-231 -405h-51l-47 478h49l40 -402l229 402h50l58 -402l213 402h52z" />
    <glyph glyph-name="x" unicode="x" horiz-adv-x="442" 
d="M467 478l-210 -234l116 -244h-56l-96 204l-183 -204h-61l223 249l-108 229h55l89 -189l170 189h61z" />
    <glyph glyph-name="y" unicode="y" horiz-adv-x="466" 
d="M494 478l-351 -600c-34 -57 -85 -99 -154 -98h-19l11 48h19c78 0 110 87 143 143c14 24 23 40 23 69c0 15 -2 30 -5 45l-63 393h51l63 -389l228 389h54z" />
    <glyph glyph-name="z" unicode="z" horiz-adv-x="472" 
d="M477 478l-11 -49l-376 -374c13 1 26 2 39 2c52 0 101 -21 153 -21c30 0 67 5 94 17l17 -42c-34 -16 -73 -20 -111 -20c-52 0 -101 20 -153 20c-30 0 -62 -4 -90 -17l-23 46l390 390h-262l11 48h322z" />
    <glyph glyph-name="braceleft" unicode="{" horiz-adv-x="334" 
d="M395 759l-9 -41c-91 0 -122 -59 -136 -140c-5 -33 0 -67 -6 -100c-11 -56 -46 -114 -105 -129c41 -10 56 -51 56 -91c0 -72 -54 -129 -54 -201c0 -56 37 -77 88 -77l-8 -41c-75 0 -128 28 -128 110c0 19 2 38 6 57c13 56 47 94 47 155c0 49 -29 69 -76 69l8 39
c69 -1 104 48 117 110c8 35 3 72 9 107c19 113 72 173 191 173z" />
    <glyph glyph-name="bar" unicode="|" horiz-adv-x="251" 
d="M271 774l-180 -850h-51l181 850h50z" />
    <glyph glyph-name="braceright" unicode="}" horiz-adv-x="334" 
d="M312 369l-8 -39c-70 0 -104 -44 -117 -108c-8 -38 -2 -78 -10 -116c-22 -105 -78 -167 -190 -167l9 41c84 0 121 62 136 137c4 23 2 46 2 69c0 66 40 147 110 163c-42 12 -56 52 -56 91c0 71 52 122 52 205c0 56 -36 73 -87 73l8 41c77 0 125 -29 125 -110
c0 -21 -3 -42 -7 -63c-11 -52 -44 -96 -44 -152c0 -49 31 -66 77 -65z" />
    <glyph glyph-name="asciitilde" unicode="~" horiz-adv-x="478" 
d="M458 295c-36 -29 -66 -47 -113 -47c-70 0 -129 45 -197 45c-31 0 -48 -12 -72 -30l-26 31c36 28 65 46 113 46c69 0 128 -44 196 -44c32 0 49 12 73 30z" />
    <glyph glyph-name="Adieresis" unicode="&#xc4;" horiz-adv-x="653" 
d="M588 827c0 -27 -26 -52 -53 -52c-20 0 -35 14 -35 34c0 28 26 53 53 53c20 0 35 -14 35 -35zM381 827c0 -27 -26 -52 -53 -52c-20 0 -35 14 -35 34c0 28 26 53 53 53c20 0 35 -14 35 -35zM572 0h-54l-36 213h-326l-127 -213h-54l415 698h64zM473 261l-64 379l-224 -379
h288z" />
    <glyph glyph-name="Aring" unicode="&#xc5;" horiz-adv-x="641" 
d="M576 885c0 -73 -72 -140 -144 -140c-54 0 -95 37 -95 92c0 73 71 141 144 141c54 0 95 -38 95 -93zM572 0h-54l-36 213h-326l-127 -213h-54l415 698h64zM526 875c0 32 -23 54 -55 54c-43 0 -84 -39 -84 -82c0 -32 23 -54 55 -54c43 0 84 39 84 82zM473 261l-64 379
l-224 -379h288z" />
    <glyph glyph-name="Ccedilla" unicode="&#xc7;" horiz-adv-x="588" 
d="M610 596l-43 -26c-37 63 -68 86 -142 86c-208 0 -305 -250 -305 -425c0 -108 45 -189 164 -189c84 0 129 34 187 91l36 -36c-58 -58 -115 -99 -199 -105l14 -63l-91 -125h-66l109 129l-13 59c-136 11 -191 114 -191 240c0 205 116 475 355 475c92 0 140 -33 185 -111z
" />
    <glyph glyph-name="Eacute" unicode="&#xc9;" horiz-adv-x="574" 
d="M579 921l-126 -146h-57l116 146h67zM612 698l-10 -50h-374l-55 -262h325l-10 -48h-325l-62 -288h374l-11 -50h-424v0l148 698h424z" />
    <glyph glyph-name="Ntilde" unicode="&#xd1;" horiz-adv-x="640" 
d="M591 818c-26 -27 -52 -49 -92 -49c-56 0 -93 43 -136 43c-24 0 -37 -15 -52 -31l-31 30c27 27 53 49 92 49c57 0 93 -43 136 -43c24 0 37 16 52 31zM659 698l-149 -698h-54l-236 607l-129 -607h-51l148 698h55l236 -607l129 607h51z" />
    <glyph glyph-name="Odieresis" unicode="&#xd6;" horiz-adv-x="646" 
d="M602 827c0 -27 -27 -52 -54 -52c-20 0 -35 14 -35 34c0 28 26 53 54 53c20 0 35 -14 35 -35zM395 827c0 -27 -27 -52 -54 -52c-20 0 -35 14 -35 34c0 28 26 53 53 53c20 0 36 -14 36 -35zM635 467c0 -213 -111 -476 -358 -476c-149 0 -207 104 -207 240
c0 213 112 476 359 476c149 0 206 -104 206 -240zM584 465c0 111 -40 191 -163 191c-215 0 -300 -243 -300 -423c0 -111 40 -191 162 -191c213 0 301 244 301 423z" />
    <glyph glyph-name="Udieresis" unicode="&#xdc;" horiz-adv-x="629" 
d="M595 827c0 -27 -26 -52 -53 -52c-20 0 -35 14 -35 34c0 28 26 53 53 53c20 0 35 -14 35 -35zM388 827c0 -27 -26 -52 -53 -52c-20 0 -36 14 -36 34c0 28 27 53 54 53c20 0 35 -14 35 -35zM658 698l-85 -397c-36 -172 -99 -308 -298 -308c-125 0 -195 71 -195 196
c0 37 5 75 13 112l85 397h50l-84 -397c-8 -36 -13 -72 -13 -109c0 -95 42 -151 145 -151c165 0 216 119 246 260l84 397h52z" />
    <glyph glyph-name="aacute" unicode="&#xe1;" horiz-adv-x="477" 
d="M470 691l-126 -146h-52l112 146h66zM457 448l-86 -405l3 -36l-47 -14l-4 53l30 142c-33 -73 -102 -196 -198 -196c-85 0 -105 92 -105 159c0 148 119 332 280 332c47 0 86 -13 127 -35zM403 424c-23 10 -47 15 -72 15c-133 0 -233 -170 -233 -290c0 -36 8 -108 57 -108
c128 0 231 279 248 383z" />
    <glyph glyph-name="agrave" unicode="&#xe0;" horiz-adv-x="472" 
d="M387 545h-57l-64 146h67zM457 448l-86 -405l3 -36l-47 -14l-4 53l30 142c-33 -73 -102 -196 -198 -196c-85 0 -105 92 -105 159c0 148 119 332 280 332c47 0 86 -13 127 -35zM403 424c-23 10 -47 15 -72 15c-133 0 -233 -170 -233 -290c0 -36 8 -108 57 -108
c128 0 231 279 248 383z" />
    <glyph glyph-name="acircumflex" unicode="&#xe2;" horiz-adv-x="474" 
d="M459 533h-60l-47 122l-95 -122h-67l125 146h80zM457 448l-86 -405l3 -36l-47 -14l-4 53l30 142c-33 -73 -102 -196 -198 -196c-85 0 -105 92 -105 159c0 148 119 332 280 332c47 0 86 -13 127 -35zM403 424c-23 10 -47 15 -72 15c-133 0 -233 -170 -233 -290
c0 -36 8 -108 57 -108c128 0 231 279 248 383z" />
    <glyph glyph-name="adieresis" unicode="&#xe4;" horiz-adv-x="487" 
d="M486 595c0 -28 -26 -53 -54 -53c-20 0 -35 14 -35 34c0 28 27 53 54 53c20 0 35 -14 35 -34zM279 595c0 -28 -27 -53 -54 -53c-20 0 -35 14 -35 34c0 28 26 53 54 53c20 0 35 -14 35 -34zM457 448l-86 -405l3 -36l-47 -14l-4 53l30 142c-33 -73 -102 -196 -198 -196
c-85 0 -105 92 -105 159c0 148 119 332 280 332c47 0 86 -13 127 -35zM403 424c-23 10 -47 15 -72 15c-133 0 -233 -170 -233 -290c0 -36 8 -108 57 -108c128 0 231 279 248 383z" />
    <glyph glyph-name="atilde" unicode="&#xe3;" horiz-adv-x="483" 
d="M490 595c-26 -27 -52 -49 -92 -49c-57 0 -93 43 -136 43c-24 0 -37 -16 -52 -31l-31 30c26 27 52 49 92 49c57 0 93 -43 136 -43c24 0 37 15 52 31zM457 448l-86 -405l3 -36l-47 -14l-4 53l30 142c-33 -73 -102 -196 -198 -196c-85 0 -105 92 -105 159
c0 148 119 332 280 332c47 0 86 -13 127 -35zM403 424c-23 10 -47 15 -72 15c-133 0 -233 -170 -233 -290c0 -36 8 -108 57 -108c128 0 231 279 248 383z" />
    <glyph glyph-name="aring" unicode="&#xe5;" horiz-adv-x="496" 
d="M491 673c0 -73 -71 -141 -144 -141c-54 0 -94 38 -94 93c0 73 71 140 144 140c54 0 94 -37 94 -92zM457 448l-86 -405l3 -36l-47 -14l-4 53l30 142c-33 -73 -102 -196 -198 -196c-83 0 -105 83 -105 159c0 148 119 332 280 332c47 0 86 -13 127 -35zM442 663
c0 32 -24 54 -55 54c-43 0 -85 -39 -85 -82c0 -32 24 -54 56 -54c42 0 84 39 84 82zM403 424c-23 10 -47 15 -72 15c-133 0 -233 -170 -233 -290c0 -36 8 -108 57 -108c128 0 231 279 248 383z" />
    <glyph glyph-name="ccedilla" unicode="&#xe7;" horiz-adv-x="414" 
d="M424 407l-42 -24c-23 40 -46 54 -88 54c-134 0 -196 -164 -196 -276c0 -68 26 -119 102 -119c54 0 83 22 120 59l34 -35c-45 -44 -83 -71 -148 -72l14 -65l-91 -125h-66l109 129l-14 65c-79 19 -108 88 -108 163c0 138 82 324 244 324c64 0 98 -23 130 -78z" />
    <glyph glyph-name="eacute" unicode="&#xe9;" horiz-adv-x="438" 
d="M419 691l-125 -146h-57l116 146h66zM433 383c0 -121 -235 -151 -322 -153c-5 -23 -8 -47 -8 -71c0 -68 27 -119 102 -119c53 0 84 22 120 59l34 -35c-46 -46 -87 -72 -154 -72c-102 0 -150 68 -150 164c0 141 80 327 244 327c59 0 134 -30 134 -100zM385 381
c0 43 -52 54 -86 54c-97 0 -155 -87 -179 -171c61 3 265 32 265 117z" />
    <glyph glyph-name="egrave" unicode="&#xe8;" horiz-adv-x="438" 
d="M351 545h-57l-64 146h67zM433 383c0 -121 -235 -151 -322 -153c-5 -23 -8 -47 -8 -71c0 -68 27 -119 102 -119c53 0 84 22 120 59l34 -35c-46 -46 -87 -72 -154 -72c-102 0 -150 68 -150 164c0 141 80 327 244 327c59 0 134 -30 134 -100zM385 381c0 43 -52 54 -86 54
c-97 0 -155 -87 -179 -171c61 3 265 32 265 117z" />
    <glyph glyph-name="ecircumflex" unicode="&#xea;" horiz-adv-x="444" 
d="M439 533h-60l-48 122l-95 -122h-67l126 146h80zM433 383c0 -121 -235 -151 -322 -153c-5 -23 -8 -47 -8 -71c0 -68 27 -119 102 -119c53 0 84 22 120 59l34 -35c-46 -46 -87 -72 -154 -72c-102 0 -150 68 -150 164c0 141 80 327 244 327c59 0 134 -30 134 -100zM385 381
c0 43 -52 54 -86 54c-97 0 -155 -87 -179 -171c61 3 265 32 265 117z" />
    <glyph glyph-name="edieresis" unicode="&#xeb;" horiz-adv-x="445" 
d="M468 595c0 -28 -26 -53 -54 -53c-20 0 -35 14 -35 34c0 28 26 53 54 53c20 0 35 -14 35 -34zM261 595c0 -28 -27 -53 -54 -53c-20 0 -35 14 -35 34c0 28 26 53 54 53c19 0 35 -14 35 -34zM433 383c0 -121 -235 -151 -322 -153c-5 -23 -8 -47 -8 -71
c0 -68 27 -119 102 -119c53 0 84 22 120 59l34 -35c-46 -46 -87 -72 -154 -72c-102 0 -150 68 -150 164c0 141 80 327 244 327c59 0 134 -30 134 -100zM385 381c0 43 -52 54 -86 54c-97 0 -155 -87 -179 -171c61 3 265 32 265 117z" />
    <glyph glyph-name="iacute" unicode="&#xed;" horiz-adv-x="239" 
d="M318 691l-126 -146h-57l116 146h67zM200 478l-102 -478h-48l102 478h48z" />
    <glyph glyph-name="igrave" unicode="&#xec;" horiz-adv-x="222" 
d="M237 545h-57l-64 146h67zM200 478l-102 -478h-48l102 478h48z" />
    <glyph glyph-name="icircumflex" unicode="&#xee;" horiz-adv-x="227" 
d="M316 533h-60l-45 122l-98 -122h-61l126 146h74zM200 478l-102 -478h-48l102 478h48z" />
    <glyph glyph-name="idieresis" unicode="&#xef;" horiz-adv-x="227" 
d="M342 595c0 -28 -26 -53 -54 -53c-20 0 -35 14 -35 34c0 28 26 53 54 53c20 0 35 -14 35 -34zM145 595c0 -28 -27 -53 -54 -53c-20 0 -35 14 -35 34c0 28 26 53 54 53c19 0 35 -14 35 -34zM200 478l-102 -478h-48l102 478h48z" />
    <glyph glyph-name="ntilde" unicode="&#xf1;" horiz-adv-x="491" 
d="M486 595c-26 -27 -53 -49 -92 -49c-57 0 -86 44 -129 44c-24 0 -44 -17 -59 -32l-31 30c26 27 52 49 92 49c57 0 87 -44 130 -44c24 0 43 17 58 32zM447 292l-62 -292h-49l64 302c15 70 4 102 -7 116c-10 12 -24 17 -45 17c-40 0 -77 -31 -95 -50
c-78 -80 -115 -187 -137 -275l-27 -110h-49l102 478h49l-40 -190c19 44 44 87 78 128c22 26 61 68 119 67c36 0 63 -12 82 -35c26 -32 33 -85 17 -156z" />
    <glyph glyph-name="oacute" unicode="&#xf3;" horiz-adv-x="466" 
d="M420 691l-126 -146h-57l116 146h67zM441 338c0 -34 -6 -67 -13 -101c-27 -126 -82 -246 -228 -246c-88 0 -150 55 -150 146c0 34 5 67 12 100c27 127 89 247 235 247c92 0 144 -55 144 -146zM391 328c0 68 -34 108 -104 108c-117 0 -156 -101 -177 -199
c-6 -29 -12 -62 -12 -93c0 -68 35 -105 105 -105c116 0 156 101 177 198c6 30 11 60 11 91z" />
    <glyph glyph-name="ograve" unicode="&#xf2;" horiz-adv-x="466" 
d="M370 545h-57l-64 146h67zM441 338c0 -34 -6 -67 -13 -101c-27 -126 -82 -246 -228 -246c-88 0 -150 55 -150 146c0 34 5 67 12 100c27 127 89 247 235 247c92 0 144 -55 144 -146zM391 328c0 68 -34 108 -104 108c-117 0 -156 -101 -177 -199c-6 -29 -12 -62 -12 -93
c0 -68 35 -105 105 -105c116 0 156 101 177 198c6 30 11 60 11 91z" />
    <glyph glyph-name="ocircumflex" unicode="&#xf4;" horiz-adv-x="470" 
d="M445 533h-60l-46 122l-97 -122h-63l126 146h76zM441 338c0 -34 -6 -67 -13 -101c-27 -126 -82 -246 -228 -246c-88 0 -150 55 -150 146c0 34 5 67 12 100c27 127 89 247 235 247c92 0 144 -55 144 -146zM391 328c0 68 -34 108 -104 108c-117 0 -156 -101 -177 -199
c-6 -29 -12 -62 -12 -93c0 -68 35 -105 105 -105c116 0 156 101 177 198c6 30 11 60 11 91z" />
    <glyph glyph-name="odieresis" unicode="&#xf6;" horiz-adv-x="472" 
d="M471 595c0 -28 -25 -53 -53 -53c-19 0 -35 14 -35 34c0 27 25 53 53 53c19 0 35 -14 35 -34zM264 595c0 -28 -25 -53 -53 -53c-19 0 -35 14 -35 34c0 27 25 53 53 53c19 0 35 -14 35 -34zM441 338c0 -34 -6 -67 -13 -101c-27 -126 -82 -246 -228 -246
c-88 0 -150 55 -150 146c0 34 5 67 12 100c27 127 89 247 235 247c92 0 144 -55 144 -146zM391 328c0 68 -34 108 -104 108c-117 0 -156 -101 -177 -199c-6 -29 -12 -62 -12 -93c0 -68 35 -105 105 -105c116 0 156 101 177 198c6 30 11 60 11 91z" />
    <glyph glyph-name="otilde" unicode="&#xf5;" horiz-adv-x="475" 
d="M466 595c-26 -27 -53 -49 -92 -49c-57 0 -93 43 -136 43c-23 0 -37 -16 -52 -31l-31 30c26 26 53 49 92 49c57 0 93 -43 136 -43c23 0 37 16 52 31zM441 338c0 -34 -6 -67 -13 -101c-27 -126 -82 -246 -228 -246c-88 0 -150 55 -150 146c0 34 5 67 12 100
c27 127 89 247 235 247c92 0 144 -55 144 -146zM391 328c0 68 -34 108 -104 108c-117 0 -156 -101 -177 -199c-6 -29 -12 -62 -12 -93c0 -68 35 -105 105 -105c116 0 156 101 177 198c6 30 11 60 11 91z" />
    <glyph glyph-name="uacute" unicode="&#xfa;" 
d="M426 691l-126 -146h-57l116 146h67zM476 478l-102 -478h-50l41 190c-19 -43 -44 -87 -79 -127c-22 -26 -61 -68 -119 -68c-35 0 -63 12 -82 35c-26 33 -32 85 -17 157l62 291h50l-65 -301c-15 -70 -4 -102 8 -116c9 -12 24 -18 45 -18c40 0 76 31 94 50
c79 80 116 187 137 275l27 110h50z" />
    <glyph glyph-name="ugrave" unicode="&#xf9;" 
d="M376 545h-47l-74 146h67zM476 478l-102 -478h-50l41 190c-19 -43 -44 -87 -79 -127c-22 -26 -61 -68 -119 -68c-35 0 -63 12 -82 35c-26 33 -32 85 -17 157l62 291h50l-65 -301c-15 -70 -4 -102 8 -116c9 -12 24 -18 45 -18c40 0 76 31 94 50c79 80 116 187 137 275
l27 110h50z" />
    <glyph glyph-name="ucircumflex" unicode="&#xfb;" 
d="M451 533h-60l-46 122l-97 -122h-61l126 146h74zM476 478l-102 -478h-50l41 190c-19 -43 -44 -87 -79 -127c-22 -26 -61 -68 -119 -68c-35 0 -63 12 -82 35c-26 33 -32 85 -17 157l62 291h50l-65 -301c-15 -70 -4 -102 8 -116c9 -12 24 -18 45 -18c40 0 76 31 94 50
c79 80 116 187 137 275l27 110h50z" />
    <glyph glyph-name="udieresis" unicode="&#xfc;" horiz-adv-x="482" 
d="M477 595c0 -28 -26 -53 -53 -53c-20 0 -35 14 -35 34c0 28 26 53 53 53c20 0 35 -14 35 -34zM270 595c0 -28 -26 -53 -53 -53c-20 0 -36 14 -36 34c0 28 27 53 54 53c20 0 35 -14 35 -34zM476 478l-102 -478h-50l41 190c-19 -43 -44 -87 -79 -127
c-22 -26 -61 -68 -119 -68c-35 0 -63 12 -82 35c-26 33 -32 85 -17 157l62 291h50l-65 -301c-15 -70 -4 -102 8 -116c9 -12 24 -18 45 -18c40 0 76 31 94 50c79 80 116 187 137 275l27 110h50z" />
    <glyph glyph-name="dagger" unicode="&#x2020;" horiz-adv-x="460" 
d="M480 478l-11 -50h-170l-91 -428h-49l91 428h-170l10 50h170l47 220h49l-46 -220h170z" />
    <glyph glyph-name="degree" unicode="&#xb0;" horiz-adv-x="295" 
d="M313 661c-11 -50 -60 -91 -110 -91s-82 41 -71 91s60 90 110 90c49 0 81 -40 71 -90zM274 661c6 28 -12 52 -41 52c-28 0 -56 -24 -62 -52c-6 -29 12 -52 40 -52c29 0 57 23 63 52z" />
    <glyph glyph-name="cent" unicode="&#xa2;" horiz-adv-x="484" 
d="M474 414l-41 -26c-19 30 -55 43 -89 46l-165 -389c15 -4 31 -6 47 -6c51 0 104 17 141 53l34 -36c-46 -44 -112 -66 -175 -66c-23 0 -45 3 -67 9l-36 -85l-36 8l38 91c-54 29 -75 78 -75 138c0 31 5 61 12 92c30 140 103 245 259 242h5l34 79l36 -8l-32 -75
c44 -8 86 -29 110 -67zM305 435c-124 -8 -172 -92 -195 -203c-6 -26 -11 -54 -11 -81c0 -39 10 -73 46 -93z" />
    <glyph glyph-name="sterling" unicode="&#xa3;" horiz-adv-x="529" 
d="M529 613l-42 -28c-33 52 -66 66 -127 66c-118 0 -169 -103 -177 -207c-2 -23 -2 -47 -3 -70h127l-20 -48h-107c-1 -107 -17 -175 -71 -269c20 3 40 4 61 4c61 0 121 -19 183 -19c36 0 78 4 112 16l18 -47c-40 -15 -88 -19 -130 -19c-62 0 -122 18 -183 18
c-37 0 -78 -3 -112 -16l-18 47c67 101 88 166 89 285h-73l21 48h53c0 24 1 49 2 73c11 132 82 255 228 255c78 0 127 -24 169 -89z" />
    <glyph glyph-name="section" unicode="&#xa7;" horiz-adv-x="517" 
d="M507 554l-47 -16c-17 51 -44 106 -104 106c-85 0 -156 -76 -156 -160c0 -109 248 -49 248 -227c0 -69 -38 -142 -94 -181c15 -19 21 -43 21 -67c0 -110 -93 -209 -204 -209c-85 0 -127 67 -151 140l47 15c16 -51 43 -105 104 -105c85 0 155 75 155 160
c0 109 -247 49 -247 227c0 68 37 142 94 181c-15 19 -22 43 -22 67c0 110 94 208 205 208c84 0 127 -67 151 -139zM399 258c0 93 -124 93 -186 127c-51 -29 -86 -90 -86 -149c0 -94 125 -93 187 -127c51 28 85 90 85 149z" />
    <glyph glyph-name="bullet" unicode="&#x2022;" horiz-adv-x="424" 
d="M381 338c0 -81 -66 -147 -148 -147c-81 0 -147 66 -147 147s66 147 147 147c82 0 148 -66 148 -147z" />
    <glyph glyph-name="paragraph" unicode="&#xb6;" horiz-adv-x="563" 
d="M563 698l-181 -849h-51l167 785h-122l-167 -785h-51l99 462c-90 0 -157 63 -157 153c0 123 118 234 239 234h224z" />
    <glyph glyph-name="germandbls" unicode="&#xdf;" horiz-adv-x="492" 
d="M472 330c0 -31 -5 -62 -11 -91c-28 -133 -97 -237 -245 -241l9 48c120 4 165 87 187 192c6 27 11 54 11 82c0 74 -44 109 -116 110v2h-1l10 49c47 9 88 53 88 101c0 40 -30 68 -70 68c-97 0 -134 -67 -152 -151l-154 -724h-48l154 724c24 112 86 199 210 199
c62 0 109 -43 109 -106c0 -50 -29 -96 -67 -126c62 -23 86 -73 86 -136z" />
    <glyph glyph-name="registered" unicode="&#xae;" horiz-adv-x="790" 
d="M745 348c0 -193 -157 -350 -350 -350s-350 157 -350 350s157 350 350 350s350 -157 350 -350zM702 348c0 169 -138 307 -307 307s-307 -138 -307 -307s138 -307 307 -307s307 138 307 307zM549 160h-57l-72 121c-12 20 -24 40 -50 40h-48v-161h-48v377h134
c72 0 125 -33 125 -110c0 -50 -34 -102 -88 -102c6 -6 12 -12 16 -19zM485 427c0 50 -33 62 -77 62h-86v-126h86c44 0 77 14 77 64z" />
    <glyph glyph-name="copyright" unicode="&#xa9;" horiz-adv-x="790" 
d="M745 348c0 -193 -157 -350 -350 -350s-350 157 -350 350s157 350 350 350s350 -157 350 -350zM702 348c0 169 -138 307 -307 307s-307 -138 -307 -307s138 -307 307 -307s307 138 307 307zM520 213c-33 -39 -65 -60 -117 -60c-114 0 -154 97 -154 195s40 195 154 195
c52 0 84 -21 117 -60l-37 -31c-23 27 -43 43 -80 43c-85 0 -104 -77 -104 -147c0 -69 19 -147 104 -147c37 0 57 16 80 43z" />
    <glyph glyph-name="trademark" unicode="&#x2122;" horiz-adv-x="483" 
d="M519 698l-45 -209h-24l32 152l-91 -152h-27l-26 151l-33 -151h-24l44 209h24l33 -183l111 183h26zM301 698l-5 -25h-68l-40 -184h-24l39 184h-68l5 25h161z" />
    <glyph glyph-name="acute" unicode="&#xb4;" horiz-adv-x="293" 
d="M313 691l-126 -146h-57l116 146h67z" />
    <glyph glyph-name="dieresis" unicode="&#xa8;" horiz-adv-x="456" 
d="M446 595c0 -28 -26 -53 -54 -53c-20 0 -35 14 -35 34c0 28 26 53 54 53c20 0 35 -14 35 -34zM239 595c0 -28 -27 -53 -54 -53c-20 0 -35 14 -35 34c0 28 26 53 54 53c19 0 35 -14 35 -34z" />
    <glyph glyph-name="notequal" unicode="&#x2260;" horiz-adv-x="530" 
d="M500 364l-11 -49h-156l-75 -130h203l-10 -49h-221l-60 -103l-33 13l52 90h-139l10 49h157l75 130h-204l11 49h221l60 103l33 -13l-52 -90h139z" />
    <glyph glyph-name="AE" unicode="&#xc6;" horiz-adv-x="972" 
d="M1012 698l-11 -50h-359l-55 -259h311l-11 -51h-311l-61 -288h359l-11 -50h-409v0h-1l46 213h-277l-146 -213h-56l479 698h513zM591 648h-71l-265 -387h254z" />
    <glyph glyph-name="Oslash" unicode="&#xd8;" horiz-adv-x="636" 
d="M636 697l-52 -68c28 -42 41 -98 41 -162c0 -213 -112 -476 -359 -476c-60 0 -105 17 -138 46l-28 -37h-55l54 71c-27 42 -39 97 -39 160c0 213 111 476 358 476c59 0 104 -17 137 -45l26 35h55zM522 620c-26 23 -62 36 -111 36c-216 0 -300 -243 -300 -423
c0 -45 6 -86 23 -118zM574 465c0 46 -7 87 -25 119l-388 -505c25 -23 62 -37 112 -37c213 0 301 244 301 423z" />
    <glyph glyph-name="infinity" unicode="&#x221e;" horiz-adv-x="766" 
d="M746 288c0 -91 -74 -163 -165 -163c-71 0 -134 54 -180 102c-59 -42 -148 -102 -223 -102c-63 0 -108 40 -108 105c0 92 74 163 165 163c71 0 133 -53 180 -101c59 42 148 101 222 101c64 0 109 -40 109 -105zM696 278c0 42 -29 66 -69 66c-57 0 -135 -52 -181 -85
c36 -37 90 -84 145 -84c60 0 105 42 105 103zM370 259c-36 37 -90 85 -145 85c-60 0 -105 -43 -105 -103c0 -43 29 -66 69 -66c57 0 135 52 181 84z" />
    <glyph glyph-name="plusminus" unicode="&#xb1;" horiz-adv-x="535" 
d="M505 299l-11 -51h-175l-38 -175h-50l37 175h-175l11 51h175l37 175h51l-38 -175h176zM451 49l-10 -49h-401l10 49h401z" />
    <glyph glyph-name="lessequal" unicode="&#x2264;" horiz-adv-x="486" 
d="M496 452l-11 -54l-332 -140l272 -140l-11 -54l-325 167l12 54zM411 51l-11 -51h-360l11 51h360z" />
    <glyph glyph-name="greaterequal" unicode="&#x2265;" horiz-adv-x="491" 
d="M461 285l-12 -54l-395 -167l11 54l332 140l-272 140l11 54zM411 51l-11 -51h-360l11 51h360z" />
    <glyph glyph-name="yen" unicode="&#xa5;" horiz-adv-x="628" 
d="M668 698l-226 -324h92l-21 -48h-105l-61 -88h158l-21 -48h-151l-41 -190h-50l40 190h-162l20 48h149l-24 88h-116l20 48h83l-89 324h56l111 -403l282 403h56z" />
    <glyph glyph-name="mu" unicode="&#xb5;" horiz-adv-x="537" 
d="M517 478l-102 -478h-48l10 47c-40 -33 -92 -53 -146 -53c-59 0 -105 20 -131 55l-52 -245h-48l143 674h49l-57 -268c-9 -39 -15 -83 -1 -115c15 -33 54 -53 108 -53c51 0 100 23 130 62c11 14 20 30 27 46l70 328h48z" />
    <glyph glyph-name="partialdiff" unicode="&#x2202;" horiz-adv-x="484" 
d="M464 463c0 -86 -13 -174 -32 -257c-24 -108 -123 -209 -238 -209c-93 0 -154 71 -154 162c0 125 114 256 243 256c49 0 95 -21 124 -62c4 33 6 65 6 98c0 61 -11 199 -99 199c-45 0 -91 -34 -121 -64l-33 31c42 42 102 84 165 84c114 0 139 -147 139 -238zM387 242
c0 68 -44 123 -114 123c-99 0 -183 -102 -183 -196c0 -68 44 -123 115 -123c98 0 182 101 182 196z" />
    <glyph glyph-name="summation" unicode="&#x2211;" horiz-adv-x="561" 
d="M551 698l-11 -49h-336l172 -410l-347 -410h337l-10 -49h-396l10 48l348 411l-173 411l10 48h396z" />
    <glyph glyph-name="product" unicode="&#x220f;" horiz-adv-x="621" 
d="M631 752l-202 -949h-48l192 901h-343l-192 -901h-48l202 949h439z" />
    <glyph glyph-name="pi" unicode="&#x3c0;" horiz-adv-x="496" 
d="M496 478l-78 -366c-2 -10 -4 -20 -4 -29c0 -37 29 -35 56 -35l-10 -48h-18c-46 0 -77 25 -77 73c0 13 2 26 4 39l68 318h-257l-92 -430h-48l102 478h354z" />
    <glyph glyph-name="integral" unicode="&#x222b;" horiz-adv-x="392" 
d="M412 698l-11 -48c-65 0 -94 9 -110 -63l-142 -671c-14 -63 -51 -112 -120 -112h-49l10 48c65 0 95 -8 110 64l143 671c13 62 50 111 120 111h49z" />
    <glyph glyph-name="ordfeminine" unicode="&#xaa;" horiz-adv-x="406" 
d="M416 615c0 -8 -1 -15 -2 -22l-51 -241s2 -29 3 -31l-52 -15l-3 28c-36 -22 -77 -35 -121 -35c-57 0 -110 36 -110 98c0 80 86 142 161 142h67c18 0 33 6 47 17c4 16 9 33 9 48c0 37 -36 52 -67 52c-44 0 -94 -22 -115 -62l-45 14c31 63 102 99 171 99
c55 0 108 -32 108 -92zM265 250l-10 -49h-133l10 49h133zM343 496c-14 -5 -26 -8 -41 -8h-72c-40 0 -88 -27 -97 -69c-1 -4 -1 -8 -1 -12c0 -38 35 -57 69 -57c48 0 84 18 121 48z" />
    <glyph glyph-name="ordmasculine" unicode="&#xba;" horiz-adv-x="441" 
d="M431 581c0 -133 -67 -281 -219 -281c-81 0 -132 49 -132 131c0 132 67 276 219 276c80 0 132 -44 132 -126zM268 250l-10 -49h-133l10 49h133zM379 570c0 59 -35 86 -91 86c-115 0 -156 -122 -156 -219c0 -59 34 -86 91 -86c115 0 156 122 156 219z" />
    <glyph glyph-name="Omega" unicode="&#x2126;" horiz-adv-x="636" 
d="M602 581c20 -59 18 -125 -5 -233s-49 -173 -94 -233c-21 -28 -45 -51 -71 -69h90l-1 -46h-174l13 58c38 13 74 40 105 81c39 52 62 109 83 209c21 101 23 158 6 210c-20 58 -62 89 -122 89h-28c-60 0 -116 -31 -160 -89c-39 -52 -62 -109 -83 -210
c-22 -100 -23 -157 -6 -209c13 -41 38 -68 71 -81l-13 -58h-173l18 46h90c-18 18 -32 41 -41 69c-20 60 -18 125 4 233c23 108 50 174 95 233c56 75 130 116 208 116h29c77 0 134 -41 159 -116z" />
    <glyph glyph-name="ae" unicode="&#xe6;" horiz-adv-x="722" 
d="M710 383c0 -121 -235 -151 -322 -153c-5 -23 -9 -47 -9 -71c0 -68 27 -119 102 -119c53 0 84 23 120 59l34 -35c-46 -45 -87 -72 -154 -72c-106 0 -145 76 -144 172c-34 -67 -108 -172 -192 -172c-85 0 -105 92 -105 159c0 150 120 332 283 332c44 0 86 -14 124 -35
l-3 -13c37 31 83 48 131 48c60 0 135 -30 135 -100zM661 381c0 43 -52 54 -86 54c-97 0 -155 -87 -179 -171c61 3 265 33 265 117zM393 424c-23 10 -47 15 -72 15c-133 0 -233 -170 -233 -290c0 -36 8 -108 57 -108c128 0 232 279 248 383z" />
    <glyph glyph-name="oslash" unicode="&#xf8;" horiz-adv-x="478" 
d="M463 333c0 -32 -5 -64 -12 -96c-12 -57 -30 -115 -68 -161c-44 -56 -113 -85 -184 -85c-32 0 -65 6 -93 22l-16 -21h-49l34 45c-27 29 -35 67 -35 106c0 31 5 63 12 94c12 58 30 116 68 162c44 55 114 85 184 85c32 0 64 -6 92 -21l18 24h49l-36 -48
c28 -29 36 -67 36 -106zM414 323c0 25 -4 52 -20 72l-256 -340c21 -12 47 -16 71 -16c125 0 171 91 194 198c6 28 11 57 11 86zM364 421c-22 11 -46 15 -70 15c-126 0 -171 -91 -194 -199c-6 -28 -11 -56 -11 -84c0 -25 4 -51 19 -72z" />
    <glyph glyph-name="questiondown" unicode="&#xbf;" horiz-adv-x="434" 
d="M344 455c0 -25 -25 -48 -50 -48c-18 0 -32 13 -32 32c0 25 24 48 49 48c19 0 33 -13 33 -32zM384 -42c-23 -110 -122 -179 -232 -179c-81 0 -142 42 -142 128c0 128 115 181 182 272c36 50 43 74 60 133h44c-2 -16 -4 -32 -7 -48c-6 -31 -38 -83 -57 -109
c-23 -31 -51 -58 -78 -85c-32 -31 -79 -73 -88 -118c-3 -11 -4 -22 -4 -34c0 -62 43 -89 101 -89c80 0 153 47 171 129h50z" />
    <glyph glyph-name="exclamdown" unicode="&#xa1;" horiz-adv-x="270" 
d="M239 447c-5 -22 -27 -40 -49 -40s-36 18 -31 40s26 40 48 40s36 -18 32 -40zM192 312l-36 -193l-72 -339h-54l72 339l46 193h44z" />
    <glyph glyph-name="logicalnot" unicode="&#xac;" 
d="M471 281l-38 -178h-44l29 135h-358l9 43h402z" />
    <glyph glyph-name="radical" unicode="&#x221a;" horiz-adv-x="579" 
d="M619 693l-11 -49h-96l-312 -644h-52l-88 478h53c17 -94 60 -324 74 -400l298 615h134z" />
    <glyph glyph-name="florin" unicode="&#x192;" horiz-adv-x="331" 
d="M341 698v-48c-45 0 -84 -17 -110 -49c-25 -30 -35 -70 -41 -106l-11 -65h79v-48h-88l-103 -582l-47 8l101 574h-63v48h72l13 73c7 42 19 90 51 129c35 43 87 66 147 66z" />
    <glyph glyph-name="approxequal" unicode="&#x2248;" horiz-adv-x="508" 
d="M498 343c-37 -29 -65 -46 -113 -46c-72 0 -130 44 -197 44c-32 0 -48 -11 -72 -30l-26 31c36 29 65 46 113 46c72 0 129 -44 196 -44c33 0 48 12 72 30zM468 202c-37 -28 -65 -46 -113 -46c-72 0 -130 44 -197 44c-32 0 -48 -11 -72 -30l-26 32c36 28 65 46 113 46
c72 0 129 -44 196 -44c33 0 48 11 73 30z" />
    <glyph glyph-name="Delta" unicode="&#x2206;" horiz-adv-x="619" 
d="M579 0h-539l417 695zM522 46l-91 516l-310 -516h401z" />
    <glyph glyph-name="guillemotleft" unicode="&#xab;" horiz-adv-x="487" 
d="M482 476l-15 -72l-187 -151l123 -151l-13 -62h-1l-157 194l10 48zM310 476l-14 -67l-187 -156l122 -151l-13 -62v0l-158 194l10 48z" />
    <glyph glyph-name="guillemotright" unicode="&#xbb;" horiz-adv-x="487" 
d="M432 282l-10 -48l-240 -194v0l15 71l187 151l-123 151l13 63v0zM261 282l-11 -48l-240 -194v0l15 71l187 151l-123 151l14 63v0z" />
    <glyph glyph-name="ellipsis" unicode="&#x2026;" horiz-adv-x="611" 
d="M511 44c0 -28 -26 -52 -53 -52c-20 0 -35 14 -35 34c0 27 26 52 53 52c20 0 35 -14 35 -34zM305 44c0 -28 -26 -52 -54 -52c-20 0 -35 14 -35 34c0 27 27 52 54 52c20 0 35 -14 35 -34zM99 44c0 -28 -27 -52 -54 -52c-20 0 -35 14 -35 34c0 27 26 52 54 52
c20 0 35 -14 35 -34z" />
    <glyph glyph-name="nbspace" horiz-adv-x="130" 
 />
    <glyph glyph-name="Agrave" unicode="&#xc0;" horiz-adv-x="637" 
d="M488 775h-57l-64 146h67zM572 0h-54l-36 213h-326l-127 -213h-54l415 698h64zM473 261l-64 379l-224 -379h288z" />
    <glyph glyph-name="Atilde" unicode="&#xc3;" horiz-adv-x="669" 
d="M604 818c-27 -27 -53 -49 -92 -49c-57 0 -93 43 -137 43c-23 0 -36 -15 -51 -31l-31 30c26 27 52 49 92 49c56 0 93 -43 136 -43c24 0 37 16 52 31zM572 0h-54l-36 213h-326l-127 -213h-54l415 698h64zM473 261l-64 379l-224 -379h288z" />
    <glyph glyph-name="Otilde" unicode="&#xd5;" horiz-adv-x="646" 
d="M609 818c-27 -27 -53 -49 -92 -49c-57 0 -93 43 -136 43c-24 0 -37 -15 -52 -31l-31 30c26 27 52 49 92 49c56 0 93 -43 136 -43c24 0 37 16 52 31zM635 467c0 -213 -111 -476 -358 -476c-149 0 -207 104 -207 240c0 213 111 476 358 476c149 0 207 -104 207 -240z
M584 465c0 111 -41 191 -163 191c-215 0 -300 -243 -300 -423c0 -111 40 -191 162 -191c213 0 301 250 301 423z" />
    <glyph glyph-name="OE" unicode="&#x152;" horiz-adv-x="1008" 
d="M1057 698l-10 -50h-374l-55 -262h325l-10 -48h-325l-62 -288h374l-11 -50h-424v0l26 123c-59 -81 -142 -132 -244 -132c-143 0 -207 94 -207 227c0 212 112 489 359 489c93 0 163 -39 188 -132l26 123h424zM574 480c0 101 -53 176 -160 176c-212 0 -300 -262 -300 -438
c0 -100 53 -176 159 -176c208 0 301 266 301 438z" />
    <glyph glyph-name="oe" unicode="&#x153;" horiz-adv-x="753" 
d="M741 383c0 -40 -32 -72 -64 -92c-67 -42 -179 -59 -258 -61c-5 -23 -9 -47 -9 -71c0 -68 27 -119 102 -119c54 0 83 22 120 59l34 -35c-47 -46 -86 -72 -154 -72c-72 0 -124 36 -143 106c-39 -65 -108 -107 -186 -107c-92 0 -143 55 -143 146c0 34 6 68 13 100
c12 57 29 115 64 161c40 54 104 86 171 86c68 0 125 -33 140 -103c41 62 102 102 178 102c59 0 117 -22 133 -84c1 -6 2 -11 2 -16zM692 381c0 43 -52 54 -86 54c-97 0 -155 -86 -179 -171c71 3 165 20 225 60c18 12 40 33 40 57zM382 328c0 68 -34 108 -104 108
c-117 0 -156 -102 -177 -199c-6 -29 -12 -59 -12 -90c0 -68 34 -108 105 -108c116 0 156 101 177 198c6 30 11 60 11 91z" />
    <glyph glyph-name="endash" unicode="&#x2013;" horiz-adv-x="485" 
d="M465 299l-11 -51h-394l11 51h394z" />
    <glyph glyph-name="emdash" unicode="&#x2014;" horiz-adv-x="783" 
d="M763 299l-11 -51h-692l11 51h692z" />
    <glyph glyph-name="quotedblleft" unicode="&#x201c;" horiz-adv-x="355" 
d="M395 752l-43 -166c-5 -22 -26 -40 -48 -40s-40 18 -32 40l17 43l101 123h5zM267 752l-42 -166c-6 -22 -27 -40 -49 -40s-39 18 -31 40l16 43l102 123h4z" />
    <glyph glyph-name="quotedblright" unicode="&#x201d;" horiz-adv-x="355" 
d="M386 712l-16 -43l-102 -123h-4l42 166c6 22 26 40 48 40s40 -18 32 -40zM258 712l-16 -43l-102 -123h-4l42 166c6 22 27 40 49 40s39 -18 31 -40z" />
    <glyph glyph-name="quoteleft" unicode="&#x2018;" horiz-adv-x="227" 
d="M267 752l-42 -166c-6 -22 -27 -40 -49 -40s-39 18 -31 40l16 43l102 123h4z" />
    <glyph glyph-name="quoteright" unicode="&#x2019;" horiz-adv-x="227" 
d="M258 712l-16 -43l-102 -123h-4l42 166c6 22 27 40 49 40s39 -18 31 -40z" />
    <glyph glyph-name="divide" unicode="&#xf7;" horiz-adv-x="485" 
d="M338 438c0 -27 -26 -52 -54 -52c-20 0 -35 14 -35 34c0 28 26 53 54 53c20 0 35 -14 35 -35zM465 299l-11 -51h-394l11 51h394zM272 128c0 -28 -26 -53 -54 -53c-20 0 -35 14 -35 34c0 28 26 53 54 53c20 0 35 -14 35 -34z" />
    <glyph glyph-name="lozenge" unicode="&#x25ca;" horiz-adv-x="508" 
d="M478 345l-282 -341l-136 341l281 340zM427 345c-13 32 -73 182 -103 257c-62 -75 -187 -225 -213 -257c13 -32 73 -183 103 -258c62 75 186 226 213 258z" />
    <glyph glyph-name="ydieresis" unicode="&#xff;" horiz-adv-x="463" 
d="M467 595c0 -28 -26 -53 -54 -53c-20 0 -35 14 -35 34c0 28 27 53 54 53c20 0 35 -14 35 -34zM260 595c0 -28 -27 -53 -54 -53c-20 0 -35 14 -35 34c0 28 26 53 54 53c20 0 35 -14 35 -34zM491 478l-351 -600c-13 -21 -29 -45 -54 -65c-29 -22 -63 -33 -97 -33h-19l11 48
h19c22 0 43 7 61 21c16 12 28 30 37 46l45 76c19 32 29 48 18 114l-63 393h51l63 -389l228 389h51z" />
    <glyph glyph-name="Ydieresis" unicode="&#x178;" horiz-adv-x="531" 
d="M541 827c0 -27 -27 -52 -54 -52c-20 0 -35 14 -35 34c0 28 26 53 54 53c20 0 35 -14 35 -35zM334 827c0 -27 -27 -52 -54 -52c-20 0 -35 14 -35 34c0 28 26 53 53 53c20 0 36 -14 36 -35zM599 698l-304 -468l-49 -230h-51l50 233l-107 465h54l91 -398l259 398h57z" />
    <glyph glyph-name="fraction" unicode="&#x2044;" horiz-adv-x="183" 
d="M383 698l-450 -698h-53l451 698h52z" />
    <glyph glyph-name="currency" unicode="&#xa4;" horiz-adv-x="617" 
d="M639 642l-27 -47c-35 46 -70 61 -129 61c-77 0 -146 -33 -200 -96c-33 -39 -56 -80 -74 -138h255l-21 -48h-247c-2 -10 -5 -20 -7 -30c-4 -21 -8 -40 -10 -58h256l-21 -48h-240c-3 -42 3 -75 16 -106c32 -74 100 -90 152 -90c58 0 101 15 154 58l26 -44
c-60 -46 -113 -65 -180 -65c-94 0 -165 43 -198 121c-16 37 -23 77 -21 126h-73l20 48h58c2 21 6 44 12 68c1 7 2 14 4 20h-65l20 48h57c21 73 48 124 88 170c63 74 148 115 239 115c68 0 115 -19 156 -65z" />
    <glyph glyph-name="guilsinglleft" unicode="&#x2039;" horiz-adv-x="321" 
d="M301 476l-15 -71l-186 -151l122 -151l-14 -63v0l-158 194l10 48l240 194h1z" />
    <glyph glyph-name="guilsinglright" unicode="&#x203a;" horiz-adv-x="311" 
d="M261 282l-11 -48l-240 -194v0l15 70l187 151l-123 151l14 64v0z" />
    <glyph glyph-name="fi" unicode="&#xfb01;" horiz-adv-x="460" 
d="M480 662c-5 -20 -24 -36 -44 -36s-33 16 -29 36s24 36 44 36s33 -16 29 -36zM428 478l-101 -478h-48l91 430h-173l-97 -454c-9 -42 -23 -91 -57 -131c-37 -44 -92 -68 -153 -68l10 48c26 0 74 6 108 46c25 30 37 70 44 105l96 454h-48l11 48h48l4 21c9 43 23 91 57 131
c38 44 92 68 153 68l-10 -48c-26 0 -74 -6 -108 -46c-25 -29 -36 -70 -44 -105l-4 -21h221z" />
    <glyph glyph-name="fl" unicode="&#xfb02;" horiz-adv-x="472" 
d="M482 698l-125 -586c-3 -16 -6 -34 -1 -46c7 -15 23 -18 36 -18l-11 -48c-34 0 -60 15 -71 40c-9 22 -6 49 -1 72l115 538h-61c-26 0 -74 -6 -108 -46c-25 -29 -36 -70 -44 -105l-4 -21h89l-10 -48h-89l-97 -454c-9 -42 -23 -91 -57 -131c-37 -44 -92 -68 -153 -68l10 48
c26 0 74 6 108 46c25 30 37 70 44 105l96 454h-48l11 48h48l4 21c9 43 23 91 57 131c38 44 92 68 153 68h109z" />
    <glyph glyph-name="daggerdbl" unicode="&#x2021;" horiz-adv-x="506" 
d="M526 478l-10 -50h-170l-76 -358h170l-11 -50h-170l-47 -220h-49l47 220h-170l10 50h170l77 358h-170l10 50h170l47 220h49l-47 -220h170z" />
    <glyph glyph-name="periodcentered" unicode="&#xb7;" horiz-adv-x="229" 
d="M168 265c-5 -24 -29 -44 -53 -44s-39 20 -34 44s29 43 53 43s39 -19 34 -43z" />
    <glyph glyph-name="quotesinglbase" unicode="&#x201a;" horiz-adv-x="227" 
d="M117 48l-16 -43l-102 -123h-4l42 166c6 22 27 40 49 40s39 -18 31 -40z" />
    <glyph glyph-name="quotedblbase" unicode="&#x201e;" horiz-adv-x="355" 
d="M245 48l-17 -43l-101 -123h-5l43 166c5 22 26 40 48 40s40 -18 32 -40zM117 48l-16 -43l-102 -123h-4l42 166c6 22 27 40 49 40s39 -18 31 -40z" />
    <glyph glyph-name="perthousand" unicode="&#x2030;" horiz-adv-x="972" 
d="M942 261c0 -25 -4 -50 -9 -75c-10 -48 -24 -92 -56 -130c-33 -40 -78 -66 -130 -66s-91 27 -106 77c-33 -46 -81 -77 -138 -77c-74 0 -112 52 -112 122c0 25 4 50 9 74c10 49 24 93 56 131c33 40 78 66 130 66s91 -27 106 -77c33 45 81 77 139 77c73 0 111 -52 111 -122z
M387 586c0 -25 -4 -50 -9 -75c-10 -48 -24 -92 -56 -131c-33 -39 -78 -66 -130 -66c-73 0 -112 53 -112 122c0 25 4 50 10 75c10 48 24 92 56 131s77 66 129 66c74 0 112 -52 112 -122zM641 698l-451 -698h-53l451 698h53zM898 252c0 49 -24 88 -77 88
c-76 0 -115 -73 -129 -138c-2 -5 -2 -10 -4 -16c-4 -21 -9 -43 -9 -65c0 -49 24 -88 77 -88c84 0 119 84 134 153c4 22 8 44 8 66zM343 577c0 49 -24 87 -77 87c-84 0 -118 -84 -133 -153c-5 -21 -9 -43 -9 -65c0 -49 24 -88 77 -88c84 0 119 84 133 153c5 22 9 44 9 66z
M654 252c0 49 -24 88 -77 88c-84 0 -119 -84 -133 -154c-5 -21 -9 -43 -9 -65c0 -49 24 -88 77 -88c76 0 115 73 130 138l3 15c4 22 9 43 9 66z" />
    <glyph glyph-name="Acircumflex" unicode="&#xc2;" horiz-adv-x="637" 
d="M571 775h-60l-46 122l-97 -122h-67l126 146h80zM572 0h-54l-36 213h-326l-127 -213h-54l415 698h64zM473 261l-64 379l-224 -379h288z" />
    <glyph glyph-name="Ecircumflex" unicode="&#xca;" horiz-adv-x="574" 
d="M542 775h-59l-46 122l-97 -122h-67l126 146h80zM612 698l-10 -50h-374l-55 -262h325l-10 -48h-325l-62 -288h374l-11 -50h-424v0l148 698h424z" />
    <glyph glyph-name="Aacute" unicode="&#xc1;" horiz-adv-x="637" 
d="M569 921l-126 -146h-57l116 146h67zM572 0h-54l-36 213h-326l-127 -213h-54l415 698h64zM473 261l-64 379l-224 -379h288z" />
    <glyph glyph-name="Edieresis" unicode="&#xcb;" horiz-adv-x="574" 
d="M581 827c0 -27 -26 -52 -53 -52c-20 0 -36 14 -36 34c0 28 27 53 54 53c20 0 35 -14 35 -35zM374 827c0 -27 -26 -52 -54 -52c-20 0 -35 14 -35 34c0 28 27 53 54 53c20 0 35 -14 35 -35zM612 698l-10 -50h-374l-55 -262h325l-10 -48h-325l-62 -288h374l-11 -50h-424v0
l148 698h424z" />
    <glyph glyph-name="Egrave" unicode="&#xc8;" horiz-adv-x="574" 
d="M466 775h-49l-71 146h67zM612 698l-10 -50h-374l-55 -262h325l-10 -48h-325l-62 -288h374l-11 -50h-424v0l148 698h424z" />
    <glyph glyph-name="Iacute" unicode="&#xcd;" horiz-adv-x="354" 
d="M367 921l-119 -146h-60l110 146h69zM244 698l-148 -698h-51l148 698h51z" />
    <glyph glyph-name="Icircumflex" unicode="&#xce;" horiz-adv-x="355" 
d="M368 775h-59l-46 122l-97 -122h-63l126 146h76zM244 698l-148 -698h-51l148 698h51z" />
    <glyph glyph-name="Idieresis" unicode="&#xcf;" horiz-adv-x="375" 
d="M387 818c-5 -24 -28 -43 -52 -43s-40 19 -35 43c6 24 29 44 53 44s39 -20 34 -44zM190 818c-5 -24 -29 -43 -52 -43c-24 0 -40 19 -35 43s29 44 53 44s39 -20 34 -44zM244 698l-148 -698h-51l148 698h51z" />
    <glyph glyph-name="Igrave" unicode="&#xcc;" horiz-adv-x="269" 
d="M283 775h-48l-73 146h67zM244 698l-148 -698h-51l148 698h51z" />
    <glyph glyph-name="Oacute" unicode="&#xd3;" horiz-adv-x="646" 
d="M593 921l-124 -146h-57l114 146h67zM635 467c0 -213 -111 -476 -358 -476c-149 0 -207 104 -207 240c0 213 112 476 359 476c149 0 206 -104 206 -240zM584 465c0 111 -40 191 -163 191c-215 0 -300 -243 -300 -423c0 -111 40 -191 162 -191c213 0 301 244 301 423z" />
    <glyph glyph-name="Ocircumflex" unicode="&#xd4;" horiz-adv-x="646" 
d="M590 775h-60l-45 122l-98 -122h-61l126 146h74zM635 467c0 -213 -111 -476 -358 -476c-149 0 -207 104 -207 240c0 213 112 476 359 476c149 0 206 -104 206 -240zM584 465c0 111 -40 191 -163 191c-215 0 -300 -243 -300 -423c0 -111 40 -191 162 -191
c213 0 301 244 301 423z" />
    <glyph glyph-name="Ograve" unicode="&#xd2;" horiz-adv-x="646" 
d="M508 775h-47l-74 146h67zM635 467c0 -213 -111 -476 -358 -476c-149 0 -207 104 -207 240c0 213 112 476 359 476c149 0 206 -104 206 -240zM584 465c0 111 -40 191 -163 191c-215 0 -300 -243 -300 -423c0 -111 40 -191 162 -191c213 0 301 244 301 423z" />
    <glyph glyph-name="Uacute" unicode="&#xda;" horiz-adv-x="629" 
d="M583 921l-126 -146h-57l116 146h67zM658 698l-85 -397c-36 -172 -99 -308 -298 -308c-125 0 -195 71 -195 196c0 37 5 75 13 112l85 397h50l-84 -397c-8 -36 -13 -72 -13 -109c0 -95 42 -151 145 -151c165 0 216 120 246 260l84 397h52z" />
    <glyph glyph-name="Ucircumflex" unicode="&#xdb;" horiz-adv-x="629" 
d="M570 775h-55l-47 122l-96 -122h-60l123 146h76zM658 698l-85 -397c-36 -172 -99 -308 -298 -308c-125 0 -195 71 -195 196c0 37 5 75 13 112l85 397h50l-84 -397c-8 -36 -13 -72 -13 -109c0 -95 42 -151 145 -151c165 0 216 120 246 260l84 397h52z" />
    <glyph glyph-name="Ugrave" unicode="&#xd9;" horiz-adv-x="629" 
d="M494 775h-47l-74 146h67zM658 698l-85 -397c-36 -172 -99 -308 -298 -308c-125 0 -195 71 -195 196c0 37 5 75 13 112l85 397h50l-84 -397c-8 -36 -13 -72 -13 -109c0 -95 42 -151 145 -151c165 0 216 119 246 260l84 397h52z" />
    <glyph glyph-name="dotlessi" unicode="&#x131;" horiz-adv-x="219" 
d="M189 487l-103 -487h-51l104 487h50z" />
    <glyph glyph-name="circumflex" unicode="&#x2c6;" horiz-adv-x="340" 
d="M380 533h-60l-48 122l-95 -122h-63l126 146h76z" />
    <glyph glyph-name="tilde" unicode="&#x2dc;" horiz-adv-x="351" 
d="M411 595c-26 -27 -52 -49 -92 -49c-56 0 -93 43 -136 43c-24 0 -37 -16 -52 -31l-31 30c27 27 52 49 92 49c57 0 93 -43 136 -43c24 0 37 15 52 31z" />
    <glyph glyph-name="macron" unicode="&#xaf;" horiz-adv-x="435" 
d="M465 640l-11 -48h-294l10 48h295z" />
    <glyph glyph-name="breve" unicode="&#x2d8;" horiz-adv-x="412" 
d="M462 698c-40 -67 -114 -123 -195 -123c-75 0 -131 50 -142 123h49c15 -47 54 -75 103 -75c54 0 104 33 135 75h50z" />
    <glyph glyph-name="dotaccent" unicode="&#x2d9;" horiz-adv-x="219" 
d="M244 595c0 -28 -27 -53 -54 -53c-20 0 -35 14 -35 34c0 28 26 53 54 53c20 0 35 -14 35 -34z" />
    <glyph glyph-name="ring" unicode="&#x2da;" horiz-adv-x="353" 
d="M383 673c0 -73 -71 -141 -144 -141c-54 0 -94 38 -94 93c0 73 71 140 144 140c54 0 94 -37 94 -92zM334 663c0 32 -24 54 -55 54c-43 0 -85 -39 -85 -82c0 -32 24 -54 56 -54c42 0 84 39 84 82z" />
    <glyph glyph-name="cedilla" unicode="&#xb8;" horiz-adv-x="418" 
d="M238 -71l-117 -125h-66l136 129v73l47 17v-94z" />
    <glyph glyph-name="hungarumlaut" unicode="&#x2dd;" horiz-adv-x="375" 
d="M440 716l-126 -146h-57l116 146h67zM293 716l-126 -146h-57l116 146h67z" />
    <glyph glyph-name="ogonek" unicode="&#x2db;" horiz-adv-x="377" 
d="M177 -196h-66l-56 196h52z" />
    <glyph glyph-name="caron" unicode="&#x2c7;" horiz-adv-x="348" 
d="M398 679l-126 -146h-83l-64 146h63l45 -123l98 123h67z" />
    <glyph glyph-name="Eth" unicode="&#xd0;" horiz-adv-x="669" 
d="M615 511c-2 -25 -14 -104 -26 -162c-13 -58 -34 -137 -42 -161c-27 -78 -70 -129 -131 -157c-59 -27 -128 -31 -187 -31h-203l68 322h-43l11 51h43l69 325h204c59 0 126 -4 174 -31c49 -27 69 -78 63 -156zM564 504c5 61 -10 98 -45 118c-39 22 -99 26 -152 26h-153
l-58 -275h163l-11 -51h-163l-58 -271h153c53 0 114 3 163 25c44 20 74 57 95 118c8 23 28 100 40 155c12 56 24 132 26 155z" />
    <glyph glyph-name="Euro" unicode="&#x20ac;" horiz-adv-x="617" 
d="M639 642l-27 -47c-35 46 -70 61 -129 61c-77 0 -146 -33 -200 -96c-33 -39 -56 -80 -74 -138h255l-21 -48h-247c-2 -10 -5 -20 -7 -30c-4 -21 -8 -40 -10 -58h256l-21 -48h-240c-3 -42 3 -75 16 -106c32 -74 100 -90 152 -90c58 0 101 15 154 58l26 -44
c-60 -46 -113 -65 -180 -65c-94 0 -165 43 -198 121c-16 37 -23 77 -21 126h-73l20 48h58c2 21 6 44 12 68c1 7 2 14 4 20h-65l20 48h57c21 73 48 124 88 170c63 74 148 115 239 115c68 0 115 -19 156 -65z" />
    <glyph glyph-name="uni00A0" unicode="&#xa0;" horiz-adv-x="130" 
 />
    <glyph glyph-name="apple" unicode="&#xf8ff;" horiz-adv-x="500" 
 />
    </font>
</defs>
</svg>
